<?xml version="1.0" encoding="UTF-8"?>
<svg id="Layer_2" data-name="Layer 2" xmlns="http://www.w3.org/2000/svg" viewBox="0 0 200.68 200.68">
  <defs>
    <style>
      .cls-1 {
        fill: #fff;
      }
    </style>
  </defs>
  <g id="Layer_1-2" data-name="Layer 1">
    <g>
      <rect width="200.68" height="200.68" rx="29.06" ry="29.06"/>
      <g>
        <path class="cls-1" d="M130.57,179.85c-7.72,2.37-15.91,3.64-24.4,3.64-45.92,0-83.15-37.22-83.15-83.15S60.25,17.19,106.17,17.19c8.5,0,16.68,1.27,24.4,3.64-34.01,10.42-58.75,42.08-58.75,79.51s24.73,69.08,58.75,79.51Z"/>
        <path class="cls-1" d="M177.66,89.39c0,23.63-17.36,42.79-38.79,42.79s-38.79-19.16-38.79-42.79c0-35.95,38.79-62.01,38.79-62.01,0,0,38.79,27.67,38.79,62.01Z"/>
      </g>
    </g>
  </g>
</svg>