<?xml version="1.0" encoding="UTF-8"?>
<svg id="Layer_2" data-name="Layer 2" xmlns="http://www.w3.org/2000/svg" viewBox="0 0 326.1 43.45">
  <defs>
    <style>
      .cls-1 {
        fill: #fff;
      }
    </style>
  </defs>
  <g id="Layer_1-2" data-name="Layer 1">
    <g>
      <polygon class="cls-1" points="0 43.45 0 0 21.73 19.31 43.45 0 43.45 43.45 0 43.45"/>
      <path class="cls-1" d="M72.14,43.45c-12,0-21.73-9.73-21.73-21.73S60.14,0,72.14,0s21.73,9.73,21.73,21.73-9.73,21.73-21.73,21.73Z"/>
      <path class="cls-1" d="M120.68,43.45c-12,0-21.73-9.73-21.73-21.73S108.68,0,120.68,0s21.73,9.73,21.73,21.73-9.73,21.73-21.73,21.73Z"/>
      <path class="cls-1" d="M192.83,21.73v21.73h-43.45V0h21.73c12,0,21.73,9.73,21.73,21.73Z"/>
      <rect class="cls-1" x="200.73" width="21.73" height="43.45"/>
      <path class="cls-1" d="M274.75,21.73v21.73h-43.45V0h21.73c12,0,21.73,9.73,21.73,21.73Z"/>
      <polygon class="cls-1" points="326.1 43.45 282.65 43.45 282.65 0 326.1 0 304.37 21.73 326.1 43.45"/>
    </g>
  </g>
</svg>