<?xml version="1.0" encoding="UTF-8"?>
<svg id="Layer_2" data-name="Layer 2" xmlns="http://www.w3.org/2000/svg" viewBox="0 0 326.1 223.9">
  <defs>
    <style>
      .cls-1 {
        fill: #fff;
      }
    </style>
  </defs>
  <g id="Layer_1-2" data-name="Layer 1">
    <g>
      <g>
        <path class="cls-1" d="M190.32,146.73c-6.96,2.14-14.35,3.29-22.01,3.29-41.43,0-75.01-33.58-75.01-75.01S126.88,0,168.31,0c7.66,0,15.05,1.15,22.01,3.29-30.69,9.4-53,37.96-53,71.72s22.31,62.32,53,71.72Z"/>
        <path class="cls-1" d="M232.8,65.13c0,21.32-15.66,38.6-34.99,38.6s-34.99-17.28-34.99-38.6c0-32.43,34.99-55.94,34.99-55.94,0,0,34.99,24.96,34.99,55.94Z"/>
      </g>
      <g>
        <polygon class="cls-1" points="0 223.9 0 180.45 21.73 199.76 43.45 180.45 43.45 223.9 0 223.9"/>
        <path class="cls-1" d="M72.14,223.9c-12,0-21.73-9.73-21.73-21.73s9.73-21.73,21.73-21.73,21.73,9.73,21.73,21.73-9.73,21.73-21.73,21.73Z"/>
        <path class="cls-1" d="M120.68,223.9c-12,0-21.73-9.73-21.73-21.73s9.73-21.73,21.73-21.73,21.73,9.73,21.73,21.73-9.73,21.73-21.73,21.73Z"/>
        <path class="cls-1" d="M192.83,202.17v21.73h-43.45v-43.45h21.73c12,0,21.73,9.73,21.73,21.73Z"/>
        <rect class="cls-1" x="200.73" y="180.45" width="21.73" height="43.45"/>
        <path class="cls-1" d="M274.75,202.17v21.73h-43.45v-43.45h21.73c12,0,21.73,9.73,21.73,21.73Z"/>
        <polygon class="cls-1" points="326.1 223.9 282.65 223.9 282.65 180.45 326.1 180.45 304.37 202.17 326.1 223.9"/>
      </g>
    </g>
  </g>
</svg>