<?xml version="1.0" encoding="UTF-8"?>
<svg id="Layer_2" data-name="Layer 2" xmlns="http://www.w3.org/2000/svg" viewBox="0 0 634.8 117.57">
  <g id="Layer_1-2" data-name="Layer 1">
    <g>
      <path d="M58.79,0c-7.94,0-15.51,1.57-22.42,4.43C15.02,13.24,0,34.26,0,58.79c0,32.46,26.32,58.79,58.79,58.79,24.53,0,45.55-15.03,54.36-36.37,2.86-6.91,4.43-14.47,4.43-22.41C117.57,26.32,91.26,0,58.79,0Zm25.02,28.24s7.63,7.71,7.63,12.16-3.41,8.06-7.63,8.06-7.63-3.61-7.63-8.06,7.63-12.16,7.63-12.16Zm0,30.32s7.63,7.71,7.63,12.16-3.41,8.06-7.63,8.06-7.63-3.61-7.63-8.06,7.63-12.16,7.63-12.16ZM61.53,13.08s7.63,7.71,7.63,12.16-3.41,8.06-7.63,8.06-7.63-3.61-7.63-8.06,7.63-12.16,7.63-12.16Zm0,30.32s7.63,7.71,7.63,12.16-3.41,8.06-7.63,8.06-7.63-3.61-7.63-8.06,7.63-12.16,7.63-12.16Zm-2.74,67.53c-28.76,0-52.14-23.4-52.14-52.14,0-19.6,10.87-36.71,26.9-45.61-1.06,4.38-1.61,8.96-1.61,13.67,0,32.47,26.32,58.79,58.79,58.79,4.71,0,9.29-.55,13.68-1.61-8.9,16.04-26.01,26.91-45.61,26.91Z"/>
      <g>
        <path d="M254.98,16.08V101.5c0,1.02-.76,1.78-1.78,1.78h-9.17c-1.02,0-1.78-.76-1.78-1.78V30.59c0-1.02-1.4-1.15-1.65-.25l-24.06,71.8c-.26,.64-1.02,1.15-1.79,1.15h-13.75c-.64,0-1.4-.51-1.65-1.15l-24.7-71.8c-.25-.89-1.65-.77-1.65,.25V101.5c0,1.02-.76,1.78-1.78,1.78h-9.16c-1.02,0-1.78-.76-1.78-1.78V16.08c0-1.01,.76-1.78,1.78-1.78h18.08c.76,0,1.4,.51,1.65,1.15l25.33,73.46c.26,.76,1.4,.76,1.65,0L233.6,15.44c.25-.64,.89-1.15,1.65-1.15h17.95c1.02,0,1.78,.77,1.78,1.78Z"/>
        <path d="M333.52,71.45c0,18.33-14.77,33.1-33.1,33.1s-32.97-14.77-32.97-33.1,14.77-32.97,32.97-32.97,33.1,14.77,33.1,32.97Zm-11.46,0c0-11.97-9.68-21.64-21.64-21.64s-21.52,9.8-21.52,21.64,9.68,21.64,21.52,21.64,21.64-9.68,21.64-21.64Z"/>
        <path d="M408.23,71.45c0,18.33-14.77,33.1-33.1,33.1s-32.97-14.77-32.97-33.1,14.77-32.97,32.97-32.97,33.1,14.77,33.1,32.97Zm-11.46,0c0-11.97-9.68-21.64-21.64-21.64s-21.52,9.8-21.52,21.64,9.68,21.64,21.52,21.64,21.64-9.68,21.64-21.64Z"/>
        <path d="M475.18,45.1v56.39c0,1.02-.76,1.78-1.78,1.78h-8.53c-.89,0-1.78-.76-1.78-1.78V52.61c0-.89-.76-1.65-1.78-1.65h-27.5c-1.15,0-1.78,.76-1.78,1.78v48.76c0,.89-.64,1.65-1.4,1.78h-8.91c-1.02,0-1.78-.76-1.78-1.78V45.1c0-2.93,2.42-5.35,5.34-5.35h44.69c2.93,0,5.22,2.42,5.22,5.35Z"/>
        <path d="M487.9,19.9c0-3.82,3.18-6.87,7-6.87s7,3.05,7,6.87-3.18,7-7,7-7-3.05-7-7Zm12.98,21.64v59.96c0,1.02-.77,1.78-1.78,1.78h-8.53c-1.02,0-1.78-.76-1.78-1.78V41.54c0-1.02,.76-1.78,1.78-1.78h8.53c1.01,0,1.78,.76,1.78,1.78Z"/>
        <path d="M569.63,45.1v56.39c0,1.02-.76,1.78-1.78,1.78h-8.53c-.89,0-1.78-.76-1.78-1.78V52.61c0-.89-.76-1.65-1.78-1.65h-27.5c-1.15,0-1.78,.76-1.78,1.78v48.76c0,.89-.64,1.65-1.4,1.78h-8.91c-1.02,0-1.78-.76-1.78-1.78V45.1c0-2.93,2.42-5.35,5.34-5.35h44.69c2.93,0,5.22,2.42,5.22,5.35Z"/>
        <path d="M634.8,70.31v31.32c0,.76-.64,1.53-1.4,1.65h-9.3c-.76-.13-1.4-.89-1.4-1.65v-23.93c0-.89-.76-1.78-1.78-1.78h-22.53c-.89,0-1.65,.89-1.65,1.78v23.93c0,.76-.64,1.53-1.53,1.65h-9.17c-.76-.13-1.27-.64-1.4-1.4V15.82c.13-.76,.89-1.4,1.78-1.4h8.53c.89,0,1.78,.77,1.78,1.79v47.86c0,.64,.26,.89,.76,.89h1.15c.76,0,1.27-.64,1.27-.64l20.5-24.06c.38-.25,.76-.51,1.27-.51h11.33c1.53,0,2.42,2.04,1.15,3.06l-18.08,21.38c-.38,.38-.13,.76,.25,.76h13.11c2.93,0,5.35,2.42,5.35,5.35Z"/>
      </g>
    </g>
  </g>
</svg>