<?xml version="1.0" encoding="UTF-8"?>
<svg id="Layer_2" data-name="Layer 2" xmlns="http://www.w3.org/2000/svg" viewBox="0 0 117.58 117.57">
  <defs>
    <style>
      .cls-1 {
        fill: #fff;
      }
    </style>
  </defs>
  <g id="Layer_1-2" data-name="Layer 1">
    <g>
      <path class="cls-1" d="M58.79,0c-7.94,0-15.51,1.57-22.42,4.43C15.02,13.24,0,34.25,0,58.79c0,32.46,26.32,58.78,58.79,58.78,24.53,0,45.55-15.02,54.36-36.37,2.85-6.91,4.43-14.48,4.43-22.41C117.58,26.32,91.26,0,58.79,0Zm25.02,28.24s7.62,7.7,7.62,12.15-3.41,8.06-7.62,8.06-7.63-3.61-7.63-8.06,7.63-12.15,7.63-12.15Zm0,30.32s7.62,7.71,7.62,12.16-3.41,8.05-7.62,8.05-7.63-3.6-7.63-8.05,7.63-12.16,7.63-12.16ZM61.53,13.08s7.63,7.7,7.63,12.15-3.42,8.06-7.63,8.06-7.62-3.61-7.62-8.06,7.62-12.15,7.62-12.15Zm0,30.32s7.63,7.71,7.63,12.16-3.42,8.05-7.63,8.05-7.62-3.6-7.62-8.05,7.62-12.16,7.62-12.16Zm-2.74,67.53c-28.76,0-52.14-23.4-52.14-52.14,0-19.61,10.87-36.72,26.9-45.62-1.06,4.38-1.61,8.96-1.61,13.67,0,32.47,26.32,58.79,58.79,58.79,4.71,0,9.28-.55,13.67-1.61-8.9,16.04-26.01,26.91-45.61,26.91Z"/>
      <path class="cls-1" d="M104.4,84.02c-8.9,16.04-26.01,26.91-45.61,26.91-28.76,0-52.14-23.4-52.14-52.14,0-19.61,10.87-36.72,26.9-45.62-1.06,4.38-1.61,8.96-1.61,13.67,0,32.47,26.32,58.79,58.79,58.79,4.71,0,9.28-.55,13.67-1.61Z"/>
      <path d="M58.79,0c-7.94,0-15.51,1.57-22.42,4.43C15.02,13.24,0,34.25,0,58.79c0,32.46,26.32,58.78,58.79,58.78,24.53,0,45.55-15.02,54.36-36.37,2.85-6.91,4.43-14.48,4.43-22.41C117.58,26.32,91.26,0,58.79,0Zm25.02,28.24s7.62,7.7,7.62,12.15-3.41,8.06-7.62,8.06-7.63-3.61-7.63-8.06,7.63-12.15,7.63-12.15Zm0,30.32s7.62,7.71,7.62,12.16-3.41,8.05-7.62,8.05-7.63-3.6-7.63-8.05,7.63-12.16,7.63-12.16ZM61.53,13.08s7.63,7.7,7.63,12.15-3.42,8.06-7.63,8.06-7.62-3.61-7.62-8.06,7.62-12.15,7.62-12.15Zm0,30.32s7.63,7.71,7.63,12.16-3.42,8.05-7.63,8.05-7.62-3.6-7.62-8.05,7.62-12.16,7.62-12.16Zm-2.74,67.53c-28.76,0-52.14-23.4-52.14-52.14,0-19.61,10.87-36.72,26.9-45.62-1.06,4.38-1.61,8.96-1.61,13.67,0,32.47,26.32,58.79,58.79,58.79,4.71,0,9.28-.55,13.67-1.61-8.9,16.04-26.01,26.91-45.61,26.91Z"/>
      <path class="cls-1" d="M91.43,70.72c0,4.45-3.41,8.05-7.62,8.05s-7.63-3.6-7.63-8.05,7.63-12.16,7.63-12.16c0,0,7.62,7.71,7.62,12.16Z"/>
      <path class="cls-1" d="M91.43,40.39c0,4.45-3.41,8.06-7.62,8.06s-7.63-3.61-7.63-8.06,7.63-12.15,7.63-12.15c0,0,7.62,7.7,7.62,12.15Z"/>
      <path class="cls-1" d="M69.16,25.23c0,4.45-3.42,8.06-7.63,8.06s-7.62-3.61-7.62-8.06,7.62-12.15,7.62-12.15c0,0,7.63,7.7,7.63,12.15Z"/>
      <path class="cls-1" d="M69.16,55.56c0,4.45-3.42,8.05-7.63,8.05s-7.62-3.6-7.62-8.05,7.62-12.16,7.62-12.16c0,0,7.63,7.71,7.63,12.16Z"/>
    </g>
  </g>
</svg>