<?xml version="1.0" encoding="UTF-8"?>
<svg id="Layer_2" data-name="Layer 2" xmlns="http://www.w3.org/2000/svg" viewBox="0 0 365.47 84.77">
  <defs>
    <style>
      .cls-1 {
        fill: #fff;
      }
    </style>
  </defs>
  <rect x="-10.89" y="-2.06" width="387.26" height="89.82"/>
  <g id="Layer_1-2" data-name="Layer 1-2">
    <g>
      <polygon class="cls-1" points="19.69 64.57 19.69 21.12 41.42 40.43 63.14 21.12 63.14 64.57 19.69 64.57"/>
      <path class="cls-1" d="M91.83,64.57c-12,0-21.73-9.73-21.73-21.73s9.73-21.72,21.73-21.72,21.73,9.73,21.73,21.73-9.73,21.73-21.73,21.73h0Z"/>
      <path class="cls-1" d="M140.37,64.57c-12,0-21.73-9.73-21.73-21.73s9.73-21.72,21.73-21.72,21.73,9.73,21.73,21.73-9.73,21.73-21.73,21.73h0Z"/>
      <path class="cls-1" d="M212.52,42.85v21.73h-43.45V21.12h21.73c12,0,21.73,9.73,21.73,21.73h0Z"/>
      <rect class="cls-1" x="220.42" y="21.12" width="21.73" height="43.45"/>
      <path class="cls-1" d="M294.44,42.85v21.73h-43.45V21.12h21.73c12,0,21.73,9.73,21.73,21.73h-.01Z"/>
      <polygon class="cls-1" points="345.79 64.57 302.34 64.57 302.34 21.12 345.79 21.12 324.06 42.85 345.79 64.57"/>
    </g>
  </g>
</svg>