<?xml version="1.0" encoding="UTF-8"?>
<svg id="Layer_2" data-name="Layer 2" xmlns="http://www.w3.org/2000/svg" viewBox="0 0 317.62 71.74">
  <defs>
    <style>
      .cls-1 {
        fill: #fff;
      }

      .cls-2 {
        fill: #1c003a;
      }
    </style>
  </defs>
  <g id="Layer_2-2" data-name="Layer 2">
    <g>
      <rect class="cls-2" width="317.62" height="71.74" rx="16.47" ry="16.47"/>
      <g id="Layer_1-2" data-name="Layer 1-2">
        <g>
          <path class="cls-1" d="M53.28,12.34c-3.18,0-6.21,.63-8.97,1.77-8.55,3.53-14.56,11.94-14.56,21.76,0,12.99,10.54,23.53,23.53,23.53,9.82,0,18.23-6.02,21.76-14.56,1.14-2.77,1.77-5.79,1.77-8.97,0-13-10.54-23.54-23.53-23.54Zm10.02,11.3s3.05,3.09,3.05,4.87-1.37,3.23-3.05,3.23-3.05-1.45-3.05-3.23,3.05-4.87,3.05-4.87Zm0,12.14s3.05,3.09,3.05,4.87-1.37,3.23-3.05,3.23-3.05-1.45-3.05-3.23,3.05-4.87,3.05-4.87Zm-8.92-18.21s3.05,3.09,3.05,4.87-1.37,3.23-3.05,3.23-3.05-1.45-3.05-3.23,3.05-4.87,3.05-4.87Zm0,12.14s3.05,3.09,3.05,4.87-1.37,3.23-3.05,3.23-3.05-1.45-3.05-3.23,3.05-4.87,3.05-4.87Zm-1.1,27.03c-11.51,0-20.87-9.37-20.87-20.87,0-7.85,4.35-14.7,10.77-18.26-.42,1.75-.64,3.59-.64,5.47,0,13,10.54,23.53,23.53,23.53,1.89,0,3.72-.22,5.48-.64-3.56,6.42-10.41,10.77-18.26,10.77h0Z"/>
          <g>
            <path class="cls-1" d="M131.82,18.78V52.97c0,.41-.3,.71-.71,.71h-3.67c-.41,0-.71-.3-.71-.71V24.58c0-.41-.56-.46-.66-.1l-9.63,28.74c-.1,.26-.41,.46-.72,.46h-5.5c-.26,0-.56-.2-.66-.46l-9.89-28.74c-.1-.36-.66-.31-.66,.1v28.39c0,.41-.3,.71-.71,.71h-3.67c-.41,0-.71-.3-.71-.71V18.78c0-.4,.3-.71,.71-.71h7.24c.3,0,.56,.2,.66,.46l10.14,29.41c.1,.3,.56,.3,.66,0l9.94-29.41c.1-.26,.36-.46,.66-.46h7.19c.41,0,.71,.31,.71,.71h0Z"/>
            <path class="cls-1" d="M163.26,40.94c0,7.34-5.91,13.25-13.25,13.25s-13.2-5.91-13.2-13.25,5.91-13.2,13.2-13.2,13.25,5.91,13.25,13.2Zm-4.59,0c0-4.79-3.88-8.66-8.66-8.66s-8.61,3.92-8.61,8.66,3.88,8.66,8.61,8.66,8.66-3.88,8.66-8.66Z"/>
            <path class="cls-1" d="M193.17,40.94c0,7.34-5.91,13.25-13.25,13.25s-13.2-5.91-13.2-13.25,5.91-13.2,13.2-13.2,13.25,5.91,13.25,13.2Zm-4.59,0c0-4.79-3.88-8.66-8.66-8.66s-8.61,3.92-8.61,8.66,3.88,8.66,8.61,8.66,8.66-3.88,8.66-8.66Z"/>
            <path class="cls-1" d="M219.97,30.39v22.57c0,.41-.3,.71-.71,.71h-3.41c-.36,0-.71-.3-.71-.71v-19.57c0-.36-.3-.66-.71-.66h-11.01c-.46,0-.71,.3-.71,.71v19.52c0,.36-.26,.66-.56,.71h-3.57c-.41,0-.71-.3-.71-.71V30.39c0-1.17,.97-2.14,2.14-2.14h17.89c1.17,0,2.09,.97,2.09,2.14h0Z"/>
            <path class="cls-1" d="M225.06,20.3c0-1.53,1.27-2.75,2.8-2.75s2.8,1.22,2.8,2.75-1.27,2.8-2.8,2.8-2.8-1.22-2.8-2.8Zm5.2,8.66v24c0,.41-.31,.71-.71,.71h-3.41c-.41,0-.71-.3-.71-.71V28.97c0-.41,.3-.71,.71-.71h3.41c.4,0,.71,.3,.71,.71Z"/>
            <path class="cls-1" d="M257.78,30.39v22.57c0,.41-.3,.71-.71,.71h-3.41c-.36,0-.71-.3-.71-.71v-19.57c0-.36-.3-.66-.71-.66h-11.01c-.46,0-.71,.3-.71,.71v19.52c0,.36-.26,.66-.56,.71h-3.57c-.41,0-.71-.3-.71-.71V30.39c0-1.17,.97-2.14,2.14-2.14h17.89c1.17,0,2.09,.97,2.09,2.14h0Z"/>
            <path class="cls-1" d="M283.87,40.48v12.54c0,.3-.26,.61-.56,.66h-3.72c-.3-.05-.56-.36-.56-.66v-9.58c0-.36-.3-.71-.71-.71h-9.02c-.36,0-.66,.36-.66,.71v9.58c0,.3-.26,.61-.61,.66h-3.67c-.3-.05-.51-.26-.56-.56V18.67c.05-.3,.36-.56,.71-.56h3.41c.36,0,.71,.31,.71,.72v19.16c0,.26,.1,.36,.3,.36h.46c.3,0,.51-.26,.51-.26l8.21-9.63c.15-.1,.3-.2,.51-.2h4.54c.61,0,.97,.82,.46,1.22l-7.24,8.56c-.15,.15-.05,.3,.1,.3h5.25c1.17,0,2.14,.97,2.14,2.14h0Z"/>
          </g>
        </g>
      </g>
    </g>
  </g>
</svg>