<?xml version="1.0" encoding="UTF-8"?>
<svg id="Layer_2" data-name="Layer 2" xmlns="http://www.w3.org/2000/svg" viewBox="0 0 474.52 91.53">
  <g id="Layer_1-2" data-name="Layer 1">
    <g>
      <path d="M94.71,3.05V88.47c0,1.02-.76,1.78-1.78,1.78h-9.17c-1.02,0-1.78-.76-1.78-1.78V17.57c0-1.02-1.4-1.15-1.65-.25l-24.06,71.8c-.26,.64-1.02,1.15-1.79,1.15h-13.75c-.64,0-1.4-.51-1.65-1.15L14.38,17.31c-.25-.89-1.65-.77-1.65,.25V88.47c0,1.02-.76,1.78-1.78,1.78H1.78c-1.02,0-1.78-.76-1.78-1.78V3.05c0-1.01,.76-1.78,1.78-1.78H19.86c.76,0,1.4,.51,1.65,1.15l25.33,73.46c.26,.76,1.4,.76,1.65,0L73.32,2.42c.25-.64,.89-1.15,1.65-1.15h17.95c1.02,0,1.78,.77,1.78,1.78Z"/>
      <path d="M173.24,58.43c0,18.33-14.77,33.1-33.1,33.1s-32.97-14.77-32.97-33.1,14.77-32.97,32.97-32.97,33.1,14.77,33.1,32.97Zm-11.46,0c0-11.97-9.68-21.64-21.64-21.64s-21.52,9.8-21.52,21.64,9.68,21.64,21.52,21.64,21.64-9.68,21.64-21.64Z"/>
      <path d="M247.96,58.43c0,18.33-14.77,33.1-33.1,33.1s-32.97-14.77-32.97-33.1,14.77-32.97,32.97-32.97,33.1,14.77,33.1,32.97Zm-11.46,0c0-11.97-9.68-21.64-21.64-21.64s-21.52,9.8-21.52,21.64,9.68,21.64,21.52,21.64,21.64-9.68,21.64-21.64Z"/>
      <path d="M314.91,32.08v56.39c0,1.02-.76,1.78-1.78,1.78h-8.53c-.89,0-1.78-.76-1.78-1.78V39.59c0-.89-.76-1.65-1.78-1.65h-27.5c-1.15,0-1.78,.76-1.78,1.78v48.76c0,.89-.64,1.65-1.4,1.78h-8.91c-1.02,0-1.78-.76-1.78-1.78V32.08c0-2.93,2.42-5.35,5.34-5.35h44.69c2.93,0,5.22,2.42,5.22,5.35Z"/>
      <path d="M327.63,6.87c0-3.82,3.18-6.87,7-6.87s7,3.05,7,6.87-3.18,7-7,7-7-3.05-7-7Zm12.98,21.64v59.96c0,1.02-.77,1.78-1.78,1.78h-8.53c-1.02,0-1.78-.76-1.78-1.78V28.51c0-1.02,.76-1.78,1.78-1.78h8.53c1.01,0,1.78,.76,1.78,1.78Z"/>
      <path d="M409.35,32.08v56.39c0,1.02-.76,1.78-1.78,1.78h-8.53c-.89,0-1.78-.76-1.78-1.78V39.59c0-.89-.76-1.65-1.78-1.65h-27.5c-1.15,0-1.78,.76-1.78,1.78v48.76c0,.89-.64,1.65-1.4,1.78h-8.91c-1.02,0-1.78-.76-1.78-1.78V32.08c0-2.93,2.42-5.35,5.34-5.35h44.69c2.93,0,5.22,2.42,5.22,5.35Z"/>
      <path d="M474.52,57.28v31.32c0,.76-.64,1.53-1.4,1.65h-9.3c-.76-.13-1.4-.89-1.4-1.65v-23.93c0-.89-.76-1.78-1.78-1.78h-22.53c-.89,0-1.65,.89-1.65,1.78v23.93c0,.76-.64,1.53-1.53,1.65h-9.17c-.76-.13-1.27-.64-1.4-1.4V2.8c.13-.76,.89-1.4,1.78-1.4h8.53c.89,0,1.78,.77,1.78,1.79V51.05c0,.64,.26,.89,.76,.89h1.15c.76,0,1.27-.64,1.27-.64l20.5-24.06c.38-.25,.76-.51,1.27-.51h11.33c1.53,0,2.42,2.04,1.15,3.06l-18.08,21.38c-.38,.38-.13,.76,.25,.76h13.11c2.93,0,5.35,2.42,5.35,5.35Z"/>
    </g>
  </g>
</svg>