<?xml version="1.0" encoding="UTF-8"?>
<svg id="Layer_2" data-name="Layer 2" xmlns="http://www.w3.org/2000/svg" xmlns:xlink="http://www.w3.org/1999/xlink" viewBox="0 0 3454.92 3471.65">
  <defs>
    <style>
      .cls-1 {
        opacity: .7;
      }

      .cls-2 {
        fill: #fff;
      }

      .cls-3 {
        fill: #111a28;
      }

      .cls-4 {
        fill: #d8d8d8;
      }

      .cls-5 {
        opacity: .5;
      }

      .cls-6 {
        fill: #39005e;
      }

      .cls-7 {
        fill: #e2e2e2;
      }

      .cls-8 {
        opacity: .2;
      }

      .cls-9 {
        opacity: .35;
      }

      .cls-10 {
        fill: url(#radial-gradient);
      }

      .cls-11 {
        fill: #4599f4;
      }

      .cls-12 {
        fill: #371a45;
      }
    </style>
    <radialGradient id="radial-gradient" cx="1727.46" cy="1727.46" fx="1727.46" fy="1727.46" r="1716.52" gradientUnits="userSpaceOnUse">
      <stop offset="0" stop-color="#c5c5ff"/>
      <stop offset=".18" stop-color="#c5c5ff" stop-opacity=".99"/>
      <stop offset=".32" stop-color="#c7c7ff" stop-opacity=".95"/>
      <stop offset=".43" stop-color="#cbcbff" stop-opacity=".89"/>
      <stop offset=".54" stop-color="#d0d0ff" stop-opacity=".8"/>
      <stop offset=".64" stop-color="#d7d7ff" stop-opacity=".69"/>
      <stop offset=".74" stop-color="#dfdfff" stop-opacity=".55"/>
      <stop offset=".83" stop-color="#e8e8ff" stop-opacity=".38"/>
      <stop offset=".92" stop-color="#f3f3ff" stop-opacity=".2"/>
      <stop offset="1" stop-color="#fff" stop-opacity="0"/>
    </radialGradient>
  </defs>
  <g id="Layer_1-2" data-name="Layer 1">
    <g>
      <circle class="cls-10" cx="1727.46" cy="1727.46" r="1727.46"/>
      <g>
        <path class="cls-2" d="M526.52,365.7c-6.85,11.03-20.83,15.68-32.92,11.08l-35.49-13.72c-15.89-5.85-23.1-24.88-15.01-39.71,37-65.09,104.4-87.06,170.6-79.15,92.68,11.07,156.83,89.04,147.81,164.58-13.4,112.15-115.63,114.95-141.26,197.2-4.7,12.87-16.81,21.69-30.05,20.11l-38.94-4.65c-17.13-2.05-28.51-19.2-23.35-35.97,28.99-90.54,124.14-106.82,132.24-174.58,4.65-38.94-15.96-71.42-64.25-77.19-34.27-4.09-56.66,11.4-69.39,32Zm82.61,392.99c-3.72,31.15-32.49,53.78-63.65,50.06-31.93-3.81-54.56-32.59-50.84-63.74,3.81-31.93,32.58-54.56,64.52-50.75,31.15,3.72,53.78,32.49,49.97,64.42Z"/>
        <g>
          <g class="cls-8">
            <ellipse class="cls-12" cx="1727.46" cy="3345.88" rx="779.45" ry="125.77"/>
          </g>
          <g>
            <path class="cls-2" d="M2469.95,2492.49c-1.84,8.32-4.35,16.35-7.42,24.06-18.86,47.44-59.77,83.44-110.51,95.33-141.43,33.27-440.75,73.62-792.14-54.92,0,0-75.23-693.3,70.55-1040.89,0,0,325.22-67.48,762.95,68.31,37.39,11.55,68.03,36.28,87.51,68.2,13.84,22.66,22.1,49,23.05,76.8,6.36,184.01,12.17,556.67-33.99,763.12Z"/>
            <path class="cls-12" d="M2053.27,2667.64c-142.69,0-314.58-21.51-501.06-89.73-7.98-2.92-13.61-10.11-14.53-18.56-3.1-28.54-74.18-703.01,72.18-1051.94,2.84-6.78,8.85-11.73,16.05-13.22,13.51-2.8,335.87-67.06,774.1,68.85,72.86,22.59,123.59,89.12,126.23,165.55,6.87,198.7,11.53,562.78-34.49,768.75-14.99,67.1-67.84,120.6-134.64,136.28-70.36,16.53-175.24,34.01-303.85,34.01Zm-472.57-126.92c337.95,120.01,624.48,82.73,766.21,49.44,50.24-11.8,89.99-52.05,101.27-102.55,44.93-201.12,40.24-560.91,33.44-757.48-1.98-57.46-40.1-107.47-94.83-124.44-381.34-118.26-679.22-79.75-740.32-69.8-124.91,314.64-75.1,906.95-65.77,1004.83Z"/>
            <path class="cls-12" d="M2465.34,1661.03c.04-.07-.56-.29-1.01-.48-.44-.2-.99-.39-1.53-.58-1.06-.4-2.17-.78-3.34-1.13-2.27-.77-4.71-1.36-7.1-2.03-4.88-1.17-9.87-2.2-14.95-2.92-10.16-1.48-20.61-2.12-31.09-1.58-10.46,.51-21.07,1.75-31.44,4.37-10.5,2.28-20.63,6.11-30.76,10.31l-.47,.19c-4.16,1.72-8.92-.25-10.64-4.41-1.5-3.62-.19-7.69,2.91-9.82,9.8-6.74,20.03-13.26,31.12-18.26,10.96-5.34,22.62-9.32,34.59-12.46,11.98-3.17,24.36-5.05,36.93-5.87,6.29-.42,12.64-.48,19.06-.31,3.23,.18,6.44,.3,9.75,.65,1.63,.13,3.31,.33,5.02,.57l2.62,.38c.93,.16,1.71,.26,3.11,.6,11.81,3.53,18.53,15.97,15,27.78-3.53,11.81-15.96,18.53-27.78,15Z"/>
          </g>
          <g class="cls-8">
            <path class="cls-12" d="M2410.38,2539.54c14.9-7.37,27.91-17.47,39.85-28.97-18.86,47.44-59.77,83.44-110.51,95.33-141.43,33.27-440.75,73.62-792.14-54.92,0,0-75.23-693.3,70.55-1040.89,0,0,325.22-67.48,762.95,68.31,37.39,11.55,68.03,36.28,87.51,68.2-19.65,1.73-39.12,9.32-53.19,22.66-38.45,36.39-46.83,93.6-52.91,146.17-13,111.46-26.01,222.91-39.01,334.31-10.77,92.2-21.49,184.4-32.26,276.55-4.02,34.6-6.81,73.62,15.8,100.13,24.28,28.46,69.82,29.75,103.36,13.11Z"/>
          </g>
          <path class="cls-2" d="M2870.57,1914.72c-16.13,37.67-129.15,0-129.15,0,0,0,26.9,75.35,75.35,123.79,10.38,10.38,19.81,23,26.85,36.95,25.95,51.07,20.82,119.88-80.65,162.19-129.2,53.8-215.32-48.45-263.71-118.43,0,0-53.86,164.7-220.68,133.5,0,0,37.67,146.34-5.36,254-43.09,107.66-37.67,441.31-37.67,441.31,0,0,32.26,279.84,0,349.83-32.32,69.99-362.44,118.38-509.51,37.67,0,0-281.63,53.8-453.86,16.13-106.66-23.33-116.31-96.22-86.4-152.14,18.31-34.38,51.57-62.34,86.4-68.48,0,0-69.32-667.34-48.11-968.73,0,0-167.16,43.03-264.05-16.18-96.89-59.16-188.37-263.71-188.37-263.71,0,0-91.48,69.99-166.82-5.36-75.35-75.35,150.69-139.92,150.69-139.92,0,0-48.44-31.7-26.9-77.13,21.49-45.49,50.23-2.4,119.55-16.74,69.37-14.4,165.09,4.74,279.9,124.35,0,0,40.74-83.1,159.73-153.71,92.65-55.14,232.85-102.69,438.24-97.45,229,5.86,445.77,57.37,570.73,152.31,56.26,42.75,93.93,94.32,105.6,154.49,0,0,150.69-44.48,274.48-35.72,123.79,8.76,209.85,89.52,193.72,127.19Z"/>
          <g class="cls-8">
            <path class="cls-12" d="M2843.61,2075.46c-57.65,43.2-137.35,56.48-205.44,32.43-66.91-23.6-119.88-82.3-138.55-150.53-3.92-14.32-20.64-20.46-32.9-12.08-21.17,14.48-43.12,27.69-67.15,36.36-34.38,12.45-74.12,14.62-102.19-12.45,31.03-45.37,62.01-90.81,95.89-139.75,1.4-2.73,2.79-5.53-1.73-11.94-25,39.96-78.08,59.94-123.23,46.32-22.93-6.89-42.78-22.12-56.74-41.81-20.53-28.94-13.63-69.43,15.03-90.35,25.53-18.64,49.12-39.79,70.17-62.9-124.96-94.93-341.74-146.45-570.73-152.31-205.39-5.25-345.59,42.3-438.24,97.45,303.68,221.51,533.63,229.05,650.36,220.01,50.54-3.91,92.83,39,87.15,89.38-3.81,33.82-16.3,66.39-38.81,92.85-44.09,51.96-109.11,81.32-174.02,102.08-180.44,57.6-373.49,60.44-562.81,53.58-4.91,60.67-9.82,121.39-14.73,182.17,230.01,72.59,475.5,95.38,722.34,75.98,32.78-2.58,46.61,41.02,18.13,57.45-90.53,52.23-194.73,80.91-299.28,80.95-144.27,0-287.88-54.47-395.87-150.19,1.9,138.02,108.5,267.56,244.34,297.14-12.73,95.21-11.33,192.33,4.97,286.93,5.8,78.47,11.61,156.89,11.11,226.15-106.94,69.93-260.42,56.43-354.91-28.86-29.91,55.92-20.26,128.81,86.4,152.14,172.24,37.67,453.86-16.13,453.86-16.13,147.06,80.7,477.19,32.32,509.51-37.67,32.26-69.99,0-349.83,0-349.83,0,0-5.41-333.64,37.67-441.31,43.03-107.66,5.36-254,5.36-254,166.82,31.2,220.68-133.5,220.68-133.5,48.39,69.99,134.51,172.23,263.71,118.43,101.47-42.31,106.6-111.12,80.65-162.19Zm-827.86,1141.69c-24.17,48.22-78.08,76.63-131.77,81.37-53.75,4.74-107.33-11.05-156.5-34.44,2.4-75.51,52.35-128.2,39.74-132.55,49.78-162.36,14.29-348.32-73.73-479.65,80.33-8.78,159.71-25.9,236.51-50.94,33.09-10.78,67.44,12.73,69.86,47.45,10.12,145.26,20.2,290.56,30.29,435.81,3.13,45.04,5.8,92.59-14.4,132.94Z"/>
          </g>
          <path class="cls-12" d="M1938.54,3399.77c-78.73,0-157.95-11.5-216.06-40.89-47.69,8.58-294.41,49.73-455.08,14.58-106.18-23.22-118.66-89.65-118.66-119.49,0-.75,0-1.47,.02-2.17,1.18-57.91,45.58-117.14,99.3-137.2-9.59-95.63-50.39-520.01-50.4-813.96,0-39.56,.73-76.74,2.39-110.45-54.65,9.91-172.52,23.35-251.67-25.02-82.59-50.43-158.57-193.93-186.21-250.54-43.62,22.67-114.59,36.74-173.12-21.79-16.98-16.98-21.93-33.6-21.92-47.21,0-5.35,.77-10.23,1.88-14.5,12.98-50.09,95.24-86.41,145.63-104.28-8.02-12.17-13.9-26.99-13.9-43.59,0-10.33,2.28-21.34,7.72-32.83,19.69-41.69,51.44-35.41,74.61-30.8,16.53,3.28,35.27,6.99,60.58,1.76,63.01-13.06,161.54-3.5,280.25,110.46,18.44-26.61,54.25-69.97,114.43-112.53,85.68-60.6,239.94-131.51,488.27-125.19,173.08,4.42,335.25,34.83,456.64,85.63,127.49,53.36,208.25,127.68,235.24,215.98,47.39-12.16,160.85-37.49,259.94-30.48,97.52,6.9,176.77,56.78,204.66,102.49,8.83,14.48,11.79,26.86,11.79,36.95,0,7.6-1.67,13.9-3.78,18.81-15.38,35.93-66.99,34.01-110.1,25.09,11.98,23.28,29.45,52.02,51.56,74.13,23.92,23.92,46.63,62.41,46.62,104.79,0,7.39-.69,14.89-2.19,22.46-6.32,31.98-29.74,76.72-105.43,108.29-130.6,54.38-221.56-35.17-267.69-94.61-30.98,55.9-95.13,120.41-197.1,114.95,4.43,24.97,9.45,62.41,9.45,103.94s-5.36,90.16-22.28,132.48c-33.01,82.48-36.28,311.14-36.28,398.32v.16c0,17.73,.14,29.58,.18,33.11,2.47,21.6,14.37,130.71,14.37,226.51,0,55.92-4.05,107.3-16.4,134.1-10.98,23.79-41.81,44.17-91.64,60.58-56.69,18.67-140.88,32-225.64,32Zm-212.51-86.57c3.73,0,7.43,.94,10.74,2.75,97.71,53.62,296.31,47.99,413.44,9.41,41.82-13.77,61.18-28.47,65.06-36.88,8.98-19.48,12.38-61.76,12.38-112.43,0-71.99-6.85-160.93-14.29-225.48-.08-.73-.13-1.46-.14-2.2-.04-2.64-.25-16.64-.25-38.33,0-91.96,3.72-322.17,39.52-411.63,14.42-36.08,19.04-77.3,19.04-115.29,0-67.01-14.35-123.95-14.57-124.84-.47-1.84-.71-3.7-.71-5.54,0-5.61,2.1-11.08,6.02-15.27,5.21-5.57,12.92-8.1,20.41-6.69,145.11,27.13,193.39-112.59,195.37-118.55,2.67-8.03,9.66-13.89,18.04-15.08,8.37-1.2,16.72,2.41,21.53,9.38,52.27,75.59,126.4,156.47,236.77,110.52,45.51-18.97,72.76-45.17,78.8-75.73,.93-4.71,1.36-9.41,1.36-14.07,0-28.72-16.41-55.78-33.57-72.94-51.4-51.4-79.42-128.8-80.59-132.07-.87-2.45-1.3-4.99-1.3-7.5,0-5.74,2.22-11.37,6.37-15.62,5.98-6.1,14.92-8.26,23.01-5.56,46.85,15.57,93.53,19.32,101.64,12.15,.05-.21,.08-.51,.08-.91,0-2.06-.86-6.64-5.22-13.78-21.39-35.06-88.13-75.43-169.69-81.21h0c-118.37-8.38-265.12,34.42-266.59,34.86-6.03,1.78-12.54,.93-17.91-2.33-5.38-3.27-9.13-8.65-10.32-14.82-36.71-188.84-355.42-281.09-654.98-288.74-234.3-6.06-378.87,59.39-458.88,115.27-86.32,60.29-118.2,122.84-118.51,123.47-3.24,6.49-9.46,11.04-16.63,12.13-7.18,1.08-14.45-1.34-19.48-6.58-91.23-95.04-178.47-134.71-259.26-117.95-34.18,7.08-59.7,2.01-78.33-1.68q-20.75-4.12-25.57,6.1c-2.27,4.79-3.21,9.37-3.22,13.66-.01,19.64,19.58,33.52,22.28,35.33,6.23,4.2,9.91,11.22,9.91,18.59,0,1.15-.09,2.3-.27,3.46-1.35,8.57-7.5,15.62-15.84,18.02-55.65,15.94-141.64,53.57-149.45,83.74-.18,.69-.44,1.72-.44,3.11,0,3.24,1.46,8.43,8.85,15.82,60.34,60.34,134.41,5.72,137.53,3.36,5.43-4.09,12.46-5.52,19.04-3.81,6.58,1.69,12.07,6.27,14.84,12.48,.89,1.98,89.8,198.93,179.62,253.77,87.59,53.53,245.28,14.02,246.86,13.62,6.94-1.78,14.34-.12,19.84,4.48,5.1,4.25,8.03,10.54,8.03,17.12,0,.53-.02,1.05-.05,1.59-2.76,39.17-3.96,84.75-3.96,134.37-.01,325.39,51.4,824.71,52,830.48,.08,.77,.12,1.54,.12,2.3,0,10.72-7.68,20.09-18.45,21.99-41.59,7.33-81.75,55.79-82.65,99.7,0,.52-.01,1.04-.01,1.55,.01,47.31,45.32,67.22,83.56,75.58,165.72,36.26,442.13-15.72,444.9-16.25,1.39-.26,2.79-.4,4.18-.4Zm23.96-107.22c-.91,0-1.83-.05-2.75-.17-10.13-1.25-18.12-9.21-19.41-19.34-.19-1.47-19.11-147.96-52.98-217.96-2.56-5.29-2.93-11.38-1.03-16.93,.37-1.09,37.04-109.34,34.87-171.39-.37-10.55,6.7-19.91,16.94-22.45,10.23-2.54,20.86,2.44,25.46,11.94,4.17,8.61,101.2,213.27,19.68,422.1-3.37,8.64-11.69,14.2-20.78,14.2Zm-31.09-248.54c14.87,33.82,26.66,78.81,35.32,119.57,9.97-75.95-.36-146.84-13.42-199.28-7.83,34.58-17.26,65.27-21.9,79.71Z"/>
          <path class="cls-12" d="M2274.79,2274.7l-2.74-.6-1.95-.55-3.8-1.11-6.85-2.47c-4.48-1.71-8.59-3.7-12.85-5.59l-12-6.41c-3.85-2.3-7.56-4.74-11.33-7.11-3.85-2.29-7.28-5.01-10.82-7.63-3.48-2.66-7.12-5.18-10.45-7.98l-9.81-8.57c-3.26-2.86-6.59-5.66-9.51-8.81l-9.03-9.2c-3.01-3.06-6.07-6.09-8.71-9.42-5.45-6.54-11.07-12.95-16.34-19.59l-14.85-20.52c-2.57-3.36-4.74-6.95-6.94-10.52l-6.63-10.68c-9.28-14.01-16.36-29.09-24.33-43.7-3.93-7.33-6.96-15.05-10.47-22.55-3.35-7.57-6.89-15.06-10.07-22.67-5.77-15.45-11.87-30.77-17.33-46.27l-14.8-46.95c-2.25-7.13,1.71-14.74,8.84-16.98,6.93-2.18,14.3,1.49,16.77,8.23l.26,.72,16.41,44.87c5.95,14.73,12.49,29.18,18.68,43.76,3.38,7.15,7.08,14.12,10.6,21.18,3.67,6.98,6.87,14.22,10.9,20.96,8.15,13.4,15.45,27.38,24.67,39.94l6.6,9.64c2.19,3.22,4.34,6.46,6.84,9.41l14.42,18.14c5.05,5.79,10.37,11.3,15.51,16.96,2.51,2.91,5.34,5.43,8.12,8.01l8.31,7.75c2.69,2.69,5.68,4.94,8.61,7.28l8.77,7c2.95,2.27,6.1,4.19,9.12,6.31,3.06,2.06,6.05,4.26,9.26,5.93,3.16,1.78,6.29,3.66,9.45,5.37l9.61,4.59c3.2,1.2,6.44,2.62,9.56,3.64l4.62,1.44,2.04,.48,.98,.24c.08,0,.16,0,.23,.03l3.45,1.01c11.77,3.44,18.53,15.77,15.09,27.54-3.29,11.27-14.8,17.92-26.1,15.46Z"/>
          <path class="cls-12" d="M1201.93,2159.32c6.12-37.17,13.45-73.11,21.59-109.31,8.17-36.08,17.3-71.94,27.34-107.55,9.95-35.63,21.41-70.88,33.71-105.83,12.46-34.91,26.65-69.25,42.22-102.99,2.98-6.45,10.62-9.27,17.08-6.29,6.27,2.9,9.11,10.21,6.53,16.54l-.12,.28c-13.72,33.46-26.11,67.48-36.82,102.13-10.56,34.69-20.29,69.66-28.55,105.04-8.34,35.35-15.78,70.92-22.28,106.65-6.43,35.64-12.18,71.85-16.46,107.25l-.05,.39c-1.48,12.25-12.6,20.97-24.85,19.5-12.25-1.48-20.97-12.6-19.5-24.85,.03-.29,.09-.66,.14-.95Z"/>
          <path class="cls-6" d="M1212.65,2093.8c9.83-36.46,20.61-72.55,32.33-108.27,2.22-6.78,9.52-10.47,16.3-8.25,6.07,1.99,9.66,8.08,8.75,14.2-5.47,36.71-9.96,73.51-13.44,110.29-1.17,12.32-12.1,21.36-24.42,20.19-12.32-1.17-21.36-12.1-20.19-24.42,.12-1.24,.33-2.44,.64-3.6l.04-.15Z"/>
          <path class="cls-12" d="M937.71,2147.02c-1.39-37.57-.56-75.45,4.07-113.22,4.73-37.72,12.68-75.44,26.11-111.77,13.28-36.3,32.03-71.23,57.05-101.85,12.55-15.25,26.56-29.48,42.25-41.94,7.78-6.3,16.09-12.03,24.75-17.37,4.32-2.68,8.82-5.16,13.44-7.55,2.35-1.18,4.67-2.34,7.16-3.44l3.79-1.65,2.03-.82,2.55-.94h0s2.28-.79,2.28-.79c11.11-3.86,23.24,2.03,27.1,13.14,2.14,6.18,1.23,12.76-1.88,17.97-1,1.65-2.39,4.5-3.56,6.87l-3.59,7.66c-2.37,5.17-4.61,10.49-6.8,15.85-4.37,10.73-8.39,21.7-12.2,32.8-3.78,11.11-7.29,22.36-10.58,33.7-3.3,11.35-6.29,22.81-9.16,34.33l-.03,.12c-1.41,5.63-7.11,9.05-12.74,7.65-5.06-1.26-8.34-6-7.93-11.03,.97-12.1,2.07-24.22,3.51-36.34,1.43-12.12,3.1-24.24,5.1-36.36,2.03-12.12,4.31-24.23,7.04-36.36,1.39-6.07,2.83-12.13,4.48-18.23l2.57-9.19c.98-3.21,1.76-5.95,3.17-9.77l27.5,30.31-1.82,.73-2.5,1.09c-1.7,.75-3.47,1.64-5.21,2.51-3.5,1.82-7.03,3.75-10.49,5.91-6.92,4.27-13.73,8.94-20.17,14.17-13,10.31-24.83,22.32-35.53,35.32-21.34,26.12-37.83,56.55-49.68,88.97-12,32.4-19.31,66.81-23.68,101.69-4.29,34.94-5.09,70.52-3.78,106.11v.12c.46,12.32-9.16,22.68-21.48,23.13-12.32,.45-22.68-9.17-23.13-21.49Z"/>
          <path class="cls-12" d="M2340.03,2277.83c-6.92,0-13.75-3.21-18.11-9.24-95.76-132.46-72.3-251.77-35.76-328.54,38.9-81.73,99.48-131.99,102.04-134.09,9.53-7.81,23.6-6.43,31.42,3.1,7.81,9.53,6.43,23.58-3.08,31.4-.78,.65-56.34,47.1-90.69,120.1-44.87,95.37-34.02,190.2,32.25,281.86,7.22,10,4.98,23.95-5.01,31.17-3.96,2.86-8.53,4.23-13.06,4.23Z"/>
          <path class="cls-12" d="M2479.75,2130.13c-2.31-5.72-3.85-10.49-5.57-15.67-1.64-5.08-3.2-10.15-4.64-15.22-2.9-10.15-5.51-20.3-7.82-30.48-4.6-20.36-8.11-40.8-10.58-61.23-.35-2.88,1.71-5.5,4.59-5.85,2.38-.29,4.58,1.06,5.47,3.16v.04c7.91,18.62,16.68,36.71,26.29,54.17,4.81,8.72,9.85,17.28,15.08,25.62,2.6,4.18,5.29,8.28,8.01,12.31,2.67,3.91,5.62,8.2,8.14,11.34,7.83,9.74,6.28,23.98-3.46,31.82-9.74,7.83-23.98,6.28-31.82-3.46-1.4-1.74-2.5-3.63-3.31-5.6l-.37-.94Z"/>
          <path class="cls-12" d="M2763.71,1913.58c0,2.03-.1,2.91-.19,4.24l-.35,3.52c-.27,2.31-.59,4.54-.99,6.75-.78,4.42-1.75,8.75-2.98,13.02-2.39,8.53-5.65,16.83-9.86,24.7-8.33,15.75-20.75,29.7-35.63,39.06-7.42,4.68-15.29,8.29-23.27,11.05-8.04,2.48-16.11,4.46-24.18,5.33-16.11,2.07-31.92,1.3-47.22-.81-3.88-.53-6.59-4.11-6.05-7.99,.48-3.47,3.4-6.01,6.79-6.12h.06c14.52-.46,28.85-2.32,42.03-6.4,6.64-1.88,12.81-4.66,18.68-7.6,5.73-3.2,11-6.86,15.62-11.04,9.23-8.4,15.59-18.95,19.35-30.5,1.89-5.77,3.11-11.82,3.71-17.93,.33-3.05,.46-6.12,.45-9.13,0-1.5-.05-3-.14-4.43l-.17-2.08c-.07-.54-.16-1.52-.23-1.36-.63-12.31,8.85-22.8,21.16-23.43,12.31-.63,22.8,8.85,23.43,21.16Z"/>
          <path class="cls-12" d="M1704.93,3342.8c-11.86-29.36-17.99-63.17-12.29-97.28,2.88-16.94,8.71-33.69,17.69-48.81,4.56-7.54,9.78-14.66,15.98-21.35,3.28-3.39,6.1-6.45,11.34-10.3,3.8-2.66,7.26-4.75,10.86-6.85,28.38-16.2,59.35-25.43,90.81-28.02,31.39-2.67,62.9,1.81,91.4,12.36,4.4,1.63,6.65,6.52,5.02,10.92-1.38,3.72-5.08,5.9-8.85,5.5h-.11c-28.26-2.97-56.12-1.95-82.48,4.27-13.16,3.09-25.95,7.32-38.17,12.61-12.12,5.46-23.94,11.69-34.37,19.12-2.55,1.82-5.17,3.79-7.18,5.53-.59,.55-2.79,2.85-4.4,4.86-3.45,4.27-6.61,9.19-9.27,14.33-5.36,10.33-8.96,21.67-10.73,33.53-3.64,23.79-.07,49.37,6.95,75.03l.08,.28c3.26,11.91-3.75,24.2-15.66,27.46-11.06,3.02-22.45-2.81-26.63-13.19Z"/>
          <path class="cls-12" d="M1266.66,3109.4c1.55-.31,2.6-.44,3.72-.61,1.15-.18,2.23-.31,3.29-.42,2.15-.25,4.29-.5,6.38-.64,4.21-.39,8.37-.56,12.51-.74,8.28-.26,16.5-.12,24.68,.32,16.34,.9,32.51,3.36,48.27,7.22,7.92,1.69,15.62,4.38,23.3,6.74,7.54,2.98,15.16,5.5,22.36,9.17,14.71,6.45,28.2,15.26,41.1,24.35,3.6,2.54,4.47,7.51,1.93,11.12-2.29,3.25-6.56,4.27-10.02,2.58l-.49-.24c-13.25-6.47-26.57-12.49-40.66-16.15-6.87-2.26-14.08-3.4-21.07-5-7.17-.98-14.2-2.3-21.4-2.66-14.28-1.2-28.62-1.1-42.75,.36-7.06,.74-14.06,1.72-20.93,3.04-3.42,.7-6.84,1.38-10.14,2.23-1.69,.38-3.28,.84-4.88,1.29-.82,.22-1.6,.44-2.31,.68-.74,.23-1.56,.48-1.86,.63-11.2,5.62-24.85,1.1-30.47-10.1-5.62-11.21-1.1-24.85,10.1-30.47,1.83-.92,3.73-1.57,5.65-1.96l3.68-.73Z"/>
          <path class="cls-12" d="M1991.89,3023.41c-117.39,0-209.4-18.71-215.71-20.02-12.07-2.51-19.81-14.33-17.3-26.4,2.51-12.07,14.35-19.8,26.4-17.31,2.47,.51,249.06,50.49,445.12-14.9,11.7-3.89,24.34,2.42,28.24,14.12,3.9,11.69-2.42,24.34-14.12,28.24-83.46,27.84-173.78,36.28-252.64,36.28Z"/>
          <path class="cls-12" d="M1476.87,3029.94c-119.41,0-219.49-31.25-226.19-33.38-11.75-3.75-18.23-16.31-14.48-28.06,3.75-11.74,16.3-18.22,28.04-14.48h0c2.49,.79,250.68,78.01,419.97-14.8,10.81-5.93,24.38-1.97,30.31,8.84,5.93,10.81,1.97,24.38-8.84,30.31-71.71,39.31-154.06,51.57-228.81,51.57Z"/>
          <path class="cls-12" d="M1731.01,2801.74c-9.1,0-17.65-5.6-20.96-14.64l-48.02-130.97c-4.25-11.58,1.7-24.4,13.27-28.65,11.57-4.24,24.4,1.7,28.65,13.28l48.02,130.97c4.25,11.58-1.7,24.4-13.27,28.65-2.53,.93-5.13,1.37-7.68,1.37Z"/>
          <path class="cls-12" d="M1338.08,2521.29c9.72,6.43,20.69,12.76,31.38,18.66,10.86,5.82,21.75,11.55,32.9,16.79,22.2,10.65,45.06,19.79,68.15,28.06,5.77,2.07,11.57,4.07,17.43,5.86,5.83,1.88,11.67,3.73,17.58,5.35,11.71,3.59,23.57,6.63,35.45,9.5,23.81,5.62,47.89,9.95,72.12,12.95,12.1,1.71,24.3,2.36,36.45,3.6,12.19,.59,24.38,1.61,36.6,1.51,6.11,.03,12.22,.21,18.33,.12l18.34-.34c6.12,.02,12.22-.6,18.33-.91,6.11-.44,12.24-.62,18.34-1.24,48.9-4.12,97.5-13,146.05-24.75l.07-.02c5.8-1.4,11.64,2.16,13.04,7.96,1.25,5.17-1.44,10.36-6.15,12.43-47.06,20.73-97.43,34.48-148.85,41.88-25.76,3.21-51.76,5.67-77.82,5.37-13.03,.26-26.05-.63-39.07-1.11-13-.98-25.99-2.13-38.89-4.02-25.81-3.53-51.51-8.24-76.58-15.33-12.54-3.49-25.03-7.16-37.32-11.39-6.18-2.02-12.25-4.37-18.31-6.69-6.1-2.25-12.11-4.71-18.09-7.24-23.99-9.94-47.19-21.71-69.5-34.89-11.09-6.72-22.05-13.63-32.6-21.2-10.67-7.57-20.67-15.34-30.82-24.49-4.35-3.92-4.7-10.63-.77-14.98,3.56-3.95,9.42-4.6,13.73-1.75l.47,.32Z"/>
          <path class="cls-2" d="M2239.06,2235.81c-27.07,2.18-53.08,3.07-77.63,3.07-130.15,0-221.24-25.73-226.21-27.18-29.64-8.6-46.71-39.52-38.12-69.15,8.54-29.58,39.46-46.6,69.04-38.12,1.73,.5,69.15,19.14,167.83,22.32,38.79,60.78,77.52,92.59,105.09,109.06Z"/>
          <path class="cls-12" d="M2161.42,2261.2c-134.74,0-228.54-26.92-232.46-28.07-20.02-5.81-36.61-19.07-46.69-37.33-10.09-18.29-12.43-39.4-6.61-59.47,11.91-41.27,55.26-65.22,96.64-53.36,.65,.19,65.77,18.35,162.39,21.47,7.36,.24,14.14,4.09,18.1,10.3,37.12,58.15,73.63,87.51,97.72,101.9,8.34,4.98,12.5,14.78,10.3,24.23-2.2,9.46-10.27,16.41-19.95,17.18-25.94,2.08-52.66,3.14-79.42,3.14Zm-210.7-136.63c-14.52,0-27.95,9.54-32.17,24.17-2.5,8.62-1.5,17.67,2.82,25.49,4.32,7.83,11.45,13.53,20.07,16.03,.94,.27,91.57,26.29,219.99,26.29,5.47,0,10.94-.05,16.4-.14-17.75-17.01-36.97-39.13-56.23-67.8-95.95-4.34-161.03-22.55-161.68-22.74-3.06-.88-6.15-1.3-9.19-1.3Z"/>
          <path class="cls-12" d="M1276.47,1976.73c1.87,6.13,2.6,14.44,1.16,21.46l-.55,2.57-.33,1.19-.49,1.66-.97,3.32c-1.32,4.42-2.47,8.88-3.68,13.33l-7.01,26.77c-2.32,8.93-4.43,17.91-6.47,26.91-2.03,9-4.1,18-5.92,27.04l-.22,1.09c-1.87,9.29-10.92,15.3-20.21,13.43-.35-.07-.74-.16-1.08-.26l-13.52-3.65-6.75-1.83-3.37-.92c-1.19-.35-2.73-.94-4.07-1.42-11.04-4.03-21.08-10.6-28.93-19.24-16-17-22.63-41.96-17.65-64.56,2.43-11.21,7.5-21.98,14.88-30.9,7.42-8.88,16.93-15.84,27.44-20.54,10.55-4.61,22.12-7.15,33.99-7.21,2.9,.22,6.02,.11,8.85,.48,3.01,.42,5.08,.48,9.85,1.5,8.49,1.77,17.49,5.55,25.05,9.77Zm-37.94,23.54c-1.13,2.08-.81,3.72-1.02,3.35,.43-.08-1.86-1-3.21-1.6-1.53-.68-2.91-1.02-4.42-1.48-5.99-1.38-12.54-.89-18.5,1.38-5.95,2.36-11.1,6.47-15.16,11.31-3.99,4.93-6.67,10.84-8,17.1-2.75,12.43,1.53,25.91,10.35,34.78,4.29,4.54,9.82,7.83,15.69,9.61,.78,.22,1.33,.47,2.29,.7l3.14,.7,6.28,1.4,12.54,2.8-21.51,14.27,4.43-27.82,4.61-27.81,4.8-27.8,2.49-13.89,.6-3.48,.3-1.74,.08-.44c.04-.19,.05-.31,0-.07-.07,.27-.12,.56-.15,.87-.37,2.49,1.43,6.27,4.36,7.87Z"/>
          <path class="cls-12" d="M737.44,1724.04c.85-1.04,1.41-1.61,1.97-2.18,.58-.61,1.15-1.2,1.69-1.7,1.1-1.04,2.2-2.14,3.31-3.06,2.19-1.97,4.45-3.78,6.72-5.52,4.54-3.5,9.34-6.55,14.22-9.39,9.85-5.56,20.55-9.67,31.55-11.98,10.96-2.34,22.24-3,33.01-1.49,5.43,.4,10.61,1.87,15.75,3.12,5.11,1.33,9.91,3.5,14.75,5.22,4.53,1.61,6.9,6.59,5.28,11.12-1.36,3.83-5.12,6.11-8.99,5.75l-1.56-.15c-4.41-.4-8.7-1.27-12.99-1.32-4.29,.04-8.5-.18-12.61,.56-8.24,.8-16.02,3.31-23.11,6.77-7.11,3.44-13.6,7.97-19.29,13.36-2.8,2.76-5.49,5.57-7.87,8.6-1.2,1.51-2.35,3.02-3.37,4.55-.57,.76-.97,1.51-1.45,2.25-.25,.38-.43,.72-.59,1.04-.2,.35-.38,.7-.24,.62-7.23,9.99-21.19,12.23-31.17,5-9.99-7.23-12.23-21.19-5-31.17Z"/>
          <g class="cls-8">
            <path class="cls-12" d="M1287.88,1860.03c-41.17,46.06-93.33,82.22-150.9,104.63-29.46,11.46-62.15,19.37-92.52,10.56-30.36-8.8-56.22-39.23-52.45-71.11-42.97-10.34-81.39-37.15-107.27-72.88-19.55-26.99-54.93-36.89-85.78-24.27-65.14,26.63-136.89,37.18-206.89,29.76,12.14,32.98,40.18,59.7,73.71,70.24,33.53,10.54,71.81,4.68,100.64-15.42,27.33,93.44,92.02,175.37,176.56,223.64,84.54,48.27,187.98,62.33,281.87,33.82,25.29-96.16,45.72-193.59,63.03-288.97Z"/>
          </g>
          <g>
            <path class="cls-2" d="M1861.71,2366.07l-565.23-77.65c-38.91-5.35-66.12-41.22-60.77-80.13l45.29-329.65c5.35-38.91,41.22-66.12,80.13-60.77l565.23,77.65c38.91,5.35,66.12,41.22,60.77,80.13l-45.29,329.65c-5.35,38.91-41.22,66.12-80.13,60.77Z"/>
            <path class="cls-12" d="M1871.46,2389.06c-4.22,0-8.49-.29-12.78-.87l-565.23-77.65c-51.04-7.02-86.86-54.25-79.85-105.29l45.29-329.65c7.01-51.04,54.23-86.83,105.29-79.86l565.23,77.65c51.04,7.02,86.87,54.25,79.85,105.29l-45.29,329.66c-6.42,46.75-46.58,80.73-92.5,80.73Zm-520.04-549.55c-23.98,0-44.95,17.74-48.31,42.15l-45.29,329.65c-3.66,26.65,15.04,51.31,41.7,54.98l565.23,77.65h0c26.64,3.71,51.31-15.04,54.98-41.69l45.29-329.66c3.66-26.66-15.04-51.31-41.7-54.98l-565.23-77.65c-2.24-.31-4.47-.46-6.67-.46Z"/>
            <path class="cls-12" d="M1768.5,2374.91c-4.28,0-8.59-.29-12.91-.88l-462.15-63.49c-51.04-7.02-86.86-54.25-79.85-105.29l45.29-329.65c7.01-51.04,54.23-86.83,105.29-79.86l462.15,63.49c51.04,7.02,86.87,54.25,79.85,105.29l-45.29,329.65c-3.4,24.73-16.22,46.65-36.11,61.73-16.41,12.45-36.02,19.01-56.27,19.01Zm-417.09-535.4c-23.98,0-44.95,17.74-48.31,42.15l-45.29,329.65c-3.66,26.65,15.04,51.31,41.7,54.98l462.15,63.49h0c12.92,1.81,25.74-1.58,36.12-9.46,10.39-7.88,17.08-19.33,18.85-32.24l45.29-329.65c3.66-26.65-15.05-51.31-41.7-54.98l-462.15-63.49c-2.24-.31-4.47-.46-6.67-.46Z"/>
            <circle class="cls-11" cx="1706.99" cy="2059.43" r="76.54" transform="translate(-956.27 1810.22) rotate(-45)"/>
            <g class="cls-1">
              <path class="cls-2" d="M1714.29,2025.7c30.17,0,56.18,17.5,68.65,42.86,.36-3,.6-6.04,.6-9.14,0-42.27-34.27-76.54-76.54-76.54s-76.54,34.27-76.54,76.54c0,12.1,2.89,23.51,7.89,33.68,4.52-37.96,36.77-67.41,75.95-67.41Z"/>
            </g>
            <path class="cls-12" d="M1706.99,2158.29c-54.52,0-98.87-44.35-98.87-98.86s44.35-98.87,98.87-98.87,98.86,44.35,98.86,98.87-44.35,98.86-98.86,98.86Zm0-153.08c-29.9,0-54.22,24.32-54.22,54.22s24.32,54.21,54.22,54.21,54.22-24.32,54.22-54.21-24.32-54.22-54.22-54.22Z"/>
            <path class="cls-12" d="M1504.46,2326.49c-.89,0-1.78-.05-2.69-.17-12.24-1.47-20.97-12.58-19.5-24.82l17.39-144.79c1.76-14.69-3.89-29.2-15.11-38.83l-33.61-28.82c-22.36-19.17-33.75-48.09-30.46-77.37l20.45-182.31c1.37-12.25,12.43-21.02,24.67-19.7,12.25,1.38,21.07,12.42,19.7,24.68l-20.45,182.31c-1.63,14.57,4.03,28.95,15.16,38.49l33.61,28.82c22.57,19.35,33.93,48.53,30.38,78.05l-17.39,144.79c-1.36,11.34-11,19.67-22.14,19.67Z"/>
          </g>
          <g class="cls-8">
            <path class="cls-12" d="M1979.75,1923.09c-13.52,50.48-4.94,103.92-7.02,156.14s-19.56,110-65.84,134.29c-31.92,16.76-70.18,13.7-106.04,10.07-182.49-18.49-364.59-40.89-546.12-67.2-28.12,31.28-13.1,84.58,19.71,110.9,32.8,26.32,76.76,32.88,118.44,38.5,143.13,19.3,286.27,38.59,429.4,57.89,24.96,3.37,52.03,6.35,73.88-6.17,24.74-14.18,35.36-43.85,43.08-71.31,33.32-118.48,48.4-242.07,40.51-363.11Z"/>
          </g>
          <g class="cls-8">
            <path class="cls-12" d="M2741.44,1917.9c.61,35.91-21.84,71.18-54.64,85.82-32.8,14.64-74.04,7.81-100.37-16.63-13.37-12.41-23.2-31.87-16.23-48.72,5.25-12.7,18.41-20.14,31.19-25.2,45.57-18.06,98.22-17.46,140.05,4.74Z"/>
          </g>
          <g>
            <path class="cls-2" d="M2509.02,806.31s157.95,77,171.99,108.83c26.04,59.01-9.95,388.54-104.06,466.71-36.85,30.61-287.84,39.39-287.84,39.39l219.9-614.93Z"/>
            <path class="cls-7" d="M2289.12,1421.25s250.99-8.8,287.82-39.42c36.73-30.49,64.65-99.35,83.39-175.44-2.97,2.22-97.52,69.83-258.26-99.89-.08-.1-.21-.2-.29-.3l-112.66,315.05Z"/>
            <polygon class="cls-4" points="1768.2 1085.91 1767.94 1088.73 1766.28 1087.18 1768.2 1085.91"/>
            <polygon class="cls-4" points="1766.28 1087.18 1764.36 1088.4 1764.62 1085.58 1766.28 1087.18"/>
            <path class="cls-2" d="M1199.92,1321.6s-245.22-54.2-275.89-90.99c-30.59-36.65-45.54-109.43-50.17-187.66l-.04-.05c-7.27-122.11,10.43-257.61,32.57-290.11,19.58-28.75,188.88-75.84,188.88-75.84l51.04,314.39,53.62,330.26Z"/>
            <path class="cls-4" d="M1199.92,1321.6s-245.22-54.2-275.89-90.99c-30.59-36.65-45.54-109.43-50.17-187.66,2.52,2.72,83.23,86.37,272.1-51.37,.1-.08,.24-.16,.34-.24l53.62,330.26Z"/>
            <path class="cls-12" d="M2289.11,1443.57c-7.11,0-13.81-3.39-18.02-9.15-4.37-5.97-5.49-13.73-3-20.69l219.9-614.93c2.14-5.98,6.72-10.76,12.6-13.15s12.5-2.17,18.21,.61c49.7,24.23,166.98,84.41,182.63,119.88,29.15,66.07-6.53,406.78-110.22,492.9-39.63,32.92-240.65,42.41-301.32,44.53-.26,0-.52,.01-.78,.01Zm232.46-606.05l-200.27,560.02c108.66-5.37,224.03-18.45,241.38-32.86,36.22-30.08,69.63-115.03,89.36-227.23,19.09-108.53,17.22-193.61,8.54-213.29-8.03-14.07-74.48-53.76-139.02-86.64Z"/>
            <path class="cls-12" d="M1199.94,1343.92c-1.6,0-3.22-.17-4.82-.53-59.27-13.1-255.23-58.9-288.23-98.47-86.34-103.51-59.61-445.03-18.95-504.71,21.83-32.05,148.09-69.95,201.35-84.76,6.11-1.7,12.66-.72,18.02,2.71,5.35,3.42,8.98,8.96,10,15.22l104.67,644.63c1.19,7.3-1.32,14.72-6.7,19.8-4.19,3.96-9.69,6.1-15.33,6.1Zm-122.67-638.55c-69.43,20.62-142,47.63-152.64,60.26-11.91,17.5-29.18,100.82-30.1,211.02-.95,113.92,16.48,203.52,46.65,239.67,14.45,17.33,125.53,51.12,231.41,76.12l-95.32-587.07Z"/>
            <circle class="cls-2" cx="1783.15" cy="948.49" r="761.79"/>
            <path class="cls-4" d="M2541.8,1017.88c-38.33,418.98-409.05,727.55-828.03,689.22-418.98-38.33-727.6-409.05-689.26-828.03,4.05-44.24,11.79-87.27,22.97-128.73,28.87,362.78,315.3,662.94,690.04,697.22,374.74,34.29,710.83-208.92,805.06-560.44,3.46,42.8,3.27,86.52-.78,130.76Z"/>
            <path class="cls-12" d="M1784.53,1728.65c-24.05,0-48.21-1.1-72.45-3.32-207.5-18.98-395.19-117.64-528.5-277.79-133.3-160.15-196.26-362.63-177.28-570.13,18.98-207.5,117.64-395.2,277.79-528.5,160.15-133.31,362.65-196.26,570.13-177.28,207.5,18.98,395.19,117.64,528.5,277.79,133.3,160.15,196.26,362.63,177.28,570.13-18.98,207.5-117.64,395.2-277.79,528.5-141.44,117.73-315.9,180.59-497.68,180.59Zm-2.69-1523.73c-173.26,0-339.52,59.91-474.33,172.12-152.64,127.05-246.66,305.94-264.76,503.71-18.09,197.77,41.91,390.75,168.96,543.38,127.05,152.64,305.94,246.67,503.7,264.76,197.78,18.11,390.75-41.91,543.38-168.96,152.64-127.05,246.67-305.94,264.76-503.7l18.22,1.67-18.22-1.67c18.09-197.77-41.91-390.75-168.96-543.39-127.05-152.64-305.93-246.67-503.7-264.76-23.09-2.11-46.15-3.16-69.05-3.16Z"/>
            <path class="cls-12" d="M1784.53,1728.65c-24.05,0-48.21-1.1-72.45-3.32-207.5-18.98-395.19-117.64-528.5-277.79-133.3-160.15-196.26-362.63-177.28-570.13,18.98-207.5,117.64-395.2,277.79-528.5,160.15-133.31,362.65-196.26,570.13-177.28,207.5,18.98,395.19,117.64,528.5,277.79,133.3,160.15,196.26,362.63,177.28,570.13-18.98,207.5-117.64,395.2-277.79,528.5-141.44,117.73-315.9,180.59-497.68,180.59Zm-2.69-1523.73c-173.26,0-339.52,59.91-474.33,172.12-152.64,127.05-246.66,305.94-264.76,503.71-18.09,197.77,41.91,390.75,168.96,543.38,127.05,152.64,305.94,246.67,503.7,264.76,197.78,18.11,390.75-41.91,543.38-168.96,152.64-127.05,246.67-305.94,264.76-503.7l18.22,1.67-18.22-1.67c18.09-197.77-41.91-390.75-168.96-543.39-127.05-152.64-305.93-246.67-503.7-264.76-23.09-2.11-46.15-3.16-69.05-3.16Z"/>
            <path class="cls-12" d="M1784.53,1728.65c-24.05,0-48.21-1.1-72.45-3.32-207.5-18.98-395.19-117.64-528.5-277.79-133.3-160.15-196.26-362.63-177.28-570.13,18.98-207.5,117.64-395.2,277.79-528.5,160.15-133.31,362.65-196.26,570.13-177.28,207.5,18.98,395.19,117.64,528.5,277.79,133.3,160.15,196.26,362.63,177.28,570.13-18.98,207.5-117.64,395.2-277.79,528.5-141.44,117.73-315.9,180.59-497.68,180.59Zm-2.69-1523.73c-173.26,0-339.52,59.91-474.33,172.12-152.64,127.05-246.66,305.94-264.76,503.71-18.09,197.77,41.91,390.75,168.96,543.38,127.05,152.64,305.94,246.67,503.7,264.76,197.78,18.11,390.75-41.91,543.38-168.96,152.64-127.05,246.67-305.94,264.76-503.7l18.22,1.67-18.22-1.67c18.09-197.77-41.91-390.75-168.96-543.39-127.05-152.64-305.93-246.67-503.7-264.76-23.09-2.11-46.15-3.16-69.05-3.16Z"/>
            <path class="cls-12" d="M1783.68,1732.62c-23.86,0-47.85-1.08-71.98-3.29-355.74-32.54-644.32-300.89-702.25-652.78-.11-.48-.21-.97-.29-1.47-10.63-64.93-12.94-131.55-6.86-198.03,2.7-29.46,7.05-58.73,12.93-87.01,80.13-391.24,441.01-658.8,839.35-622.39,398.49,36.45,704.81,365.19,712.53,764.66,.6,28.95-.45,58.45-3.12,87.63h0c-6.07,66.38-20.41,131.47-42.61,193.48-.17,.48-.36,.95-.56,1.42-112.7,312.77-409.3,517.78-737.14,517.79Zm-730.35-664.37c54.24,332.34,326.6,585.88,662.43,616.61,335.82,30.71,649.71-169.18,763.41-486.19,.19-.55,.4-1.1,.63-1.63,20.66-58.07,34.02-119.02,39.71-181.19h0c2.52-27.52,3.51-55.34,2.95-82.67-7.28-376.72-296.15-686.7-671.96-721.08-375.69-34.42-715.99,217.96-791.56,586.95-5.55,26.7-9.65,54.28-12.19,82.06-5.69,62.24-3.6,124.59,6.23,185.36,.14,.59,.25,1.18,.34,1.78Zm1488.42-50.36h0Z"/>
            <path class="cls-12" d="M2533.54,834.82c-7.75,0-14.88-4.95-17.39-12.62-94.38-289.18-358.77-494.64-673.56-523.44-314.54-28.81-611.8,125.14-757.19,392.13-4.59,8.44-14.91,11.88-23.65,7.9-8.74-3.98-12.91-14.03-9.56-23.03,122.34-328.84,452.15-536.13,802.04-504.14,350.11,32.04,636.88,295.93,697.35,641.75,1.65,9.45-4.28,18.58-13.6,20.9-1.48,.37-2.97,.55-4.44,.55ZM1767.49,258.72c26,0,52.14,1.18,78.44,3.59,236.42,21.63,445.72,138.66,581.61,315.1-118.29-204.8-331.12-346.89-576.65-369.35-245.41-22.47-480.45,78.6-633.95,258.45,147.23-132.2,342.94-207.79,550.55-207.79Z"/>
            <path class="cls-12" d="M2541.73,1017.91c-6.01,65.66-20.16,128.69-41.39,188,0,0-.07,0-.08,.06-154.86,242.22-454.37,435.42-777.83,405.82-323.46-29.59-582.87-273.93-691.21-540.23,0-.07-.06-.08-.06-.08-10.18-62.18-12.67-126.73-6.66-192.39,2.63-28.71,6.82-56.92,12.55-84.5,128.25-273.81,445.77-451.36,798.48-419.09,352.78,32.28,632.87,264.65,709.23,557.24,.58,28.09-.42,56.52-3.04,85.16Z"/>
            <g class="cls-9">
              <path class="cls-3" d="M2541.76,1017.93c-6.01,65.66-20.16,128.69-41.39,188,0,0-.07,0-.08,.06-154.86,242.22-454.37,435.4-777.83,405.81-323.45-29.59-582.87-273.91-691.21-540.21,0-.07-.06-.08-.06-.08-6.05-37.05-9.37-74.9-9.83-113.4,152.6,206.65,387.2,368.3,662.54,393.49,350.77,32.09,676.91-165.58,859.84-422.64,.37,1.29,.75,2.52,1.05,3.8,.58,28.09-.42,56.53-3.04,85.16Z"/>
            </g>
            <path class="cls-12" d="M1787.94,1633.07c-22.45,0-44.85-1.02-67.18-3.06-155.64-14.24-306.5-78.37-436.25-185.46-117.5-96.97-213.31-226.64-269.87-365.19-.73-1.53-1.25-3.18-1.54-4.92-10.58-64.6-12.88-130.89-6.82-197.02,2.68-29.3,7.01-58.42,12.86-86.56,.29-1.39,.74-2.75,1.35-4.04,65.41-139.65,177.11-254.69,323.01-332.7,148.39-79.33,319.12-112.8,493.71-96.85,174.62,15.98,336.46,79.92,468.02,184.92,129.35,103.23,218.3,236.68,257.25,385.92,.36,1.39,.56,2.81,.59,4.24,.59,28.85-.45,58.19-3.11,87.21h0c-6.04,66.03-20.3,130.8-42.38,192.5-.6,1.67-1.42,3.21-2.42,4.59-80.75,125.98-198.51,236.09-331.68,310.14-125.96,70.03-261.43,106.26-395.52,106.27Zm-739.07-566.69c98.71,240.97,345.43,497.02,675.23,527.19,329.84,30.2,618.95-176.85,759.75-395.9,20.62-58.17,33.96-119.2,39.66-181.43h0c2.47-26.94,3.48-54.16,3.01-80.96-77.57-293.2-355.62-510.72-692.64-541.55-336.95-30.83-649.83,132.53-779.34,406.69-5.35,26.13-9.32,53.15-11.81,80.35-5.7,62.31-3.63,124.74,6.15,185.61Z"/>
            <g class="cls-5">
              <ellipse class="cls-2" cx="2330.85" cy="988.43" rx="133.81" ry="96.96" transform="translate(796 3001.91) rotate(-75.66)"/>
            </g>
            <g class="cls-5">
              <ellipse class="cls-2" cx="2193.57" cy="1244.39" rx="61.42" ry="52.7" transform="translate(210.43 2802.41) rotate(-67.72)"/>
            </g>
            <g class="cls-5">
              <path class="cls-2" d="M1172.49,1121.47s-93.41-393.23,124.79-531.77c218.2-138.54,516.39-116.71,508.06-98.08,0,0-335.86,56.45-483.6,308.29-113.93,194.2-149.24,321.56-149.24,321.56Z"/>
            </g>
          </g>
        </g>
      </g>
    </g>
  </g>
</svg>