<?xml version="1.0" encoding="UTF-8"?>
<svg id="Layer_2" data-name="Layer 2" xmlns="http://www.w3.org/2000/svg" xmlns:xlink="http://www.w3.org/1999/xlink" viewBox="0 0 2878 2878">
  <defs>
    <style>
      .cls-1 {
        fill: url(#linear-gradient-2);
      }

      .cls-1, .cls-2 {
        opacity: .7;
      }

      .cls-3 {
        fill: #e7a900;
      }

      .cls-4 {
        fill: #fff;
      }

      .cls-5 {
        fill: #d1d1d1;
      }

      .cls-6 {
        fill: #d8d8d8;
      }

      .cls-7 {
        opacity: .5;
      }

      .cls-8 {
        fill: url(#linear-gradient);
        mix-blend-mode: multiply;
      }

      .cls-9 {
        fill: #fffd01;
      }

      .cls-10 {
        opacity: .2;
      }

      .cls-11 {
        fill: none;
        stroke: #371b45;
        stroke-miterlimit: 10;
        stroke-width: 34px;
      }

      .cls-12 {
        fill: #ffeb52;
      }

      .cls-13 {
        opacity: .3;
      }

      .cls-14 {
        fill: #e81818;
      }

      .cls-15 {
        fill: #e2e8e8;
      }

      .cls-16 {
        fill: #e5e5e5;
      }

      .cls-17 {
        fill: #220f2d;
      }

      .cls-18 {
        fill: #22a7f0;
      }

      .cls-19 {
        clip-path: url(#clippath);
      }

      .cls-20 {
        fill: #000072;
      }

      .cls-21 {
        fill: #c891ff;
      }

      .cls-22 {
        fill: #371a45;
      }

      .cls-23 {
        filter: url(#luminosity-noclip-2);
      }

      .cls-24 {
        mask: url(#mask-1);
      }

      .cls-25 {
        mask: url(#mask);
      }

      .cls-26 {
        fill: #c93535;
      }

      .cls-27 {
        opacity: .25;
      }
    </style>
    <clipPath id="clippath">
      <rect class="cls-11" x="17" y="17" width="2844" height="2844" rx="1422" ry="1422"/>
    </clipPath>
    <filter id="luminosity-noclip-2" data-name="luminosity-noclip" x="1404.3" y="2029.07" width="344.7" height="262.85" color-interpolation-filters="sRGB" filterUnits="userSpaceOnUse">
      <feFlood flood-color="#fff" result="bg"/>
      <feBlend in="SourceGraphic" in2="bg"/>
    </filter>
    <filter id="luminosity-noclip-3" x="9389" y="-9932" width="-32766" height="32766" color-interpolation-filters="sRGB" filterUnits="userSpaceOnUse">
      <feFlood flood-color="#fff" result="bg"/>
      <feBlend in="SourceGraphic" in2="bg"/>
    </filter>
    <mask id="mask-1" x="9389" y="-9932" width="-32766" height="32766" maskUnits="userSpaceOnUse"/>
    <linearGradient id="linear-gradient" x1="2475.48" y1="1138.5" x2="2474.82" y2="1327.76" gradientTransform="translate(1796.45 -581) rotate(121.17) scale(1 -1)" gradientUnits="userSpaceOnUse">
      <stop offset="0" stop-color="#fff"/>
      <stop offset="1" stop-color="#000"/>
    </linearGradient>
    <mask id="mask" x="1404.3" y="2029.07" width="344.7" height="262.85" maskUnits="userSpaceOnUse">
      <g class="cls-23">
        <g class="cls-24">
          <path class="cls-8" d="M1405.07,2128.82l265.03,163.1c30.48-12.83,57.87-33.71,78.9-61.81l-326.69-201.04c-14.7,31.99-20.18,66.36-17.25,99.75Z"/>
        </g>
      </g>
    </mask>
    <linearGradient id="linear-gradient-2" x1="2475.48" y1="1138.5" x2="2474.82" y2="1327.76" gradientTransform="translate(1796.45 -581) rotate(121.17) scale(1 -1)" gradientUnits="userSpaceOnUse">
      <stop offset="0" stop-color="#fff"/>
      <stop offset="1" stop-color="#fff"/>
    </linearGradient>
  </defs>
  <g id="Layer_1-2" data-name="Layer 1">
    <g>
      <g class="cls-19">
        <rect class="cls-21" x="288" y="288" width="2302" height="2302" rx="1151" ry="1151"/>
        <g>
          <g>
            <g>
              <path class="cls-15" d="M579.61,3024.57c-26.84,48.21-74.98,70.62-74.98,70.62,0,0-35.71-26.13-69.01-100.04-33.3-73.91-29.44-118.47-29.44-118.47,0,0,48.13-22.42,101.57-11.6l71.85,159.49Z"/>
              <path class="cls-22" d="M502.76,3114.31l-7.88-5.77c-1.6-1.17-39.63-29.59-74.32-106.59-34.67-76.95-31.01-124.69-30.83-126.69l.83-9.52,8.66-4.04c2.17-1,53.72-24.58,111.83-12.81,8.95,1.81,14.73,10.54,12.92,19.48-1.81,8.94-10.53,14.74-19.48,12.92-33.94-6.87-66.13,1.43-81.66,6.7,.98,16.17,5.84,51.45,27.88,100.37,21.85,48.5,44.73,75.21,56.23,86.69,14.13-8.58,41.22-27.94,58.24-58.52,4.44-7.98,14.52-10.84,22.48-6.4,7.98,4.44,10.84,14.51,6.4,22.48-29.12,52.29-80.28,76.56-82.44,77.57l-8.86,4.12Z"/>
              <path class="cls-14" d="M634.96,3070.5c-89.68,19.34-131.23-79.29-141.57-102.23-10.34-22.94-56.66-119.35,16.3-175.8,73.81-57.04,439.2-193.7,497.8-63.63,58.6,130.07-281.84,322.12-372.54,341.65Z"/>
              <g class="cls-2">
                <path class="cls-4" d="M484.11,2946.45c-7.01-36.97-3.91-81.75,37.38-113.67,71.94-55.61,420.88-186.81,492.75-72.98-.08-10.61-2.23-20.99-6.73-30.96-58.61-130.08-424.01,6.58-497.83,63.62-58.33,45.11-40.4,115.76-25.58,153.99Z"/>
              </g>
              <g class="cls-13">
                <path class="cls-22" d="M620.95,3037.4c-70.73,15.26-111.5-42.83-130.66-79.35,16.24,6.27,34.99,8.51,56.54,3.83,78.26-16.81,342.36-162.06,375.79-285.14,33.5,4.65,60.52,16.48,76.62,38.1,20.79,129-291.94,303.98-378.28,322.56Z"/>
              </g>
              <path class="cls-22" d="M612.32,3089.52c-42.31,0-93.22-23.34-133.16-112.58l-1.69-3.75c-49.03-108.1-15.04-165.05,22.11-193.78,66.06-51.06,316.57-147.41,446.72-114.91,37.63,9.4,63.29,28.77,76.27,57.57,13.01,28.87,10.59,61.35-7.18,96.53-61.19,121.15-296.11,250.66-376.95,268.07-8.17,1.76-16.94,2.86-26.11,2.86Zm274.01-398.52c-125.53,0-315.42,75.05-366.52,114.55-40.87,31.62-44.87,81.99-12.22,153.98l1.76,3.9c32.2,71.95,72.14,101.7,122.13,90.91h0c72.05-15.51,299.42-141.79,354.41-250.66,13.23-26.19,15.37-48.45,6.54-68.04-8.73-19.38-26.44-32.16-54.14-39.08-15.37-3.84-32.93-5.57-51.96-5.57Z"/>
              <path class="cls-22" d="M766.15,3029.4c-4.56,0-9.09-1.87-12.36-5.55-72.82-81.9-118.43-183.09-131.88-292.6-1.13-8.78,4.88-16.95,13.68-18.42,8.99-1.5,17.52,4.58,19.02,13.58l.1,.72c12.61,102.86,55.42,197.87,123.78,274.76,6.07,6.82,5.46,17.27-1.37,23.33-3.15,2.8-7.07,4.18-10.98,4.18Z"/>
            </g>
            <g>
              <g>
                <path class="cls-14" d="M139.48,2296.98s-136.75-75.82-278.33,206.64c-6.65,13.27,.3,29.4,14.43,33.33,75.9,21.07,290.67,67.06,336.79-71.35l-72.89-168.61Z"/>
                <path class="cls-3" d="M150.51,2321.13s-97.04-53.8-197.34,147.21c-4.39,8.8,.23,19.51,9.59,22.13,52.59,14.74,206.44,48.46,239.29-50.12l-51.54-119.22Z"/>
                <path class="cls-9" d="M165.14,2337.8s-65.48-36.3-133.16,99.33c-2.96,5.94,.16,13.16,6.47,14.93,35.49,9.94,139.3,32.7,161.46-33.82l-34.78-80.44Z"/>
                <path class="cls-22" d="M38.47,2578.29c-63.51,0-127.5-14.37-167.3-25.42-11.43-3.17-20.76-11.25-25.61-22.17-4.92-11.07-4.62-23.65,.82-34.49,61.05-121.8,129.33-195.11,202.95-217.87,57.51-17.79,96.54,3.28,98.17,4.19l4.92,2.73,77.63,179.58-1.99,5.99c-27.98,83.97-108.39,107.47-189.59,107.47Zm56.75-274.07c-10.59,0-23.2,1.56-37.42,6.11-44.16,14.13-111.55,60.41-181.86,200.7-1.35,2.7-.68,5.09-.15,6.27,.48,1.09,1.67,3.01,4.23,3.72,62.68,17.39,268.11,64.05,314.6-54.87l-67.73-156.67c-5.81-2.16-16.73-5.26-31.66-5.26Z"/>
              </g>
              <path class="cls-15" d="M310.5,2403.74c-26.84,48.21-74.98,70.62-74.98,70.62,0,0-35.71-26.13-69.01-100.04-33.3-73.91-29.44-118.47-29.44-118.47,0,0,48.13-22.42,101.57-11.6l71.85,159.49Z"/>
              <path class="cls-22" d="M233.65,2493.47l-7.88-5.77c-1.6-1.17-39.63-29.59-74.32-106.59-34.67-76.96-31.01-124.7-30.83-126.69l.83-9.52,8.66-4.04c2.17-1.01,53.73-24.57,111.83-12.81,8.95,1.81,14.73,10.54,12.92,19.48-1.81,8.94-10.53,14.75-19.48,12.92-33.94-6.88-66.13,1.43-81.66,6.7,.98,16.17,5.84,51.46,27.88,100.38,21.85,48.5,44.76,75.24,56.22,86.69,14.13-8.58,41.22-27.94,58.25-58.52,4.44-7.98,14.52-10.84,22.48-6.4,7.98,4.44,10.84,14.51,6.4,22.48-29.12,52.29-80.28,76.56-82.44,77.57l-8.86,4.12Z"/>
              <path class="cls-14" d="M365.85,2449.67c-89.68,19.34-131.23-79.29-141.57-102.23-10.34-22.94-56.66-119.35,16.3-175.8,73.81-57.04,439.2-193.7,497.8-63.63,58.6,130.07-281.84,322.12-372.54,341.65Z"/>
              <g class="cls-2">
                <path class="cls-4" d="M215,2325.62c-7.01-36.97-3.91-81.75,37.38-113.67,71.94-55.61,420.88-186.81,492.75-72.98-.08-10.61-2.23-20.99-6.73-30.96-58.61-130.08-424.01,6.58-497.83,63.62-58.33,45.11-40.4,115.76-25.58,153.99Z"/>
              </g>
              <g class="cls-13">
                <path class="cls-22" d="M351.84,2416.57c-70.73,15.26-111.5-42.83-130.66-79.35,16.24,6.27,34.99,8.51,56.54,3.83,78.26-16.81,342.36-162.06,375.79-285.14,33.5,4.65,60.52,16.48,76.62,38.1,20.79,129-291.94,303.98-378.28,322.56Z"/>
              </g>
              <path class="cls-22" d="M343.21,2468.68c-42.31,0-93.22-23.34-133.16-112.57l-1.7-3.76c-49.02-108.1-15.03-165.05,22.11-193.78,66.07-51.06,316.6-147.4,446.73-114.91,37.63,9.4,63.29,28.77,76.26,57.57,13.01,28.87,10.59,61.35-7.18,96.53-61.19,121.15-296.11,250.66-376.95,268.07-8.17,1.76-16.94,2.86-26.11,2.86Zm274.01-398.52c-125.53,0-315.42,75.06-366.53,114.55-40.87,31.62-44.87,81.99-12.22,153.98l1.76,3.91c32.21,71.95,72.15,101.7,122.13,90.9h0c72.05-15.51,299.41-141.79,354.4-250.66,13.23-26.19,15.37-48.46,6.54-68.05-8.73-19.37-26.43-32.16-54.13-39.08-15.36-3.84-32.93-5.57-51.96-5.57Z"/>
              <path class="cls-22" d="M497.04,2408.57c-4.56,0-9.09-1.87-12.36-5.55-72.84-81.91-118.45-183.13-131.89-292.69l-.13-2.01c0-9.13,7.4-16.54,16.53-16.54,8.56,0,15.59,6.49,16.44,14.82,12.66,102.75,55.45,197.65,123.74,274.46,6.07,6.82,5.46,17.27-1.37,23.33-3.15,2.8-7.07,4.18-10.98,4.18Z"/>
            </g>
            <path class="cls-15" d="M755.37,2854.81l-103.83,23.49c-46.97,10.63-95.9-5.84-127.38-42.86h0c-93.76-110.26-156.07-244.5-180.18-388.17h0c-8.1-48.25,10.5-97.11,48.43-127.22l83.84-66.55,279.12,601.32Z"/>
            <g class="cls-13">
              <path class="cls-4" d="M405.7,2643.49c3.24,7.49,6.61,14.93,10.1,22.31-20.86-52.66-36.22-107.64-45.7-164.07-4.04-24.13-1.44-48.41,6.94-70.44,8.4-21.99,22.52-41.75,41.5-56.82l83.83-66.52-10.33-22.14-9.49-23.63-83.81,66.56c-18.98,15.06-33.12,34.78-41.5,56.82-8.4,21.99-11,46.27-6.96,70.4,10.9,64.88,29.56,127.82,55.42,187.54Z"/>
            </g>
            <path class="cls-4" d="M2700.35,1595.22c0,1.23-.05,2.45-.1,3.68,0,.66-.05,1.33-.1,1.99,0,.56-.05,1.12-.1,1.69-.05,.51-.1,1.07-.15,1.58,0,.1,0,.2-.05,.31v.2c0,.2-.05,.36-.05,.56-.05,.61-.15,1.23-.26,1.84,0,.2-.05,.41-.1,.61-.1,1.07-.31,2.15-.51,3.22-.15,1.07-.36,2.2-.61,3.27-.1,.56-.26,1.12-.36,1.74-.15,.61-.31,1.23-.41,1.89-.1,.26-.15,.51-.2,.77-.05,.15-.05,.31-.1,.51v.05c0,.1-.05,.26-.05,.41-.05,0-.05,.05-.05,.05-.05,0-.05,.05-.05,.05,0,.05-.05,.1-.05,.15-.05,.15-.05,.31-.1,.46-.05,.1-.05,.2-.05,.31v.1c-.05,.1-.05,.2-.05,.31-.05,0-.05,.05-.05,.1-.05,0-.05,.05-.05,.1-.05,.26-.1,.56-.15,.82-.05,.15-.1,.26-.1,.41,0,0-.05,0-.05,.05,0,.15-.05,.26-.1,.36,0,.05,0,.2-.05,.31v.26c0,.05-.05,.1-.05,.15-.1,.46-.2,.92-.31,1.38-.05,.26-.1,.46-.15,.72-.05,.15-.1,.31-.15,.51v.05c0,.05,0,.1-.05,.2v.1c-.1,.36-.2,.72-.26,1.12,0,0-.05,.05-.05,.1s0,.1-.05,.15c0,.2-.1,.41-.15,.66-.05,.15-.1,.31-.1,.46-.2,.72-.36,1.43-.51,2.15,0,.15-.05,.31-.1,.51-.05,.1-.05,.26-.1,.41,0,.05-.05,.15-.05,.26l-.05,.05c0,.05,0,.1-.05,.15,.05,0,.05,.05,.05,.05l-.05,.05v.05q0,.05-.05,.1v.2l-.05,.05v.1c-.15,.56-.26,1.18-.41,1.74-.1,.26-.2,.51-.26,.82-.05,.2-.05,.36-.1,.56-.05,.2-.05,.36-.15,.56-.05,.2-.1,.46-.15,.66-.05,.1-.05,.26-.1,.36,0,.1-.05,.26-.05,.36v.15c-.1,.2-.15,.41-.15,.61q-.05,.05-.05,.1c-.05,.1-.05,.2-.1,.31-.05,.15-.05,.26-.1,.41,0,.05,0,.15-.05,.26-.1,.41-.2,.77-.31,1.18,0,.1,0,.15-.05,.26,0,0,0,.05-.05,.15v.15c-.05,.15-.1,.36-.15,.56-.1,.41-.2,.82-.31,1.23-.05,.26-.1,.46-.2,.72,0,.05,0,.15-.05,.2-.1,.46-.2,.92-.36,1.38,0,.05,0,.15-.05,.26-.15,.56-.31,1.18-.46,1.84,0,.05,0,.1-.05,.2,0,.1-.05,.15-.05,.26-.05,.2-.1,.46-.15,.66-.05,.1-.05,.26-.1,.41q-.05,.05-.05,.1c0,.1-.05,.15-.05,.2-.05,.15-.1,.36-.15,.56,0,.1-.05,.15-.05,.2,0,.1-.05,.26-.1,.36-.1,.51-.26,1.07-.41,1.58-.05,.1-.05,.26-.1,.41-.05,.15-.1,.31-.15,.46-.05,.31-.15,.61-.26,.97-.15,.77-.36,1.58-.61,2.4-.05,.31-.15,.66-.26,.97-.1,.41-.2,.77-.31,1.18q-.05,.05-.05,.1c-.46,1.84-.97,3.78-1.53,5.72-.05,.26-.1,.51-.2,.77-.05,.26-.15,.51-.2,.82-.05,.26-.15,.51-.26,.82,0,.1,0,.2-.05,.31-.15,.46-.26,.92-.41,1.43,0,.1-.05,.2-.1,.36-.1,.41-.2,.82-.31,1.18-.05,.1-.05,.2-.1,.26,0,.1-.05,.2-.05,.26-.05,.2-.1,.41-.2,.61,0,.1-.05,.2-.05,.36,0,0-.05,0-.05,.05-.05,.26-.1,.46-.2,.72-.05,.36-.15,.66-.26,1.02-.05,.15-.1,.31-.15,.51,0,0,0,.05-.05,.1,0,.05,0,.1-.05,.2,0,0,0,.05-.05,.1-.05,.15-.1,.31-.15,.46,0,.2-.05,.41-.15,.61,0,.15-.05,.36-.15,.56,0,0,.05,0,0,.05v.1c0,.05-.05,.1-.05,.15-.05,.1-.1,.26-.15,.46-.05,.31-.15,.61-.26,.92-.05,.2-.1,.46-.2,.72,0,.1-.05,.2-.1,.31,0,.1-.05,.2-.1,.31,0,.1-.05,.26-.1,.41v.05c-.05,.26-.15,.51-.26,.77-.05,.2-.1,.46-.2,.72,0,.05,0,.15-.05,.2,0,.15-.05,.26-.1,.41,0,.05,0,.1-.05,.15v.05l-.05,.05c0,.05,0,.1-.05,.2v.05c0,.1-.05,.2-.1,.36q0,.05-.05,.1c.05,.05,0,.05,0,.1l-.05,.05v.05c-.1,.36-.2,.77-.36,1.18v.1c-.05,.15-.05,.31-.15,.46,0,.05,0,.1-.05,.15-.05,.2-.1,.46-.2,.72,0,.05,0,.1-.05,.15,0,.15-.05,.31-.1,.46-.05,.05-.05,.15-.05,.2-.05,.15-.1,.26-.15,.41-.15,.56-.31,1.12-.51,1.74-.05,.26-.15,.56-.26,.87v.05c-.1,.26-.15,.46-.26,.72-.05,.1-.1,.2-.1,.31-.1,.31-.2,.66-.26,.97,0,.1-.05,.2-.1,.31,0,.1-.05,.2-.1,.36-.05,.2-.1,.46-.2,.72-.05,.05-.05,.1-.1,.15-.05,.2-.1,.41-.15,.61-.05,.2-.1,.41-.15,.61-.05,.05-.05,.1-.1,.2v.05c-.05,.2-.1,.46-.2,.72-.2,.66-.41,1.33-.61,1.99v.05c-.1,.26-.2,.56-.31,.87-.1,.31-.2,.61-.31,.97,0,.2-.1,.46-.2,.72,0,.05,0,.15-.1,.31v.1c0,.1-.05,.26-.1,.36-.05,.05-.05,.1-.05,.2-.15,.46-.31,.87-.46,1.33,0,.1-.05,.26-.1,.36-.1,.36-.2,.77-.36,1.18v.1c0,.1,0,.15-.05,.26-.26,.77-.46,1.48-.77,2.25,0,.05,0,.15-.1,.26,0,.15-.05,.31-.1,.46-.05,.05-.05,.15-.1,.2,0,.15-.05,.36-.15,.56,0,.05,0,.1-.05,.15,0,.05,0,.1-.05,.15,0,0,0,.05-.05,.1-.05,.26-.15,.56-.26,.87-.26,.87-.56,1.79-.87,2.71,0,.1-.05,.26-.1,.36-.2,.66-.46,1.38-.66,2.1,0,.05-.05,.15-.05,.2-.1,.26-.15,.51-.26,.77-.05,.15-.1,.31-.15,.46-.05,.1-.1,.26-.15,.41l-.05,.05c0,.05,0,.15-.05,.2v.1c0,.05-.05,.1-.05,.2-.15,.36-.26,.77-.41,1.23-.15,.51-.31,1.02-.51,1.53,0,.05-.05,.15-.05,.2s-.05,.05-.05,.1,0,.05-.05,.1c0,.05-.05,.15-.05,.2-.05,.1-.1,.26-.1,.36-.05,.2-.15,.41-.2,.61-.2,.61-.41,1.28-.61,1.89-.05,.15-.1,.26-.15,.41-.15,.51-.31,1.02-.51,1.53v.05c-.05,.15-.15,.36-.2,.61,0,.05-.05,.15-.1,.26-.1,.36-.26,.72-.36,1.07,0,.1-.05,.2-.1,.31-.05,.05-.05,.1-.05,.15-.1,.2-.15,.41-.2,.61-.56,1.58-1.07,3.17-1.64,4.8-.05,.1-.05,.2-.1,.31,0,.1,0,.2-.05,.31-.1,.2-.15,.41-.26,.61v.05c-.05,.1-.1,.2-.1,.31-.05,.05-.1,.15-.15,.26v.1c-.05,.05-.05,.1-.05,.2-.05,.1-.05,.2-.1,.31-.1,.2-.15,.36-.2,.56v.05c-.1,.2-.15,.46-.26,.66,0,.1-.05,.15-.05,.26l-.05,.05c0,.05-.05,.15-.05,.2-.15,.41-.31,.82-.41,1.23-.05,.1-.1,.26-.15,.36-.05,.15-.15,.36-.26,.56,0,0,.05,.05,0,.1,0,.05,0,.1-.05,.15,0,.05-.05,.15-.05,.26q0,.05-.05,.1c-.05,.15-.05,.26-.1,.41-.1,.2-.2,.46-.26,.66-.1,.31-.26,.66-.36,1.02-.05,.15-.1,.36-.2,.56,0,.05,0,.1-.05,.15,0,.05-.05,.05-.05,.1-.05,.05-.05,.15-.1,.2-.05,.2-.1,.41-.2,.61,0,.05,0,.1-.05,.15v.1c-.05,.15-.1,.26-.15,.41v.05c0,.05-.05,.05-.05,.1l-.05,.05c0,.05,0,.1-.05,.2-.26,.72-.51,1.48-.77,2.2-.15,.41-.31,.77-.46,1.18-.05,.31-.2,.61-.31,.92-.05,.2-.15,.46-.26,.72-.2,.51-.41,1.07-.61,1.58-.05,.15-.05,.31-.1,.46-.05,.1-.05,.15-.1,.26,0,.05-.05,.15-.05,.26,0,.05-.05,.05-.05,.1-.26,.66-.51,1.38-.72,2.04l-.31,.77c-.2,.56-.41,1.18-.66,1.79-.05,.15-.1,.36-.2,.56-.1,.31-.26,.66-.36,.97-.1,.36-.26,.77-.41,1.12-.15,.46-.31,.97-.51,1.43-.2,.61-.46,1.23-.72,1.89,0,.05,0,.1-.05,.15-.05,.15-.1,.31-.15,.46,0,.05-.05,.15-.1,.26,0,.05,0,.1-.05,.15-.05,.15-.1,.36-.2,.56,0,.05,0,.1-.05,.15-.1,.26-.2,.56-.31,.87-.26,.61-.46,1.23-.72,1.84-.05,.1-.1,.26-.15,.41-.05,.2-.15,.41-.26,.66v.05c-.05,.1-.05,.15-.15,.26,0,.05,0,.1-.05,.2l-.05,.05c-.05,.15-.1,.31-.2,.46,0,.05-.05,.1-.05,.26-.15,.51-.36,1.02-.56,1.53,0,.15-.05,.31-.15,.46-.15,.46-.36,.87-.51,1.33-.05,.2-.1,.41-.26,.66,0,0,0,.05-.05,.1v.1l-.05,.05v.1c-.05,.1-.1,.2-.15,.36-.1,.31-.2,.61-.36,.97-.05,.1-.1,.2-.15,.31,0,.05,0,.15-.05,.2,0,.05-.05,.15-.1,.2,0,.05,0,.1-.05,.15v.1l-.05,.05c0,.05,0,.15-.05,.2-.46,1.23-.92,2.45-1.43,3.68-.2,.56-.46,1.18-.66,1.74-.05,.15-.15,.36-.26,.51,0,.1-.05,.2-.1,.36-.05,.15-.15,.31-.2,.51,0,0,0,.05-.05,.1v.1c0,.1-.05,.15-.1,.26-.05,.1-.05,.15-.1,.26-.05,.15-.1,.31-.15,.46-.31,.77-.61,1.48-.87,2.25-.05,.05-.05,.1-.05,.1q-.05,0-.05,.05c-.05,.05-.05,.1-.1,.2-.1,.2-.15,.46-.26,.66-.15,.41-.31,.87-.46,1.28h-.05c-.05,.1-.05,.2-.1,.31-.1,.2-.15,.41-.2,.56-.05,.15-.1,.26-.15,.41-.05,.05-.1,.1-.05,.15,0,.05-.05,.05-.05,.1s0,.05-.05,.1-.05,.1-.05,.1c-.05,.15-.1,.26-.15,.36v.05c-.1,.31-.26,.61-.36,.92-.05,.1-.1,.15-.1,.26-.05,.05-.05,.1-.1,.15-.05,.1-.05,.15-.1,.26-.05,.2-.15,.36-.2,.56-.15,.36-.26,.66-.41,1.02-.26,.56-.46,1.18-.72,1.79-.05,.15-.15,.31-.2,.51-.1,.2-.15,.41-.26,.61v.1l-.05,.05v.05c-.05,.05-.05,.15-.1,.26,0,.1-.05,.15-.1,.26,0,.05-.05,.1-.1,.2-.1,.26-.2,.51-.31,.82,0,.05-.05,.15-.1,.26-.1,.15-.15,.31-.26,.51-.15,.36-.26,.72-.41,1.07-.1,.31-.2,.61-.36,.92-.1,.2-.15,.41-.26,.61-.05,.15-.1,.31-.2,.46,.05,.05,0,.05,0,.1-.15,.31-.26,.61-.41,.92,0,.05,0,.1-.05,.15-.26,.61-.51,1.23-.77,1.84-.05,.15-.1,.26-.15,.41-.31,.72-.56,1.38-.87,2.1-.15,.41-.36,.87-.51,1.28-.1,.2-.2,.41-.31,.66,0,.05,0,.1-.05,.15-.05,.1-.1,.2-.15,.36,0,.05,0,.1-.05,.2h-.05c-.05,.2-.15,.41-.26,.66v.05c-.05,.15-.15,.31-.2,.46-.05,.15-.1,.31-.2,.46-.05,.1-.1,.26-.15,.41,0,.05,0,.1-.05,.15-.15,.41-.36,.82-.51,1.23-.1,.31-.26,.56-.36,.87h-.05v.05c-.05,.05-.05,.1-.05,.15-.36,.77-.66,1.58-1.02,2.35-.1,.31-.26,.61-.36,.92-.36,.87-.72,1.74-1.12,2.61-.31,.72-.61,1.38-.92,2.1-.15,.41-.36,.82-.51,1.23-.26,.51-.46,1.07-.66,1.58-.15,.41-.36,.82-.51,1.23-.26,.61-.56,1.23-.82,1.89-.1,.26-.2,.56-.36,.87-.05,.1-.15,.26-.2,.41,0,0,0,.05-.05,.1,0,.05,0,.1-.05,.15-.1,.31-.26,.61-.41,.92,0,.1-.05,.2-.1,.31-.05,.05-.05,.15-.1,.26l-1.12,2.56c-.36,.77-.72,1.58-1.07,2.4-.2,.46-.41,.92-.61,1.38l-.05,.05c-.1,.26-.2,.46-.31,.72-.46,.97-.92,1.99-1.33,2.96-.1,.2-.15,.41-.26,.61-.1,.2-.2,.41-.31,.61-.1,.2-.15,.41-.26,.56-.1,.26-.2,.46-.26,.72-.87,1.84-1.69,3.73-2.56,5.62-.05,.15-.1,.26-.2,.36-.26,.56-.51,1.18-.77,1.74-.05,.15-.15,.31-.26,.46v.05c0,.05,0,.1-.05,.15-.05,.15-.1,.31-.2,.46,0,.1-.05,.2-.1,.31-.15,.31-.26,.61-.41,.97-.41,.87-.77,1.69-1.18,2.5-.15,.31-.31,.66-.51,1.02-.2,.46-.41,.97-.66,1.48-.51,1.12-1.02,2.2-1.53,3.32-.1,.2-.2,.41-.31,.66-.1,.2-.2,.41-.31,.61-.1,.2-.15,.41-.26,.61-.2,.36-.36,.72-.51,1.07-.1,.2-.2,.41-.31,.66-.05,.1-.1,.2-.2,.36-.2,.36-.36,.77-.51,1.12-.36,.66-.66,1.33-.97,1.99-.46,1.02-.97,2.04-1.43,3.12-.15,.31-.26,.56-.46,.87-.1,.2-.2,.36-.26,.51-.05,.2-.15,.41-.26,.61-.1,.26-.2,.46-.36,.72,.05,.05,0,.05,0,.05-.05,.05-.05,.15-.15,.26,0,.05,0,.1-.05,.15-.36,.72-.72,1.48-1.02,2.2-.31,.61-.61,1.23-.92,1.89,0,0-.05,0-.05,.05s0,.05-.05,.1v.05h-.05c0,.05-.05,.1-.05,.15-.15,.36-.31,.72-.51,1.07-.2,.41-.41,.87-.66,1.33-.15,.41-.36,.77-.56,1.18-.2,.41-.41,.87-.61,1.28v.05h-.05c-.1,.2-.2,.36-.26,.56-.05,.2-.2,.46-.31,.66-.15,.31-.36,.66-.46,1.02-.36,.72-.72,1.43-1.07,2.15-.2,.41-.46,.82-.66,1.28-.31,.61-.61,1.28-.97,1.94-.05,.05-.05,.1-.1,.15-.51,1.07-1.07,2.15-1.58,3.22-.1,.15-.15,.31-.2,.46-.05,.1-.1,.26-.2,.41,0,.05-.05,.1-.1,.2-.15,.26-.26,.46-.41,.77-.2,.46-.46,.92-.66,1.38-.05,.1-.1,.2-.15,.31,0,.05-.05,.1-.05,.15s-.05,.05-.05,.1c-.1,.15-.15,.31-.26,.41-.2,.41-.41,.82-.61,1.23-.05,.15-.15,.36-.26,.51-.41,.87-.87,1.79-1.28,2.66-.92,1.74-1.79,3.42-2.71,5.21-.15,.36-.36,.77-.61,1.18-.05,.15-.1,.31-.2,.46-.15,.26-.26,.51-.46,.82,0,0,.05,0,0,.05h-.05c.05,.05,0,.1-.05,.15,0,.05,0,.1-.05,.15,0,0,0,.05-.05,.1s-.1,.15-.15,.26c0,.05-.05,.1-.1,.2,0,.05,0,.1-.1,.15-.56,1.07-1.12,2.2-1.74,3.32,0,.1-.1,.26-.15,.36-1.23,2.4-2.5,4.8-3.78,7.26-.15,.26-.31,.56-.46,.87-.51,.87-.97,1.79-1.48,2.71,0,.05-.05,.1-.05,.15-.51,1.02-1.02,1.99-1.58,3.02-.41,.77-.82,1.58-1.28,2.35l-.05,.05c0,.05-.05,.15-.05,.2-.05,.05-.1,.15-.15,.31-.1,.1-.15,.26-.26,.41-.66,1.23-1.33,2.45-1.99,3.73-.15,.26-.31,.51-.41,.77-.36,.66-.72,1.38-1.07,2.04-.51,.92-1.07,1.89-1.58,2.81-.2,.41-.41,.77-.61,1.12-.15,.2-.26,.46-.41,.72-.41,.82-.87,1.58-1.33,2.4-.31,.66-.72,1.28-1.07,1.94-.2,.41-.41,.82-.66,1.28-.2,.36-.41,.77-.66,1.18-.31,.56-.61,1.12-.92,1.69-.15,.2-.26,.46-.46,.72-.41,.72-.77,1.38-1.18,2.1-.05,.15-.1,.31-.26,.46,0,.05-.05,.15-.1,.26-.26,.41-.51,.87-.77,1.33-.2,.36-.36,.66-.61,1.02-.41,.72-.82,1.48-1.23,2.2-.26,.46-.51,.92-.77,1.38-.31,.56-.66,1.12-.97,1.74-.31,.56-.61,1.12-.97,1.69-.15,.36-.36,.72-.56,1.07l-.15,.15c-.1,.15-.2,.36-.31,.56-.05,.15-.15,.26-.2,.41-.31,.51-.56,1.02-.92,1.53-1.23,2.15-2.45,4.29-3.73,6.44,0,.05-.05,.15-.1,.2,0,.05-.05,.1-.1,.2-.1,.2-.2,.36-.36,.56-.15,.26-.31,.51-.46,.77-.51,.87-1.02,1.79-1.58,2.71-.77,1.28-1.48,2.56-2.25,3.83-.05,.15-.15,.36-.26,.51-.05,.05-.1,.1-.1,.15-.15,.2-.31,.46-.41,.72-.82,1.33-1.64,2.66-2.4,4.04-.1,.05-.15,.15-.2,.31-.15,.31-.36,.61-.56,.97-.2,.41-.46,.82-.72,1.23-.1,.15-.2,.31-.36,.51-.05,.15-.15,.31-.26,.46-.1,.2-.2,.41-.41,.66-.61,.97-1.18,1.94-1.79,2.96-.15,.36-.41,.72-.66,1.12-.72,1.23-1.48,2.45-2.25,3.68v.05c-.26,.46-.56,.92-.87,1.38-.05,.15-.15,.31-.26,.46-.2,.36-.41,.72-.61,1.07-.15,.26-.31,.51-.46,.72-.1,.15-.2,.31-.36,.46-.05,.15-.15,.26-.2,.36-.26,.46-.51,.92-.82,1.38-.97,1.64-1.99,3.27-3.07,4.91-.1,.2-.26,.46-.41,.72-.61,1.02-1.28,2.04-1.89,3.07-.15,.15-.26,.36-.41,.56v.05c-.05,.05-.05,.1-.1,.15-.1,.1-.2,.26-.26,.41-.36,.56-.72,1.12-1.07,1.69-.26,.36-.51,.77-.77,1.23-.41,.72-.87,1.48-1.33,2.2-.77,1.18-1.48,2.35-2.3,3.53-.66,1.02-1.33,2.1-1.99,3.12-.61,.92-1.23,1.89-1.79,2.81-.2,.31-.41,.61-.61,.97-.46,.72-.92,1.38-1.38,2.1-.36,.66-.77,1.28-1.23,1.94-.66,1.02-1.33,2.04-1.99,3.07-.26,.46-.51,.87-.82,1.33-.87,1.33-1.79,2.71-2.66,4.04-.46,.66-.92,1.38-1.38,2.04-.46,.66-.87,1.33-1.33,1.99-.26,.31-.46,.61-.66,.97-.31,.41-.61,.87-.87,1.33-.97,1.53-1.99,3.02-3.07,4.55-.46,.72-.92,1.43-1.43,2.15-1.64,2.45-3.32,4.96-5.01,7.41,0,0,0,.05-.05,.05-.61,.97-1.33,1.99-2.04,2.96-.77,1.12-1.53,2.3-2.35,3.48-.1,.1-.2,.26-.31,.46-.41,.56-.82,1.12-1.23,1.74-.15,.26-.36,.56-.51,.82-.2,.26-.41,.51-.56,.82-.77,1.07-1.48,2.2-2.25,3.27-.31,.46-.66,.87-.97,1.33-.15,.2-.36,.46-.51,.72-.05,0,0,.05,0,.05-.36,.51-.72,1.02-1.12,1.58-1.38,2.04-2.86,4.09-4.29,6.13-1.43,1.99-2.86,3.99-4.29,6.03-.1,.1-.2,.2-.31,.36-.05,.1-.15,.2-.2,.36-.26,.41-.56,.77-.87,1.18-.15,.15-.31,.36-.41,.56-.31,.41-.61,.82-.87,1.23-.05,.05-.05,.1-.15,.15-2.2,3.02-4.45,6.08-6.64,9.15-.46,.61-.92,1.28-1.48,1.94-.15,.31-.41,.56-.61,.87,0,.05-.05,.05-.05,.1-.41,.56-.82,1.12-1.28,1.74-.41,.56-.87,1.12-1.28,1.69-.51,.72-1.02,1.38-1.53,2.1-.77,1.02-1.53,2.04-2.3,3.07-.05,.05-.1,.1-.15,.15-.05,.15-.2,.36-.41,.56-.31,.51-.72,.97-1.07,1.48-.2,.26-.41,.56-.66,.87-2.25,3.02-4.55,6.03-6.85,9.1-.36,.46-.72,.92-1.02,1.38-.05,.05-.1,.1-.15,.15-.1,.1-.2,.26-.31,.41-.31,.41-.66,.82-.97,1.28-.36,.46-.72,.92-1.07,1.38-.92,1.23-1.89,2.5-2.86,3.73-1.07,1.43-2.2,2.86-3.37,4.34-1.69,2.25-3.42,4.5-5.26,6.75-1.07,1.33-2.1,2.66-3.17,4.04-.66,.82-1.33,1.64-1.99,2.5-.2,.31-.46,.66-.77,.97-.15,.15-.26,.31-.41,.51,0,0-.05,0,0,.05-2.4,3.02-4.86,6.08-7.36,9.15-1.89,2.35-3.78,4.7-5.72,7.05-.26,.31-.51,.66-.82,.97-2.25,2.81-4.55,5.62-6.95,8.43-1.84,2.25-3.73,4.55-5.72,6.85-.26,.26-.46,.51-.61,.77-1.89,2.35-3.88,4.65-5.98,7-.26,.31-.56,.66-.87,1.02-2.04,2.56-4.14,5.01-6.39,7.46-.2,.2-.36,.41-.51,.61-1.36,1.58-2.78,3.16-4.16,4.75-.25,.3-.5,.59-.75,.87-.56,.66-1.12,1.28-1.69,1.94-.21,.24-.44,.48-.66,.72-.83,.93-1.61,1.87-2.45,2.8-1.23,1.48-2.56,2.91-3.88,4.4-.05,.05-.15,.15-.2,.26-.1,.1-.2,.2-.36,.36-.46,.51-.92,1.07-1.43,1.64-4.96,5.67-10.12,11.4-15.33,17.07-.41,.36-.77,.77-1.12,1.18-.61,.66-1.23,1.33-1.89,2.04-3.17,3.42-6.39,6.9-9.66,10.37l.05,.1c-3.58,3.73-7.1,7.61-10.73,11.35-18.14,19.17-37.1,38.18-56.98,57.09l-10.53,9.91c-.77,.77-1.48,1.43-2.2,2.15-4.29,4.04-8.64,8.02-12.98,12.06-61.23,56.27-130.53,111.98-208.98,165.74-5.57,3.83-11.24,7.67-16.92,11.5-23.56,15.89-47.84,31.53-73.03,46.97-8.38,5.16-16.87,10.27-25.45,15.38-12.73,7.56-25.6,15.03-38.74,22.54-11.65,6.64-23.36,13.13-34.91,19.42-5.83,3.22-11.6,6.29-17.38,9.45-8.64,4.6-17.22,9.15-25.81,13.59-8.59,4.45-17.12,8.84-25.6,13.08-17.02,8.59-33.88,16.87-50.65,24.74-9.15,4.4-18.25,8.64-27.29,12.73-3.37,1.53-6.8,3.07-10.12,4.6-4.14,1.84-8.23,3.63-12.32,5.47-5.57,2.4-10.99,4.8-16.46,7.21-4.65,1.99-9.3,3.99-13.95,5.98-9.2,3.88-18.25,7.67-27.29,11.35-4.34,1.74-8.64,3.53-12.93,5.21-21.16,8.48-42.01,16.35-62.5,23.82-5.01,1.79-10.02,3.58-15.03,5.32-4.96,1.79-9.91,3.53-14.82,5.21-9.97,3.37-19.73,6.7-29.49,9.91-4.86,1.53-9.76,3.12-14.57,4.65-4.96,1.58-9.81,3.12-14.77,4.65-9.25,2.81-18.4,5.62-27.5,8.28-.92,.26-1.84,.46-2.71,.77-7.26,2.1-14.46,4.14-21.57,6.13-16.76,4.6-33.27,8.94-49.52,12.98-4.24,1.02-8.48,2.04-12.73,3.07-24.89,5.98-49.11,11.24-72.73,15.84-3.63,.72-7.26,1.43-10.83,2.04-4.55,.87-9.05,1.69-13.44,2.5-7.46,1.33-14.82,2.61-22.13,3.88-11.35,1.89-22.44,3.58-33.42,5.11-3.17,.51-6.29,.92-9.4,1.38-4.24,.56-8.38,1.12-12.47,1.69-8.18,1.07-16.3,2.1-24.28,3.02-4.14,.46-8.28,.92-12.42,1.38-7.51,.82-14.97,1.53-22.28,2.2-1.84,.26-3.68,.41-5.52,.56-17.84,1.58-35.06,2.81-51.72,3.73-4.75,.26-9.45,.51-14.11,.72-.77,.05-1.53,.05-2.35,.1-4.86,.2-9.66,.41-14.36,.56-.56,.05-1.07,.05-1.58,.05-3.58,.1-7.05,.2-10.53,.26-3.63,.1-7.21,.15-10.78,.26-17.43,.26-34.04,.2-49.78-.15h-.15c-8.07-.15-15.95-.36-23.56-.66-8.13-.31-15.95-.66-23.56-1.07-56.12-3.32-97.67-9.71-122.45-14.41-12.73-2.4-21.01-4.4-24.53-5.32-1.33-.31-1.99-.46-1.99-.46l-.05-.1-.05-.05c-2.71-2.56-5.26-5.16-7.82-7.87-1.53-1.53-3.02-3.17-4.55-4.7-4.91-5.11-9.81-10.27-14.62-15.43-3.53-3.88-7.05-7.72-10.58-11.6l-.05-.05c-1.28-1.38-2.5-2.71-3.68-4.14-14.05-15.95-27.5-32.25-40.48-49.01-.2-.26-.36-.46-.51-.72-4.19-5.37-8.23-10.73-12.27-16.2-4.09-5.52-8.08-11.09-12.11-16.76-.51-.77-1.02-1.48-1.53-2.2,0,0,0-.05-.05-.05-3.58-5.16-7.1-10.32-10.63-15.59-2.66-3.99-5.26-7.92-7.82-11.91-2.96-4.4-5.83-8.79-8.53-13.29v-.05c-2.25-3.42-4.34-6.9-6.44-10.43-3.63-5.98-7.21-11.96-10.73-18.04-.15-.31-.31-.56-.51-.87-.15-.31-.31-.56-.46-.87h-.05c-2.71-4.8-5.47-9.66-8.13-14.46-3.88-6.9-7.61-13.8-11.19-20.8-2.81-5.42-5.62-10.89-8.33-16.35-.41-.77-.82-1.64-1.23-2.45-6.18-12.67-12.16-25.35-17.84-38.28-.26-.66-.61-1.28-.87-1.89v-.05c-1.28-2.91-2.5-5.78-3.73-8.69-2.76-6.39-5.42-12.78-8.02-19.27-3.17-7.82-6.24-15.69-9.1-23.66-1.38-3.68-2.66-7.26-3.99-10.94-4.29-11.86-8.33-23.87-12.16-35.98v-.05c-1.94-6.34-3.94-12.67-5.78-19.06-1.02-3.73-2.15-7.46-3.12-11.19-1.02-3.32-1.94-6.64-2.76-10.07-.1-.15-.15-.36-.2-.56-1.33-5.06-2.66-10.12-3.88-15.23-.66-2.61-1.28-5.21-1.94-7.92-.51-2.1-1.02-4.24-1.53-6.39v-.05c-.46-2.1-.97-4.19-1.43-6.34-.26-1.18-.56-2.4-.77-3.58-.61-2.61-1.18-5.26-1.74-7.87-.56-2.66-1.12-5.26-1.64-7.92-.77-3.63-1.48-7.26-2.15-10.94-.36-1.64-.66-3.27-.97-4.91-.97-5.11-1.84-10.17-2.76-15.28-.72-4.14-1.38-8.33-2.04-12.57-.61-4.04-1.23-8.13-1.79-12.16-.51-3.17-.97-6.24-1.38-9.35-.61-4.86-1.23-9.76-1.79-14.67-.66-5.06-1.23-10.07-1.69-15.13-.15-1.53-.36-3.02-.46-4.55-.46-4.24-.82-8.43-1.18-12.67v-.05h.05q0-.15,.05-.2c.05-.05,.1-.2,.2-.41,.1-.31,.36-.87,.66-1.48,.36-.82,.87-1.84,1.48-3.12,.41-.92,.97-2.04,1.58-3.22,.56-1.12,1.18-2.3,1.89-3.63,.31-.72,.72-1.48,1.12-2.25,.36-.72,.77-1.43,1.12-2.2,0,0,0-.05,.05-.05,.61-1.12,1.28-2.35,1.89-3.63,.46-.92,.92-1.84,1.48-2.76,1.64-2.96,3.42-6.18,5.37-9.71,.77-1.48,1.64-3.02,2.56-4.6,.56-.97,1.12-1.99,1.74-3.02,1.79-3.07,3.68-6.29,5.67-9.71,.2-.41,.41-.87,.77-1.23,2.2-3.73,4.55-7.67,7.05-11.75,.05-.15,.1-.2,.26-.36,5.77-9.3,12.32-19.52,19.63-30.61,0-.1,.15-.26,.2-.31,1.12-1.74,2.3-3.48,3.48-5.21,4.75-7,9.76-14.26,15.13-21.87,3.99-5.67,8.18-11.55,12.62-17.53,.72-.97,1.38-1.94,2.15-2.86,1.69-2.35,3.42-4.7,5.21-7.05,1.84-2.35,3.63-4.7,5.52-7.1,0,0,0-.05,.05-.05,7.1-9.51,14.77-19.32,22.9-29.44,2.71-3.42,5.52-6.85,8.33-10.27,1.07-1.38,2.2-2.76,3.37-4.09,0-.05,.05-.05,.05-.05l.05-.05c7.82-9.51,16-19.22,24.68-29.08,1.64-1.89,3.32-3.73,4.96-5.67,7.36-8.38,15.03-16.92,23.05-25.55,8.23-8.89,16.76-17.94,25.66-27.09v-.05c33.58-34.7,71.86-70.99,115.25-107.89,2.91-2.5,5.93-5.06,8.94-7.61,8.99-7.62,18.3-15.23,27.8-22.95,34.55-27.9,72.06-55.96,112.64-83.87,3.99-2.71,7.92-5.47,11.91-8.18,25.25-17.07,51.67-34.04,79.32-50.9,4.6-2.76,9.15-5.52,13.8-8.33,.82-.51,1.58-.92,2.35-1.38,8.33-5.01,16.92-9.97,25.5-14.97,7.46-4.34,14.97-8.59,22.59-12.83,2.25-1.28,4.55-2.5,6.8-3.78,4.91-2.76,9.86-5.52,14.87-8.18,38.69-21.16,79.57-41.86,122.61-61.89,4.96-2.35,9.91-4.65,14.97-6.9,10.07-4.65,20.24-9.2,30.56-13.75,10.32-4.55,20.7-8.99,31.28-13.49,10.53-4.45,21.21-8.84,31.94-13.19,2.71-1.12,5.42-2.25,8.13-3.37,2.71-1.07,5.42-2.15,8.13-3.22,3.02-1.18,6.03-2.35,9.05-3.48,3.02-1.23,6.03-2.35,9.05-3.58,2.5-.92,4.96-1.94,7.46-2.81,3.53-1.43,7.05-2.71,10.53-3.99,6.39-2.4,12.73-4.8,19.01-7.1,4.55-1.69,9.1-3.27,13.54-4.91,39.66-14.26,78.55-26.88,116.63-37.97,5.37-1.58,10.73-3.12,16-4.65,1.79-.51,3.53-1.02,5.37-1.48,5.57-1.58,11.09-3.07,16.56-4.6,.97-.26,1.89-.51,2.81-.72,5.26-1.43,10.53-2.81,15.74-4.24,.72-.15,1.38-.36,2.1-.51,11.5-2.96,22.95-5.88,34.29-8.54,5.93-1.43,11.7-2.81,17.58-4.14,11.65-2.66,23.31-5.21,34.75-7.67,.97-.2,1.84-.41,2.71-.56,5.78-1.18,11.5-2.35,17.17-3.42,3.58-.77,7.1-1.48,10.73-2.15,3.07-.56,6.23-1.18,9.35-1.74,2.25-.41,4.55-.87,6.8-1.28,.77-.15,1.48-.26,2.25-.41,.77-.15,1.48-.31,2.25-.36,28.31-5.11,56.07-9.4,83.36-12.98,5.16-.61,10.43-1.28,15.59-1.94,4.7-.56,9.35-1.07,14-1.64,6.9-.77,13.8-1.48,20.6-2.15,4.91-.51,9.76-.97,14.57-1.38,4.8-.46,9.61-.87,14.41-1.23,3.94-.31,7.82-.66,11.7-.92,1.18-.1,2.35-.2,3.53-.31,8.43-.61,16.76-1.18,25.04-1.64,6.34-.36,12.62-.66,18.91-.92h.31c1.84-.1,3.63-.15,5.47-.26,.61-.05,1.18-.05,1.79-.05,2.45-.1,4.96-.2,7.36-.26,11.75-.51,23.41-.82,34.86-.97,15.54-.15,30.92-.15,46.05,.1,1.12-.05,2.2,.05,3.27,0,2.96,.05,5.93,.15,8.84,.26,.66,0,1.23,.05,1.74,.05,3.22,.1,6.39,.15,9.56,.31,1.02,0,2.04,.05,3.07,.1,3.22,.05,6.44,.2,9.61,.36,1.79,.05,3.58,.1,5.37,.2,1.18,0,2.35,.05,3.53,.15,3.37,.15,6.64,.31,9.97,.51,1.43,.05,2.91,.15,4.34,.2,1.99,.1,3.99,.2,6.03,.36,5.01,.26,9.97,.56,14.87,.92,.1,0,.15,.05,.26,0,.15,0,.26,.05,.41,0,3.78,.2,7.56,.51,11.29,.87,.2,.05,.41,.05,.56,.05,.46,.05,.87,.05,1.28,.1,.31,.05,.61,.05,.87,.05,3.88,.36,7.72,.61,11.55,.92,.2,.05,.41,.05,.61,.1,3.48,.31,6.9,.61,10.32,.97,.51,.05,1.07,.1,1.58,.15,3.53,.31,7.05,.66,10.58,1.02,.56,.05,1.12,.1,1.69,.2,4.09,.41,8.13,.82,12.11,1.28,3.37,.41,6.75,.77,10.07,1.18,.61,.1,1.18,.15,1.79,.2,3.32,.41,6.64,.82,9.97,1.28,.66,.05,1.38,.15,2.04,.26,3.32,.41,6.59,.82,9.86,1.28,.26,.05,.51,.05,.77,.1,.72,.1,1.38,.26,2.1,.31,6.7,.92,13.34,1.84,19.93,2.86,1.84,.31,3.68,.61,5.57,.92,1.79,.26,3.58,.56,5.37,.87,.82,.15,1.64,.26,2.45,.41,3.53,.51,7,1.12,10.48,1.69,.26,.05,.46,.1,.72,.15,3.48,.61,6.95,1.18,10.37,1.79,.2,.05,.46,.1,.66,.15,3.68,.66,7.31,1.33,10.89,1.99,.77,.15,1.48,.31,2.2,.41,2.71,.51,5.47,1.07,8.13,1.53,1.18,.26,2.35,.51,3.53,.72,1.48,.36,3.07,.66,4.55,.92,.05,.05,.1,0,.1,0,.97,.2,1.99,.41,3.02,.61,1.02,.2,2.04,.41,3.02,.61,1.43,.31,2.86,.61,4.29,.92,1.02,.2,1.99,.46,3.02,.66,1.38,.31,2.76,.56,4.14,.87,1.02,.2,2.04,.46,3.07,.66,.66,.15,1.28,.31,1.89,.41,4.7,1.02,9.3,2.04,13.85,3.12,1.43,.26,2.86,.61,4.34,.97,.15,.05,.36,.1,.51,.15,6.08,1.43,12.01,2.86,17.89,4.34,.36,.05,.77,.15,1.12,.2,2.35,.56,4.7,1.12,6.95,1.79,.92,.2,1.79,.46,2.66,.72,1.23,.26,2.45,.61,3.63,.92,1.89,.51,3.78,.92,5.62,1.43,2.3,.61,4.5,1.23,6.7,1.84l2.76,.77c1.28,.36,2.61,.72,3.88,1.07,1.69,.41,3.42,.92,5.06,1.38,1.02,.31,1.99,.56,3.02,.87,.31,.1,.56,.15,.82,.26,1.33,.36,2.66,.72,3.99,1.12,1.84,.51,3.68,1.07,5.47,1.58,4.5,1.28,8.84,2.61,13.24,3.94,.77,.26,1.53,.46,2.3,.72,.77,.2,1.48,.46,2.2,.66,.61,.2,1.23,.41,1.84,.56,.87,.31,1.69,.56,2.5,.82,1.28,.41,2.56,.77,3.78,1.18,.2,.05,.36,.1,.56,.15,2.66,.87,5.32,1.69,7.92,2.56,2.76,.87,5.57,1.79,8.28,2.71,1.38,.46,2.71,.92,4.09,1.38,1.38,.46,2.71,.92,4.09,1.38,.66,.2,1.28,.41,1.94,.61,.26,.1,.46,.2,.66,.26,.15,.05,.26,.1,.36,.15,.26,.05,.46,.1,.72,.15,1.43,.51,2.86,1.02,4.29,1.53,2.1,.72,4.14,1.43,6.18,2.15,.56,.2,1.12,.41,1.69,.61,1.28,.46,2.5,.87,3.73,1.33,1.58,.56,3.22,1.12,4.8,1.69,.56,.26,1.07,.46,1.64,.61,2.04,.77,4.04,1.48,5.98,2.2,.72,.26,1.43,.51,2.15,.77,.36,.1,.66,.26,.92,.36,.31,.15,.61,.26,.87,.36,.87,.36,1.74,.66,2.61,.97,1.07,.41,2.15,.82,3.22,1.23,.56,.2,1.07,.41,1.64,.66,1.58,.61,3.17,1.23,4.75,1.79,.26,.1,.51,.2,.72,.31,2.35,.87,4.65,1.79,6.95,2.71,1.38,.51,2.71,1.07,4.04,1.58,.1,.05,.15,.1,.26,.1,2.71,1.07,5.37,2.2,8.02,3.27,.41,.15,.82,.31,1.23,.46,.56,.26,1.12,.51,1.69,.72,.05,.05,.1,.05,.15,.05,.51,.26,1.07,.46,1.58,.72,1.02,.36,1.99,.77,3.02,1.23,.61,.26,1.18,.51,1.79,.72,1.07,.46,2.15,.92,3.22,1.38,.31,.1,.56,.2,.82,.36,1.89,.77,3.73,1.58,5.57,2.35,1.28,.56,2.61,1.12,3.83,1.64,1.12,.51,2.25,1.02,3.32,1.48,1.07,.46,2.15,.92,3.17,1.38,.26,.15,.51,.26,.77,.36,.51,.26,.97,.46,1.48,.66,.15,.1,.36,.15,.51,.2,1.33,.61,2.61,1.18,3.88,1.79,.61,.26,1.23,.56,1.84,.82,7.77,3.53,15.13,7,22.03,10.32,.92,.41,1.84,.87,2.71,1.28,.56,.31,1.12,.56,1.64,.82,1.12,.56,2.25,1.12,3.37,1.64,.31,.2,.61,.36,.92,.46,1.33,.66,2.61,1.33,3.88,1.99,1.58,.82,3.17,1.58,4.7,2.4h.05c.26,.1,.51,.26,.72,.36,1.43,.72,2.76,1.38,4.09,2.1,1.84,.92,3.58,1.94,5.32,3.02h.05c1.58,.97,3.12,1.99,4.6,3.07,.15,.05,.31,.2,.46,.31,2.4,1.69,4.7,3.48,6.9,5.47,.72,.66,1.43,1.33,2.15,2.04,1.43,1.33,2.86,2.71,4.19,4.19,.87,.92,1.69,1.84,2.45,2.81,1.23,1.38,2.35,2.81,3.42,4.24,1.18,1.58,2.3,3.22,3.32,4.86,.51,.72,.97,1.38,1.38,2.1h-.05c.77,1.28,1.48,2.56,2.2,3.88,.31,.56,.61,1.12,.92,1.74,.46,.87,.87,1.74,1.28,2.66,.46,.87,.82,1.79,1.23,2.71,.51,1.23,1.02,2.45,1.48,3.73,.26,.56,.46,1.18,.66,1.79,.97,2.76,1.84,5.62,2.5,8.53,.15,.56,.31,1.12,.41,1.69,.87,4.09,1.38,8.23,1.69,12.42q.05,0,.1-.05c.05,.36,.05,.77,.1,1.18,.05,.36,.05,.72,.05,1.07,0,.2,.05,.46,.05,.72,0,.05,.05,.1,0,.2,.05,1.18,.1,2.35,.1,3.58Z"/>
            <path class="cls-16" d="M1012.57,1932.35c1.65-2.71,3.22-5.41,4.61-8.06-2.7,4.36-4.16,7.12-4.61,8.06Z"/>
            <path class="cls-26" d="M2342.16,2259.2c80.67-86.29,143.82-172.06,193.12-252.57,.61-1.03,1.19-2,1.78-2.93,6.91-11.26,13.52-22.49,19.88-33.61,.15-.31,.34-.64,.54-.96,2.16-3.81,4.32-7.57,6.4-11.31,2.11-3.8,4.19-7.54,6.27-11.28,2.23-4.06,4.42-8.1,6.61-12.15,3.77-7.06,7.45-14.11,11.05-21.09,5.63-10.94,10.99-21.72,16.15-32.35,1.72-3.56,3.4-7.07,5.05-10.56,6.6-14.04,12.79-27.74,18.6-41.12,1.45-3.36,2.86-6.7,4.28-10,12.58-29.71,23.18-57.73,32.07-83.62,1.45-4.28,2.88-8.5,4.26-12.67,1.46-4.42,2.89-8.82,4.24-13.12,1.36-4.3,2.68-8.54,3.95-12.68,1.06-3.49,2.11-6.97,3.15-10.36,1.52-5.12,2.94-10.08,4.3-14.93,5.8-20.74,10.32-39.23,13.83-55.21-7.47,10.84-15.15,21.74-23.01,32.64-96.98,134.65-223.18,275.93-387.22,412.86,21.06,64.71,39.33,130.44,54.69,197.03Z"/>
            <path class="cls-5" d="M2342.16,2259.2c81.65-87.31,145.31-174.14,194.9-255.5,4.74-7.72,9.34-15.46,13.78-23.1,2.24-3.83,4.44-7.65,6.64-11.47l.1-.16c2.12-3.75,4.21-7.45,6.31-11.15,4.24-7.55,8.34-15.07,12.35-22.47,3.62-6.75,7.17-13.39,10.55-19.99,9.77-18.92,18.82-37.44,27.13-55.45,1.4-3.02,2.78-6.08,4.14-9.09,16.19-35.58,29.53-69.08,40.51-99.81,.82-2.23,1.64-4.46,2.37-6.67,1.27-3.54,2.47-7.02,3.66-10.49,3.12-9.16,6.03-18.08,8.75-26.68,.7-2.16,1.36-4.3,2.03-6.4,1.28-4.23,2.53-8.41,3.76-12.5,.59-2.04,1.19-4.07,1.79-6.06,1.2-4.03,2.33-7.95,3.39-11.8,2.12-7.71,4.11-15.16,5.94-22.2,3.15-12.39,5.83-23.78,8.05-34.05,.95-4.29,1.54-8.58,1.86-12.89,.21-3.23,.26-6.42,.12-9.61-.03-1.05-.11-2.14-.18-3.18-87.74,82.72-241.27,218.03-450.31,366.54,37.57,98.88,68.47,200.49,92.41,304.21Z"/>
            <path class="cls-14" d="M1937.17,1386.76c77.8,103.75,146.59,213.71,205.79,328.7,88.39,171.58,155.44,354.21,199.18,543.74,248.86-266.15,330.56-527.53,356.19-645.02,8.47-38.93-10.03-78.78-44.96-96.9-2.65-1.38-5.41-2.8-8.26-4.22-109.93-55.41-356.74-151.79-707.93-126.3Z"/>
            <g class="cls-10">
              <path class="cls-22" d="M2654.34,1669.42s-.02,.03-.03,.04c-32.45,100.67-91.63,238.41-198.57,386.95-122.46,169.99-307.51,354.2-586.82,512.92-181.15,102.95-348.69,167.33-496.29,206.59-384.98,102.51-634.07,34.26-634.07,34.26,0,0-.01-.01-.02-.02l.03,.06-103.85,23.49c-46.94,10.64-95.88-5.85-127.38-42.85-30.82-36.26-58.19-75.13-81.95-116.04l150.04-72.21c-2.46-4.86-4.92-9.72-7.3-14.63l218.76-139.98s83.12,110.8-56.47,238.45c132.73-4.82,297.02-24.56,485.55-74.76,107.02-28.46,221.9-66.87,343.18-117.81-107.64-28.2-197-114.11-225.45-231.57-41.21-170.15,61-342.01,228.29-383.85,167.29-41.85,336.31,62.17,377.52,232.32,16.77,69.25,9.78,138.77-15.68,199.7,339.69-200.06,571.95-427.87,730.51-641.06Z"/>
            </g>
            <g class="cls-7">
              <path class="cls-4" d="M2678.41,1655.76c8.47-38.93-10.03-78.78-44.96-96.9-2.65-1.38-5.41-2.8-8.26-4.22-104.8-52.82-334.07-142.8-659.5-129.01-9.37-13.05-18.87-26.01-28.51-38.87,351.19-25.5,598,70.89,707.93,126.3,2.85,1.42,5.61,2.84,8.26,4.22,34.94,18.12,53.43,57.97,44.96,96.9-13.43,61.54-42.3,162.6-102.46,283.11,46.8-102.09,70.69-187.21,82.54-241.53Z"/>
            </g>
            <path class="cls-22" d="M2333.02,2293.15l-6.98-30.24c-73.02-316.35-208.3-607.8-402.09-866.26l-18.16-24.21,30.18-2.19c354.48-25.7,603.31,70.32,720.08,129.86,44.8,22.84,68.32,73.42,57.2,123.01-29.03,129.42-114.27,385.62-359.04,647.36l-21.2,22.67Zm-364.5-891.84c180.8,247.67,309.34,524.51,382.51,823.76,223.38-247.97,302.52-486.8,329.97-609.19,7.82-34.84-8.61-70.34-39.95-86.32-110.38-56.28-342.15-146.01-672.52-128.25Z"/>
            <path class="cls-22" d="M976.81,2893.63c-8.37,0-16.9-.08-25.68-.25-8.31-.21-16.26-.47-24.01-.78-8.13-.31-16.03-.67-23.73-1.09-56.87-3.32-99.17-9.79-124.65-14.63-11.1-2.13-18.98-3.93-23.5-5.03h-.12l-2.11-.54c-1.56-.41-2.45-.68-2.45-.68l-11.68-3.59-.02-5.38c-1.1-1.12-2.24-2.31-3.44-3.58-.53-.52-1.38-1.42-2.23-2.31-.66-.69-1.31-1.38-1.98-2.05-5.2-5.41-10.17-10.64-15.03-15.86l-10.72-11.75c-1.37-1.48-2.74-2.97-4.06-4.56-14.27-16.09-27.88-32.56-40.47-48.97-.54-.61-.95-1.16-1.27-1.61-3.71-4.74-7.81-10.2-12.31-16.37-2.96-4-5.91-8.08-8.87-12.22h-.13l-4.93-7.12c-.11-.15-.22-.31-.32-.46l-2.57-3.72c-2.64-3.85-5.26-7.7-7.88-11.61-2.73-4.09-5.4-8.12-8.01-12.19-3.32-4.91-6.17-9.36-8.77-13.67l-.27-.45c-2.16-3.33-4.19-6.7-6.22-10.12-3.61-5.94-7.24-12.02-10.82-18.2l-.21-.36c-.42-.65-.75-1.21-1.06-1.81l-1.86-3.3c-2.07-3.67-4.16-7.36-6.18-11.01-4.16-7.4-7.93-14.39-11.45-21.28-2.81-5.43-5.67-10.99-8.43-16.55-.13-.22-.47-.91-.81-1.61l-.37-.75c-3.57-7.2-7.05-14.41-10.43-21.63-2.64-5.64-5.14-11.29-7.59-16.99-.38-.75-.71-1.47-1.01-2.11l-.24-.56c-.45-1.09-.91-2.16-1.37-3.23-.8-1.86-1.6-3.71-2.33-5.57-2.77-6.42-5.44-12.85-8.06-19.37-3.61-8.91-6.66-16.86-9.31-24.24-1.06-2.82-2.13-5.79-3.22-8.8l-.76-2.11c-4.16-11.49-8.33-23.82-12.38-36.61l-1.42-4.67c-1.52-4.94-3.04-9.88-4.48-14.86l-1.29-4.59c-.45-1.57-.9-3.15-1.33-4.72h-3.91l-.09-14.53c-1.21-4.6-2.42-9.24-3.54-13.93-.39-1.53-.82-3.29-1.25-5.07l-2.91-12.29c-.28-1.24-.57-2.48-.84-3.73l-.19-.84c-.21-.94-.43-1.89-.6-2.82-.5-2.13-.96-4.28-1.42-6.41l-.56-2.63c-.48-2.25-.95-4.48-1.39-6.75-.82-3.68-1.55-7.35-2.23-11.02-.4-1.84-.78-3.73-1.03-5.58-.65-3.42-1.25-6.82-1.86-10.24l-.85-4.73c-.75-4.34-1.43-8.62-2.11-12.95-.63-4.17-1.26-8.33-1.83-12.44-.48-2.98-.97-6.2-1.4-9.48-.63-5-1.25-9.97-1.82-14.93-.66-5.01-1.25-10.24-1.73-15.52l-.13-1.21c-.13-1.12-.25-2.23-.33-3.36-.46-4.27-.82-8.49-1.18-12.76l-.06-1.39v-16.53l6.13-.02c.4-.8,.92-1.79,1.51-2.89,.17-.37,.36-.75,.55-1.13v-12.53l6.61-.02c1.11-2.04,2.32-4.2,3.61-6.47l.57-1.02c.84-1.61,1.79-3.27,2.78-4.99l.56-.97c.42-.74,.85-1.49,1.3-2.25,1.53-2.71,3.38-5.92,5.39-9.24,.41-.78,.91-1.65,1.55-2.55,1.78-3.01,3.66-6.15,5.63-9.39l.63-1.92,1.58-1.63c5.33-8.67,10.68-17.05,16.25-25.44v-1.69l3.72-3.91c.85-1.29,1.72-2.58,2.59-3.87,5.84-8.69,10.74-15.77,15.59-22.54,3.99-5.67,8.26-11.67,12.8-17.77l.45-.62c.59-.82,1.19-1.63,1.82-2.42,1.68-2.34,3.41-4.68,5.19-7.02,1.66-2.24,3.5-4.66,5.39-7.14l.69-.9c7.28-9.59,14.91-19.32,22.68-28.93,2.54-3.22,5.28-6.56,8.03-9.91v-10.6l8.79-.03c7.07-8.51,13.7-16.26,20.12-23.55l2.08-2.37c.88-.99,1.77-1.99,2.64-3.02,8.36-9.52,16-17.99,23.58-26.15,7.34-7.93,14.33-15.35,21.23-22.52h0s4.65-4.86,4.65-4.86c36.19-37.4,75.36-74.06,116.42-108.98,2.88-2.48,5.93-5.06,8.98-7.64,9.6-8.13,19.57-16.27,28.06-23.17,35.8-28.92,74.04-57.39,113.7-84.65l5.84-4.02c2.04-1.41,4.09-2.82,6.14-4.22,25.5-17.24,52.41-34.51,80-51.34l13.85-8.37c.46-.29,1.12-.67,1.76-1.04l.65-.38c6.65-4,13.48-7.98,20.35-11.97l5.32-3.1c7.56-4.4,15.17-8.7,22.87-12.99,1.07-.61,2.27-1.27,3.47-1.93,1.07-.59,2.14-1.18,3.2-1.78,5.08-2.86,10.16-5.69,15.3-8.41,39.38-21.53,80.95-42.52,123.37-62.27,4.97-2.36,10.05-4.71,15.23-7.02,9.94-4.59,20.2-9.18,30.61-13.77,10.39-4.58,20.83-9.05,31.48-13.58,10.64-4.49,21.4-8.92,32.21-13.29l8.5-3.52c2.51-.95,5.01-1.94,7.52-2.93l3.28-1.29c2.13-.84,4.26-1.67,6.34-2.46,1.2-.49,2.75-1.1,4.31-1.71,1.45-.57,2.91-1.13,4.36-1.73l.55-.21c.95-.35,1.9-.72,2.84-1.08,1.49-.58,2.98-1.15,4.48-1.68,3.15-1.27,6.3-2.43,9.42-3.57l4.48-1.68c5.3-1.99,10.56-3.98,15.79-5.89,2.43-.9,4.93-1.8,7.41-2.69,2.05-.74,4.09-1.47,6.1-2.21,39.34-14.14,78.91-27.03,117.71-38.33,3.35-.99,6.74-1.97,10.12-2.95l6.77-1.96c1.6-.46,3.17-.91,4.82-1.32,3.16-.9,6.31-1.77,9.44-2.63l7.65-2.11c.88-.24,1.73-.46,2.57-.65l6.64-1.79c2.92-.78,5.82-1.56,8.71-2.35l.89-.22c.73-.19,1.24-.32,1.71-.43,12.81-3.3,23.57-6.02,34.39-8.56,5.9-1.43,11.75-2.82,17.71-4.17,11.69-2.67,23.42-5.24,34.93-7.71l.82-.18c.85-.19,1.66-.36,2.47-.5l1.49-.31c5.21-1.06,10.37-2.11,15.49-3.08,3.35-.72,7.04-1.47,10.84-2.17l20.82-3.81c27.68-5,55.99-9.41,84.01-13.08,5.31-.63,10.52-1.29,15.62-1.95l14.13-1.65c7.13-.79,14.11-1.52,20.98-2.19,4.9-.51,9.86-.98,14.77-1.4,4.75-.45,9.67-.87,14.58-1.24l11.09-.89c1.39-.12,2.78-.24,4.14-.34l17.75-1.32v12.28c.49,.67,.97,1.34,1.46,2.01,.74,.95,1.73,2.3,2.71,3.66l2.5,3.39c.74,.98,1.46,1.94,2.17,2.91l.38,.19,2.24,3.37c1.57,2.13,3.15,4.26,4.67,6.39l9.44,13.05c1.08,1.54,2.17,3.06,3.28,4.6l2.92,4.09c.86,1.19,1.76,2.5,2.69,3.82l.85,1.22c3.62,5.02,7.27,10.29,10.87,15.57,1.25,1.77,2.62,3.72,3.99,5.73l.95,1.38c1.3,1.88,2.62,3.79,3.91,5.71,3.35,4.85,6.81,9.92,10.22,14.98l2.3,3.39c4.6,6.9,9.09,13.64,13.48,20.38l.52,.8c.53,.81,1.06,1.61,1.56,2.43,3.76,5.74,7.46,11.48,11.17,17.27l7.44,11.68c1.57,2.43,3.23,5.05,4.88,7.68l.37,.58c.34,.5,.77,1.18,1.19,1.95,1.68,2.69,3.32,5.35,4.96,8.04,.72,1.11,1.43,2.27,2.1,3.38l2.58,4.2c.84,1.45,1.55,2.59,2.24,3.73l.56,.91c2.88,4.7,5.76,9.4,8.61,14.14l3.31,3.46,.03,2.11,2.07,3.43c.77,1.29,1.53,2.56,2.26,3.86,1.93,3.25,4.06,6.82,6.13,10.4,1.01,1.68,2.14,3.57,3.22,5.46l8.8,15.26c1.39,2.44,2.59,4.54,3.74,6.63l1.52,2.66c2.77,4.92,5.54,9.84,8.31,14.81l3.8,6.88c1.19,2.09,2.47,4.42,3.74,6.76l.51,.91c.43,.76,.84,1.51,1.24,2.25,.22,.42,.41,.81,.58,1.17,1.72,3.08,3.35,6.15,4.99,9.23,5.71,10.53,11.33,21.15,16.77,31.68,.86,1.57,1.85,3.48,2.83,5.37l.8,1.54c.2,.37,.38,.73,.57,1.1l3.31,6.5c.52,1,1.16,2.27,1.79,3.54,.56,1.13,1.13,2.26,1.71,3.36,1.65,3.2,3.28,6.4,4.8,9.59,1.39,2.69,2.73,5.37,4.08,8.11,2.23,4.46,4.47,9.03,6.65,13.61,.48,.9,.92,1.8,1.36,2.71l.91,1.87c.06,.13,.12,.26,.18,.38l2.17,4.51c1.52,3.16,3.05,6.34,4.6,9.48l.83,1.76c4.06,8.47,8.01,16.89,11.83,25.32,.74,1.54,1.59,3.42,2.43,5.28l.68,1.5c.81,1.74,1.67,3.62,2.53,5.51l5.04,11.12c2.47,5.56,4.94,11.12,7.36,16.67l.46,1.05c.27,.6,.54,1.2,.8,1.82,1.16,2.68,2.46,5.7,3.77,8.67l3.55,8.24c1.27,2.94,2.52,5.88,3.76,8.85l.51,1.25c.37,.85,.74,1.72,1.09,2.59l.04,.06,.6,1.46c1.05,2.56,2.16,5.17,3.27,7.78l3.55,8.69c1.13,2.73,2.32,5.63,3.51,8.58,.97,2.32,2.01,4.86,3.04,7.4l.52,1.36c1.34,3.3,2.66,6.62,3.97,9.94l.19,.47c.55,1.29,1.2,2.95,1.84,4.59l1.66,4.25c.14,.37,.29,.74,.43,1.12,.11,.25,.34,.87,.57,1.49l4.32,11.19c.37,.87,.72,1.73,1.03,2.61,.67,1.65,1.31,3.35,1.94,5.05l1.47,3.91c.13,.36,.27,.71,.41,1.05l.55,1.48c.44,1.16,.88,2.32,1.28,3.48l3.57,9.54c.3,.75,.58,1.51,.85,2.26,.66,1.74,1.33,3.52,1.94,5.25l.38,1.08c.63,1.71,1.24,3.4,1.84,5.12,1.31,3.48,2.68,7.23,4,11.04l2.41,6.79c1.04,2.86,2.06,5.82,3.08,8.77l.65,1.82c.17,.43,.34,.92,.5,1.41l.77,2.16c.87,2.45,1.78,5.12,2.68,7.78l1.76,5.14c.11,.31,.19,.56,.24,.72l7.62,22.72c.29,.86,.56,1.71,.8,2.57,.43,1.28,.84,2.57,1.25,3.87l1.14,2.28,.03,1.32c.65,1.97,1.27,3.95,1.87,5.92,.56,1.64,1.09,3.3,1.61,4.95l.82,2.58c.44,1.32,.9,2.69,1.33,4.1l1.12,2.23,.03,1.37c.01,.05,.03,.11,.05,.16,.41,1.42,.89,2.98,1.38,4.56l1.3,4.25c.65,1.88,1.31,4.11,1.97,6.41,.46,1.41,.88,2.82,1.3,4.22l.75,2.44c.24,.74,.49,1.61,.74,2.44l1.29,4.36c.21,.61,.41,1.22,.59,1.83l2.65,9.03c.27,.85,.61,2.08,.93,3.28h0c.22,.69,.42,1.35,.62,2.01l.24,.79c.1,.29,.28,.9,.43,1.51l-.12-.37c.29,.9,.45,1.48,.62,2.07l5.1,17.95c.72,2.62,1.4,5.12,2.14,7.63l.27,.43,1.74,1.74-.09,4.78,1.99,7.33c.05,.15,.09,.3,.13,.45l.67,2.39c.16,.56,.28,1.03,.38,1.5l.11,.4c.02,.09,.05,.18,.07,.27,.07,.25,.13,.5,.2,.76l.25,.99c.09,.29,.17,.58,.24,.85l.87,3.24c.06,.2,.12,.44,.19,.71,.15,.54,.29,1.08,.43,1.63l.54,2.09c.1,.38,.19,.72,.27,1.04l1,3.75c.5,1.79,1.01,3.72,1.49,5.67l.91,1.82,.04,1.81c.17,.63,.33,1.26,.48,1.88l.65,2.77c.01,.06,.03,.13,.04,.2l.45,1.79c.11,.38,.22,.76,.32,1.15l1.14,1.74,.09,3.11s0,.04,.01,.06c.19,.67,.36,1.37,.52,2.04,.27,.97,.5,1.93,.73,2.9,.16,.58,.37,1.41,.58,2.31l.95,3.91c.24,.92,.48,1.85,.69,2.78,.13,.48,.24,.94,.34,1.41l2.5,10.41c.1,.38,.25,.99,.39,1.61l.84,3.45c.56,2.31,1.12,4.71,1.68,7.11l.94,4,4.16,8.71-7.86,8.35c-1.54,1.61-3.07,3.24-4.6,4.87-2.05,2.2-4.12,4.4-6.21,6.55-18.3,19.19-37.65,38.57-57.39,57.5l-12.84,12.17c-2.9,2.73-5.83,5.44-8.76,8.15l-4.29,3.97c-64.67,59.27-135.59,115.52-210.87,167.25-5.36,3.7-10.84,7.39-16.31,11.09l-.71,.48c-25.35,16.99-49.41,32.47-73.63,47.36-8.44,5.2-16.99,10.35-25.65,15.51-11.67,6.93-24.42,14.35-38.99,22.69-11.02,6.28-22.86,12.87-35.21,19.59-3.19,1.76-6.45,3.53-9.72,5.29-2.54,1.37-5.08,2.74-7.62,4.14-8.87,4.72-17.52,9.3-26.16,13.77-8.65,4.48-17.25,8.92-25.81,13.19-18.57,9.37-35.28,17.52-51.02,24.91-8.98,4.32-18.28,8.66-27.5,12.83l-3.33,1.51c-2.24,1.01-4.48,2.02-6.67,3.04l-4.73,2.1c-2.59,1.14-5.16,2.28-7.73,3.44-4.51,1.95-8.68,3.79-12.86,5.63l-17.81,7.68c-9.35,3.95-18.47,7.76-27.58,11.47l-5.48,2.21c-2.55,1.04-5.09,2.07-7.64,3.07-19.27,7.73-39.88,15.59-62.89,23.97-5.15,1.84-10.2,3.64-15.26,5.4-4.85,1.75-9.89,3.51-14.87,5.22l-4.22,1.43c-8.57,2.9-17.02,5.77-25.46,8.55l-14.72,4.7c-5.01,1.6-9.91,3.15-14.91,4.7l-5.27,1.61c-7.54,2.3-15.02,4.58-22.47,6.75l-2.76,.78c-7.3,2.11-14.55,4.17-21.7,6.17-17.8,4.88-34.12,9.16-49.99,13.11l-12.85,3.1c-24.77,5.95-49.47,11.33-73.43,16-3.72,.74-7.48,1.47-11.19,2.11-2.87,.55-6.02,1.14-9.13,1.71l-4.09,.75c-5.68,1.01-11.19,1.98-16.65,2.93l-5.65,.99c-11.34,1.89-22.41,3.59-33.99,5.2-1.78,.29-3.89,.59-5.98,.89l-3.28,.47c-4.46,.6-8.58,1.15-12.64,1.71-8.37,1.1-16.58,2.13-24.64,3.06l-12.48,1.38c-7.53,.82-14.97,1.53-22.26,2.2-2,.26-4,.44-6,.61-17.3,1.54-34.89,2.81-52.18,3.77l-.79,.04c-4.55,.25-9.06,.49-13.52,.68-.16,.01-.74,.04-1.33,.06l-2.85,.12c-4.17,.17-8.31,.35-12.37,.48-.86,.06-1.66,.07-2.46,.07l-10.16,.3c-4.05,.12-7.63,.21-11.16,.21-8.07,.17-16.24,.25-24.57,.25Zm-212.97-53.7c4.03,.96,11.19,2.58,21.1,4.49,24.49,4.65,65.27,10.88,120.3,14.09,7.45,.4,15.19,.75,23.18,1.05,7.62,.31,15.41,.56,23.4,.76,17.02,.33,33.14,.33,49.22,0,3.56,0,6.82-.1,10.09-.19l12.61-.37c4.07-.13,8.21-.31,12.4-.49l1.81-.07c.19-.02,.75-.04,1.3-.06l.6-.02c4.77-.21,9.16-.45,13.6-.69l.76-.04c16.9-.94,34.11-2.18,51.14-3.7,1.63-.13,3.17-.25,4.72-.47l.77-.09c7.21-.65,14.58-1.36,21.99-2.17l12.38-1.37c7.83-.9,15.87-1.92,23.96-2.98,4.01-.55,8.18-1.12,12.45-1.68l3.23-.47c1.9-.27,3.8-.54,5.72-.85,11.62-1.62,22.41-3.27,33.33-5.09l5.54-.97c5.43-.95,10.89-1.9,16.41-2.88l4.01-.74c3.04-.56,6.12-1.13,9.23-1.73,3.75-.65,7.24-1.34,10.74-2.02,23.53-4.59,47.76-9.86,72.07-15.7l12.71-3.06c15.51-3.85,31.57-8.06,49.03-12.86,6.87-1.92,13.93-3.93,21.03-5.98,.85-.27,1.72-.51,2.6-.75l.6-.16c7.1-2.08,14.46-4.32,21.89-6.58l5.21-1.59c4.83-1.49,9.64-3.01,14.55-4.58l14.61-4.67c8.16-2.69,16.52-5.52,25.01-8.4l4.16-1.41c4.76-1.63,9.64-3.34,14.51-5.1,5.15-1.79,10.11-3.56,15.07-5.33,22.58-8.22,42.86-15.95,61.91-23.59,2.53-.99,4.96-1.98,7.38-2.97l5.57-2.25c8.88-3.61,17.86-7.37,26.99-11.23l17.44-7.51c4.26-1.87,8.51-3.74,12.85-5.62,2.4-1.08,5.04-2.25,7.69-3.42l4.46-1.98c2.05-.95,4.37-2,6.69-3.05l3.3-1.49c9.01-4.08,18.08-8.31,26.97-12.58,15.6-7.32,32.03-15.35,50.37-24.59,8.46-4.23,16.93-8.59,25.44-13,8.54-4.42,17.07-8.94,25.65-13.51,2.42-1.33,5.01-2.73,7.61-4.13,3.17-1.72,6.34-3.43,9.54-5.2,12.25-6.67,23.9-13.15,34.72-19.32,14.39-8.23,26.99-15.56,38.48-22.39,8.5-5.06,16.91-10.13,25.23-15.25,23.86-14.66,47.57-29.91,72.5-46.62l.66-.44c5.39-3.65,10.79-7.3,16.09-10.94,74.03-50.87,143.73-106.16,207.18-164.31l4.26-3.94c2.84-2.63,5.68-5.26,8.5-7.91l1.92-1.88,10.86-10.24c19.28-18.48,38.28-37.52,56.36-56.46,1.58-1.63,3.08-3.21,4.55-4.79-.33-1.41-.66-2.81-1-4.21l-4.15-17.28c-.11-.54-.26-1.07-.4-1.61l-.62-2.51c-.06-.23-.12-.44-.17-.63l-.33-1.43c-.15-.7-.34-1.39-.52-2.08-.25-1.03-.38-1.61-.55-2.19l-.3-1.18c-.07-.32-.16-.66-.26-.99l-1.24-1.88-.13-3.49c-.05-.17-.1-.34-.15-.5l-1.6-6.43v-.15c-.06-.25-.13-.5-.19-.75l-.15-.29-.8-3.3c-.41-1.67-.85-3.35-1.32-5.01l-1.31-4.99c-.08-.28-.15-.55-.21-.81-.15-.56-.3-1.12-.44-1.69l-.62-2.45c-.05-.18-.11-.4-.17-.64l-.62-2.22c-.06-.19-.11-.37-.16-.55l-.34-1.29c-.02-.09-.04-.18-.06-.26l-.23-.87c-.05-.18-.1-.37-.14-.54-.07-.27-.14-.55-.2-.82l-.12-.38-1.1-2.1v-1.97s0-.02,0-.03l-1.11-4.06-1.75-1.74v-2.79l-3.85-7.71,1.74-1.58c-.22-.81-.44-1.61-.67-2.42l-1.45-5.16-1.74-1.83-.28-5.3-.57-2.01c-.08-.28-.17-.58-.25-.88l-1.04-2.76,.02-.71c-.1-.28-.26-.86-.41-1.45l.12,.37-.52-1.68c-.1-.36-.2-.71-.33-1.08l-.5-1.7c-.2-.73-.39-1.47-.62-2.19l-3.52-11.83c-.13-.44-.25-.88-.37-1.33-.14-.44-.28-.87-.42-1.33l-1.73-5.71c-.41-1.37-.75-2.53-1.13-3.69l-.22-.7c-.53-1.87-1.06-3.7-1.69-5.53l-1.46-4.73c-.57-1.83-1.13-3.64-1.66-5.48l-1.2-3.71c-.29-.9-.59-1.8-.89-2.7l-.94-2.95c-.47-1.48-.93-2.96-1.44-4.43l-.21-.64c-.69-2.27-1.41-4.56-2.18-6.83l-.42-1.23-.72-2.31c-.31-.97-.62-1.93-.95-2.89l-.89-2.85c-.09-.29-.19-.58-.28-.87l-7.94-23.58s-.01-.04-.02-.06l-1.06-3.14c-.86-2.53-1.74-5.08-2.63-7.63l-.38-1.08c-.18-.46-.34-.93-.5-1.41l-.41-1.16,.19,.5-.72-1.98c-1.06-3.06-2.02-5.86-3.03-8.66l-2.48-6.99c-1.28-3.67-2.56-7.18-3.89-10.73-.8-2.26-1.47-4.14-2.2-6.08l-1.06-2.93c-.22-.59-.44-1.18-.67-1.76l-4.81-12.9c-.26-.79-.56-1.58-.86-2.36-.19-.47-.36-.94-.53-1.44-.19-.46-.55-1.4-.91-2.35l-1.77-4.73c-.36-.97-.73-1.93-1.12-2.86l-.4-1.07c-.09-.26-.22-.53-.34-.81l-.25-.6-3.99-10.33c-.12-.29-.36-.91-.59-1.53l-.31-.81c-.62-1.61-1.1-2.81-1.58-4.01l-1.19-3.09c-.34-.87-.69-1.74-1.06-2.6l-.33-.82c-1.35-3.41-2.69-6.82-4.09-10.23-.16-.41-.31-.8-.44-1.17-.94-2.32-1.89-4.63-2.84-6.9-1.23-3.05-2.39-5.88-3.55-8.7l-3.37-8.26c-.93-2.18-1.86-4.39-2.76-6.57l-.35-.53-.61-1.72c-.42-1.09-.88-2.17-1.34-3.21l-.41-1c-1.66-3.95-3.32-7.85-5.02-11.76l-2.14-5c-1.33-3.02-2.68-6.13-3.98-9.15l-.42-.94c-.28-.62-.56-1.25-.83-1.89-.89-2.05-1.82-4.15-2.76-6.29h-5.78l-.04-13.02-3.46-7.66c-.82-1.8-1.64-3.6-2.47-5.39l-.77-1.7c-.74-1.65-1.5-3.31-2.28-4.95-4.03-8.88-8.06-17.46-12.16-25.99-.11-.2-.31-.58-.53-1.12-1.48-3.01-2.94-6.05-4.4-9.08l-2.52-5.24c-.07-.14-.13-.28-.19-.42l-.47-.96c-.29-.61-.58-1.21-.91-1.81l-.39-.77c-2.15-4.51-4.36-9.02-6.61-13.53-1.33-2.71-2.6-5.26-3.92-7.81l-.26-.51c-1.4-2.95-2.91-5.91-4.41-8.81-.63-1.21-1.28-2.51-1.93-3.81-.55-1.1-1.1-2.21-1.67-3.29l-2.93-5.76c-.17-.32-.34-.65-.5-.97l-1.16-2.23c-.88-1.7-1.77-3.41-2.69-5.1-5.5-10.63-11.02-21.06-16.57-31.29-1.82-3.42-3.46-6.51-5.19-9.59l-2.12-3.96c-1.21-2.23-2.39-4.39-3.62-6.56l-3.87-7c-2.67-4.79-5.42-9.67-8.16-14.54l-1.63-2.85c-1.08-1.97-2.2-3.93-3.32-5.9l-8.94-15.5c-1.03-1.8-2.04-3.48-3.05-5.17-2.14-3.69-4.21-7.16-6.27-10.64-.78-1.38-1.39-2.4-2.01-3.43l-6.7-11.14c-2.36-3.91-4.75-7.81-7.14-11.7l-.44-.72c-.96-1.55-1.82-2.96-2.63-4.36l-2.42-3.94c-.54-.9-1.11-1.81-1.67-2.68l-.27-.43c-1.7-2.8-3.41-5.55-5.15-8.36l-1.2-1.95c-1.58-2.51-3.16-5.02-4.79-7.52l-7.45-11.69c-3.66-5.71-7.36-11.44-11.11-17.17l-.36-.57c-.31-.52-.65-1.02-.98-1.53l-.64-.98c-4.07-6.25-8.24-12.52-12.42-18.78l-.23-.23-2.98-4.55c-3.18-4.72-6.57-9.68-9.96-14.58-1.32-1.97-2.57-3.77-3.8-5.55l-1.01-1.47c-1.32-1.94-2.61-3.77-3.9-5.6-3.57-5.23-7.07-10.28-10.67-15.28l-1.02-1.46c-.82-1.18-1.63-2.34-2.46-3.5l-1.33-1.86h-8.01l-.03-11.22c-.44-.6-.89-1.19-1.34-1.79l-4.9-6.85c-.75-1.05-1.52-2.11-2.29-3.16l-.24-.12-2.4-3.42c-1.3-1.85-2.66-3.66-4.06-5.52l-2.81-3.81c-.57-.79-1.15-1.58-1.74-2.36l-6.16,.49c-4.75,.35-9.44,.75-14.13,1.2-4.87,.42-9.62,.87-14.42,1.37-6.84,.67-13.66,1.38-20.49,2.14l-13.87,1.62c-5.07,.65-10.39,1.32-15.6,1.94-27.29,3.58-55.07,7.9-82.37,12.83l-20.6,3.78c-3.47,.63-6.84,1.32-10.25,2.05-5.36,1.02-10.38,2.04-15.44,3.07l-4.51,.93c-11.32,2.43-22.9,4.96-34.48,7.61-5.83,1.32-11.53,2.68-17.38,4.09-10.71,2.51-21.34,5.2-34.05,8.47l-.65,.15c-.65,.17-1.12,.29-1.54,.39-2.84,.78-5.7,1.54-8.56,2.31l-7.62,2.03c-.53,.12-1.06,.26-1.61,.41l-7.4,2.05c-3.13,.86-6.27,1.73-9.43,2.62l-.52,.14c-1.36,.34-2.66,.71-3.97,1.09l-6.72,1.95c-3.32,.96-6.66,1.92-10,2.91-38.21,11.13-77.12,23.8-115.71,37.67-1.98,.73-4.1,1.49-6.24,2.26-2.37,.85-4.76,1.71-7.15,2.59-5.2,1.9-10.36,3.85-15.57,5.81l-4.74,1.77c-2.9,1.06-5.83,2.14-8.77,3.33l-.81,.31c-1.27,.44-2.52,.93-3.78,1.41-1.04,.4-2.08,.81-3.13,1.19-1.52,.62-3.04,1.21-4.56,1.8-1.41,.55-2.82,1.1-4.23,1.67-2.32,.88-4.32,1.67-6.32,2.46l-2.93,1.15c-2.86,1.13-5.46,2.16-8.05,3.14l-7.88,3.27c-10.79,4.37-21.4,8.73-31.85,13.15-10.48,4.46-20.79,8.87-31.04,13.39-10.24,4.51-20.32,9.02-30.3,13.63-5.15,2.29-9.99,4.53-14.82,6.83-41.89,19.5-82.82,40.16-121.76,61.46-5.07,2.69-9.91,5.39-14.7,8.08-1.13,.64-2.33,1.3-3.54,1.97-1.07,.59-2.14,1.18-3.2,1.78-7.64,4.26-15.07,8.45-22.44,12.74l-5.33,3.1c-6.73,3.92-13.43,7.82-19.97,11.75l-16.16,9.72c-27.05,16.5-53.52,33.49-78.57,50.42-1.96,1.33-3.93,2.7-5.91,4.06-1.98,1.37-3.97,2.74-5.96,4.09-38.88,26.73-76.44,54.7-111.55,83.06-8.32,6.76-18.13,14.76-27.51,22.7-2.99,2.53-5.97,5.06-8.85,7.53-38.56,32.79-75.35,67.09-109.49,102.06l-4.68,4.86c-8.24,8.47-16.54,17.24-25.37,26.79-7.39,7.96-14.83,16.21-22.77,25.24-.82,.98-1.88,2.18-2.94,3.37l-1.92,2.19c-6.66,7.56-13.46,15.53-20.77,24.35v.28l-3.65,4.13s0,0-.01,.01l-.75,.85c-.85,.98-1.66,1.98-2.44,2.98l-.58,.72c-2.65,3.23-5.29,6.45-7.84,9.67-7.91,9.79-15.55,19.56-22.84,29.16l-.76,.98c-1.55,2.03-3.06,4.03-4.54,6.02-1.83,2.41-3.48,4.63-5.08,6.86l-.71,.92c-.31,.38-.59,.78-.88,1.18l-.68,.94c-4.39,5.91-8.5,11.66-12.4,17.22-4.74,6.62-9.46,13.44-14.93,21.58-.3,.45-.59,.87-.87,1.29v.05l-3.38,5.04c-6.45,9.63-12.57,19.18-18.68,29.16l-1.11,1.76c-2.14,3.5-4.16,6.89-6.06,10.12l-1.18,1.91c-1.84,3.05-3.55,6-5.12,8.78l-1.82,3.15c-.78,1.35-1.53,2.65-2.18,3.92l-1.01,1.8c-1.61,2.84-3.09,5.46-4.35,7.9l-.59,1.04c-.31,.5-.54,1.01-.8,1.51-.06,.13-.13,.27-.19,.41v2.5l-3.08,3.37c-.19,.35-.38,.7-.54,1.03l-.61,1.26c-.62,1.15-1.16,2.18-1.65,3.16-.59,1.13-.99,1.92-1.28,2.57l-.71,1.49c.23,2.65,.48,5.29,.77,7.95l.06,.67c.05,.75,.14,1.49,.22,2.23l.19,1.78c.45,4.99,.99,9.79,1.63,14.62,.59,5.11,1.19,9.96,1.8,14.76,.37,2.87,.81,5.78,1.3,8.79,.61,4.31,1.21,8.33,1.81,12.3,.64,4.09,1.29,8.2,1.99,12.25l.84,4.7c.61,3.43,1.22,6.86,1.87,10.31l.16,1.04c.14,1.15,.42,2.34,.67,3.49l.11,.53c.62,3.41,1.3,6.83,2.07,10.24l.1,.51c.41,2.14,.86,4.25,1.32,6.39l.54,2.54c.44,2.06,.89,4.14,1.37,6.2l.2,.96c.1,.55,.23,1.12,.36,1.69l.27,1.19c.25,1.15,.5,2.23,.74,3.3l2.82,11.93c.4,1.66,.79,3.29,1.21,4.91,.27,1.13,.54,2.24,.82,3.35h.2l3.13,12.69c.7,2.94,1.51,5.9,2.48,9.05l.2,.7c.55,2.1,1.14,4.19,1.74,6.29,.45,1.57,.89,3.13,1.32,4.71,1.32,4.56,2.78,9.31,4.24,14.05l1.83,5.95c3.76,11.82,7.62,23.2,11.47,33.83l.77,2.13c1.04,2.88,2.06,5.72,3.15,8.62,2.58,7.18,5.48,14.72,8.94,23.26,2.57,6.41,5.18,12.67,7.88,18.92l.25,.6c.6,1.56,1.27,3.1,1.95,4.65,.5,1.15,1,2.31,1.48,3.47,.09,.19,.19,.4,.3,.61l.65,1.34c2.38,5.56,4.81,11.06,7.39,16.58,3.27,6.99,6.64,13.98,10.06,20.87l1.02,2.04c2.88,5.8,5.64,11.18,8.4,16.5,3.37,6.58,6.93,13.19,10.93,20.3,2.03,3.68,4.07,7.28,6.1,10.87l2.09,3.71c.38,.58,.72,1.14,1.05,1.77,3.41,5.87,6.86,11.65,10.37,17.42,2.05,3.45,4.02,6.71,6.13,9.92l2.71,4.45c1.69,2.68,3.55,5.53,5.71,8.72,2.72,4.23,5.27,8.08,7.87,11.98,1.85,2.76,3.71,5.5,5.57,8.23h7.84l.03,11.32c3.34,4.68,6.84,9.55,10.42,14.38,4.08,5.59,7.74,10.48,11.24,14.99l.16,.13,1.21,1.59c12.32,16.1,25.68,32.27,39.71,48.08l.42,.49c.96,1.18,1.98,2.26,3.02,3.39l10.74,11.78c4.61,4.96,9.46,10.05,14.31,15.1,.63,.62,1.48,1.52,2.33,2.41,.66,.69,1.31,1.38,1.98,2.05,1.67,1.76,3.21,3.35,4.73,4.87Zm-77.42-88.33l.07,.11s-.05-.07-.07-.11Zm-97.87-86.77s.05,.08,.08,.12c-.03-.04-.06-.08-.08-.12Zm-99.6-243.2c0,.07,0,.13,0,.2v-.2Zm1831.77-247.77h0Zm-58.97-136.75c.02,.06,.04,.14,.07,.23l-.07-.23Zm-.06-.26s0,0,0,0h0Z"/>
            <path class="cls-22" d="M623.03,2898.03c-42.3,0-83.1-18.52-111.47-51.88-95.69-112.53-159.28-249.52-183.89-396.15-9.11-54.25,11.76-109.01,54.46-142.91l83.84-66.55c7.15-5.68,17.55-4.48,23.23,2.67,5.67,7.15,4.48,17.55-2.67,23.22l-83.84,66.55c-33.27,26.42-49.52,69.15-42.41,111.54,23.62,140.74,84.65,272.21,176.47,380.2,27.53,32.38,70.13,46.74,111.14,37.45l103.83-23.49c8.92-1.99,17.76,3.58,19.77,12.48,2.01,8.91-3.57,17.75-12.47,19.77l-103.83,23.49c-10.69,2.42-21.47,3.6-32.15,3.6Z"/>
            <g class="cls-13">
              <path class="cls-4" d="M2552.5,1569.31c-75.76-54.42-323.84-102.52-363.61-29.45-37.83,69.51,439.37,83.87,363.61,29.45Z"/>
            </g>
            <ellipse class="cls-14" cx="1593.77" cy="2108.14" rx="307.64" ry="312.88" transform="translate(-22.93 17.53) rotate(-.63)"/>
            <g class="cls-2">
              <path class="cls-4" d="M1291.68,2168.85c2.16,8.93,4.68,17.71,7.55,26.29-24.41-158.69,74.24-312.69,230.4-351.75,156.21-39.07,313.93,50.79,364.78,202.88-1.38-8.95-3.16-17.92-5.32-26.85-40.64-167.81-207.32-270.39-372.31-229.11-164.94,41.26-265.73,210.73-225.09,378.55Z"/>
            </g>
            <g class="cls-27">
              <path class="cls-20" d="M1295.07,2182.86c40.64,167.81,207.32,270.38,372.26,229.13,164.99-41.27,265.78-210.75,225.14-378.56-2.27-9.36-4.92-18.45-7.92-27.4,23.74,158.24-74.85,311.59-230.64,350.56-155.79,38.97-313.09-50.38-364.33-201.73,1.42,9.34,3.23,18.65,5.49,28Z"/>
            </g>
            <path class="cls-22" d="M1593.36,2437.66c-57.69,0-114.55-15.76-165.34-46.49-75.19-45.49-128.12-118.1-149.03-204.43h0c-42.7-176.32,63.7-355.08,237.19-398.47,83.25-20.82,169.66-7.74,243.33,36.83,75.2,45.49,128.13,118.09,149.04,204.43,42.7,176.32-63.7,355.07-237.19,398.47-25.85,6.46-52.01,9.66-77.99,9.66Zm.74-625.97c-23.3,0-46.74,2.87-69.91,8.67-155.94,39-251.52,199.88-213.08,358.61h0c18.82,77.71,66.41,143.03,134.02,183.93,66.08,39.97,143.57,51.71,218.2,33.03,155.94-39,251.52-199.88,213.08-358.61-18.82-77.71-66.42-143.03-134.02-183.93-45.56-27.56-96.56-41.7-148.29-41.7Z"/>
            <path class="cls-18" d="M1407.36,2154.79c15.2,62.77,58.72,110.92,113.29,133.84,30.48,12.85,64.37,17.78,98.79,13.05,6.73-.94,13.48-2.23,20.25-3.92,10.52-2.63,20.63-6.07,30.24-10.36,32.66-14.27,59.92-37.18,79.79-65.37,31.56-44.75,44.43-102.78,30.45-160.5-13.98-57.71-51.89-103.11-100.28-127.85-30.46-15.54-65.07-22.97-100.52-20.21-10.48,.74-21,2.46-31.52,5.09-6.77,1.69-13.34,3.74-19.73,6.08-32.64,12.04-60.41,32.4-81.55,58.11-37.87,46.04-54.42,109.22-39.21,172.04Z"/>
            <g class="cls-25">
              <path class="cls-1" d="M1405.07,2128.82l265.03,163.1c30.48-12.83,57.87-33.71,78.9-61.81l-326.69-201.04c-14.7,31.99-20.18,66.36-17.25,99.75Z"/>
            </g>
            <path class="cls-22" d="M1593.5,2319.99c-37.12,0-73.7-10.14-106.38-29.9-48.36-29.25-82.39-75.92-95.83-131.42h0c-27.45-113.34,40.99-228.25,152.55-256.16,53.56-13.4,109.17-4.98,156.58,23.69,48.35,29.25,82.39,75.93,95.83,131.43,27.45,113.34-40.99,228.25-152.55,256.16-16.63,4.16-33.47,6.21-50.19,6.21Zm-170.08-169.11c11.35,46.87,40.05,86.26,80.81,110.92,39.81,24.08,86.49,31.14,131.44,19.91,94.01-23.52,151.63-120.55,128.44-216.3-11.35-46.88-40.05-86.27-80.81-110.92-39.81-24.08-86.49-31.16-131.44-19.9-94,23.51-151.62,120.55-128.44,216.3h0Z"/>
            <g>
              <g>
                <path class="cls-14" d="M179.57,2641.52s-136.75-75.82-278.33,206.64c-6.65,13.27,.3,29.4,14.43,33.33,75.9,21.07,290.67,67.06,336.79-71.35l-72.89-168.61Z"/>
                <path class="cls-3" d="M190.6,2665.67s-97.04-53.8-197.34,147.21c-4.39,8.8,.23,19.51,9.59,22.13,52.59,14.74,206.44,48.46,239.29-50.12l-51.54-119.22Z"/>
                <path class="cls-9" d="M205.23,2682.34s-65.48-36.3-133.16,99.33c-2.96,5.94,.16,13.16,6.47,14.93,35.49,9.94,139.3,32.7,161.46-33.82l-34.78-80.44Z"/>
                <path class="cls-22" d="M78.56,2922.82c-63.51,0-127.5-14.37-167.3-25.42-11.43-3.17-20.76-11.25-25.61-22.17-4.92-11.07-4.62-23.65,.81-34.49,61.05-121.81,129.33-195.11,202.95-217.87,57.5-17.79,96.54,3.28,98.17,4.19l4.92,2.73,77.64,179.58-1.99,5.99c-27.98,83.97-108.39,107.47-189.6,107.47Zm56.75-274.07c-10.59,0-23.19,1.56-37.42,6.11-44.16,14.13-111.55,60.41-181.86,200.7-1.35,2.71-.68,5.09-.15,6.27,.48,1.09,1.67,3.01,4.23,3.72,62.68,17.39,268.11,64.05,314.6-54.87l-67.73-156.67c-5.81-2.16-16.73-5.26-31.66-5.26Z"/>
              </g>
              <path class="cls-15" d="M350.59,2748.28c-26.84,48.21-74.98,70.62-74.98,70.62,0,0-35.71-26.13-69.01-100.04-33.3-73.91-29.44-118.47-29.44-118.47,0,0,48.13-22.42,101.57-11.6l71.85,159.49Z"/>
              <path class="cls-22" d="M273.74,2838.01l-7.88-5.77c-1.6-1.17-39.63-29.59-74.32-106.59-34.67-76.95-31.01-124.69-30.83-126.69l.83-9.52,8.66-4.04c2.17-1.01,53.73-24.58,111.83-12.81,8.95,1.81,14.73,10.54,12.92,19.48-1.81,8.94-10.52,14.75-19.48,12.92-33.94-6.86-66.13,1.43-81.66,6.7,.98,16.17,5.84,51.45,27.88,100.37,21.85,48.5,44.73,75.21,56.23,86.68,14.13-8.58,41.22-27.94,58.24-58.51,4.44-7.98,14.52-10.84,22.48-6.4,7.98,4.44,10.84,14.51,6.4,22.48-29.11,52.28-80.28,76.55-82.44,77.56l-8.86,4.12Z"/>
              <path class="cls-14" d="M405.94,2794.21c-89.68,19.34-131.23-79.29-141.57-102.23-10.34-22.94-56.66-119.35,16.3-175.8,73.81-57.04,439.2-193.7,497.8-63.63,58.6,130.07-281.84,322.12-372.54,341.65Z"/>
              <g class="cls-2">
                <path class="cls-4" d="M255.09,2670.16c-7.01-36.97-3.91-81.75,37.38-113.67,71.94-55.61,420.88-186.81,492.75-72.98-.08-10.61-2.23-20.99-6.73-30.96-58.61-130.08-424.01,6.58-497.83,63.62-58.33,45.11-40.4,115.76-25.58,153.99Z"/>
              </g>
              <g class="cls-13">
                <path class="cls-22" d="M391.93,2761.11c-70.73,15.26-111.5-42.83-130.66-79.35,16.24,6.27,34.99,8.51,56.54,3.83,78.26-16.81,342.36-162.06,375.79-285.14,33.5,4.65,60.52,16.48,76.62,38.1,20.79,129-291.94,303.98-378.28,322.56Z"/>
              </g>
              <path class="cls-22" d="M383.31,2813.23c-42.31,0-93.22-23.34-133.17-112.58l-1.69-3.75c-49.03-108.1-15.04-165.05,22.11-193.78,66.06-51.06,316.59-147.41,446.72-114.91,37.63,9.4,63.29,28.77,76.27,57.57,13.01,28.87,10.59,61.35-7.18,96.53-61.19,121.14-296.09,250.65-376.95,268.07h0c-8.17,1.76-16.94,2.86-26.11,2.86Zm274-398.52c-125.53,0-315.41,75.05-366.52,114.55-40.87,31.62-44.87,81.99-12.22,153.98l1.76,3.9c32.2,71.95,72.16,101.67,122.13,90.92h0c72.05-15.51,299.42-141.79,354.4-250.66,13.23-26.19,15.37-48.45,6.55-68.04-8.73-19.38-26.44-32.16-54.14-39.08-15.37-3.84-32.93-5.57-51.97-5.57Z"/>
              <path class="cls-22" d="M537.13,2753.1c-4.56,0-9.09-1.87-12.36-5.55-72.82-81.89-118.43-183.08-131.88-292.6-1.13-8.77,4.88-16.95,13.68-18.41,9-1.51,17.52,4.58,19.02,13.58l.1,.72c12.61,102.86,55.42,197.87,123.78,274.75,6.07,6.82,5.46,17.27-1.37,23.33-3.15,2.8-7.07,4.18-10.98,4.18Z"/>
            </g>
            <g>
              <path class="cls-14" d="M920.32,2616.96c118.94-74.08,233.15-129.71,333.12-129.85,26.24,9.02,53.09,30.18,67.52,65.74,15.22,37.52,10.81,80.16-9.57,115.16-137.11,235.5-375.17,369.49-564.45,351.75-27.36-2.56-43.11-32.23-29.87-56.32,58.66-106.77,153.02-210.11,176.11-309.24,3.61-15.52,13.61-28.82,27.14-37.25Z"/>
              <g class="cls-10">
                <path class="cls-22" d="M1320.96,2552.85c-14.43-35.56-41.28-56.73-67.51-65.74-13.81,.02-27.89,1.13-42.22,3.17,12.65,36.13,7.74,76.31-11.63,109.58-116.09,199.39-304.53,325.98-474.47,349.36-2.74,4.74-5.44,9.48-8.05,14.23-13.23,24.09,2.51,53.75,29.87,56.32,189.28,17.74,427.34-116.26,564.45-351.75,20.38-34.99,24.79-77.63,9.56-115.16Z"/>
              </g>
              <path class="cls-22" d="M780.68,3037.84c-11.93,0-23.7-.54-35.29-1.62-18.42-1.72-34.57-12.49-43.23-28.81-8.65-16.31-8.5-35.72,.41-51.92,21.32-38.81,47.32-77.23,72.45-114.38,45.2-66.8,87.9-129.9,102.05-190.64,4.51-19.35,17.08-36.68,34.5-47.53h0c146.76-91.41,252.19-132.23,341.84-132.35h2.77s2.62,.89,2.62,.89c34.68,11.92,62.91,39.32,77.46,75.16,16.69,41.15,12.73,89.63-10.6,129.69-67.18,115.38-159.98,211.05-268.39,276.66-91.41,55.33-188.26,84.85-276.61,84.85Zm148.37-406.85c-10.03,6.25-17.24,16.08-19.78,26.97-15.53,66.7-59.9,132.26-106.86,201.67-24.72,36.53-50.27,74.31-70.86,111.77-3.58,6.51-3.64,13.99-.18,20.52,3.47,6.54,9.7,10.69,17.1,11.38,10.74,1,21.62,1.5,32.59,1.5,184.5,0,396.75-140.24,516.04-345.12,18.21-31.28,21.4-68.9,8.53-100.62-10.59-26.09-30.55-46.14-55.03-55.41-82.56,1-181.93,40.38-321.55,127.33h0Z"/>
              <path class="cls-22" d="M742.37,3003.88c145.02-37.42,276.4-123.93,362.54-247.27,29.2-40.74,54.11-84.65,75.53-130.28,1.49-3.25,5.35-4.67,8.59-3.15,3.15,1.48,4.54,5.19,3.18,8.37-40.27,94.25-96.48,182.89-172.16,253.06-75.61,70.93-169.6,121.09-268.54,151.04-21.3,5.78-30.51-25.2-9.13-31.77h0Z"/>
            </g>
          </g>
          <g class="cls-10">
            <path class="cls-22" d="M1797.1,1519.24c-15.2,92.53-30.41,185.07-45.61,277.6l-3.99,11.6-11.55,33.48-9.76,28.26-17.07,49.47h-.05c-20.8,18.48-41.6,36.97-62.4,55.45-89.26,32.68-133.84,40.4-157.31,41.86-3.34,.21-27.35,1.63-52.9,3.02-16.92,.92-33.58,1.84-50.09,2.71-7.92,.46-15.79,.87-23.66,1.23-3.92,.18-6.81,.4-6.9,.41-8,.49-71.4-10.82-227.52-42.06-44.21-8.85-89.87-7.09-133.3,5-82.25,22.89-169.49,29.47-261.62,20.13-2.48-6.48-2.89-7.55-5.38-14.02,8.23-8.9,16.77-17.95,25.67-27.11v-.05c33.58-34.7,71.86-70.99,115.25-107.89,2.91-2.5,5.93-5.06,8.94-7.61,8.99-7.62,18.3-15.23,27.8-22.95,34.55-27.9,72.06-55.96,112.64-83.87,3.99-2.71,7.92-5.47,11.91-8.18,25.25-17.07,51.67-34.04,79.32-50.9,4.6-2.76,9.15-5.52,13.8-8.33,.82-.51,1.58-.92,2.35-1.38,8.33-5.01,16.92-9.97,25.5-14.97,7.46-4.34,14.97-8.59,22.59-12.83,207.78-42.69,415.56-85.37,623.33-128.06Z"/>
          </g>
          <g>
            <path class="cls-12" d="M1700.03,908.24l-56.5-44.3c-12.04-9.44-10.86-28.01,2.27-35.86l71.14-42.5,17.66-91.99c3.05-15.88,21.72-23.03,34.59-13.24l67.86,51.57,66.13-13.06c16.53-3.27,30.36,12.66,24.79,28.57l-28.98,82.87,50.24,70.75c10.01,14.1,.4,33.68-16.88,34.39l-115.75,4.74-71.55,90.72-45.02-122.66Z"/>
            <path class="cls-22" d="M1745.05,1047.42c-.87,0-1.74-.07-2.61-.21-5.91-.94-10.85-5.01-12.91-10.63l-43.4-118.25-52.8-41.4c-9.94-7.79-15.4-19.97-14.6-32.58,.8-12.61,7.75-24,18.59-30.48l64.78-38.7,16.26-84.72c2.52-13.11,11.46-23.79,23.93-28.57,12.47-4.77,26.26-2.8,36.89,5.27l61.95,47.08,58.84-11.62c13.66-2.69,27.25,1.97,36.37,12.48,9.12,10.51,11.82,24.63,7.23,37.77l-26.16,74.81,45.29,63.78c8.15,11.47,9.36,26.44,3.16,39.07-6.2,12.63-18.78,20.83-32.83,21.41l-108.15,4.43-66.84,84.75c-3.16,4.01-7.96,6.29-12.98,6.29Zm11.01-355.01c-.8,0-1.48,.19-1.94,.37-1.02,.39-2.81,1.42-3.29,3.92l-17.66,91.99c-.89,4.63-3.71,8.66-7.75,11.08l-71.14,42.5c-2.07,1.24-2.49,3.15-2.55,4.19-.06,1.03,.11,2.98,2,4.47l56.5,44.3c2.42,1.9,4.26,4.43,5.32,7.31l34.83,94.9,53.24-67.5c2.99-3.79,7.48-6.08,12.3-6.28l115.75-4.74c2.72-.11,3.99-1.89,4.51-2.94,.51-1.05,1.14-3.14-.43-5.37l-50.24-70.75c-3.1-4.37-3.9-9.97-2.13-15.02l28.97-82.87c.88-2.51-.25-4.33-.99-5.19-.75-.86-2.4-2.23-4.99-1.71l-66.13,13.06c-4.64,.92-9.44-.19-13.21-3.06l-67.86-51.57c-1.1-.83-2.19-1.09-3.12-1.09Z"/>
          </g>
          <g>
            <path class="cls-4" d="M1588.28,1355.13c75.33-49.25,137.64-106.53,186.93-171.84,8.46-11.21,19.33-20.3,31.66-27.02,61.51-33.54,97.33-98.97,91.5-216.09h-81.77l-67.72,75.38c17.26-133.16-49.15-180.39-86.74-31.1-3.09,12.26-8.65,23.78-16.22,33.91-56.45,75.57-128.36,141.76-231.8,188.82l174.15,147.93Z"/>
            <g class="cls-10">
              <path class="cls-22" d="M1898.37,940.18h-46.33c-8.76,75.72-41.25,121.98-89.73,148.4-12.33,6.72-23.2,15.81-31.66,27.02-49.29,65.3-111.6,122.58-186.93,171.83l-107.18-91.04c-7.32,3.69-14.76,7.31-22.42,10.8l174.15,147.94c75.33-49.25,137.64-106.53,186.93-171.84,8.46-11.21,19.33-20.3,31.66-27.02,61.51-33.54,97.33-98.97,91.5-216.09Z"/>
            </g>
            <path class="cls-22" d="M1588.28,1371.66c-3.83,0-7.63-1.33-10.7-3.93l-174.15-147.93c-4.31-3.66-6.45-9.28-5.67-14.88,.78-5.6,4.38-10.42,9.53-12.76,91.16-41.47,162.78-99.83,225.4-183.66,6.38-8.53,10.89-17.97,13.43-28.05,24.91-98.91,59.67-107.77,78.16-104.28,26.99,5.13,42.96,40.78,43.91,93.19l36.12-40.21c3.13-3.49,7.61-5.48,12.3-5.48h81.77c8.81,0,16.07,6.91,16.51,15.71,5.77,115.86-26.98,191.56-100.1,231.43-10.63,5.79-19.5,13.35-26.38,22.46-50.21,66.52-114.5,125.64-191.08,175.71-2.76,1.8-5.91,2.7-9.04,2.7Zm-144.05-160.58l145.26,123.39c68.86-46.49,126.86-100.65,172.52-161.14,9.73-12.89,22.16-23.51,36.94-31.57,57.67-31.44,85.04-92.06,83.44-185.05h-58.42l-62.79,69.9c-4.84,5.39-12.62,6.99-19.19,3.97-6.58-3.02-10.43-9.97-9.5-17.15,9.55-73.62-8.83-103.75-14.39-104.8-2.89-.56-22.78,11.78-39.93,79.87-3.61,14.34-10,27.72-19.01,39.77-59.78,80.03-130.28,140.03-214.93,182.81Z"/>
          </g>
          <g>
            <g>
              <path class="cls-4" d="M1607.72,1538.14l-467.89-127.72v-233.46l134.11-56.27,76.97-32.3c8.02,6.64,15.95,13.34,23.71,20.09,25.45,21.98,49.63,44.57,72.16,67.97,81.82,85.04,141.47,180.97,157,298.72,2.66,20.34,3.99,41.29,3.94,62.96Z"/>
              <path class="cls-22" d="M1609.45,1540.4l-471.34-128.66v-235.93l213.1-89.42,.81,.67c8.34,6.91,16.33,13.67,23.74,20.11,26.83,23.17,50.47,45.44,72.28,68.08,91.97,95.58,143.47,193.62,157.47,299.7,2.67,20.45,4,41.71,3.95,63.2v2.26Zm-467.89-131.3l464.43,126.78c-.05-20.56-1.36-40.9-3.92-60.48-13.9-105.32-65.1-202.72-156.53-297.75-21.73-22.57-45.3-44.77-72.05-67.86-7.16-6.21-14.85-12.73-22.88-19.39l-209.05,87.72v230.99Z"/>
            </g>
            <path class="cls-22" d="M1607.75,1554.67c-1.46,0-2.92-.19-4.35-.58l-467.9-127.74c-7.19-1.96-12.18-8.5-12.18-15.95v-233.42c0-6.66,3.99-12.66,10.13-15.24l211.05-88.59c5.67-2.38,12.2-1.41,16.94,2.51,122.73,101.6,263.52,245.99,262.84,462.53-.02,5.14-2.43,9.99-6.52,13.1-2.91,2.21-6.44,3.38-10.01,3.38Zm-451.37-156.89l434.38,118.59c-8.4-186.54-131.74-315.83-242.72-408.85l-191.66,80.45v209.81Z"/>
          </g>
          <g>
            <path class="cls-4" d="M1600.67,1313.26c63.88-41.74,157.58,20.44,51.01,97.14l-14.52-88.96-36.49-8.18Z"/>
            <path class="cls-4" d="M1446.49,1468.29l110.73-155.03h78.36c10.98,56.18,20.38,123.91,28.96,197.62l-218.06-42.59Z"/>
            <path class="cls-22" d="M1664.55,1527.41c-1.06,0-2.11-.1-3.17-.31l-218.06-42.59c-5.52-1.08-10.11-4.89-12.19-10.11-2.08-5.22-1.36-11.15,1.91-15.72l110.73-155.03c3.1-4.34,8.11-6.92,13.45-6.92h78.36c7.91,0,14.71,5.6,16.22,13.36,9.99,51.12,19.53,116.17,29.15,198.88,.61,5.24-1.32,10.46-5.19,14.04-3.08,2.85-7.1,4.4-11.23,4.4Zm-189.67-70.42l170.59,33.32c-7.8-64.45-15.55-117.28-23.56-160.51h-56.17l-90.86,127.2Z"/>
            <path class="cls-22" d="M1516.32,1498.46c-3.3,0-6.63-.99-9.53-3.03-7.45-5.27-9.23-15.59-3.96-23.04l119.25-168.67c5.27-7.46,15.59-9.22,23.04-3.96,7.45,5.27,9.23,15.59,3.96,23.04l-119.25,168.67c-3.22,4.56-8.33,6.99-13.51,6.99Z"/>
            <path class="cls-22" d="M1651.67,1426.93c-2.14,0-4.28-.42-6.32-1.26-5.29-2.19-9.07-6.96-9.99-12.61l-12.72-77.93-25.59-5.73c-6.48-1.45-11.47-6.64-12.65-13.18-1.18-6.54,1.66-13.15,7.23-16.78,39.22-25.63,93.2-19.57,115.52,12.96,8.45,12.32,30.13,56.78-45.81,111.43-2.86,2.06-6.24,3.11-9.66,3.11Zm1.41-109.95c.16,.59,.3,1.18,.4,1.79l9.85,60.37c18.52-18.5,24.87-35.95,16.56-48.06-5.1-7.43-15.01-12.52-26.8-14.1Z"/>
          </g>
          <g>
            <path class="cls-4" d="M937.12,1185.49c-233.03-103.76-399.49,302.01-184.43,700.45,15.56,28.83,42.94,49.76,75.15,55.75,82.28,15.31,158.13-45.82,230.23-151.43,8.2-302.9-3.19-564.9-120.95-604.77Z"/>
            <path class="cls-22" d="M853.18,1960.6c-9.43,0-18.88-.88-28.36-2.65-36.77-6.84-68.36-30.22-86.67-64.15-152.01-281.62-116.89-560-6.66-678.94,58.64-63.28,133.79-79.16,211.68-44.77,121.87,42.19,140.7,278.65,131.44,620.63-.09,3.17-1.08,6.25-2.87,8.87-73.75,108.02-145.54,161.01-218.55,161.01Zm11.69-774.82c-40.06,0-77.49,17.41-109.14,51.55-52.2,56.32-83.53,151.45-85.96,260.97-1.94,87.3,13.4,224.05,97.47,379.79,13.54,25.09,36.73,42.35,63.63,47.36,67.76,12.57,136.76-33.37,210.82-140.51,7.09-268.73-.79-546.86-109.86-583.79-.48-.16-.96-.35-1.42-.56-22.26-9.91-44.26-14.82-65.53-14.82Zm193.21,604.49h0Z"/>
            <path class="cls-22" d="M967.24,1912.12c-6.86,0-13.26-4.3-15.63-11.14-55.02-159.31-67.06-352.39-71.41-502.81-1.06-36.74-14.38-71.15-37.48-96.9-36.49-40.65-82.15-44.95-125.28-11.78-7.24,5.57-17.61,4.21-23.18-3.03-5.57-7.24-4.21-17.62,3.03-23.18,56.85-43.71,122-37.62,170.04,15.91,28.33,31.57,44.64,73.48,45.93,118.03,4.28,148.06,16.06,337.9,69.61,492.97,2.98,8.63-1.6,18.04-10.23,21.02-1.79,.62-3.61,.91-5.4,.91Z"/>
            <g class="cls-10">
              <path class="cls-22" d="M905.61,1108.47l-193.3,144.89c84.08-.14,152.92,28.36,183.33,129.14l56.07,525.31,122.56-86.94-74.11-613.68-94.55-98.72Z"/>
            </g>
          </g>
          <g>
            <path class="cls-4" d="M1784.91,1726.42c24.02,32.86,24.48,77.38,3.22,112.13-42.42,69.56-88.11,121.74-137.63,153.32-30.41,19.37-68.94,20.8-101.09,4.4l-172.74-88.47c-187.1,55.71-325.5,15.59-400.07-150.05-28.52-63.27-37.67-133.39-29.74-202.28,5.37-46.3,7.51-99.4,7.77-156.49,.26-51.82-1.02-106.92-2.81-163.19h131.81l56.22,10.83,108.04,20.85c15.13,2.86,29.95,7.26,44.16,12.93,18.09,7.21,35.21,16.61,51.11,27.96l213.94,152.96c13.65,9.76,30.1,14.51,46.71,13.85,3.68-.1,7.41-.56,11.09-1.23,76-14.21,154.14-11.7,186.9,21.87,10.73,11.04,3.88,29.64-11.35,31.64l-23.66,3.02c21.26,43.95,2.66,96.64-69,160.99,34.5-4.8,65.78,5.78,87.14,34.96Z"/>
            <path class="cls-22" d="M1596.31,2024.06c-18.61,0-37.3-4.34-54.41-13.1l-166.92-85.44c-200.29,57.65-339.38,3.49-413.48-160.98-28.83-64-39.57-136.95-31.06-210.99,10.32-89.76,8.41-205.51,4.82-317.22-.14-4.47,1.53-8.81,4.65-12.03,3.11-3.22,7.4-5.03,11.88-5.03h131.85c1.05,0,2.1,.1,3.13,.3l164.25,31.65c36.93,7.12,71.17,21.82,101.77,43.7l213.9,152.97c12.86,9.19,29.32,12.76,45.18,9.8,44.72-8.36,153.89-22.5,201.77,26.59,9.3,9.53,12.33,23.31,7.93,35.96-4.47,12.83-15.59,21.87-29.02,23.6l-3.41,.44c9.36,40.33-8.12,84.54-52.17,131.97,24.56,5.26,45.62,18.99,61.29,40.42,27.71,37.88,29.29,89.1,4.03,130.49-44.81,73.4-92.87,126.77-142.85,158.65-19.03,12.13-41,18.26-63.1,18.26Zm-219.66-132.77c2.6,0,5.18,.61,7.53,1.81l172.78,88.43c27.04,13.85,59.48,12.46,84.67-3.6,45.7-29.15,90.25-78.94,132.41-148,18.26-29.91,17.28-66.71-2.49-93.74-21.02-28.74-50.48-31.28-71.5-28.35-7.17,.99-14.21-2.81-17.27-9.41-3.06-6.59-1.46-14.41,3.95-19.27,62.69-56.27,84-102.55,65.16-141.49-2.32-4.78-2.19-10.39,.34-15.07,2.53-4.68,7.16-7.85,12.43-8.53l23.66-3.03c.99-.13,1.66-.69,2-1.68,.42-1.19-.12-1.74-.37-2-24.72-25.35-92.25-32.09-172.02-17.18-24.66,4.61-50.35-1-70.49-15.41l-213.9-152.97c-26.69-19.09-56.57-31.92-88.79-38.13l-162.7-31.35h-113.21c3.26,107.63,4.48,217.73-5.55,304.99-7.83,68.12,1.98,135.08,28.35,193.64,67.95,150.84,192.34,196.95,380.29,141.01,1.54-.46,3.13-.69,4.71-.69Z"/>
            <path class="cls-22" d="M1170.72,1483.83c95.2,51.95,196.24,113.52,307.6,109.76,21.31,.04,41.76,8.85,57.8,22.52,41.02,31.55,113,82.47,163.8,50.95,17.82-11.95,36.37,13.15,19.53,26.68-12.15,9.17-26.91,15.22-41.71,17.35-48.93,6.56-94.34-17.21-133.62-42.98-10.46-7-21.38-15.21-31.15-23.02-7.32-6.17-15.87-11.47-25.2-13.62-11.07-2.48-22.65-.85-33.87-1.75-32.65-1.73-65.12-9.25-95.58-19.72-24.45-8.24-47.77-18.93-70.26-30.75-44.91-23.89-86.11-53.29-123.71-86.46-4.67-4.2,.45-12.25,6.37-8.95h0Z"/>
            <path class="cls-22" d="M1376.66,1924.35c-6.18,0-12.11-3.48-14.94-9.44-32.99-69.45-36.28-140.06-9.26-198.83,25.62-55.71,77.36-96.63,145.71-115.21,8.81-2.39,17.89,2.81,20.29,11.62,2.39,8.81-2.81,17.89-11.62,20.29-59.58,16.19-102.58,49.78-124.34,97.12-22.86,49.72-19.63,110.39,9.09,170.83,3.92,8.25,.41,18.11-7.84,22.03-2.29,1.09-4.71,1.6-7.08,1.6Z"/>
            <path class="cls-22" d="M1361.29,1609.74c-.25,0-.5,0-.76-.02-9.12-.41-16.18-8.14-15.76-17.26,5.28-116.41,50.39-181.27,137.93-198.29,8.94-1.74,17.64,4.11,19.38,13.07,1.74,8.96-4.11,17.64-13.07,19.38-71.33,13.87-106.66,67.04-111.21,167.34-.4,8.87-7.72,15.78-16.5,15.78Z"/>
            <path class="cls-22" d="M1689.73,1709.76c-34.78,.09-60.38,21.68-73.36,53.95-2.14,5.35-10.44,2.85-9.25-2.78,7.07-42.17,35.24-74.04,77.43-83.82,24.13-5.6,29.9,30.5,5.18,32.65h0Z"/>
            <path class="cls-22" d="M1758.83,1544.97l-30.06-30.03c-3.45-3.22-.04-9.26,4.44-8.11,0,0,41.49,9.15,41.49,9.15,9.29,2.05,15.16,11.24,13.11,20.52-2.48,13.06-19.96,18.02-28.99,8.47h0Z"/>
          </g>
          <g>
            <g class="cls-10">
              <path class="cls-22" d="M1788.55,1837.83c-19.96,21.13-40.58,38.7-61.9,52.42-30.67,19.74-69.54,21.59-102.01,4.98l-98.45-50.39c-43.65-22.34-93.44-30.48-141.7-21.8-70.23,12.64-132.28,9.19-185.19-12.25-28.25-11.45-24.78-52.59,5.04-58.89,41.61-8.79,87.76-11.93,125.42-38.43,41.73-29.37,77.99-22.59,145.72-6.21,69.08,16.71,111.43-3.42,152.58,20.62,6.35-35.14-69.59-73.15-142.21-111.05l-119.49,4.86c-51.93,41.59-164.94,65.34-286.77,86.52-12.17-18.84-23.2-39.91-32.99-63.42-24.71-59.34-32.3-124.26-24.79-188.11,.05-.46,.11-.93,.16-1.39,5.06-43.61,35.06-80.12,76.9-93.43,13.8-4.39,27.46-9,40.96-13.83,53.1-19.01,103.9-41.45,152.2-67.62,54.89-29.69,106.56-64.24,154.75-103.95-22.54-23.41-46.71-46-72.16-67.97l-100.68,12.21-134.11,56.27v69.66l-56.22-10.83h-131.81s0,.01,0,.02h-.03c1.18,36.79,2.14,73.08,2.58,108.28,0,.55,.01,1.09,.02,1.64,.08,6.35,.14,12.68,.18,18.95,0,.95,0,1.88,.01,2.83,.03,5.88,.05,11.72,.06,17.53,0,1.19,0,2.38,0,3.57-.07,61.46-2.16,118.59-7.89,167.9-7.99,68.7,1.53,138.58,29.99,201.62,74.64,165.31,212.96,205.35,399.91,149.7l172.79,88.43c32.21,16.49,70.84,14.95,101.33-4.54,49.56-31.68,95.29-84.06,137.81-153.85-.06-.05,.04,.03-.02-.02Z"/>
            </g>
            <path class="cls-4" d="M1288.26,1562.43c-105.06,57.04-229.6,77.51-373.68,61.29-10.14-1.14-19.17,6.99-18.84,17.19,3.68,112.77,333.8,57.26,492.43-39.68-37.73-8.66-72.13-20.53-99.91-38.8Z"/>
            <g class="cls-10">
              <path class="cls-20" d="M1322.27,1580.51c-140.69,67.91-356.51,105.34-425.98,55.87-.37,1.45-.61,2.95-.55,4.53,3.68,112.77,333.8,57.26,492.43-39.68-23.53-5.4-45.76-12.05-65.89-20.72Z"/>
            </g>
            <path class="cls-22" d="M1022.49,1720.33c-42.27,0-78.67-6.05-104.01-19.72-24.86-13.41-38.44-33.87-39.26-59.17-.31-9.6,3.58-18.87,10.69-25.44,7.18-6.63,16.86-9.82,26.51-8.72,139.89,15.74,262.35-4.24,363.95-59.39,5.35-2.9,11.88-2.63,16.97,.72,23.26,15.3,54.18,27.24,94.52,36.5,6.55,1.5,11.54,6.82,12.62,13.45,1.08,6.63-1.96,13.26-7.69,16.76-96.52,58.99-257.72,105-374.3,105Zm-109.8-80.19c-.24,0-.42,.24-.43,.27,.29,8.4,2.86,20.82,21.93,31.11,69.93,37.72,275.18,3.07,410.44-65.07-21.91-7.1-40.79-15.37-57.02-24.96-105.92,55-231.99,74.74-374.88,58.65-.01,0-.03,0-.04,0Z"/>
          </g>
          <g>
            <g>
              <path class="cls-4" d="M1611.98,738.84c-.65,86-23.05,172.38-68.09,250.69-9.19,15.96-19.27,31.57-30.32,46.76-5.35,7.41-11,14.72-16.82,21.99-17.66,21.8-36.73,41.81-57,60.02-17.44,15.74-35.8,30.12-54.84,43.14-22.98,15.74-47.04,29.47-71.86,41.22-9.07,4.25-18.22,8.26-27.45,12.01-169.17,68.4-369,47.26-520.99-72.53-223.94-176.41-259.18-499.98-78.81-722.71,34.77-42.87,74.99-78.98,118.92-107.88,5.1-3.43,10.32-6.72,15.61-9.9,14.07-8.6,28.47-16.5,43.16-23.67,33.98-16.58,69.5-29.35,105.8-38.24,36.28-8.93,73.45-13.99,110.7-15.1,11.84-.36,23.7-.33,35.58,.12,17.8,.68,35.56,2.22,53.3,4.74,88.35,12.29,174.49,47.29,249.08,106.07,128.83,101.47,195.18,251.62,194.03,403.28Z"/>
              <path class="cls-22" d="M1087.3,1254.92c-116.06,0-230.58-38.08-323.71-111.47-108.22-85.25-176.23-207.3-191.48-343.66-15.38-137.45,24.54-272.91,112.41-381.41,34.31-42.3,74.45-78.71,119.3-108.22,4.84-3.25,10.12-6.6,15.67-9.94,14.04-8.58,28.6-16.57,43.29-23.74,33.75-16.47,69.46-29.38,106.13-38.36,36.32-8.94,73.68-14.04,111.04-15.15,12-.37,24.01-.32,35.69,.12,18.19,.7,36.19,2.3,53.47,4.75,91.24,12.69,177.64,49.49,249.88,106.41,124.91,98.39,195.87,245.86,194.66,404.6-.67,88-24.29,174.97-68.31,251.51-9.33,16.2-19.56,31.98-30.41,46.91-4.94,6.84-10.46,14.05-16.87,22.05-17.46,21.56-36.7,41.82-57.19,60.22-17.13,15.46-35.64,30.02-55.01,43.28-22.68,15.54-46.93,29.45-72.09,41.35-9.06,4.25-18.33,8.31-27.54,12.05-64.26,25.98-131.86,38.71-198.94,38.71Zm8.9-1028.87c-5.36,0-10.76,.08-16.15,.25-37.13,1.11-74.26,6.17-110.35,15.05-36.45,8.93-71.93,21.76-105.47,38.12-14.59,7.13-29.06,15.06-43.02,23.6-5.51,3.31-10.74,6.63-15.55,9.86-44.58,29.33-84.47,65.51-118.56,107.55-87.31,107.81-126.97,242.39-111.69,378.95,15.16,135.47,82.72,256.72,190.24,341.41,146.02,115.07,345.02,142.78,519.34,72.29,9.15-3.72,18.36-7.75,27.37-11.98,25-11.82,49.1-25.65,71.63-41.08,19.25-13.17,37.64-27.64,54.66-43,20.36-18.29,39.47-38.42,56.82-59.84,6.37-7.95,11.85-15.12,16.76-21.91,10.79-14.83,20.95-30.52,30.22-46.61,43.73-76.04,67.2-162.44,67.87-249.87h1.66s-1.66,0-1.66,0c1.19-157.7-69.3-304.21-193.4-401.96-71.77-56.56-157.62-93.12-248.28-105.73-17.18-2.44-35.06-4.03-53.14-4.72-6.36-.24-12.82-.36-19.32-.36Z"/>
            </g>
            <path class="cls-6" d="M764.61,1142.13c151.99,119.81,351.84,140.95,521,72.52,9.24-3.74,18.39-7.74,27.44-12,24.84-11.74,48.88-25.48,71.87-41.21,19.03-13.04,37.41-27.41,54.83-43.14,20.29-18.21,39.35-38.22,57.02-60.03,5.79-7.28,11.44-14.58,16.82-21.98,11.04-15.2,21.09-30.82,30.3-46.78,45.04-78.31,67.46-164.67,68.09-250.7,.37-47.24-5.83-94.38-18.43-139.92-2.51,82.08-24.89,164.11-67.86,238.82-9.17,15.99-19.26,31.58-30.3,46.78-5.34,7.4-10.99,14.7-16.82,21.98-17.68,21.81-36.73,41.82-56.99,60.03-17.46,15.73-35.8,30.09-54.83,43.14-22.99,15.72-47.07,29.47-71.87,41.21-9.08,4.26-18.23,8.26-27.47,12-169.16,68.42-368.98,47.28-521-72.52-88.7-69.86-147.76-162.83-175.57-263.44-4.86,155.71,61.57,311.12,193.76,415.23Z"/>
            <path class="cls-22" d="M1087.3,1266.06c-118.53,0-235.49-38.89-330.61-113.85-110.58-87.11-180.07-211.82-195.67-351.17-15.72-140.44,25.06-278.82,114.83-389.67,35.04-43.2,76.03-80.38,121.84-110.52,4.91-3.3,10.34-6.75,16.05-10.18,14.27-8.72,29.15-16.88,44.14-24.2,34.47-16.82,70.93-30,108.37-39.18,37.07-9.12,75.21-14.33,113.37-15.46,12.24-.37,24.51-.33,36.44,.12,18.58,.71,36.95,2.34,54.62,4.85,93.17,12.96,181.43,50.55,255.21,108.7,127.64,100.54,200.14,251.23,198.91,413.44h0c-.68,89.92-24.82,178.78-69.79,256.98-9.53,16.55-19.97,32.66-31.06,47.91-5.03,6.96-10.66,14.32-17.18,22.46-17.87,22.06-37.52,42.75-58.44,61.54-17.48,15.77-36.38,30.65-56.16,44.18-23.16,15.87-47.93,30.08-73.62,42.23-9.27,4.35-18.71,8.48-28.1,12.3-65.61,26.53-134.65,39.52-203.14,39.52Zm8.89-1028.86c-5.25,0-10.53,.08-15.81,.24-36.35,1.08-72.7,6.04-108.02,14.74-35.69,8.74-70.42,21.3-103.24,37.32-14.27,6.97-28.44,14.74-42.1,23.09-5.42,3.26-10.49,6.48-15.15,9.61-43.71,28.76-82.74,64.17-116.11,105.32-85.41,105.46-124.22,237.11-109.27,370.68,14.83,132.48,80.9,251.06,186.06,333.89,142.89,112.6,337.64,139.7,508.26,70.71,8.95-3.64,17.98-7.59,26.81-11.74,24.43-11.56,48.02-25.09,70.07-40.19,18.85-12.9,36.84-27.05,53.49-42.08,19.94-17.92,38.65-37.62,55.63-58.58,6.21-7.76,11.59-14.78,16.38-21.43,10.58-14.54,20.53-29.89,29.6-45.65,42.78-74.37,65.73-158.88,66.38-244.39,1.17-154.23-67.77-297.51-189.14-393.11-70.22-55.34-154.21-91.11-242.92-103.45-16.83-2.39-34.33-3.94-52.03-4.62-6.22-.24-12.53-.35-18.89-.35Zm515.79,501.64h0Z"/>
            <path class="cls-22" d="M1087.3,1269.78c-119.36,0-237.13-39.16-332.92-114.65-111.37-87.73-181.35-213.34-197.06-353.68-15.83-141.43,25.24-280.8,115.63-392.42,35.28-43.5,76.55-80.94,122.68-111.28,4.93-3.31,10.42-6.79,16.17-10.26,14.34-8.77,29.33-16.99,44.42-24.36,34.71-16.94,71.42-30.21,109.12-39.45,37.32-9.19,75.73-14.43,114.14-15.57,12.32-.37,24.67-.33,36.69,.12,18.71,.72,37.21,2.36,55,4.89,93.81,13.05,182.69,50.9,256.99,109.46,128.55,101.25,201.56,253.02,200.33,416.39h0c-.69,90.56-24.99,180.05-70.29,258.8-9.59,16.66-20.11,32.89-31.28,48.24-5.06,7-10.72,14.41-17.29,22.6-18.01,22.23-37.79,43.06-58.85,61.98-17.59,15.88-36.63,30.85-56.55,44.49-23.32,15.97-48.26,30.28-74.13,42.52-9.34,4.38-18.84,8.54-28.29,12.39-66.06,26.71-135.57,39.79-204.54,39.79Zm8.9-1028.86c-5.21,0-10.46,.08-15.7,.24-36.1,1.07-72.18,6-107.25,14.63-35.43,8.68-69.91,21.15-102.5,37.05-14.17,6.92-28.22,14.63-41.79,22.92-5.39,3.24-10.41,6.42-15.01,9.52-43.42,28.57-82.17,63.72-115.3,104.57-84.78,104.68-123.3,235.35-108.46,367.93,14.71,131.48,80.29,249.17,184.66,331.39,141.84,111.78,335.18,138.68,504.57,70.19,8.88-3.61,17.85-7.54,26.63-11.66,24.24-11.47,47.65-24.9,69.54-39.89,18.71-12.8,36.58-26.86,53.1-41.77,19.8-17.79,38.38-37.35,55.23-58.16,6.16-7.69,11.5-14.67,16.26-21.26,10.51-14.45,20.38-29.68,29.39-45.33,42.45-73.81,65.24-157.7,65.88-242.57,1.16-153.07-67.27-295.28-187.73-390.17-69.7-54.93-153.08-90.44-241.13-102.69-16.72-2.37-34.08-3.91-51.66-4.59-6.17-.24-12.43-.35-18.74-.35Zm515.78,497.92h0Z"/>
            <path class="cls-22" d="M1593.89,869.6c-169.2,328.88-606.92,392.48-799.05,83.29-130.72-210.36-22.11-500.95,191.46-613.75,155.44-82.1,342.98-95.36,535.87,107.12,0,0,71.27,102.78,80.51,191.61,9.23,88.83,3.03,176.89,3.03,176.89l-11.82,54.84Z"/>
            <path class="cls-17" d="M794.85,952.88c192.12,309.19,629.85,245.58,799.05-83.27l2.39-11.12c-268.19,210.22-657.85,193.35-858.03-115.65-1.31,72.58,16.27,145.12,56.6,210.04Z"/>
            <path class="cls-22" d="M1146.85,1223.63c-36.23,0-72.18-3.84-107.23-11.66-127.42-28.42-233.08-105.1-305.57-221.73-66.64-107.23-83.68-238.87-48-370.69,39.6-146.26,140.35-274.31,269.51-342.52,71.74-37.89,143.14-59.43,212.22-64.03l1.69-.11,1.68,.23c93.85,13.06,182.73,50.91,257.03,109.46,128.55,101.25,201.56,253.02,200.33,416.39h0c-.69,90.56-24.99,180.05-70.29,258.8-9.59,16.66-20.11,32.89-31.28,48.24-5.06,7-10.72,14.41-17.29,22.6-18.01,22.23-37.79,43.06-58.85,61.98l-2.05,1.57c-92.39,59.96-198.22,91.47-301.92,91.47Zm21.44-977.54c-63.9,4.53-130.27,24.76-197.29,60.16-121.2,64.01-215.79,184.36-253.04,321.93-33.26,122.86-17.58,245.25,44.16,344.6,67.7,108.92,166.14,180.47,284.69,206.92,126.36,28.19,265.82,1,382.86-74.57,19.41-17.53,37.66-36.79,54.24-57.27,6.16-7.69,11.5-14.67,16.26-21.26,10.51-14.45,20.38-29.68,29.39-45.33,42.45-73.81,65.24-157.7,65.88-242.57,1.16-153.07-67.27-295.28-187.73-390.17-69.25-54.58-152.02-89.98-239.44-102.45Zm443.7,492.74h0Z"/>
            <path class="cls-4" d="M580.23,1041.82c42.6,91.99,133.49,143.8,203.02,115.7,69.53-28.1,91.35-125.45,48.74-217.44-.26-.58-.56-1.19-.84-1.76-42.92-90.89-133.14-141.85-202.18-113.94-53.71,21.7-78.95,84.74-68.02,154.7,3.23,20.59,9.59,41.82,19.28,62.74Z"/>
            <path class="cls-6" d="M580.23,1041.82c42.6,91.99,133.49,143.8,203.02,115.7,69.53-28.1,91.35-125.45,48.74-217.44-.26-.58-.56-1.19-.84-1.76-3.27,12.53-10.86,26.63-28.43,30.01-30.78,5.91-108.84-32.77-108.84-32.77,0,0-57.77,18.49-132.93,43.51,3.23,20.59,9.59,41.82,19.28,62.74Z"/>
            <path class="cls-22" d="M743.62,1181.55c-67.68,0-140.94-51.89-178.41-132.78h0c-26.61-57.46-30.74-118.58-11.33-167.67,13.61-34.42,37.42-59.32,68.88-72.04,77.45-31.31,178.04,24.35,224.22,124.06,26.61,57.46,30.74,118.57,11.33,167.67-13.6,34.42-37.42,59.33-68.88,72.04-14.62,5.91-30.07,8.72-45.82,8.72Zm-148.41-146.68c38.89,83.97,120.45,132.09,181.84,107.31,22.86-9.24,40.33-27.76,50.53-53.55,15.86-40.12,11.9-93.06-10.59-141.62-38.89-83.97-120.46-132.11-181.84-107.31-22.86,9.24-40.33,27.75-50.52,53.54-15.86,40.12-11.9,93.06,10.59,141.62h0Z"/>
            <g>
              <ellipse class="cls-4" cx="672.86" cy="1023.05" rx="110.31" ry="145.93" transform="translate(-424.72 480.2) rotate(-30.35)"/>
              <path class="cls-22" d="M701.73,1162.49c-34.69,0-70.9-17.53-100.05-48.61-54.61-58.23-67.27-146.35-28.22-196.43,16.26-20.85,39.05-32.52,65.89-33.74,36.07-1.62,74.23,16.04,104.68,48.5,54.61,58.24,67.27,146.35,28.22,196.43-16.26,20.85-39.05,32.52-65.9,33.74-1.54,.07-3.09,.11-4.63,.11Zm-97.52-50.98c29.76,31.73,66.95,49.06,102,47.42,25.8-1.17,47.7-12.38,63.33-32.42,38.05-48.79,25.48-134.9-28.02-191.94-29.76-31.73-66.89-49.04-102-47.42-25.81,1.18-47.7,12.38-63.33,32.42-38.05,48.79-25.49,134.9,28.01,191.94Z"/>
            </g>
            <path class="cls-6" d="M793.58,1035.65c-5.05-27.17-17.68-53-35-74.75,6.23,62.95-33.67,108.1-93.45,102.72-38.63-3.46-76.67-27.26-103.47-60.93,.37,3.97,.97,8.05,1.73,12.17,12.9,69.18,74.88,129.91,138.45,135.64,63.57,5.73,104.62-45.72,91.73-114.86Z"/>
            <path class="cls-22" d="M705.83,1177.2c-54.18,0-113.2-43.78-145.44-112.67-22.83-48.79-27.03-101.66-11.23-141.42,10.37-26.1,28.38-44.84,52.06-54.19,61.59-24.33,140.59,22.33,179.85,106.24,22.83,48.8,27.03,101.66,11.23,141.42-10.37,26.1-28.38,44.83-52.06,54.19-11.02,4.35-22.61,6.44-34.42,6.44Zm-70.79-281.52c-7.56,0-14.84,1.28-21.66,3.98-18.94,7.48-28.66,23.52-33.49,35.66-12.5,31.44-8.59,74.5,10.45,115.19,30.81,65.84,93.9,106.81,137.76,89.5,18.94-7.48,28.66-23.52,33.49-35.66,12.5-31.44,8.59-74.5-10.45-115.19-26.02-55.6-75.06-93.48-116.09-93.48Z"/>
            <g class="cls-7">
              <path class="cls-4" d="M923.13,495.83s205.53-92.55,375.15-37.71c.18,.06,.36,.12,.53,.17,35.69,11.57,67.48,32.51,92.21,60.37,32.69,36.84,49.72,67.01,63.67,94.15,42.38,82.55,46.55,129.2,46.55,129.2,25.33-67.83,26.8-130.99-7.81-200.1-3.43-6.8-7.22-13.69-11.34-20.64-.94-1.6-1.92-3.17-2.92-4.74,.03-.03,0-.06-.07-.09-9.35-13.48-22.32-30.74-38.6-48.98-49.08-55.05-128.16-119.21-228.73-116.58-188.05,4.92-299.97,139.83-288.64,144.95Z"/>
            </g>
            <g class="cls-7">
              <ellipse class="cls-4" cx="872.07" cy="769.91" rx="69.68" ry="80.04" transform="translate(-135.92 189.21) rotate(-11.49)"/>
            </g>
            <g class="cls-7">
              <ellipse class="cls-4" cx="902.26" cy="912.16" rx="28.76" ry="33.06" transform="translate(-92.7 102.12) rotate(-6.16)"/>
            </g>
          </g>
        </g>
      </g>
      <rect class="cls-11" x="17" y="17" width="2844" height="2844" rx="1422" ry="1422"/>
    </g>
  </g>
</svg>