<?xml version="1.0" encoding="UTF-8"?>
<svg id="Layer_2" data-name="Layer 2" xmlns="http://www.w3.org/2000/svg" xmlns:xlink="http://www.w3.org/1999/xlink" viewBox="0 0 4265.52 4094">
  <defs>
    <style>
      .cls-1 {
        fill: url(#radial-gradient-5);
      }

      .cls-1, .cls-2, .cls-3 {
        opacity: .6;
      }

      .cls-4 {
        fill: #fff;
      }

      .cls-5 {
        opacity: .5;
      }

      .cls-6 {
        fill: url(#radial-gradient-2);
      }

      .cls-6, .cls-7 {
        mix-blend-mode: multiply;
      }

      .cls-8 {
        mask: url(#mask-2);
      }

      .cls-9, .cls-10 {
        fill: #371a45;
      }

      .cls-9, .cls-11 {
        opacity: .25;
      }

      .cls-12 {
        opacity: .2;
      }

      .cls-7 {
        fill: url(#radial-gradient-4);
      }

      .cls-13 {
        mask: url(#mask-3);
      }

      .cls-14 {
        opacity: .35;
      }

      .cls-15 {
        fill: #101928;
      }

      .cls-16 {
        fill: #02baf3;
      }

      .cls-17 {
        fill: #bfcbcd;
      }

      .cls-18 {
        fill: url(#radial-gradient);
      }

      .cls-3 {
        fill: url(#radial-gradient-3);
      }

      .cls-19 {
        opacity: .3;
      }

      .cls-20 {
        filter: url(#luminosity-noclip-4);
      }

      .cls-21 {
        fill: #b7c6d7;
      }

      .cls-22 {
        fill: #6d6c80;
      }

      .cls-23 {
        fill: #fffdf9;
      }

      .cls-24 {
        filter: url(#luminosity-noclip-2);
      }

      .cls-25 {
        mask: url(#mask-1);
      }

      .cls-26 {
        mask: url(#mask);
      }

      .cls-27 {
        fill: #c2c2c8;
      }

      .cls-28 {
        fill: #b0b9bb;
      }
    </style>
    <radialGradient id="radial-gradient" cx="2116.7" cy="2047" fx="2116.7" fy="2047" r="2102.36" gradientTransform="translate(0 697.8) scale(1 .66)" gradientUnits="userSpaceOnUse">
      <stop offset="0" stop-color="#ffd892"/>
      <stop offset=".17" stop-color="#ffd893" stop-opacity=".99"/>
      <stop offset=".3" stop-color="#ffd997" stop-opacity=".95"/>
      <stop offset=".42" stop-color="#ffdc9e" stop-opacity=".88"/>
      <stop offset=".53" stop-color="#ffe0a8" stop-opacity=".79"/>
      <stop offset=".63" stop-color="#ffe4b5" stop-opacity=".67"/>
      <stop offset=".74" stop-color="#ffeac5" stop-opacity=".53"/>
      <stop offset=".84" stop-color="#fff1d8" stop-opacity=".35"/>
      <stop offset=".93" stop-color="#fff8ee" stop-opacity=".16"/>
      <stop offset="1" stop-color="#fff" stop-opacity="0"/>
    </radialGradient>
    <filter id="luminosity-noclip-2" data-name="luminosity-noclip" x="2574.49" y="2388.87" width="164.5" height="295.31" color-interpolation-filters="sRGB" filterUnits="userSpaceOnUse">
      <feFlood flood-color="#fff" result="bg"/>
      <feBlend in="SourceGraphic" in2="bg"/>
    </filter>
    <filter id="luminosity-noclip-3" x="10317.76" y="-10180" width="-32766" height="32766" color-interpolation-filters="sRGB" filterUnits="userSpaceOnUse">
      <feFlood flood-color="#fff" result="bg"/>
      <feBlend in="SourceGraphic" in2="bg"/>
    </filter>
    <mask id="mask-1" x="10317.76" y="-10180" width="-32766" height="32766" maskUnits="userSpaceOnUse"/>
    <radialGradient id="radial-gradient-2" cx="2697.01" cy="2624.02" fx="2697.01" fy="2624.02" r="149.56" gradientTransform="translate(1082.22 80.44) scale(.58 .94)" gradientUnits="userSpaceOnUse">
      <stop offset="0" stop-color="#fff"/>
      <stop offset=".93" stop-color="#000"/>
    </radialGradient>
    <mask id="mask" x="2574.49" y="2388.87" width="164.5" height="295.31" maskUnits="userSpaceOnUse">
      <g class="cls-24">
        <g class="cls-25">
          <ellipse class="cls-6" cx="2656.74" cy="2536.52" rx="82.25" ry="147.65"/>
        </g>
      </g>
    </mask>
    <radialGradient id="radial-gradient-3" cx="2697.01" cy="2624.02" fx="2697.01" fy="2624.02" r="149.56" gradientTransform="translate(1082.22 80.44) scale(.58 .94)" gradientUnits="userSpaceOnUse">
      <stop offset="0" stop-color="#02baf3"/>
      <stop offset=".93" stop-color="#02baf3"/>
    </radialGradient>
    <filter id="luminosity-noclip-4" x="2728.61" y="2391.09" width="164.5" height="295.31" color-interpolation-filters="sRGB" filterUnits="userSpaceOnUse">
      <feFlood flood-color="#fff" result="bg"/>
      <feBlend in="SourceGraphic" in2="bg"/>
    </filter>
    <filter id="luminosity-noclip-5" x="10317.76" y="-10180" width="-32766" height="32766" color-interpolation-filters="sRGB" filterUnits="userSpaceOnUse">
      <feFlood flood-color="#fff" result="bg"/>
      <feBlend in="SourceGraphic" in2="bg"/>
    </filter>
    <mask id="mask-3" x="10317.76" y="-10180" width="-32766" height="32766" maskUnits="userSpaceOnUse"/>
    <radialGradient id="radial-gradient-4" cx="2961.01" cy="2626.4" fx="2961.01" fy="2626.4" r="149.56" xlink:href="#radial-gradient-2"/>
    <mask id="mask-2" x="2728.61" y="2391.09" width="164.5" height="295.31" maskUnits="userSpaceOnUse">
      <g class="cls-20">
        <g class="cls-13">
          <ellipse class="cls-7" cx="2810.86" cy="2538.74" rx="82.25" ry="147.65"/>
        </g>
      </g>
    </mask>
    <radialGradient id="radial-gradient-5" cx="2961.01" cy="2626.4" fx="2961.01" fy="2626.4" r="149.56" xlink:href="#radial-gradient-3"/>
  </defs>
  <g id="Layer_1-2" data-name="Layer 1">
    <g>
      <path class="cls-18" d="M2148.56,4094h0C970.67,4094,0,3310.65,0,2132.76H0C0,954.87,954.87,0,2132.76,0h0c1177.89,0,2132.76,954.87,2132.76,2132.76h0c0,1177.89-939.07,1961.24-2116.96,1961.24Z"/>
      <g>
        <ellipse class="cls-9" cx="2174.01" cy="3117.55" rx="1681.65" ry="43.11"/>
        <g>
          <g>
            <path class="cls-4" d="M1879.12,2432.74H901.68c-88.19-288.08,59.32-327.56,59.32-327.56h858.81s147.51,39.48,59.32,327.56Z"/>
            <g class="cls-11">
              <path class="cls-10" d="M1879.12,2432.74h-121.91c-127.18-31.95-234.04-81.16-79.74-81.11,211.86,.1,168.42-175.46,142.23-246.45h.1s147.51,39.48,59.32,327.56Z"/>
            </g>
            <path class="cls-10" d="M1879.12,2447.41H901.69c-6.44,0-12.13-4.2-14.02-10.37-37.59-122.76-38.52-217.73-2.76-282.27,28.56-51.54,70.51-63.28,72.29-63.75,7.82-2.07,15.85,2.55,17.95,10.37,2.08,7.78-2.51,15.78-10.27,17.92-1.49,.43-32.69,9.84-54.89,50.69-20.9,38.46-37.01,112.53,2.61,248.09h955.61c39.62-135.56,23.5-209.62,2.61-248.09-22.26-40.97-53.58-50.32-54.9-50.7-7.74-2.21-12.31-10.26-10.16-18.02,2.15-7.76,10.07-12.33,17.86-10.27,1.77,.47,43.72,12.21,72.29,63.75,35.76,64.53,34.83,159.5-2.76,282.27-1.89,6.16-7.57,10.37-14.02,10.37Z"/>
            <path class="cls-4" d="M2000.68,3064.84c-15.05,15.88-36.01,24.87-57.9,24.87H817.39c-21.89,0-42.85-8.99-57.9-24.87-64.3-67.96-101.34-126.84-119.12-175.5-.05,0-.05-.05-.05-.05-60.15-164.22,98.06-212.83,165.54-105.54,0,0,69.63-73.93,211.32-113.01h725.81c141.69,39.09,211.32,113.01,211.32,113.01,87.46-139.1,327.51-16.12,46.37,281.09Z"/>
            <g class="cls-11">
              <path class="cls-10" d="M1102.69,3087.8c-.24,.59-.49,1.22-.64,1.91h-284.66c-21.89,0-42.85-8.99-57.9-24.87-64.3-67.96-101.34-126.84-119.12-175.5,115.41,200.33,262.38,137.3,187.28-71.19,1.81,4.15,60.49,137.44,88.14,153.08,28.09,15.88,58.63-26.87,58.63-26.87,0,0,144.14,104.9,128.26,143.45Z"/>
            </g>
            <g class="cls-11">
              <path class="cls-10" d="M1650.07,3087.8c.24,.59,.49,1.22,.64,1.91h284.66c21.89,0,42.85-8.99,57.9-24.87,64.3-67.96,101.34-126.84,119.12-175.5-115.41,200.33-262.38,137.3-187.28-71.19-1.81,4.15-60.49,137.44-88.14,153.08-28.09,15.88-58.63-26.87-58.63-26.87,0,0-144.14,104.9-128.26,143.45Z"/>
            </g>
            <path class="cls-10" d="M804.9,3100.02c-4.28,0-9.11-.65-14.55-2.17-6.5-1.81-10.3-8.55-8.48-15.05,1.81-6.49,8.56-10.29,15.05-8.48,12.58,3.51,14.63-.86,15.85-3.48,19.3-41.13-69.34-240.89-138.2-288.53-18.42-12.74-24.65-6.35-26.99-3.94-4.71,4.83-12.44,4.94-17.28,.23-4.83-4.71-4.94-12.44-.23-17.28,8.59-8.81,27.58-20.43,58.4,.89,69.26,47.92,174.33,259.5,146.41,319-2.95,6.29-11.2,18.79-29.99,18.79Z"/>
            <path class="cls-10" d="M817.95,2775.46c28.72,49.14,52.87,100.41,73,153.48,2.08,5.68-6.12,9.38-8.94,3.94-25.5-49.16-55.02-96.7-88.24-140.85-12.16-16.59,13.01-33.95,24.17-16.58h0Z"/>
            <path class="cls-10" d="M1942.78,3104.37H817.4c-25.84,0-50.83-10.75-68.54-29.48-109.42-115.68-156.4-224.58-128.89-298.79,13.33-35.94,43.68-59.72,81.2-63.6,39.56-4.08,79.23,14.45,106.9,49.07,26.59-23.28,94.28-74.37,205.21-104.97,7.83-2.15,15.88,2.44,18.03,10.23,2.15,7.8-2.43,15.87-10.23,18.03-135.54,37.39-203.89,108.24-204.56,108.95-3.12,3.29-7.59,4.97-12.09,4.51-4.51-.44-8.56-2.94-10.97-6.77-21.53-34.24-55.73-53.36-89.27-49.89-26.55,2.75-47.23,19.01-56.73,44.63-11.11,29.97-21.4,116.11,122.7,268.45,12.2,12.91,29.42,20.31,47.24,20.31H1942.78c17.82,0,35.04-7.4,47.25-20.31,144.1-152.33,133.81-238.48,122.7-268.45-9.5-25.62-30.18-41.88-56.73-44.63-33.54-3.44-67.74,15.65-89.27,49.89-2.41,3.84-6.47,6.35-10.99,6.79-4.52,.42-8.98-1.24-12.09-4.54-.66-.69-69.01-71.54-204.55-108.93-7.8-2.15-12.39-10.22-10.23-18.03,2.16-7.8,10.22-12.39,18.03-10.23,110.93,30.6,178.62,81.68,205.21,104.97,27.67-34.62,67.33-53.12,106.9-49.07,37.52,3.88,67.87,27.66,81.2,63.6,27.51,74.2-19.47,183.11-128.89,298.79-17.72,18.73-42.7,29.48-68.55,29.48Z"/>
            <path class="cls-10" d="M1955.28,3100.02c-18.8,0-27.04-12.5-29.99-18.79-27.92-59.5,77.15-271.07,146.41-319,30.82-21.33,49.82-9.71,58.4-.89,4.7,4.83,4.6,12.57-.23,17.28-4.83,4.71-12.57,4.6-17.28-.23-2.34-2.42-8.57-8.79-26.99,3.94-68.85,47.64-157.5,247.4-138.2,288.53,1.22,2.61,3.26,6.98,15.85,3.48,6.49-1.82,13.23,1.98,15.05,8.48,1.81,6.5-1.98,13.24-8.48,15.05-5.44,1.52-10.27,2.17-14.55,2.17Z"/>
            <path class="cls-10" d="M1966.41,2792.04c-33.22,44.16-62.75,91.7-88.25,140.87-2.73,5.34-11.1,1.69-8.93-3.97,14.93-39.63,32.49-78.41,52.18-115.98,6.63-12.62,13.32-24.91,20.82-37.51,4.15-6.97,13.16-9.26,20.13-5.11,7.58,4.44,9.5,14.83,4.04,21.69h0Z"/>
            <path class="cls-4" d="M2357.16,2560.7c-62.3,87.85-288.27,35.52-288.27,35.52-113.6,36.64-232.48,17.69-232.48,17.69,0,0-94.89,36.55-220.06,83.45-232.92,87.31-570.63,210.49-597.12,200.96-40.75-14.66-190.55-115.6-179.17-315.93,11.38-200.33,248.45-359.85,248.45-359.85h554.46c23.31,16.42,47.15,32.44,71.73,47.69,100.85,62.64,213.32,112.13,345,120.2,34.2-17.1,84.33-54.38,119.12-47.05,34.79,7.33,10.99,84.28,10.99,84.28,73-9.97,134.46,4.25,165.39,33.42,25.99,24.48,30.39,59.51,1.95,99.63Z"/>
            <g class="cls-11">
              <path class="cls-10" d="M1714.71,2270.23c-353.36,197.59-612.02-26.63-612.02-26.63l25.16-21.06h515.13c23.31,16.42,47.15,32.44,71.73,47.69Z"/>
            </g>
            <g class="cls-11">
              <path class="cls-10" d="M1098.7,2340.98s-27.16,132.69,88.27,128.62l-103.22,15.47-90.39,3.87s28.67-88.66,105.34-147.96Z"/>
            </g>
            <g class="cls-11">
              <path class="cls-10" d="M2357.16,2560.7c-62.3,87.85-288.27,35.52-288.27,35.52-113.6,36.64-232.48,17.69-232.48,17.69,0,0-94.89,36.55-220.06,83.45-140.57-49.15-251.68-109.5-139.89-110.91,194.22-2.44,174.43-245.47,174.43-245.47l21.6,65.91c91.37,142.08,390.68,118.19,390.68,118.19,265.6,67.87,290.86-30.15,292.04-64.01,25.99,24.48,30.39,59.51,1.95,99.63Z"/>
            </g>
            <path class="cls-10" d="M1022.91,2913.6c-4.59,0-6.77-.79-8.66-1.47-40.37-14.53-200.86-119.04-188.82-330.59,11.68-205.22,244.99-364.47,254.92-371.15,6.71-4.52,15.82-2.74,20.34,3.98,4.52,6.71,2.74,15.82-3.97,20.34-2.31,1.56-231.17,157.88-242.02,348.5-10.93,192.08,130.95,286.79,168.62,301.02,.34,.02,.71,.03,1.1,.03,50.44,0,519.31-173.33,806.74-284.04,2.41-.93,5.03-1.19,7.57-.8,1.15,.19,116.92,17.94,225.66-17.14,2.52-.81,5.23-.92,7.8-.33,60.22,13.93,226.64,35.7,273.01-29.71,12.64-17.83,24.65-44.13,10.07-68.18-21.14-34.9-88.38-52.1-163.48-41.87-4.95,.7-9.92-1.23-13.16-5.04-3.24-3.82-4.3-9.03-2.82-13.81,5.82-18.91,10.91-50.83,3.99-62.58-1.22-2.07-2.44-2.69-4-3.02-21.12-4.47-55.1,15.1-82.39,30.81-9.62,5.54-18.7,10.77-27.13,14.98-2.31,1.15-4.86,1.68-7.45,1.52-176.85-10.82-319.64-96.8-424.28-170.49-6.62-4.66-8.21-13.8-3.54-20.42,4.66-6.62,13.81-8.19,20.42-3.54,100.68,70.91,237.52,153.53,405.21,164.94,6.78-3.54,14.28-7.86,22.14-12.39,33.26-19.16,70.95-40.84,103.06-34.1,9.95,2.09,17.99,7.92,23.24,16.86,10.46,17.79,7.85,45.46,4.01,64.97,79.71-6.21,145.63,15.71,171.26,58,17.8,29.38,13.81,65.01-11.23,100.33-63.19,89.12-267.35,49.16-299.56,42.21-104.03,32.44-209.49,20.57-231.46,17.56-27.47,10.55-207.66,79.67-389.98,146.43-331.62,121.43-404.04,138.22-425.22,138.22Zm1.27-29.05h0Z"/>
            <g>
              <path class="cls-4" d="M1973.61,1722.66c0,214.06-115.21,401.19-287.05,502.72-86.92,51.4-188.31,80.91-296.63,80.91-322.33,0-583.68-261.3-583.68-583.63s261.35-583.68,583.68-583.68c277.33,0,509.46,193.39,568.92,452.64v.05c9.67,42.12,14.76,85.94,14.76,130.99Z"/>
              <g class="cls-11">
                <path class="cls-10" d="M1973.61,1722.66c0,214.06-115.21,401.19-287.05,502.72-86.92,51.4-188.31,80.91-296.63,80.91-322.33,0-583.68-261.3-583.68-583.63,0-7.62,.15-15.24,.49-22.77,11.92,311.77,268.49,560.81,583.19,560.81,108.32,0,209.71-29.51,296.63-80.91,165.73-97.92,278.75-275.42,286.61-479.95,.29,7.57,.44,15.2,.44,22.82Z"/>
              </g>
              <path class="cls-10" d="M1973.61,1722.66c0,214.06-115.21,401.19-287.05,502.72l-41.92-30.64-254.71,11.43-49.89,37.43c-348.52-96.06-434.85-364.79-434.85-364.79l32.98-249.09c357.85-358.39,890.52-226.03,1020.68-38.11v.05c9.67,42.12,14.76,85.94,14.76,130.99Z"/>
              <g class="cls-14">
                <path class="cls-15" d="M1973.61,1722.66c0,214.06-115.21,401.19-287.05,502.72l-41.92-30.64-254.71,11.43-49.89,37.43c-348.52-96.06-434.85-364.79-434.85-364.79l6.11-46.22c96.45,181.12,283.68,303.96,498.81,303.96,279.97,0,512.64-208.09,559.59-481.91,2.59,22.33,3.91,45,3.91,68.01Z"/>
              </g>
              <path class="cls-10" d="M1389.94,2320.97c-329.92,0-598.33-268.41-598.33-598.33s268.41-598.33,598.33-598.33,598.33,268.41,598.33,598.33-268.41,598.33-598.33,598.33Zm0-1167.35c-313.75,0-569.01,255.26-569.01,569.01s255.26,569.02,569.01,569.02,569.01-255.26,569.01-569.02-255.26-569.01-569.01-569.01Z"/>
              <g>
                <ellipse class="cls-4" cx="829.68" cy="1730.18" rx="131.31" ry="178.34"/>
                <g class="cls-11">
                  <path class="cls-10" d="M960.99,1730.18c0,98.5-58.78,178.34-131.29,178.34-51.11,0-95.42-39.63-117.07-97.52,23.75,32.15,56.48,51.94,92.64,51.94,72.51,0,131.29-79.84,131.29-178.34,0-29.12-5.13-56.58-14.27-80.86,23.89,32.3,38.7,77,38.7,126.45Z"/>
                </g>
                <path class="cls-10" d="M829.68,1923.18c-80.49,0-145.97-86.58-145.97-193s65.48-193,145.97-193,145.97,86.58,145.97,193-65.48,193-145.97,193Zm0-356.68c-64.32,0-116.65,73.43-116.65,163.68s52.33,163.68,116.65,163.68,116.65-73.43,116.65-163.68-52.33-163.68-116.65-163.68Z"/>
                <path class="cls-10" d="M779.92,1859.38c-49.5,0-89.78-54.8-89.78-122.15s40.28-122.15,89.78-122.15,89.78,54.79,89.78,122.15-40.28,122.15-89.78,122.15Zm0-214.98c-32.78,0-60.46,42.51-60.46,92.83s27.69,92.83,60.46,92.83,60.46-42.51,60.46-92.83-27.69-92.83-60.46-92.83Z"/>
              </g>
              <path class="cls-10" d="M948.56,1640.1l-20.75-20.71c225.73-226.06,492.19-238.89,630.95-226.42,178.87,16.08,344.5,92.57,412.15,190.34l-24.11,16.68c-62.98-91.01-219.98-162.47-390.67-177.82-133.65-12.03-390.28,.32-607.58,217.93Z"/>
              <path class="cls-10" d="M1340.06,2258.28c-1.3,0-2.61-.18-3.9-.53-183.74-50.65-294.77-149.37-355.55-223.26-66.17-80.43-88.45-148.35-89.36-151.21-2.48-7.71,1.77-15.96,9.47-18.44,7.7-2.48,15.95,1.76,18.44,9.46,.3,.91,22.07,66.53,84.99,142.64,57.28,69.3,161.34,161.64,332.9,210.6l44.09-33.11c2.36-1.77,5.2-2.79,8.15-2.92l254.68-11.4c3.31-.13,6.61,.84,9.3,2.8l41.97,30.64c6.54,4.78,7.97,13.95,3.2,20.48-4.77,6.54-13.94,7.97-20.48,3.2l-37.82-27.61-245.01,10.96-46.25,34.74c-2.57,1.93-5.66,2.94-8.8,2.94Z"/>
              <path class="cls-10" d="M885.95,1583.69c-3.53,0-7.07-1.27-9.88-3.84-5.98-5.46-6.4-14.73-.94-20.71,8.91-9.75,221.93-239.16,551.22-267.42,5.02-.44,9.98,1.78,13.01,5.85l16.89,22.69c36.26,2.7,203.22,17.42,314.52,66.24l16.02-17.89c4.6-5.13,12.15-6.38,18.14-2.98,3.21,1.82,79.13,45.17,125.88,101.98,5.14,6.25,4.25,15.49-2,20.63-6.25,5.14-15.49,4.25-20.63-2-33.68-40.93-85.86-75.55-107.63-89.05l-15.12,16.89c-4.33,4.83-11.32,6.24-17.18,3.47-116.95-55.26-318.62-68.39-320.64-68.51-4.3-.27-8.27-2.42-10.85-5.88l-16.01-21.5c-313.46,30.43-521.89,254.96-523.97,257.25-2.89,3.17-6.85,4.77-10.83,4.77Z"/>
              <g class="cls-5">
                <ellipse class="cls-23" cx="1410.1" cy="1552.66" rx="74.1" ry="68.81"/>
              </g>
              <g class="cls-5">
                <path class="cls-23" d="M1839.54,1679.81c-32.64-25.7-74.22-36.16-115.6-32.49-147.85,13.19-255.24-157.96-102.12-171.6,0,0,353.26,19.84,297.7,303.71,0,0-24.67-55.99-79.98-99.63Z"/>
              </g>
            </g>
            <path class="cls-10" d="M2192.41,2442.09l-57.89,2.97c-8.59,.41-10.72-11.87-2.59-14.43,0,0,55.3-17.39,55.3-17.39,21.31-5.57,27.12,26.64,5.19,28.85h0Z"/>
            <path class="cls-10" d="M1868.54,2629.47c-1.57,0-3.17-.3-4.71-.95-6.22-2.61-9.16-9.76-6.55-15.99,65.07-155.51-3.15-258.48-3.84-259.5-3.8-5.57-2.36-13.17,3.21-16.97,5.58-3.8,13.18-2.36,16.97,3.21,3.15,4.62,76.33,115.08,6.19,282.7-1.96,4.68-6.5,7.5-11.27,7.5Z"/>
            <path class="cls-10" d="M858.99,2730.47c-.96,0-1.94-.12-2.92-.36-6.51-1.61-10.52-8.12-8.96-14.65,.56-2.35,14.7-57.98,93.47-83.93,6.4-2.11,13.32,1.38,15.42,7.78,2.11,6.41-1.37,13.32-7.78,15.42-65.14,21.46-76.9,64.68-77.37,66.5-1.42,5.52-6.4,9.23-11.86,9.23Z"/>
            <path class="cls-10" d="M1056.36,2482.98c-.36-40.44,9.51-80.31,24.81-117.41,4.95-12.17,10.93-23.85,17.12-35.31,1.28-2.38,4.25-3.26,6.63-1.98,2.25,1.21,3.15,3.93,2.18,6.22-4.56,11.83-8.84,23.71-12.07,35.87-9.62,35.42-14.23,73.05-9.52,109.46,2.81,20.49-27.47,23.84-29.14,3.15h0Z"/>
            <path class="cls-10" d="M1664.12,2479.83c6.13-49.06-3.57-99.5-21.59-145.33-2.33-5.63,5.83-9.64,8.8-4.24,25.52,46.58,42.19,99.14,41.93,152.72-1.65,20.62-31.93,17.41-29.15-3.15h0Z"/>
            <path class="cls-10" d="M1568.08,2493.62h-364.79c-4.59,0-8.8-2.58-10.88-6.67-2.09-4.09-1.7-9,.99-12.72l45.2-62.3c2.3-3.17,5.97-5.04,9.89-5.04h274.4c3.91,0,7.59,1.88,9.89,5.04l45.2,62.3c2.7,3.72,3.08,8.63,.99,12.72-2.08,4.09-6.29,6.67-10.88,6.67Zm-340.84-24.43h316.89l-27.47-37.86h-261.95l-27.47,37.86Z"/>
            <path class="cls-10" d="M1513.52,2498.71h-255.06c-3.77,0-7.21-2.17-8.83-5.58-1.62-3.41-1.13-7.45,1.26-10.37l31.6-38.68c1.86-2.27,4.63-3.59,7.57-3.59h191.86c2.93,0,5.71,1.32,7.57,3.59l31.6,38.68c2.39,2.92,2.88,6.96,1.26,10.37-1.62,3.41-5.05,5.58-8.83,5.58Zm-234.46-19.54h213.86l-15.63-19.14h-182.59l-15.63,19.14Z"/>
            <g>
              <path class="cls-27" d="M1842.96,2562.07l-48.86,387.26c-4.45,35.03-34.2,61.27-69.48,61.27h-672.12c-32,0-59.51-21.6-67.57-51.74h-.05c-.83-3.08-1.47-6.25-1.86-9.53l-48.86-387.26c-5.42-42.8,27.95-80.67,71.14-80.67h766.51c20.47,0,38.75,8.5,51.65,21.99,14.46,15,22.33,36.16,19.5,58.68Z"/>
              <g class="cls-11">
                <path class="cls-10" d="M1842.96,2562.07l-48.86,387.26c-4.45,35.03-34.2,61.27-69.48,61.27h-672.12c-32,0-59.51-21.6-67.57-51.74,362.45,4.81,581.36-8.5,698.78-98.74,90-69.17,113.02-186.74,139.76-356.73,14.46,15,22.33,36.16,19.5,58.68Z"/>
              </g>
              <g class="cls-2">
                <path class="cls-23" d="M1842.96,2562.07l-.83,6.69c-6.65-32.3-35.23-57.22-70.31-57.22H1005.31c-35.08,0-63.66,24.92-70.31,57.22l-.83-6.69c-5.42-42.8,27.95-80.67,71.14-80.67h766.51c43.19,0,76.56,37.87,71.14,80.67Z"/>
              </g>
              <path class="cls-27" d="M1727.82,3089.71h-678.51c-26.02,0-48.68-17.74-54.92-43l-3.36-13.6c-2.83-11.44,5.83-22.49,17.61-22.49h759.85c11.78,0,20.44,11.05,17.61,22.49l-3.36,13.6c-6.24,25.26-28.9,43-54.92,43Z"/>
              <g class="cls-11">
                <path class="cls-10" d="M1786.09,3033.13l-3.37,13.58c-6.21,25.26-28.88,43-54.92,43h-678.47c-20.18,0-38.36-10.65-48.37-27.26,3.57,.73,7.18,1.08,10.9,1.08h678.52c25.99,0,48.66-17.79,54.92-43.05l2.44-9.87h20.77c11.77,0,20.42,11.04,17.59,22.52Z"/>
              </g>
              <path class="cls-10" d="M1724.61,3025.27h-672.09c-42.58,0-78.7-31.86-84.03-74.09l-48.87-387.29c-3.1-24.58,4.52-49.33,20.9-67.91,16.38-18.58,39.99-29.24,64.76-29.24h766.56c24.77,0,48.38,10.66,64.76,29.24,16.38,18.58,24,43.33,20.9,67.91l-48.86,387.29c-5.33,42.24-41.46,74.09-84.03,74.09Zm-719.32-529.21c-16.36,0-31.95,7.04-42.77,19.31-10.82,12.27-15.85,28.62-13.8,44.85l48.87,387.29c3.48,27.62,27.1,48.45,54.94,48.45h672.09c27.84,0,51.46-20.83,54.95-48.45l48.86-387.29c2.05-16.23-2.98-32.58-13.8-44.85-10.82-12.28-26.41-19.31-42.77-19.31H1005.29Z"/>
              <path class="cls-10" d="M1727.82,3104.37h-678.51c-32.84,0-61.27-22.27-69.15-54.15l-3.36-13.6c-2.43-9.85-.24-20.09,6.02-28.09,6.26-7.99,15.67-12.58,25.82-12.58h759.86c10.15,0,19.56,4.58,25.82,12.58,6.26,7.99,8.45,18.23,6.02,28.09l-3.36,13.6c-7.87,31.88-36.31,54.15-69.15,54.15Zm-719.18-79.09c-1.4,0-2.26,.73-2.74,1.33-.48,.61-.97,1.62-.64,2.98l3.36,13.6c4.64,18.76,21.37,31.86,40.69,31.86h678.51c19.32,0,36.06-13.1,40.69-31.86l3.36-13.6c.33-1.36-.16-2.37-.64-2.98-.48-.61-1.34-1.33-2.74-1.33H1008.64Z"/>
              <path class="cls-27" d="M1188.2,3036.83h-53.68c-15.52,0-28.95-10.78-32.32-25.92l-2.21-9.96c-1.89-8.49,4.57-16.54,13.27-16.54h96.21c8.69,0,15.15,8.05,13.27,16.54l-2.21,9.96c-3.37,15.15-16.8,25.92-32.32,25.92Z"/>
              <path class="cls-27" d="M1642.6,3036.83h-53.68c-15.52,0-28.95-10.78-32.32-25.92l-2.21-9.96c-1.89-8.49,4.57-16.54,13.27-16.54h96.21c8.69,0,15.15,8.05,13.27,16.54l-2.21,9.96c-3.37,15.15-16.8,25.92-32.32,25.92Z"/>
              <path class="cls-10" d="M1188.2,3049.05h-53.68c-21.4,0-39.59-14.59-44.24-35.49l-2.21-9.96c-1.71-7.69,.14-15.61,5.06-21.75,4.92-6.14,12.26-9.66,20.13-9.66h96.21c7.87,0,15.21,3.52,20.13,9.66,4.92,6.14,6.77,14.06,5.06,21.74l-2.21,9.96c-4.64,20.89-22.83,35.49-44.24,35.49Zm-74.94-52.43c-.16,0-.66,0-1.07,.51-.41,.52-.31,1-.27,1.16l2.21,9.96c2.14,9.63,10.53,16.36,20.39,16.36h53.68c9.87,0,18.25-6.73,20.39-16.36l2.21-9.97c.04-.16,.14-.64-.27-1.16s-.91-.51-1.07-.51h-96.21Z"/>
              <path class="cls-10" d="M1642.6,3049.05h-53.68c-21.4,0-39.59-14.59-44.24-35.49l-2.21-9.96c-1.71-7.69,.14-15.61,5.06-21.75,4.92-6.14,12.26-9.66,20.13-9.66h96.21c7.87,0,15.21,3.52,20.13,9.66,4.92,6.14,6.77,14.06,5.06,21.74l-2.21,9.96c-4.64,20.89-22.83,35.49-44.24,35.49Zm-74.94-52.43c-.16,0-.66,0-1.07,.51-.41,.52-.31,1-.27,1.16l2.21,9.96c2.14,9.63,10.53,16.36,20.39,16.36h53.68c9.87,0,18.25-6.73,20.39-16.36l2.21-9.97c.04-.16,.14-.64-.27-1.16s-.91-.51-1.07-.51h-96.21Z"/>
              <path class="cls-4" d="M1466.92,2768.33h-12.43c-1.55-5.02-3.81-9.75-6.74-14.15l8.79-7.64c3.73-3.24,3.73-8.51,0-11.75l-11.59-10.07c-3.77-3.27-9.79-3.27-13.56,0l-8.79,7.64c-5.02-2.55-10.51-4.55-16.24-5.89v-10.76c0-4.62-4.27-8.33-9.59-8.33h-16.41c-5.27,0-9.54,3.71-9.54,8.33v10.76c-5.78,1.35-11.22,3.35-16.28,5.89l-8.79-7.64c-3.72-3.27-9.79-3.27-13.52,0l-11.59,10.07c-3.72,3.24-3.72,8.51,0,11.75l8.79,7.64c-2.93,4.4-5.19,9.13-6.78,14.15h-12.39c-5.27,0-9.58,3.71-9.58,8.29v14.26c0,4.58,4.31,8.33,9.58,8.33h12.39c1.59,4.98,3.85,9.71,6.78,14.11l-8.79,7.64c-3.72,3.24-3.72,8.51,0,11.75l11.59,10.11c3.73,3.24,9.79,3.24,13.52,0l8.79-7.64c5.06,2.51,10.51,4.51,16.28,5.85v10.8c0,4.58,4.27,8.29,9.54,8.29h16.41c5.32,0,9.59-3.71,9.59-8.29v-10.8c5.73-1.35,11.22-3.35,16.24-5.85l8.79,7.64c3.77,3.24,9.79,3.24,13.56,0l11.59-10.11c3.73-3.24,3.73-8.51,0-11.75l-8.79-7.64c2.93-4.4,5.19-9.13,6.74-14.11h12.43c5.27,0,9.54-3.75,9.54-8.33v-14.26c0-4.58-4.27-8.29-9.54-8.29Zm-58.77,32.44c-5.02,4.36-11.97,7.06-19.59,7.06-15.24,0-27.71-10.84-27.71-24.07,0-6.62,3.1-12.66,8.12-17.02,5.02-4.36,11.97-7.06,19.59-7.06s14.57,2.69,19.59,7.06c5.02,4.36,8.12,10.4,8.12,17.02s-3.1,12.66-8.12,17.02Z"/>
              <g class="cls-12">
                <path class="cls-4" d="M1065.8,2568.77h36.44c29.67,0,54.58,22.35,57.78,51.85l19.96,184.02c3.73,34.38-23.2,64.39-57.78,64.39h-36.23c-29.65,0-54.55-22.32-57.78-51.79l-20.17-184.02c-3.77-34.4,23.17-64.46,57.78-64.46Z"/>
              </g>
            </g>
          </g>
          <g>
            <rect class="cls-16" x="2674.24" y="1724.08" width="334.69" height="240.8"/>
            <path class="cls-10" d="M3008.93,1979.53h-334.69c-8.1,0-14.66-6.56-14.66-14.66v-240.8c0-8.1,6.56-14.66,14.66-14.66h334.69c8.1,0,14.66,6.56,14.66,14.66v240.8c0,8.1-6.56,14.66-14.66,14.66Zm-320.03-29.32h305.37v-211.48h-305.37v211.48Z"/>
            <path class="cls-10" d="M2656.74,2436.21c-9.45,0-17.1-7.66-17.1-17.1v-695.03c0-9.45,7.66-17.1,17.1-17.1s17.1,7.66,17.1,17.1v695.03c0,9.44-7.66,17.1-17.1,17.1Z"/>
            <path class="cls-10" d="M2656.74,2001.35c-25.09,0-45.5-20.41-45.5-45.5v-219.26c0-25.09,20.41-45.5,45.5-45.5s45.5,20.41,45.5,45.5v219.26c0,25.09-20.41,45.5-45.5,45.5Zm0-276.05c-6.23,0-11.3,5.07-11.3,11.3v219.26c0,6.23,5.07,11.3,11.3,11.3s11.3-5.07,11.3-11.3v-219.26c0-6.23-5.07-11.3-11.3-11.3Z"/>
            <g>
              <path class="cls-28" d="M2777.4,2375.09c-1.22,0-2.44-.07-3.68-.21-17.42-2.01-29.92-17.77-27.9-35.19,11.1-96.13-70.15-184.65-156.15-222.41-89.94-39.48-176-25.6-230.21,37.16-11.46,13.28-31.52,14.74-44.79,3.27-13.27-11.47-14.74-31.52-3.27-44.79,72.32-83.71,188.75-104.32,303.82-53.79,127.17,55.84,206.83,174.21,193.71,287.85-1.87,16.19-15.6,28.12-31.51,28.12Z"/>
              <g class="cls-2">
                <path class="cls-23" d="M2683.91,2100.91c16.05,32.09-12.22,51.21-41.44,46.53-23.73-28.59-95.98-46.53-95.98-46.53-25.65-14.05-32.37-34.81-21.38-51.3,10.99-16.49,50.69,0,50.69,0,0,0,56.19,14.05,108.1,51.3Z"/>
              </g>
              <path class="cls-10" d="M2777.4,2389.75c-1.79,0-3.58-.1-5.4-.32-12.28-1.41-23.3-7.54-31.01-17.27-7.7-9.71-11.16-21.85-9.74-34.17,10.28-89.06-66.41-171.7-147.48-207.3-83.74-36.77-163.45-24.31-213.23,33.32-8.1,9.38-19.37,15.05-31.74,15.95-12.34,.91-24.34-3.06-33.73-11.17-9.38-8.11-15.05-19.38-15.95-31.74-.9-12.37,3.06-24.34,11.17-33.73,76.69-88.77,199.61-110.85,320.81-57.63,133.01,58.4,216.23,182.98,202.38,302.95-2.71,23.43-22.52,41.1-46.07,41.1Zm-286.27-309.38c33.25,0,68.57,7.74,104.42,23.48,90.92,39.93,176.73,134.33,164.82,237.51-.52,4.54,.75,9.01,3.59,12.59,2.84,3.58,6.9,5.84,11.43,6.36,.7,.08,1.36,.12,2.01,.12,8.66,0,15.95-6.51,16.95-15.15,12.39-107.31-63.7-219.47-185.04-272.74-108.96-47.85-218.87-28.71-286.83,49.95-2.99,3.46-4.45,7.87-4.11,12.42,.33,4.56,2.42,8.71,5.87,11.69,3.46,2.99,7.89,4.44,12.43,4.12,4.56-.33,8.71-2.42,11.69-5.87,36.78-42.57,86.85-64.48,142.78-64.48Z"/>
              <path class="cls-10" d="M2415.53,2121.3c-4.85,0-9.06-3.61-9.68-8.55-3.69-29.16-31.29-39.47-32.46-39.89-5.06-1.83-7.71-7.41-5.9-12.48,1.81-5.07,7.35-7.72,12.42-5.94,1.64,.58,40.1,14.55,45.33,55.86,.68,5.35-3.11,10.24-8.47,10.92-.42,.05-.83,.08-1.24,.08Z"/>
              <path class="cls-10" d="M2476.27,2097.36c-.91,0-1.83-.13-2.75-.4-5.18-1.52-8.15-6.95-6.63-12.12,6.53-22.3-2.41-40.06-5.35-45.89-.58-1.15-.99-2.01-1.2-2.54-2-5.01,.44-10.7,5.45-12.7,4.98-2,10.62,.4,12.66,5.35,.12,.27,.31,.64,.55,1.1,10.18,20.22,12.42,40.46,6.65,60.17-1.25,4.26-5.14,7.03-9.37,7.03Z"/>
              <path class="cls-10" d="M2556.98,2110.68c-1.3,0-2.62-.26-3.89-.82-4.95-2.15-7.22-7.91-5.07-12.86,11.29-25.96,.88-45.49,.43-46.31-2.58-4.71-.9-10.65,3.79-13.26,4.69-2.63,10.59-1,13.24,3.67,.65,1.15,15.78,28.48,.47,63.7-1.6,3.68-5.2,5.88-8.97,5.88Z"/>
              <path class="cls-10" d="M2628.33,2143.44c-2.37,0-4.74-.85-6.62-2.59-3.97-3.66-4.22-9.84-.56-13.81,20.52-22.24,14.32-45.9,14.25-46.14-1.43-5.21,1.63-10.59,6.83-12.02,5.21-1.42,10.58,1.63,12.01,6.83,.38,1.4,9.06,34.45-18.73,64.58-1.93,2.09-4.55,3.14-7.19,3.14Z"/>
              <path class="cls-10" d="M2691.86,2193.13c-2.78,0-5.54-1.18-7.47-3.47-3.48-4.12-2.96-10.29,1.16-13.77,23.2-19.59,17.73-45.21,17.67-45.46-1.7-5.12,1.13-10.44,6.25-12.14,5.12-1.67,10.72,1.28,12.42,6.41,2.53,7.6,5.91,41.1-23.74,66.13-1.83,1.55-4.07,2.3-6.3,2.3Z"/>
              <path class="cls-10" d="M2737.66,2261.54c-4.02,0-7.78-2.5-9.2-6.49-1.81-5.08,.84-10.67,5.92-12.49,25.01-8.92,32.18-18.04,34.22-22.69,1.65-3.75,.71-6.2,.6-6.47l8.78-4.29,8.6-4.65c.53,.99,5.07,9.96,.52,21.82-5.38,14.02-20.9,25.69-46.14,34.69-1.08,.39-2.19,.57-3.28,.57Z"/>
            </g>
            <g>
              <g>
                <ellipse class="cls-22" cx="2809.12" cy="2981.84" rx="121.55" ry="128.26"/>
                <g class="cls-11">
                  <path class="cls-10" d="M2934.15,2980.03c0,70.85-54.43,128.26-121.56,128.26-51.94,0-96.25-34.4-113.65-82.77,21.94,33.32,58.44,55.11,99.82,55.11,67.13,0,121.56-57.46,121.56-128.26,0-15.98-2.79-31.27-7.87-45.39,13.73,20.72,21.69,45.93,21.69,73.05Z"/>
                </g>
                <g class="cls-19">
                  <path class="cls-4" d="M2715.02,2900.66s55.77-24.11,66.27,24.15c0,0,11.39,43.08-20.64,65.36-2.67,1.86-62.3,25.04-67.18-18.32"/>
                </g>
                <path class="cls-10" d="M2809.12,3124.76c-75.1,0-136.21-64.11-136.21-142.91s61.1-142.92,136.21-142.92,136.21,64.11,136.21,142.92-61.1,142.91-136.21,142.91Zm0-256.51c-58.94,0-106.89,50.96-106.89,113.6s47.95,113.6,106.89,113.6,106.89-50.96,106.89-113.6-47.95-113.6-106.89-113.6Z"/>
                <ellipse class="cls-16" cx="2825.31" cy="2981.84" rx="67.97" ry="74.86"/>
                <path class="cls-10" d="M2825.31,3066.47c-42.87,0-77.74-37.96-77.74-84.63s34.88-84.63,77.74-84.63,77.74,37.96,77.74,84.63-34.88,84.63-77.74,84.63Zm0-149.72c-32.09,0-58.2,29.2-58.2,65.09s26.11,65.09,58.2,65.09,58.2-29.2,58.2-65.09-26.11-65.09-58.2-65.09Z"/>
              </g>
              <g>
                <ellipse class="cls-22" cx="2558.54" cy="2981.84" rx="121.55" ry="128.26"/>
                <g class="cls-11">
                  <path class="cls-10" d="M2683.58,2980.03c0,70.85-54.43,128.26-121.56,128.26-51.94,0-96.25-34.4-113.65-82.77,21.94,33.32,58.44,55.11,99.82,55.11,67.13,0,121.56-57.46,121.56-128.26,0-15.98-2.79-31.27-7.87-45.39,13.73,20.72,21.69,45.93,21.69,73.05Z"/>
                </g>
                <g class="cls-19">
                  <path class="cls-4" d="M2464.45,2900.66s55.77-24.11,66.27,24.15c0,0,11.39,43.08-20.64,65.36-2.67,1.86-62.3,25.04-67.18-18.32"/>
                </g>
                <path class="cls-10" d="M2558.54,3124.76c-75.1,0-136.21-64.11-136.21-142.91s61.1-142.92,136.21-142.92,136.21,64.11,136.21,142.92-61.1,142.91-136.21,142.91Zm0-256.51c-58.94,0-106.89,50.96-106.89,113.6s47.95,113.6,106.89,113.6,106.89-50.96,106.89-113.6-47.95-113.6-106.89-113.6Z"/>
                <ellipse class="cls-16" cx="2574.73" cy="2981.84" rx="67.97" ry="74.86"/>
                <path class="cls-10" d="M2574.73,3066.47c-42.87,0-77.74-37.96-77.74-84.63s34.88-84.63,77.74-84.63,77.74,37.96,77.74,84.63-34.88,84.63-77.74,84.63Zm0-149.72c-32.09,0-58.2,29.2-58.2,65.09s26.11,65.09,58.2,65.09,58.2-29.2,58.2-65.09-26.11-65.09-58.2-65.09Z"/>
              </g>
              <path class="cls-21" d="M3612.86,2449.65v571.66h-978.42c-50.18-2.83-87.17-19.06-104.27-55.75-7.33-15.64-11.04-34.98-10.55-58.58v-173.94c-2.44-72.07,10.99-172.33,10.99-172.33,36.64-234.43,249.19-228.32,249.19-228.32h746.33c43.49,8.6,65.28,34.84,76.12,60.39l.05,.05c12.26,28.92,10.55,56.82,10.55,56.82Z"/>
              <g class="cls-11">
                <path class="cls-10" d="M3005.24,3021.31h-370.8c-50.18-2.83-87.17-19.06-104.27-55.75,396.01,96.94,469.3-163.29,469.3-163.29l-1.95,62.69s10.8,81.45,7.72,156.35Z"/>
              </g>
              <path class="cls-21" d="M3127.52,2332.37s10.59-92,108.31-92h-132.74s-87.95,5.67-112.38,92"/>
              <path class="cls-10" d="M2954.18,2926.16c-64.63,0-98.47-53.35-108.33-72.05h-258.29c-19.39,48.15-65.72,50.75-67.78,50.84-5.75,.18-10.52-4.17-10.77-9.87-.25-5.68,4.14-10.5,9.81-10.77,1.61-.09,38.63-2.62,51.62-43.66,1.36-4.29,5.34-7.21,9.85-7.21h271.99c4.17,0,7.94,2.51,9.54,6.37,1.22,2.91,30.96,71.72,101.56,65.25,5.71-.49,10.71,3.67,11.23,9.35,.52,5.68-3.67,10.71-9.35,11.23-3.79,.35-7.49,.51-11.09,.51Z"/>
              <path class="cls-10" d="M2831.11,3029.05c-2.89,0-5.67-1.63-7-4.41l-24.07-50.38c-5.86-12.27-18.43-20.2-32.04-20.2h-123.52c-12.71,0-24.53,6.86-30.83,17.9l-24.74,43.33c-2.12,3.72-6.85,5.01-10.57,2.89-3.72-2.12-5.01-6.86-2.89-10.57l24.74-43.33c9.06-15.86,26.03-25.71,44.29-25.71h123.52c19.54,0,37.6,11.39,46.02,29.01l24.07,50.38c1.85,3.86,.21,8.49-3.65,10.33-1.08,.51-2.21,.76-3.33,.76Z"/>
              <path class="cls-10" d="M3406.04,2332.38c-21.2,42.36-91.61,40.31-91.61,40.31l-272,7.33c-90.39,7.33-116.04,131.92-120.93,214.98-1.76,30.05-7.23,54.72-13.44,73.88-10.99,33.71-39.97,58.39-74.9,64.45-54.92,9.53-133.44,12.02-192.8,1.12-44.66-8.16-77.54-45.98-79.54-91.32-5.18-118.19,29.66-223.73,29.66-223.73v-.05c75.39-90.24,189.33-86.97,189.33-86.97h626.24Z"/>
              <path class="cls-21" d="M3526.14,2332.38c7.14-43.69-10.2-66.93-28.02-79.12-12.78-8.74-28.15-12.9-43.64-12.9h-150.65s114.57-3.26,107.16,86.32"/>
              <path class="cls-10" d="M2982.47,2879.3c5.04-77.58,12.85-154.54,24.8-231.31,6.1-38.31,13.25-76.54,23.29-114.23,7.82-28.26,16.52-56.95,31.96-82.33,3.54-5.64,20.82-30.73,27.52-21.64,1.53,2.25,.91,5.3-1.32,6.8-14.28,10.82-22.29,29.17-28.92,45.77-31.49,90.51-38.48,187.84-46.81,282.82-2.8,38.37-4.94,76.96-6.12,115.25-.86,16.15-24.96,15.38-24.4-1.14h0Z"/>
              <g class="cls-2">
                <path class="cls-23" d="M3612.86,2449.65v21.5c-.78-23.75-9.82-94.3-86.73-109.45h-746.33s-212.54-6.11-249.19,228.32c0,0-9.72,72.56-11.09,138.62-1.81-71.68,11.09-167.93,11.09-167.93,36.64-234.43,249.19-228.32,249.19-228.32h746.33c92.83,18.32,86.73,117.26,86.73,117.26Z"/>
              </g>
              <g class="cls-2">
                <path class="cls-23" d="M2519.53,2728.64c0,1.47,.05,2.93,.1,4.4v29.32c-.34-10.75-.39-22.13-.1-33.71Z"/>
              </g>
              <g class="cls-2">
                <path class="cls-23" d="M3612.86,2478.96v-7.82c.2,4.89,0,7.82,0,7.82Z"/>
              </g>
              <path class="cls-10" d="M2728.93,2756.25c-31.1,0-62.84-2.15-91.22-7.35-51.58-9.46-89.22-52.7-91.53-105.14-5.27-119.5,28.9-224.55,30.35-228.96,2.53-7.69,10.82-11.86,18.51-9.32,7.69,2.53,11.87,10.82,9.33,18.51-.34,1.03-33.93,104.55-28.91,218.49,1.7,38.71,29.47,70.62,67.53,77.59,60.69,11.13,137.98,7.42,187.66-1.18,29.89-5.18,54.2-26.07,63.45-54.52,6.99-21.52,11.29-45.14,12.76-70.21,3.87-65.81,24.71-219.84,134.39-228.73,.26-.02,.52-.03,.79-.04l272.01-7.33c.28,0,.55,0,.82,0,17.05,.56,64.19-4.5,78.04-32.21,5.11-10.21,4.49-20.9-1.83-31.76-12.55-21.55-43-37.21-75.84-39.05h-220.55c-7.1,.59-84.93,8.64-94.53,79.34-1.09,8.03-8.48,13.61-16.5,12.55-8.02-1.09-13.64-8.48-12.55-16.5,10.47-77.14,84.42-102.2,122.06-104.68,.32-.02,.64-.03,.96-.03h221.5c.26,0,.51,0,.77,.02,43.12,2.27,82.38,23.31,100.01,53.59,11.29,19.38,12.25,40.55,2.72,59.62-24.35,48.7-97.5,48.55-104.66,48.42l-271.24,7.31c-86.42,7.4-103.7,143.12-107.11,201.2-1.62,27.57-6.38,53.66-14.15,77.56-12.62,38.81-45.69,67.3-86.32,74.34-29.16,5.05-67.44,8.49-106.73,8.49Z"/>
              <path class="cls-10" d="M3526.16,2347.04c-.78,0-1.58-.06-2.38-.19-7.99-1.31-13.41-8.84-12.1-16.83,4.85-29.68-2.5-51.44-21.83-64.66-9.89-6.77-22.12-10.34-35.36-10.34h-150.65c-8.1,0-14.66-6.56-14.66-14.66s6.56-14.66,14.66-14.66h150.65c19.17,0,37.12,5.35,51.91,15.46,20.31,13.89,42.74,41.4,34.22,93.58-1.17,7.19-7.39,12.3-14.45,12.3Z"/>
              <path class="cls-16" d="M2889.13,2970h-31.35c-8.88,0-16.08-7.2-16.08-16.08h0c0-8.88,7.2-16.08,16.08-16.08h31.35c8.88,0,16.08,7.2,16.08,16.08h0c0,8.88-7.2,16.08-16.08,16.08Z"/>
              <path class="cls-16" d="M3191.04,2240.36h115.23v-16.39c0-25.47-20.64-46.11-46.11-46.11h-23c-25.47,0-46.11,20.64-46.11,46.11v16.39Z"/>
              <path class="cls-16" d="M2532.38,2970h25.9c4.4,0,8.45-1.81,11.34-4.69,2.93-2.93,4.74-6.94,4.74-11.38,0-8.89-7.23-16.07-16.07-16.07h-31.37c-1.76,0-3.47,.29-5.03,.83"/>
              <path class="cls-10" d="M3306.27,2255.02h-115.23c-8.1,0-14.66-6.56-14.66-14.66v-16.39c0-33.51,27.26-60.77,60.77-60.77h23.01c33.51,0,60.77,27.26,60.77,60.77v16.39c0,8.1-6.56,14.66-14.66,14.66Zm-100.57-29.32h85.91v-1.73c0-17.34-14.11-31.46-31.45-31.46h-23.01c-17.34,0-31.45,14.11-31.45,31.46v1.73Z"/>
              <path class="cls-10" d="M3127.54,2346.99c-.58,0-1.16-.03-1.74-.1-8.02-.95-13.76-8.18-12.83-16.2,4.18-36.31,35.24-104.99,122.87-104.99,8.1,0,14.66,6.56,14.66,14.66s-6.56,14.66-14.66,14.66c-83.08,0-93.35,75.84-93.75,79.07-.91,7.43-7.24,12.9-14.54,12.9Z"/>
              <path class="cls-16" d="M2841.64,2579.48c6.35-1.25,10.84-6.97,10.84-13.44v-37.6c0-64.54-78.67-59.1-82.45-7.53,0,0-4.56,54.09,8.18,87.06,1.84,4.77,8.21,5.59,11.44,1.63,7.96-9.75,24.18-24.63,52-30.11Z"/>
              <path class="cls-16" d="M2620.31,2565.2c-5.36-1.34-9.14-6.17-9.31-11.69-.67-22.06,2-72.67,40.13-76.17,46.01-4.22,47.61,69.18,25.55,119.58-1.77,4.04-7.23,4.6-9.93,1.12-7.88-10.19-23.91-27.18-46.44-32.83Z"/>
              <path class="cls-16" d="M3612.64,2437.35h-289.55c-27.09,0-51.85,15.56-63.36,40.08-18.95,40.4-44.38,106.3-47.32,173.97-1.74,40.01,30.03,73.48,70.07,73.48h330.16"/>
              <path class="cls-16" d="M3612.95,2802.25h-345.87c-16.54,0-31.63,9.19-39.37,23.8-10.78,20.35-23.09,53.95-23.43,101.59h408.68"/>
              <path class="cls-10" d="M3612.64,2737.11h-330.16c-22.64,0-43.73-9.01-59.39-25.37-15.75-16.45-23.87-38.06-22.89-60.86,2.98-68.61,28-135.01,48.47-178.63,13.43-28.62,42.64-47.11,74.42-47.11h289.55c6.75,0,12.21,5.47,12.21,12.22s-5.47,12.22-12.21,12.22h-289.55c-22.35,0-42.88,12.97-52.3,33.06-19.52,41.6-43.37,104.75-46.18,169.32-.7,16.08,5.03,31.32,16.12,42.91,11.01,11.5,25.83,17.83,41.74,17.83h330.16c6.75,0,12.21,5.47,12.21,12.22s-5.47,12.22-12.21,12.22Z"/>
              <path class="cls-10" d="M3204.27,2942.31h-.11c-8.1-.06-14.61-6.66-14.55-14.76,.36-51.02,13.87-87.08,25.14-108.35,10.32-19.49,30.37-31.6,52.33-31.6h345.87c8.1,0,14.66,6.56,14.66,14.66s-6.56,14.66-14.66,14.66h-345.87c-11.07,0-21.19,6.13-26.42,16-9.74,18.38-21.41,49.76-21.73,94.84-.06,8.06-6.61,14.56-14.66,14.56Z"/>
              <path class="cls-10" d="M2889.13,2975.17h-31.35c-11.72,0-21.25-9.53-21.25-21.25s9.53-21.25,21.25-21.25h31.35c11.72,0,21.25,9.53,21.25,21.25s-9.53,21.25-21.25,21.25Zm-31.35-32.16c-6.02,0-10.92,4.9-10.92,10.92s4.9,10.91,10.92,10.91h31.35c6.02,0,10.92-4.9,10.92-10.91s-4.9-10.92-10.92-10.92h-31.35Z"/>
              <path class="cls-10" d="M2558.27,2975.17h-25.9c-2.85,0-5.17-2.31-5.17-5.17s2.31-5.17,5.17-5.17h25.9c2.86,0,5.66-1.16,7.68-3.17,2.08-2.08,3.23-4.83,3.23-7.73,0-6.02-4.89-10.91-10.91-10.91h-31.37c-1.15,0-2.31,.19-3.35,.55-2.7,.92-5.63-.51-6.57-3.21-.93-2.7,.51-5.64,3.21-6.57,2.14-.73,4.4-1.11,6.71-1.11h31.37c11.71,0,21.24,9.53,21.24,21.24,0,5.66-2.22,11.01-6.25,15.04-3.95,3.94-9.41,6.2-14.99,6.2Z"/>
              <path class="cls-10" d="M3612.86,3035.96h-978.42c-.27,0-.55,0-.82-.02-86.99-4.89-130.28-48.37-128.65-129.25v-173.65c-2.45-71.97,10.57-170.14,11.12-174.29,38.25-244.68,261.95-241.01,264.14-241.02h745.92c.95,0,1.9,.09,2.84,.27,83.05,16.39,100.76,93.27,98.55,132.08v571.23c0,8.1-6.56,14.66-14.66,14.66Zm-978.01-29.32h963.35v-557c0-.3,0-.6,.03-.9,.19-3.46,3.87-85.46-73.57-101.7h-744.86c-8.54-.22-200.56-2.51-234.7,215.92-.09,.67-13.2,99.59-10.83,169.58v174.44c-1.29,64.92,29.73,95.58,100.59,99.67Z"/>
              <g class="cls-11">
                <path class="cls-10" d="M3612.86,2449.65v571.66h-615.34v-213.47c703.83,130.09,530.26-269.1,604.74-415.06l.05,.05c12.26,28.92,10.55,56.82,10.55,56.82Z"/>
              </g>
              <g>
                <ellipse class="cls-22" cx="3314.44" cy="2981.84" rx="121.55" ry="128.26"/>
                <g class="cls-11">
                  <path class="cls-10" d="M3439.48,2980.03c0,70.85-54.43,128.26-121.56,128.26-51.94,0-96.25-34.4-113.65-82.77,21.94,33.32,58.44,55.11,99.82,55.11,67.13,0,121.56-57.46,121.56-128.26,0-15.98-2.79-31.27-7.87-45.39,13.73,20.72,21.69,45.93,21.69,73.05Z"/>
                </g>
                <g class="cls-19">
                  <path class="cls-4" d="M3220.35,2900.66s55.77-24.11,66.27,24.15c0,0,11.39,43.08-20.64,65.36-2.67,1.86-62.3,25.04-67.18-18.32"/>
                </g>
                <path class="cls-10" d="M3314.44,3124.76c-75.1,0-136.21-64.11-136.21-142.91s61.1-142.92,136.21-142.92,136.21,64.11,136.21,142.92-61.1,142.91-136.21,142.91Zm0-256.51c-58.94,0-106.89,50.96-106.89,113.6s47.95,113.6,106.89,113.6,106.89-50.96,106.89-113.6-47.95-113.6-106.89-113.6Z"/>
                <ellipse class="cls-16" cx="3330.64" cy="2981.84" rx="67.97" ry="74.86"/>
                <path class="cls-10" d="M3330.64,3066.47c-42.87,0-77.74-37.96-77.74-84.63s34.88-84.63,77.74-84.63,77.74,37.96,77.74,84.63-34.88,84.63-77.74,84.63Zm0-149.72c-32.09,0-58.2,29.2-58.2,65.09s26.11,65.09,58.2,65.09,58.2-29.2,58.2-65.09-26.11-65.09-58.2-65.09Z"/>
              </g>
              <g>
                <ellipse class="cls-22" cx="3566.51" cy="2981.84" rx="121.55" ry="128.26"/>
                <g class="cls-11">
                  <path class="cls-10" d="M3691.54,2980.03c0,70.85-54.43,128.26-121.56,128.26-51.94,0-96.25-34.4-113.65-82.77,21.94,33.32,58.44,55.11,99.82,55.11,67.13,0,121.56-57.46,121.56-128.26,0-15.98-2.79-31.27-7.87-45.39,13.73,20.72,21.69,45.93,21.69,73.05Z"/>
                </g>
                <g class="cls-19">
                  <path class="cls-4" d="M3472.41,2900.66s55.77-24.11,66.27,24.15c0,0,11.39,43.08-20.64,65.36-2.67,1.86-62.3,25.04-67.18-18.32"/>
                </g>
                <path class="cls-10" d="M3566.5,3124.76c-75.1,0-136.21-64.11-136.21-142.91s61.1-142.92,136.21-142.92,136.21,64.11,136.21,142.92-61.1,142.91-136.21,142.91Zm0-256.51c-58.94,0-106.89,50.96-106.89,113.6s47.95,113.6,106.89,113.6,106.89-50.96,106.89-113.6-47.95-113.6-106.89-113.6Z"/>
                <ellipse class="cls-16" cx="3582.7" cy="2981.84" rx="67.97" ry="74.86"/>
                <path class="cls-10" d="M3582.7,3066.47c-42.87,0-77.74-37.96-77.74-84.63s34.88-84.63,77.74-84.63,77.74,37.96,77.74,84.63-34.88,84.63-77.74,84.63Zm0-149.72c-32.09,0-58.2,29.2-58.2,65.09s26.11,65.09,58.2,65.09,58.2-29.2,58.2-65.09-26.11-65.09-58.2-65.09Z"/>
              </g>
              <g>
                <ellipse class="cls-22" cx="3068.29" cy="2981.84" rx="121.55" ry="128.26"/>
                <g class="cls-11">
                  <path class="cls-10" d="M3193.33,2980.03c0,70.85-54.43,128.26-121.56,128.26-51.94,0-96.25-34.4-113.65-82.77,21.94,33.32,58.44,55.11,99.82,55.11,67.13,0,121.56-57.46,121.56-128.26,0-15.98-2.79-31.27-7.87-45.39,13.73,20.72,21.69,45.93,21.69,73.05Z"/>
                </g>
                <g class="cls-19">
                  <path class="cls-4" d="M2974.19,2900.66s55.77-24.11,66.27,24.15c0,0,11.39,43.08-20.64,65.36-2.67,1.86-62.3,25.04-67.18-18.32"/>
                </g>
                <path class="cls-10" d="M3068.29,3124.76c-75.1,0-136.21-64.11-136.21-142.91s61.1-142.92,136.21-142.92,136.21,64.11,136.21,142.92-61.1,142.91-136.21,142.91Zm0-256.51c-58.94,0-106.89,50.96-106.89,113.6s47.95,113.6,106.89,113.6,106.89-50.96,106.89-113.6-47.95-113.6-106.89-113.6Z"/>
                <ellipse class="cls-16" cx="3084.48" cy="2981.84" rx="67.97" ry="74.86"/>
                <path class="cls-10" d="M3084.48,3066.47c-42.87,0-77.74-37.96-77.74-84.63s34.88-84.63,77.74-84.63,77.74,37.96,77.74,84.63-34.88,84.63-77.74,84.63Zm0-149.72c-32.09,0-58.2,29.2-58.2,65.09s26.11,65.09,58.2,65.09,58.2-29.2,58.2-65.09-26.11-65.09-58.2-65.09Z"/>
              </g>
              <g class="cls-26">
                <ellipse class="cls-3" cx="2656.74" cy="2536.52" rx="82.25" ry="147.65"/>
              </g>
              <g class="cls-8">
                <ellipse class="cls-1" cx="2810.86" cy="2538.74" rx="82.25" ry="147.65"/>
              </g>
            </g>
            <g>
              <path class="cls-17" d="M2169.87,2144.27l230.46,142.09s49.06-46.82,83.27-23.61c34.2,23.21,50.69,60.56,48.86,78.22-1.83,17.66-61.07-20.2-61.07-20.2,0,0-40.31,18.32-32.98,65.35l41.1,27.59c3.26,2.19,5.65,5.45,6.75,9.21h0c3.05,10.41-4.39,20.83-15.21,21.55-56.2,3.78-121.8-16.33-100.03-103.5l-227-136.86s-52.52,36.65-89.17,3.05c-36.64-33.59-47.64-65.35-35.42-72.07,7.86-4.32,27.36,5.77,40.26,13.52,9.01,5.41,20.47,4.9,28.71-1.61,5.37-4.24,11.08-10.1,15.48-17.96,5.52-9.87,3.21-22.31-4.92-30.17l-35.99-34.81c-5.76-5.57-3.88-15.08,3.44-18.32,56.36-24.93,136.87,21.92,103.47,98.5Z"/>
              <path class="cls-10" d="M2458.42,2459.57c-27.17,0-65.3-5.61-88.39-33.21-16.35-19.55-21.57-45.84-15.57-78.23l-210.43-126.88c-18.47,10.2-63.6,29.27-99.09-3.26-29.99-27.49-47.12-56.96-44.73-76.9,1.01-8.38,5.32-15.06,12.14-18.81,11.67-6.42,28.08-2.29,54.87,13.79,3.87,2.33,8.73,2.1,12.08-.55,4.94-3.9,8.9-8.48,11.77-13.61,2.16-3.85,1.18-9.1-2.32-12.48l-35.99-34.8c-6.17-5.96-8.95-14.56-7.45-22.99,1.52-8.54,7.19-15.74,15.16-19.27,35.89-15.87,80.3-7.73,107.98,19.8,22.73,22.61,29.51,53.42,19.35,85.94l211.15,130.19c17.76-14.01,59.03-40.63,92.87-17.67,37.36,25.35,57.74,67.42,55.21,91.87-.73,6.99-4.67,12.71-10.83,15.67-4.49,2.17-17.71,8.55-65.01-20.23-7.91,5.75-20.04,18.18-18.94,39.83l35.42,23.77c6.09,4.09,10.58,10.21,12.65,17.26,2.7,9.19,1.11,18.96-4.37,26.82-5.52,7.92-14.24,12.84-23.92,13.5-4.06,.27-8.65,.46-13.6,.46Zm-314.41-270.1c2.61,0,5.23,.7,7.57,2.1l227,136.86c5.52,3.33,8.21,9.86,6.65,16.1-6.93,27.75-4.48,48.95,7.29,63.01,13.85,16.56,42.1,24.69,77.54,22.31,.98-.07,1.55-.59,1.84-1.02,.57-.82,.36-1.55,.29-1.79-.14-.47-.44-.89-.86-1.17l-41.1-27.58c-3.4-2.28-5.68-5.87-6.31-9.92-7.15-45.9,23.95-73.02,41.4-80.95,4.52-2.06,9.78-1.68,13.96,.99,12.95,8.27,27.29,15.83,36.97,19.76-4.47-15.01-17.82-37.65-40.88-53.3-23.59-15.99-64.53,21.71-64.93,22.1-4.82,4.57-12.14,5.35-17.8,1.86l-230.45-142.09c-6.21-3.83-8.66-11.65-5.74-18.33,11.15-25.57,8.08-48.82-8.65-65.46-17.82-17.72-46.82-23.92-70.74-15.63l32.09,31.04c13.11,12.68,16.2,32.36,7.52,47.87-4.75,8.5-11.21,16-19.18,22.3-12.86,10.16-31.08,11.23-45.34,2.68-10.52-6.32-17.52-9.44-21.88-10.97,2.81,8.79,12.15,25.67,34.49,46.15,27.67,25.36,70.45-3.97,70.88-4.27,2.51-1.75,5.45-2.64,8.39-2.64Z"/>
              <path class="cls-4" d="M2364.15,2264.08l-25.8-15.93s-39.38,10.94-30.24,54.92l16.42,9.87c-21.6,61.56-125.62,20.77-152.25-43.97h-.05c-6.5-15.63-8.4-32.64-3.57-49.98,0,0,25.65-79.59,93.23-85.31l45,25.8,48.66,27.95s24.09,13.19,8.6,76.66Z"/>
              <path class="cls-10" d="M2278.74,2357.94c-9.77,0-20.28-1.67-31.27-5.14-58.33-18.36-109.59-78.1-92.91-137.75,.05-.19,.1-.37,.16-.55,1.17-3.63,29.49-88.97,105.93-95.42,2.98-.25,5.94,.41,8.53,1.89l93.65,53.75c5.41,2.95,32.83,22.02,15.54,92.81-1.11,4.56-4.34,8.31-8.68,10.08-4.34,1.79-9.27,1.38-13.26-1.08l-19.51-12.03c-6.82,3.61-16.8,11.96-15.35,29.57l10.5,6.33c5.95,3.58,8.56,10.85,6.26,17.4-9.08,25.9-31.17,40.14-59.61,40.14Zm-96.04-134.66c-12.7,46.49,35.36,89.53,73.57,101.56,11.18,3.53,35.7,8.86,48.73-6.54l-4.45-2.68c-3.49-2.11-5.95-5.58-6.78-9.57-9.44-45.41,22.46-66.97,40.65-72.02,3.94-1.1,8.14-.5,11.62,1.65l7.69,4.74c3.86-30.27-4.86-39.5-6.01-40.57l-88.95-51.05c-52.11,7.63-74.57,70.16-76.06,74.49Zm165.12-23.38c.42,.3,.69,.4,.69,.4l-.69-.4Z"/>
              <path class="cls-10" d="M2188.46,2312.03c.61-32.94,10.17-66.39,30.6-92.49,6.55-8.7,14.96-15.76,23.49-22.09,2.16-1.61,5.22-1.15,6.83,1.01,1.44,1.94,1.22,4.61-.4,6.29-6.84,7.08-13.29,14.41-17.78,23.02-13.56,24.53-17.29,54.13-13.53,81.63,3.17,21.24-28.49,24.14-29.2,2.62h0Z"/>
              <path class="cls-10" d="M2240.73,2336.19c2.14-29.17,8.49-57.08,21.45-83.17,4.49-8.5,9.86-16.56,16.19-23.77,1.78-2.03,4.88-2.23,6.91-.45,1.87,1.64,2.18,4.39,.85,6.39-17.4,29.64-19.33,66.69-16.09,100.01,1.74,21.14-29.61,22.26-29.31,.98h0Z"/>
              <g class="cls-11">
                <path class="cls-10" d="M2364.15,2264.08l-25.8-15.93s-39.38,10.94-30.24,54.92l16.42,9.87c-21.6,61.56-125.62,20.77-152.25-43.97,138.13,65.13,137.49-70.21,134.61-109.49l48.66,27.95s24.09,13.19,8.6,76.66Z"/>
              </g>
              <path class="cls-4" d="M2355.55,2187.41l-62.88-36.06-30.78-17.69s-3.47-36.4,25.65-36.4c16.22,0,37.04,8.84,54.33,19.54,13.83,8.5,25.36,18.22,30.54,25.5,11.68,16.51,5.33,41.82-16.86,45.1Z"/>
              <path class="cls-10" d="M2355.55,2202.07c-2.55,0-5.06-.66-7.29-1.94l-93.66-53.73c-4.13-2.37-6.85-6.59-7.3-11.33-.24-2.57-1.99-25.54,11.63-40.52,7.12-7.83,17.01-11.97,28.61-11.97,34.61,0,82.63,31.12,96.87,51.29,9.11,12.91,10.99,29.77,4.89,43.99-5.64,13.15-17.16,21.92-31.61,24.05-.71,.1-1.43,.16-2.14,.16Zm-78.85-76.79l80.82,46.36c2.19-1.13,3.81-2.91,4.84-5.32,2.08-4.86,1.34-10.95-1.9-15.54-8.8-12.47-48.96-38.88-72.92-38.88-4.77,0-6.28,1.66-6.93,2.38-2.32,2.54-3.44,7.03-3.91,11Z"/>
              <g class="cls-11">
                <path class="cls-10" d="M2355.55,2187.41l-62.88-36.06c4.1,0,8.35,.44,12.61,1.47,50.03,11.58,36.6-36.01,36.6-36.01,13.83,8.5,25.36,18.22,30.54,25.5,11.68,16.51,5.33,41.82-16.86,45.1Z"/>
              </g>
            </g>
          </g>
        </g>
      </g>
    </g>
  </g>
</svg>