<?xml version="1.0" encoding="UTF-8"?>
<svg id="Layer_2" data-name="Layer 2" xmlns="http://www.w3.org/2000/svg" xmlns:xlink="http://www.w3.org/1999/xlink" viewBox="0 0 2814 2814">
  <defs>
    <style>
      .cls-1 {
        fill: #d66b09;
      }

      .cls-2 {
        fill: #00bdff;
      }

      .cls-3 {
        stroke: #371b45;
        stroke-miterlimit: 10;
        stroke-width: 28px;
      }

      .cls-3, .cls-4 {
        fill: none;
      }

      .cls-5 {
        fill: #cd9df9;
      }

      .cls-6 {
        opacity: .7;
      }

      .cls-7 {
        fill: #fff;
      }

      .cls-8 {
        fill: #99a4c4;
      }

      .cls-9 {
        fill: #ffb200;
      }

      .cls-10 {
        fill: #ffaa39;
      }

      .cls-11 {
        opacity: .5;
      }

      .cls-12 {
        opacity: .6;
      }

      .cls-13 {
        fill: #47ef92;
      }

      .cls-14 {
        opacity: .2;
      }

      .cls-15 {
        fill: #121a27;
      }

      .cls-16 {
        opacity: .35;
      }

      .cls-17 {
        opacity: .8;
      }

      .cls-18 {
        clip-path: url(#clippath-1);
      }

      .cls-19 {
        fill: #5ce205;
      }

      .cls-20 {
        fill: #ff9d33;
      }

      .cls-21 {
        opacity: .4;
      }

      .cls-22 {
        fill: #54a520;
      }

      .cls-23 {
        opacity: .3;
      }

      .cls-24 {
        clip-path: url(#clippath);
      }

      .cls-25 {
        fill: #ffd766;
      }

      .cls-26 {
        fill: #1db4ff;
      }

      .cls-27 {
        fill: #371b45;
      }

      .cls-28 {
        fill: #ffcf6e;
      }

      .cls-29 {
        fill: #371a45;
      }

      .cls-30 {
        fill: #ffd243;
      }

      .cls-31 {
        fill: #aeaeaf;
      }

      .cls-32 {
        fill: #ffec90;
      }

      .cls-33 {
        fill: #ff9100;
      }
    </style>
    <clipPath id="clippath">
      <rect class="cls-3" x="14" y="14" width="2786" height="2786" rx="1393" ry="1393"/>
    </clipPath>
    <clipPath id="clippath-1">
      <circle class="cls-4" cx="1927.27" cy="2116.42" r="301.13"/>
    </clipPath>
  </defs>
  <g id="Layer_1-2" data-name="Layer 1">
    <g>
      <g class="cls-24">
        <g class="cls-17">
          <rect class="cls-5" x="280" y="280" width="2254" height="2254" rx="1127" ry="1127"/>
        </g>
        <g>
          <g>
            <path class="cls-9" d="M2558.04,1719.58c5.18,11.33,9.6,22.83,13.25,34.43-47.93,39.11-142.72,93.98-256.01,145.81-113.28,51.82-216.78,87.67-277.72,98.36-6.39-10.34-12.2-21.2-17.39-32.53-.24-.53-.48-1.06-.72-1.59-2.27-5.01-4.37-10.04-6.32-15.1-4.59-11.85-8.35-23.83-11.32-35.89-.12-.49-.24-.98-.36-1.47-4.32-17.93-6.89-35.99-7.8-54-1.73-34.26,2.58-68.27,12.35-100.56,23.73-78.39,79.72-146.6,160.06-183.35,79.68-36.45,167.13-34.55,241.55-2.02,30.56,13.34,58.92,31.87,83.65,55.01,13.23,12.37,25.42,26.08,36.35,41.01,.89,1.2,1.76,2.41,2.62,3.63,7.18,10.13,13.78,20.82,19.75,32.03,2.22,4.16,4.35,8.39,6.38,12.7,.56,1.17,1.11,2.35,1.66,3.54Z"/>
            <path class="cls-33" d="M2583.78,1868.15c-1.06,12.06-2.84,24.02-5.37,35.81-3.51,16.56-8.46,32.79-14.73,48.48-27.21,68.07-79.63,126.19-151.55,159.09-72.08,32.98-150.52,34.57-219.92,10.49-15.24-5.29-30.05-11.82-44.25-19.52-11.14-6.03-21.9-12.79-32.22-20.23,72.46-18.56,156.17-48.34,242.76-87.96,86.59-39.61,163.86-83.47,225.27-126.16Z"/>
            <path class="cls-33" d="M2571.28,1754c-47.92,39.11-142.72,93.99-256,145.81-113.28,51.82-216.8,87.67-277.73,98.37-6.37-10.35-12.19-21.21-17.39-32.54-.24-.54-.47-1.05-.72-1.59-2.26-5.02-4.36-10.04-6.3-15.1-4.58-11.84-8.35-23.83-11.33-35.89-.12-.49-.24-.98-.34-1.46-4.32-17.93-6.9-36-7.81-54-1.71-34.25,2.59-68.27,12.36-100.57,19.2-63.4,59.47-120.12,116.69-158.94-14.89,23.16-26.46,48.28-34.4,74.52-9.78,32.3-14.09,66.29-12.36,100.57,.9,18,3.47,36.07,7.79,53.98,.12,.51,.24,.99,.36,1.48,.16,.65,.38,1.44,.66,2.38,15.08,50.81,69.79,72.08,122.58,67.3,100.62-9.13,318.49-126.9,364.84-154.07,3.21,7.81-3.4,1.84-.9,9.76Z"/>
            <path class="cls-1" d="M2358.5,1994.31c86.59-39.61,163.86-83.47,225.27-126.16-1.06,12.06-2.84,24.02-5.37,35.81-47.26,34.64-122.82,77.49-210.84,117.76-84.32,38.57-162.94,66.94-219.61,80.78-11.14-6.03-21.9-12.79-32.22-20.23,72.46-18.56,156.17-48.34,242.76-87.96Z"/>
            <path class="cls-1" d="M2556.38,1716.03c.56,1.17,1.11,2.35,1.66,3.54,5.18,11.33,9.6,22.83,13.25,34.43-47.93,39.11-142.72,93.98-256.01,145.81-113.28,51.82-216.78,87.67-277.72,98.36-6.39-10.34-12.2-21.2-17.39-32.53-.24-.53-.48-1.06-.72-1.59,57.79-6.64,163.16-41.34,278.65-94.17,120.04-54.92,218.13-114.38,258.28-153.84Z"/>
            <path class="cls-1" d="M1993.19,1867.54l.95-19.91c40.31,1.92,145.59-32.03,256.02-82.55,131.75-60.27,216.75-117.89,232.64-143.65l16.97,10.46c-21.02,34.09-117.99,94.9-241.31,151.31-114.82,52.53-221.42,86.42-265.26,84.33Z"/>
            <path class="cls-1" d="M2007.52,1766.88l-3.01-19.71c45.3-6.93,123.79-34.26,204.83-71.34,84.92-38.85,158.34-81.6,191.62-111.59l13.35,14.81c-34.68,31.24-110.04,75.27-196.67,114.9-82.6,37.79-163.11,65.73-210.11,72.92Z"/>
            <path class="cls-1" d="M2001.45,1921.55v-19.94c46.27,.02,155.05-35.51,270.72-88.42,121.32-55.5,223.05-117.75,247.39-151.36l16.15,11.69c-26.57,36.7-129.14,100.12-255.24,157.8-119.87,54.84-229.39,90.26-279.01,90.23Z"/>
            <path class="cls-1" d="M2192.58,2126.99l-.38-4.96-2.34-4.41,.92-.49,1.05-.09c39.99-3.05,116.14-28.04,194.01-63.66,78.3-35.82,145.11-75.87,174.36-104.51l6.97,7.12c-30.02,29.4-97.91,70.19-177.19,106.45-80.06,36.63-155.7,61.36-197.4,64.54Z"/>
            <path class="cls-29" d="M2289.26,2149.29c-63.59,0-126.8-19.67-179.99-58.08l-19.12-13.8,22.84-5.85c74.42-19.06,157.72-49.24,240.91-87.3,83.18-38.05,160.49-81.34,223.56-125.18l19.36-13.45-2.05,23.48c-9.61,109.87-77.84,206.61-178.06,252.46-40.61,18.58-84.12,27.72-127.46,27.72Zm-146.95-62.72c80.04,48.04,179.56,54.11,265.22,14.92,85.67-39.19,146.15-118.46,162.13-210.42-60.07,39.8-130.97,78.7-206.57,113.29-75.61,34.59-151.4,62.79-220.78,82.22Z"/>
            <path class="cls-25" d="M2728.05,1687.87c18.02,39.4-40.54,108.18-144.27,180.28-61.42,42.69-138.69,86.55-225.27,126.16-86.6,39.61-170.3,69.4-242.76,87.96-122.38,31.34-212.7,30.67-230.73-8.73-16.37-35.78,30.41-95.77,116.8-160.49,2.97,12.05,6.74,24.04,11.32,35.89-23.88,19.7-35.61,35.29-31.47,44.34,4.21,9.21,24.35,10.42,55.89,4.89,60.93-10.69,164.44-46.54,277.72-98.36,113.29-51.83,208.08-106.7,256.01-145.81,24.79-20.24,37.04-36.27,32.83-45.48-4.13-9.03-23.61-10.37-54.11-5.19-5.97-11.22-12.57-21.9-19.75-32.03,105.45-23.04,181.43-19.21,197.8,16.57Z"/>
            <path class="cls-10" d="M2011.32,1944.14c.6,1.6,1.2,3.21,1.83,4.81-23.89,19.69-35.63,35.27-31.48,44.32,4.23,9.23,24.38,10.43,55.9,4.9,40.41-7.09,99.59-25.25,167.92-51.82-1.09,5.97-1.1,11.6,.02,16.79-26.38,9.91-51.94,18.66-76.2,26.11-105.44,32.41-160.42,31.95-166.89,17.81-3.79-8.25,7.17-29.08,48.91-62.92Z"/>
            <path class="cls-33" d="M2003.46,1929.78l2.52,3.16c-21.47,16.66-38.05,31.56-50.51,44.66,9.29-13.75,25.26-29.63,48-47.82Z"/>
            <path class="cls-33" d="M2008.5,1936.07l-2.52-3.13c.36-.31,.78-.62,1.2-.92l1.32,4.05Z"/>
            <path class="cls-10" d="M1955.46,1977.6c-9.75,14.3-12.24,26.28-7.72,36.19,4.42,9.63,14.8,15.03,29.18,17.31,37.49,5.94,102.01-9.48,157.1-26.42,24.94-7.66,51.24-16.7,78.37-26.88,5.22,6.57,12.97,11.73,23,15.53-40.09,15.3-78.98,28.26-115.42,38.45-129.9,36.33-186.34,26.57-195.22,7.18-4.92-10.77,2.18-31.4,30.71-61.37Z"/>
            <path class="cls-10" d="M2353.17,1996.74c-84.69,38.42-166.45,67.35-237.44,85.53-122.37,31.35-212.71,30.67-230.73-8.74-16.36-35.76,30.44-95.75,116.82-160.48,.88,3.58,1.86,7.15,2.88,10.73l-4.93-6.44c-50.14,38.38-106.43,91.8-89.68,128.33,6.47,14.14,21.79,21.77,42.05,24.98,47.69,7.52,122.55-9.44,172.17-23.32,43.55-12.17,90.53-28.25,138.78-47.44,24.01,3.06,54.57,1.93,90.08-3.15Z"/>
            <g>
              <path class="cls-28" d="M2212.39,1977.8c-27.13,10.18-53.43,19.22-78.37,26.88-55.09,16.94-119.6,32.35-157.1,26.42-14.38-2.28-24.76-7.68-29.18-17.31-4.52-9.91-2.03-21.89,7.72-36.19,12.46-13.11,29.04-28,50.51-44.66l2.52,3.13c.91,2.7,1.85,5.39,2.82,8.07-41.75,33.84-52.7,54.67-48.91,62.92,6.47,14.14,61.44,14.59,166.89-17.81,24.25-7.45,49.82-16.21,76.2-26.11,.53,2.59,1.33,5.05,2.41,7.41,1.19,2.58,2.68,5,4.48,7.25Z"/>
              <path class="cls-32" d="M2005.98,1932.94c-21.47,16.66-38.05,31.56-50.51,44.66,9.29-13.75,25.26-29.63,48-47.82l2.52,3.16Z"/>
              <path class="cls-32" d="M2008.5,1936.07l5.04,6.29c-.75,.59-1.5,1.19-2.22,1.78-.97-2.69-1.91-5.37-2.82-8.07Z"/>
              <path class="cls-32" d="M2513.14,1831.26c-52.87,33.11-116.62,67.02-184.4,98.03-39.41,18.03-78.68,34.4-116.36,48.52-1.81-2.25-3.3-4.68-4.48-7.25-1.08-2.36-1.88-4.82-2.41-7.41,37.7-14.06,77.05-30.44,116.56-48.51,67.14-30.73,130.27-64.29,182.51-97.05,93.46-58.6,129.06-100.5,122.61-114.61-3.87-8.44-27.52-13.8-82.39-3.6l-2.21-11.93-.74-3.96c28.76-5.35,51.27-7.04,67.78-5.09,17.06,2.05,27.7,8,32.22,17.85,15.96,34.87-61.19,92.67-128.69,135.01Z"/>
            </g>
            <g>
              <path class="cls-28" d="M2263.08,1999.88c-48.24,19.19-95.23,35.28-138.78,47.44-49.62,13.88-124.48,30.84-172.17,23.32-20.26-3.21-35.58-10.84-42.05-24.98-16.75-36.53,39.54-89.95,89.68-128.33l4.93,6.44c.78,2.77,1.6,5.52,2.48,8.24-.42,.3-.84,.61-1.2,.92l-2.52-3.16c-22.74,18.19-38.71,34.07-48,47.82-28.53,29.96-35.64,50.6-30.71,61.37,8.88,19.39,65.31,29.15,195.22-7.18,36.44-10.19,75.33-23.15,115.42-38.45,7.86,3.01,17.13,5.19,27.7,6.55Z"/>
              <path class="cls-10" d="M2003.46,1929.78l2.52,3.16c-21.47,16.66-38.05,31.56-50.51,44.66,9.29-13.75,25.26-29.63,48-47.82Z"/>
              <path class="cls-32" d="M2004.7,1923.77l4.88,6.38c-.81,.64-1.62,1.25-2.4,1.87-.88-2.73-1.69-5.47-2.48-8.24Z"/>
              <path class="cls-32" d="M2551.74,1851.79c-58.78,39-130.26,78.09-206.72,113.07-27.45,12.58-54.88,24.28-81.93,35.02-10.57-1.36-19.84-3.54-27.7-6.55,33.73-12.84,68.31-27.33,102.94-43.16,75.69-34.61,146.4-73.29,204.51-111.83,112.43-74.54,141.94-123.64,133.09-143.02-4.93-10.74-25.12-18.86-66.31-16.93-18.12,.86-40.29,3.66-67.04,9.04-1.47,.31-2.97,.61-4.47,.91l-3.27-15.8c61.81-12.86,139.03-20.49,155.75,16.04,21.73,47.48-77.65,122.61-138.84,163.19Z"/>
            </g>
            <path class="cls-29" d="M1970.53,2115.44c-51,0-84.22-12.52-95.55-37.3-24.86-54.34,64.65-132.29,120.22-173.92l13.35-10,3.99,16.19c2.88,11.68,6.55,23.3,10.9,34.55l2.88,7.43-6.15,5.07c-23.29,19.21-27.39,28.44-28.12,31.07,2.51,1.2,12.5,4.21,43.6-1.24,61.87-10.86,167.26-48.22,275.03-97.52,107.75-49.29,204.93-104.59,253.62-144.32,24.43-19.95,28.69-29.48,29.43-32.17-2.48-1.18-12.15-4.11-41.88,.95l-7.86,1.33-3.74-7.04c-5.66-10.65-12.06-21.02-19.01-30.84l-9.64-13.61,16.3-3.56c67.84-14.82,185.34-31.57,210.2,22.77,20.09,43.91-33.86,114.6-148.01,193.94-64.14,44.58-142.63,88.54-226.98,127.13-84.36,38.59-168.95,69.23-244.61,88.61-58.65,15.02-108.6,22.47-147.95,22.47Zm24.99-183.68c-88.4,68.91-110.24,115.83-100.46,137.19,14.54,31.78,100.08,32.81,217.94,2.62,74.42-19.06,157.72-49.24,240.91-87.3,83.18-38.05,160.49-81.34,223.56-125.18,99.91-69.44,155.07-134.84,140.54-166.61h0c-9.77-21.36-59.54-35.51-169.49-13.7,2.58,4.09,5.06,8.25,7.44,12.46,33.92-4.85,52-.85,58.2,12.7,6.75,14.76-4.32,32.84-35.89,58.63-50.81,41.45-147.4,96.52-258.4,147.3-111.01,50.78-215.84,87.87-280.4,99.19-40.16,7.04-61.08,3.59-67.84-11.17-6.2-13.56,2.59-29.85,28.46-52.35-1.63-4.55-3.15-9.14-4.56-13.77Z"/>
            <g class="cls-12">
              <path class="cls-7" d="M2571.36,1755.01c-5.58,4.55-11.78,9.31-18.59,14.26-2.79-7.77-5.94-15.49-9.42-23.12-.55-1.19-1.11-2.36-1.66-3.53-2.03-4.32-4.15-8.55-6.38-12.71-5.96-11.22-12.58-21.91-19.75-32.04-.86-1.22-1.74-2.42-2.62-3.62-10.93-14.94-23.12-28.66-36.36-41.02-24.73-23.13-53.09-41.66-83.64-54.99-74.44-32.54-161.88-34.45-241.56,2.01-53.19,24.34-95.72,62.47-125.27,108.23,29.27-57.05,77.2-105.05,140.05-133.8,79.68-36.44,167.13-34.55,241.54-2.01,30.55,13.35,58.93,31.86,83.66,55.01,13.22,12.36,25.42,26.06,36.35,41,.9,1.2,1.76,2.42,2.62,3.64,7.18,10.14,13.78,20.8,19.75,32.02,2.22,4.17,4.35,8.41,6.38,12.7,.57,1.17,1.12,2.34,1.66,3.55,5.18,11.33,9.6,22.82,13.25,34.42Z"/>
            </g>
            <path class="cls-29" d="M2032.09,2010.33l-3.93-6.37c-6.65-10.76-12.71-22.11-18.03-33.74-2.61-5.72-5.07-11.55-7.29-17.33-4.68-12.1-8.63-24.62-11.74-37.21-35.17-142.75,36.49-290.81,170.39-352.06,133.9-61.25,292.78-18.65,377.78,101.29,7.5,10.58,14.39,21.76,20.49,33.23,2.91,5.44,5.71,11.11,8.33,16.83h0c5.31,11.62,9.94,23.63,13.74,35.71l2.25,7.14-5.8,4.73c-50.8,41.45-147.4,96.51-258.4,147.29-111.02,50.78-215.84,87.87-280.4,99.19l-7.37,1.29Zm256.9-452.44c-39.86,0-80.18,8.37-118.33,25.82-124.26,56.84-190.76,194.24-158.13,326.69,2.88,11.68,6.55,23.3,10.9,34.55,2.07,5.37,4.35,10.78,6.78,16.09,3.89,8.49,8.2,16.82,12.87,24.85,62.67-12.4,164.04-48.76,267.6-96.13,103.55-47.37,197.34-100.29,247.71-139.61-3.03-8.79-6.51-17.5-10.39-25.99-2.43-5.31-5.03-10.57-7.74-15.63-5.67-10.66-12.07-21.04-19.02-30.85-54.66-77.13-142.27-119.79-232.25-119.79Z"/>
          </g>
          <g>
            <path class="cls-2" d="M2196.71,1981.98c1.36,2.72,2.68,5.46,3.95,8.21,68.06,147.2,7.13,322.81-138.96,395.7-146.08,72.88-323.04,15.97-399.72-126.94-1.43-2.67-2.82-5.37-4.18-8.1-17-34.08-26.94-69.82-30.36-105.59-11.42-118.98,49.15-238.13,161.23-296.18,1.36-.72,2.75-1.41,4.15-2.11,1.39-.7,2.8-1.4,4.21-2.06,113.81-54.62,245.4-31.35,333.57,49.32,26.52,24.25,49.1,53.68,66.11,87.76Z"/>
            <g class="cls-18">
              <g>
                <path class="cls-19" d="M2085.87,2283.69c-1.4-14.85-9.69-28.79-22.04-37.01-15.85-10.55-19.45-33.66-21.64-50.24-1.77-13.37-10.19-23.77-23.23-14.55-29.97,21.19-73.42-11.04-81.95-41.96-7.44-33.07,.41-62,17.2-90.12,11.66-19.52,36.18-25.39,55.87-15.76,23.2,11.36,59.38-23.78,63.15-46.73,.43-2.62,.71-6.15-.21-8.24-9.39-21.1-41.56-22.46-52.31-2.88-6.96,12.68-21.36,17.28-34.21,10.43-23.63-12.59-31.06-2.08-39.1,21.11-2.59,7.48-2.62,21-11.89,15.25-9.11-5.65-16.91-16.92-12.18-27.64,11.54-26.16,22.28-53.93,29.18-82.11,.45-1.84,2.29-4.33,3.56-4.47,29.33-3.08,26.26-40.9,32.01-61.98,2.03-7.43,.48-10.83-4.32-13.77-4.89-3-7.17,.4-9.06,5.63-3.18,8.77-6.29,17.57-9.52,26.3-1.66,4.48-2.26,11.29-7.24,10.56-5.84-.86-8.84-7.97-8.5-14.44,.98-18.51,5.89-39.18,17.15-54.15,8.53-11.34,25.01-19.53,38.09-10.83,16.25,10.81,28.91,9.72,46.69,.58,7.47-3.84,15.5-7.99,23.41-10.37,13.35-4.02,22.89-14.77,26.26-28.34,3.58-13.54,14.48-23.29,28.06-25.87,8.56-1.63,14.09-6.36,16.59-16.68,4.45-18.37,18.95-32.24,36.44-38.15,26-8.78,47.47-7.33,66.31,12.09,5.14,5.3,10.5,3.24,15.53,2.15,13.15-2.83,27.19-4.99,39.67-8.1,9.46-2.36,23.04,2.12,29.15,9.7,4.12,5.11,8.91,5.68,13.64,5,6.49-.93,13.49-1.05,19.63-1.76,14.82-1.71,21.13,1.33,28.92,14.69,3.09,13.09-5.62,30.59-17.88,33.77-3.56,.92-7.87,1.53-11.96,1.59-11.47,.19-13.37,7.4-9.53,21.9,8.25,31.1-2.07,76.9-35.24,88.44-8.05,2.8-12.5,5.95-8.75,18.74,1.97,6.69,3.08,14.59-.21,21.5-7.56,15.85-11.63,33.73-6.74,50.77,3.84,13.4-9.02,23.51-21.08,16.43-13.1-7.69-25.88-16.45-38.06-25.71-9.41-7.15-14.78-4.9-18.77,7.67-3.44,10.84-9.13,21.84-11.76,32.32-3.35,13.34-14.54,22.57-26.8,12.33-14-8.91-21.51-12.31-35.95-8.66-5.11,1.29-10.85-.69-15.79-4.45-5.03-3.81-10.85-8.05-13.49,2.29-2.49,9.74,5.56,9.13,9.18,12.09,6.57,5.37,13.73,9.62,20.61,14,12.08,7.69,13.43,19.88,5.57,31.3-7.66,11.14-22.09,20.33-35.44,11.11-8.99-5.71-17.83-11.7-26.79-17.43-4.25-2.71-8.24-7.52-12.13,2.26-4.11,10.38,1.85,11.15,5.78,13.81,15.66,10.59,31.39,21.03,47.42,31.05,13.79,8.62,18.4,26.12,11.09,40.41-15.09,29.47-12.28,61.34-1.53,94.45,4.4,13.54,7.69,26.93,10.65,40.93,6.04,27.77-7.01,69.21-37.69,76.69-12.21,2.73-22.29-5.78-25.81-16.99-3.03-9.67-5.46-19.99-7.97-29.97Z"/>
                <path class="cls-19" d="M1508.16,2093.47c-12.8-26.34-10.84-46.95,18.52-58.29,43.38-18.85,86.2-38.98,128.37-60.23,7.11-3.58,14.41-7.9,20.74-.06,5.35,6.62,4.98,14.97,2.26,23.8-4.83,15.67,6.8,19.59,17.75,24.9,9.22,4.48,19.37-1.27,26.95-8.88,6.67-6.69-.14-14.99-1.5-22.42-.95-5.19-3.93-10.73,.03-15.3,4.09-4.72,8.28-.25,11.78,2.17,7.02,4.86,13.71,5.62,21.5,1.19,6.82-3.88,14.12-3.66,19.36,4.2,5.18,7.78,4.37,17.33,1.24,25.99-12.73,35.28-27.05,71.06-39.49,105.38-5.34,14.74-21.74,19.78-34.81,25.23-13.11,5.47-13.44,20.05-7.77,31.06,2.34,4.54,4.94,7.83,9.1,6.15,16.57-6.69,30.42,5.4,42.64,13.91,9.38,6.53,22.27,10.61,33.52,4.73,13.47-7.04,24.53-6.27,37.81,1.73,10.41,6.27,25.09,15.68,38.08,12,16.94-4.8,25.77,44.22,22.36,56.86-9.33,34.6-22.02,71.59-35.06,105.61-7.08,18.49-8.25,37.14-2.18,55.28,3.03,9.08,5.44,19.74,7.68,29.79,1.39,6.23,5.88,13.81,2.54,18.66-4.16,6.04-10.38-.29-15.2-3.16-16.3-9.79-26.51-28.14-31.3-45.91-3.55-13.19-7.7-26.73-10.42-40-5.42-26.4-14.79-54.39-39.16-69.7-22.05-15.18-30.1-61.66-23.42-85,1.74-6.1,9.63-12.63,3.57-19.47-6.32-7.13-14.77-16.41-23.32-13.01-17.53,6.95-36.78-4-50.32-14.44-13.2-10.18-26.53-20.42-41.23-28.53-21.61-11.72-27.65-37.13-35.1-57.95-6.33-17.67-32.13-37.42-51.04-35-13.84,1.77-18.33,17.56-24.49,28.71Z"/>
                <path class="cls-19" d="M2478.51,2074.17c.17,.53,.44,1.05,.49,1.59,.7,8.33,10.14,16.86,2.62,24.24-7.17,7.03-21.57,14.3-31.82,8.76-15.6-5-21.78-4-35.25,3.46-10.85,6.01-24.86,5.81-33.23-4.81-9.69-11.52-8.81-27.36-3.91-40.6,7.64-20.65,27.78-42.17,50.88-40.88,22.92,1.28,43.39,27.57,50.23,48.24Z"/>
                <path class="cls-19" d="M1801.51,1824.31c5.44-2.98,11.22-6.17,16.34-8.87,10.95-5.79,29.88-22.06,39.86-4.59,14.28,25,17.34,48.31,8.21,73.95-7.77,21.82-17.22,45.27-24.65,68.36-6.22,19.36-13.95,21.79-26.55,10.85-7.26-6.3-15.63-12.07-18.5-22.17-4.72-16.57-16.85-28.99-31.61-37.01-8.18-4.44-16.94-11.05-14.13-26.28,2.43-13.15,5.3-29.68,18.47-36.38,10.7-5.44,21.72-11.79,32.59-17.75,0-.03-.02-.07-.03-.1Z"/>
                <path class="cls-19" d="M1713.96,1947.63c-9.33,5.69-17.35,9.73-25.99,6.12-3.65-1.52-6.7-4.5-7.43-8.96-.99-6.13,3.88-7.3,7.1-9.21,5.41-3.23,11.01-5.9,16.49-8.98,9.76-5.48,20.87-8.42,24.1,6.26,2.98,13.51-10.82,9.39-14.28,14.77Z"/>
                <path class="cls-19" d="M2302.67,1999.77c13.34-1.16,32.98,8.86,39.44,18.83,4.13,6.37-1.74,10.07-5.07,10.65-10.02,1.74-33.52-10.68-39.43-19.82-2.17-3.35-.32-7.39,5.07-9.66Z"/>
                <path class="cls-19" d="M2160.8,2214.31c-2.18-11.42-3.11-26.3,7.7-33.55,8.09-5.42,9.22,6.48,10.83,13.08,2.77,11.33,3.89,26.25-7.38,33.55-9.03,5.85-8.01-7.18-11.16-13.08Z"/>
                <path class="cls-19" d="M2393.12,1800.17c2.07,13.97-10.79,40.57-21.57,43.28-2.83,.71-7.7-2.57-6.21-6.31,4.65-13.04,8.51-28.92,20.09-37.07,2.07-1.46,6.69-3.62,7.69,.09Z"/>
                <path class="cls-19" d="M2387.41,2012.26c-4.04-.17-11.55,9.62-14.11-3.19-2.73-13.69,6.18-18.68,15.31-20.63,4.87-1.04,12.23-8.37,14.73,.99,3.84,11.82-4.79,20.89-15.93,22.83Z"/>
                <path class="cls-19" d="M2509.89,2079.31c-.67,4.36,8.3,10.32-.54,12.64-9.23,2.42-14.01-6.03-16.12-14.9-1.21-5.1-7.63-13.23-.38-15.47,12.51-3.87,13.01,9.81,17.05,17.73Z"/>
                <path class="cls-19" d="M1927.96,1901.81c2.5,9.6,6.92,23.91-3.49,30.36-6.54,4.05-7.47-6.38-8.5-11.85-1.84-9.71-7.2-24.36,2.31-31.56,8.19-6.2,5.89,10.41,9.68,13.05Z"/>
                <path class="cls-19" d="M2349.58,1960.37c2.43,9.85,5.02,19.79-4.86,23.05-7.88,2.6-7.15-7.54-9.15-12.86-3.47-9.23-1.56-18.16,5.15-21.48,8.13-4.03,6.35,7.5,8.86,11.29Z"/>
                <path class="cls-19" d="M1910.46,1926.45c1.49,6.35,.74,11.38-4.54,13.81-3.6,1.65-6.35,.51-7.64-4.42-1.62-6.15-.43-11.58,3.82-14.93,4.55-3.6,6.8,.44,8.37,5.54Z"/>
              </g>
              <g>
                <path class="cls-22" d="M2115.07,2335.97c-12.71,0-22.36-9.81-25.83-20.88-2.52-8.06-4.64-16.56-6.69-24.79l-1.48-6.16c-1.27-13.49-8.72-26-19.91-33.45-16.85-11.22-21.09-33.56-23.75-53.62-.89-6.7-3.62-11.97-6.97-13.43-2.3-1-5.23-.27-8.71,2.18-11.84,8.37-26.85,9.95-42.28,4.43-21.58-7.71-41.38-28.33-47.09-49.04l-.06-.22c-7.13-31.66-1.48-61.42,17.77-93.64,12.66-21.18,39.36-28.75,62.12-17.61,7.56,3.7,16.44,.72,22.55-2.44,15.73-8.12,31.49-27.16,33.73-40.74,.56-3.43,.28-5.17,.13-5.52-4.32-9.71-14.05-13.52-21.72-13.84-9.47-.38-17.91,3.95-21.96,11.33-8.25,15.02-25.74,20.34-40.7,12.36-8.3-4.42-14.35-5.77-18.52-4.14-5.7,2.24-9.63,10.64-13.77,22.58-.49,1.43-.91,3.24-1.34,5.15-1.28,5.59-2.73,11.93-7.87,14.07-2.94,1.23-6.23,.74-9.77-1.46-11.28-6.99-19.73-20.81-14.05-33.68,13.8-31.26,22.98-57.1,28.91-81.31,.74-3.02,3.71-7.69,7.74-8.11,17.48-1.83,21.25-18.24,24.66-41.21,.92-6.22,1.8-12.09,3.2-17.24,1.65-6.05,.21-6.93-2.19-8.4-.18-.11-.32-.19-.45-.25-.31,.45-.85,1.41-1.57,3.41-1.09,3-2.16,6-3.24,9-2.08,5.79-4.16,11.58-6.29,17.33-.31,.83-.57,1.75-.84,2.68-1.14,3.95-3.52,12.17-11.63,10.97-8.79-1.3-13.05-10.99-12.61-19.46,.69-13.14,3.97-38,18.12-56.8,10.12-13.45,29.19-22.2,44.6-11.94,13.82,9.19,24.37,9.27,41.82,.31l.34-.17c7.35-3.78,15.68-8.05,23.88-10.53,11.36-3.43,19.95-12.73,22.98-24.89,4.03-15.22,16.22-26.48,31.84-29.44,7.18-1.36,10.89-5.15,12.81-13.09,4.66-19.24,19.45-34.78,39.58-41.58,30.01-10.13,52.67-5.91,71.31,13.3,2.57,2.65,4.71,2.28,9.3,1.2,.59-.14,1.18-.28,1.76-.4,5.34-1.15,10.88-2.2,16.24-3.21,7.84-1.49,15.95-3.02,23.28-4.85,11.24-2.81,26.84,2.39,34.06,11.35,2.41,2.99,4.91,3.88,9.2,3.26,3.84-.55,7.78-.82,11.59-1.09,2.88-.2,5.6-.39,8.16-.69,16.79-1.94,24.97,2.2,33.64,17.04l.36,.62,.17,.7c3.82,16.17-6.76,35.75-21.36,39.54-4.07,1.06-8.72,1.68-13.09,1.75-2.02,.03-4.64,.36-5.66,1.71-1.03,1.36-1.74,4.92,.7,14.14,8.23,31.05-.5,81.07-38.32,94.22-6.08,2.11-8.6,2.99-5.71,12.83,2.93,9.96,2.77,18.11-.49,24.94-8.31,17.42-10.48,33.35-6.46,47.37,2.34,8.16-.07,16.23-6.3,21.06-6.19,4.8-14.57,5.13-21.85,.86-12.51-7.34-25.48-16.1-38.54-26.03-4.36-3.31-6.13-3.12-6.56-2.98-.54,.17-2.48,1.28-4.71,8.28-1.55,4.89-3.53,9.78-5.45,14.51-2.48,6.13-4.83,11.92-6.23,17.52-2.47,9.82-8.34,17.11-15.71,19.51-6.08,1.98-12.67,.4-18.6-4.44-13.04-8.28-19.24-11.1-31.93-7.9-6.25,1.57-13.31-.3-19.88-5.28-1.12-.85-3.6-2.73-4.86-3.13-.24,.37-.65,1.18-1.06,2.78-.79,3.08-.72,3.11,2.78,4.57,1.53,.64,3.27,1.36,4.79,2.6,5.21,4.26,10.99,7.9,16.57,11.41,1.2,.75,2.39,1.5,3.58,2.26,6.67,4.25,10.91,9.99,12.26,16.6,1.42,6.96-.42,14.39-5.3,21.49-6.05,8.8-14.75,14.98-23.27,16.55-6.6,1.22-13.12-.24-18.87-4.21-4.59-2.91-9.28-6-13.98-9.08-4.22-2.77-8.43-5.54-12.67-8.25-.64-.41-1.28-.86-1.91-1.31-.56-.39-1.31-.93-1.88-1.26-.3,.44-.74,1.22-1.27,2.55-1.87,4.71-1.41,4.96,1.56,6.6,.84,.46,1.67,.93,2.44,1.45,12.84,8.68,29.81,20.03,47.27,30.95,15.86,9.91,21.37,29.98,12.82,46.69-12.82,25.04-13.21,53.88-1.24,90.77,3.96,12.21,7.39,25.37,10.78,41.42,6.23,28.66-6.45,73.88-41.26,82.37-1.96,.44-3.87,.65-5.72,.65Zm-24.44-53.1l1.28,5.11c2.01,8.09,4.09,16.46,6.53,24.24,2.57,8.21,9.98,16.01,20.16,13.73,28.64-6.99,39.31-46.7,34.04-70.97-3.37-15.95-6.62-28.42-10.53-40.46-12.82-39.48-12.24-70.66,1.82-98.13,6.25-12.21,2.23-26.89-9.35-34.13-17.59-11-34.66-22.42-47.56-31.14-.53-.36-1.11-.67-1.69-.99-3.8-2.09-10.87-5.98-5.87-18.59,1.22-3.09,3.34-7.33,7.54-8.58,4.2-1.24,7.63,1.2,10.14,2.99,.5,.36,1.01,.72,1.51,1.04,4.28,2.73,8.52,5.52,12.78,8.32,4.65,3.06,9.31,6.12,14.01,9.1,3.8,2.62,7.72,3.52,11.81,2.77,6.06-1.11,12.45-5.8,17.08-12.54,3.37-4.9,4.68-9.78,3.8-14.11-.82-4.05-3.51-7.54-7.99-10.4-1.17-.75-2.35-1.49-3.53-2.23-5.84-3.67-11.87-7.46-17.54-12.11-.42-.35-1.47-.78-2.39-1.17-3.65-1.52-11.26-4.69-8.41-15.84,.49-1.93,2-7.82,7.16-9.62,5.31-1.85,10.28,1.93,13.92,4.69,4.13,3.13,8.4,4.45,11.7,3.61,16.23-4.09,24.95-.12,39.71,9.27l.5,.37c3.46,2.88,6.72,3.85,9.7,2.88,4.07-1.33,7.74-6.31,9.34-12.69,1.57-6.25,4.15-12.63,6.65-18.8,1.85-4.56,3.76-9.28,5.19-13.81,1.68-5.28,4.64-12.54,10.98-14.55,4.46-1.41,9.47,.06,15.3,4.5,12.76,9.7,25.4,18.24,37.59,25.39,3.87,2.27,8.01,2.22,11.07-.16,3.09-2.4,4.19-6.43,2.94-10.79-4.69-16.35-2.33-34.57,7.02-54.17,2.19-4.59,2.17-10.5-.06-18.07-4.55-15.47,1.42-21.04,11.78-24.64,29.18-10.15,40.38-51.71,32.17-82.66-1.94-7.31-3.58-16.46,.93-22.42,2.7-3.57,7.13-5.43,13.18-5.53,3.58-.06,7.52-.58,10.83-1.44,9.25-2.4,16.67-16.51,14.55-27.33-6.59-11.09-10.97-13.16-23.83-11.68-2.78,.32-5.74,.53-8.6,.73-3.64,.25-7.4,.52-10.9,1.02-7.62,1.1-13.53-1.12-18.07-6.75-4.95-6.14-16.5-9.98-24.23-8.05-7.6,1.89-15.84,3.46-23.82,4.97-5.3,1-10.78,2.04-16,3.17-.52,.11-1.05,.24-1.58,.36-4.75,1.12-11.94,2.8-18.42-3.87-16.18-16.67-34.52-19.92-61.32-10.88-16.98,5.73-29.42,18.71-33.3,34.72-2.8,11.58-9.47,18.21-20.37,20.28-11.94,2.27-21.25,10.84-24.3,22.37-3.83,15.42-14.88,27.31-29.52,31.72-7.37,2.22-14.94,6.11-22.26,9.87l-.34,.17c-17.03,8.75-32.32,11.95-51.56-.86-11.15-7.42-25.18,1.21-31.57,9.72-12.61,16.75-15.56,39.46-16.19,51.51-.23,4.38,1.59,8.55,3.97,9.32,.49-.9,1.04-2.8,1.39-4.01,.34-1.16,.67-2.31,1.06-3.35,2.12-5.73,4.19-11.49,6.26-17.25,1.08-3.01,2.16-6.02,3.25-9.02,1.4-3.87,3.39-8.02,7.5-9.46,2.69-.95,5.59-.49,8.6,1.36,7.01,4.29,8.93,10.02,6.45,19.14-1.26,4.6-2.09,10.2-2.97,16.13-3.04,20.47-6.81,45.87-32.05,49.24-.23,.32-.45,.73-.52,.96-6.06,24.77-15.42,51.12-29.45,82.91-3.87,8.76,4.05,17.72,10.31,21.6,.45,.28,.78,.44,1.02,.53,.84-1.35,1.68-5.03,2.15-7.11,.48-2.08,.97-4.24,1.63-6.16,5.15-14.87,10.19-24.8,19.35-28.39,7.05-2.76,15.49-1.3,26.57,4.61,10.34,5.51,21.99,1.93,27.73-8.5,5.83-10.62,17.68-16.87,30.81-16.32,13.46,.56,25,8.06,30.12,19.56,1.15,2.6,1.34,6.29,.56,10.98-2.74,16.7-20.16,38.11-38.82,47.74-11.58,5.98-22.37,6.86-31.2,2.53-18.22-8.92-39.55-2.95-49.61,13.9-17.88,29.94-23.18,57.41-16.66,86.48,4.9,17.59,22.52,35.81,41.02,42.42,8.76,3.13,21.68,5.11,33.47-3.23,7.99-5.65,14.27-4.83,18.12-3.15,6.67,2.91,11.28,10.56,12.66,20.99,2.38,17.96,6.04,37.88,19.54,46.86,13.49,8.98,22.49,23.99,24.13,40.2Z"/>
                <path class="cls-22" d="M1845.34,2484.28c-4.1,0-7.81-2.57-10.87-4.68-.88-.61-1.73-1.2-2.54-1.68-15.43-9.26-27.63-27.04-33.48-48.8-.95-3.54-1.95-7.1-2.95-10.67-2.71-9.71-5.52-19.75-7.54-29.61-4.76-23.17-13.26-51.67-37-66.59-24.55-16.89-32.34-66.45-25.49-90.4,.67-2.36,1.89-4.5,3.08-6.56,2.95-5.17,3.19-6.5,1.52-8.38-6.26-7.06-12.8-13.78-17.94-11.73-15.53,6.17-34.05,1.08-55.04-15.1-12.81-9.88-26.05-20.09-40.62-28.13-20.47-11.1-27.92-33.06-34.5-52.43-.93-2.75-1.86-5.47-2.8-8.12-5.52-15.41-29.22-33.99-45.9-31.84-8.55,1.09-12.78,9.83-17.26,19.09-1.16,2.4-2.36,4.87-3.63,7.17l-4.49,8.12-4.05-8.35c-8.22-16.93-10.08-30.59-5.68-41.78,3.93-9.99,12.95-17.76,26.8-23.11,42.35-18.41,85.46-38.63,127.94-60.04l1.09-.55c6.81-3.46,17.11-8.7,25.56,1.77,5.76,7.13,6.78,16.37,3.12,28.24-3.08,9.99,1.62,12.7,12.55,17.86,.9,.43,1.8,.85,2.7,1.29,8.22,3.99,17.73-4.23,21.44-7.95,2.22-2.23,1.84-4.54-.54-10.81-.89-2.36-1.82-4.79-2.28-7.34-.19-1.05-.48-2.1-.76-3.17-1.2-4.51-2.85-10.68,1.89-16.15,6.45-7.45,13.95-1.79,16.78,.34,.47,.36,.94,.71,1.39,1.02,5.79,4.01,10.53,4.28,16.38,.96,9.97-5.67,19.59-3.53,25.74,5.72,5.38,8.09,5.99,18.57,1.76,30.3-6.57,18.21-13.64,36.77-20.49,54.72-6.38,16.75-12.98,34.06-19.01,50.67-5.49,15.14-20.81,21.3-33.13,26.26-1.48,.6-2.94,1.18-4.36,1.77-3.67,1.53-6.16,4.02-7.39,7.41-1.74,4.77-.97,11.13,2.05,16.99,1.64,3.19,2.55,3.86,2.78,3.99,.02-.02,.11-.04,.24-.09,17.29-6.99,31.75,3.38,43.36,11.7,1.3,.93,2.57,1.84,3.83,2.72,3.72,2.59,16.78,10.56,28.54,4.41,14.79-7.73,27.51-7.17,42.53,1.87l1.42,.86c9.48,5.73,22.46,13.58,32.86,10.63,3.45-.98,8.67-1.05,13.96,4.17,12.3,12.15,17.32,47.63,14.36,58.58-8.44,31.31-20.62,68-35.21,106.08-6.91,18.04-7.62,35.55-2.11,52.04,3.21,9.62,5.76,21.07,7.81,30.27,.33,1.47,.89,3.13,1.49,4.9,1.82,5.36,4.1,12.04,.31,17.54-2.13,3.09-4.7,4.13-6.49,4.46-.58,.11-1.16,.16-1.73,.16Zm-131.27-289.14c9.57,0,17.89,9.38,23.2,15.37,6.57,7.41,2.23,15.01-.36,19.55-.94,1.64-1.83,3.2-2.18,4.44-6.12,21.41,1.09,65.64,21.52,79.71,26.66,16.75,36,47.66,41.14,72.7,1.96,9.53,4.72,19.4,7.38,28.95,1.01,3.61,2.01,7.2,2.97,10.76,5.22,19.37,15.83,35.06,29.12,43.04,.97,.58,2.01,1.29,3.07,2.02,1.51,1.04,4.29,2.96,5.35,2.97,0-.03,.14-.17,.33-.44,1.04-1.52-.37-5.65-1.5-8.98-.66-1.93-1.33-3.92-1.78-5.9-2-8.98-4.49-20.17-7.55-29.31-6.24-18.66-5.48-38.35,2.26-58.53,14.48-37.78,26.55-74.14,34.91-105.14,2.32-8.6-2.59-40.1-11.83-49.22-2.4-2.37-3.92-1.94-4.57-1.76-14.43,4.09-29.48-5.01-40.47-11.66l-1.41-.85c-12.08-7.27-21.36-7.72-33.1-1.59-11.18,5.85-25.58,3.96-38.51-5.04-1.3-.9-2.61-1.84-3.94-2.8-10.7-7.67-21.77-15.61-34.15-10.6-5.96,2.4-11.07-.42-15.19-8.41-4.24-8.22-5.19-17.45-2.54-24.71,2.16-5.93,6.57-10.43,12.73-13,1.46-.61,2.95-1.21,4.47-1.82,11.62-4.68,23.65-9.51,27.67-20.6,6.05-16.68,12.66-34.04,19.06-50.82,6.83-17.91,13.89-36.43,20.43-54.56,2.2-6.09,3.86-14.81-.72-21.69-2.08-3.13-5.69-6.82-12.96-2.69-9.08,5.16-17.78,4.7-26.62-1.41-.56-.38-1.13-.81-1.71-1.25-.9-.68-2.54-1.91-3.3-2.11-.08,.07-.22,.18-.39,.39-1.27,1.47-.95,3.28,.14,7.37,.34,1.26,.68,2.56,.93,3.92,.31,1.68,1.04,3.61,1.81,5.65,2.25,5.93,5.33,14.04-1.64,21.03-10.92,10.95-22.75,14.53-32.46,9.82-.87-.42-1.74-.84-2.61-1.25-9.83-4.65-23.3-11.02-17.63-29.4,2.68-8.7,2.23-14.85-1.41-19.36-3.11-3.85-5.71-3.29-13.7,.77l-1.12,.57c-42.64,21.49-85.92,41.79-128.62,60.34-11.57,4.47-18.54,10.25-21.49,17.73-2.59,6.59-2.14,14.71,1.41,24.68,4.72-9.59,10.88-20.4,23.52-22.01,21.52-2.74,49.35,19.04,56.19,38.15,.96,2.69,1.9,5.46,2.86,8.26,6.3,18.56,12.82,37.76,30,47.08,15.24,8.41,28.78,18.85,41.88,28.95,18.1,13.96,33.45,18.6,45.6,13.77,1.87-.74,3.71-1.07,5.5-1.07Z"/>
                <path class="cls-22" d="M2399.92,2120.99c-8.74,0-16.9-3.64-22.39-10.59-9.41-11.18-11.14-27.72-4.65-45.25,8.49-22.95,30.33-45.47,55.66-44.02,26.34,1.47,47.75,31.02,54.54,51.53l.11,.29c.2,.51,.52,1.36,.61,2.42,.17,2.06,1.25,4.5,2.39,7.08,2.43,5.51,6.11,13.83-1.2,21-7.5,7.35-24.09,16.4-37.06,9.78-13.64-4.33-18.37-3.81-31.06,3.22-5.53,3.06-11.37,4.55-16.96,4.55Zm26.39-90.3c-19.77,0-37.51,19.17-44.39,37.79-2.49,6.72-7.16,23.66,3.08,35.83,7.15,9.06,18.8,8.36,27.21,3.7,15.03-8.32,22.69-9.07,39.06-3.84l.82,.35c7.93,4.29,20.3-2.22,26.16-7.96,2.23-2.19,1.82-4.15-.86-10.23-1.31-2.95-2.78-6.29-3.15-9.84l-.03-.09c-.1-.25-.19-.5-.27-.75-6.88-20.76-26.38-43.82-45.92-44.92-.57-.03-1.13-.05-1.7-.05Zm47.89,45.47s0,0,0,0c0,0,0,0,0,0Z"/>
                <path class="cls-22" d="M1827.4,1975.31c-6.18,0-11.86-4.23-15.83-7.67-1-.87-2.02-1.72-3.04-2.58-6.59-5.53-14.06-11.8-16.93-21.91-5.06-17.79-18.72-28.36-29.28-34.1-5.56-3.02-20.32-11.04-16.57-31.38l.11-.59c2.45-13.31,5.81-31.53,20.92-39.21,7.44-3.78,15.21-8.11,22.73-12.29,2.14-1.19,4.28-2.39,6.42-3.57h0s5.17-2.96,5.17-2.96c4.89-2.68,9.96-5.46,14.51-7.87,1.67-.88,3.65-2.09,5.74-3.37,8.43-5.17,18.93-11.58,28.74-9.08,4.87,1.25,8.85,4.52,11.82,9.73,15.26,26.73,17.98,51.5,8.57,77.95-2.83,7.95-5.81,15.93-8.97,24.37-5.38,14.38-10.93,29.24-15.63,43.85-3.92,12.18-8.52,18.41-14.92,20.2-1.19,.33-2.37,.48-3.53,.48Zm-20.26-148.59l.03,.1-3.31,1.82c-3.22,1.76-6.45,3.56-9.68,5.36-7.59,4.23-15.44,8.6-23.05,12.46-10.86,5.52-13.49,19.78-15.81,32.37l-.11,.59c-2.07,11.22,2.94,16.42,11.7,21.17,12.18,6.62,27.96,18.92,33.94,39.92,2.07,7.26,7.8,12.08,13.86,17.17,1.07,.89,2.13,1.79,3.16,2.69,4.62,4.01,8.24,5.81,10.46,5.18,1.59-.44,4.8-2.84,8.35-13.87,4.76-14.82,10.36-29.79,15.78-44.27,3.14-8.41,6.11-16.35,8.92-24.23,8.52-23.94,6.1-45.51-7.86-69.95-1.65-2.9-3.57-4.59-5.85-5.17-5.88-1.51-14.43,3.74-21.31,7.96-2.22,1.36-4.32,2.65-6.27,3.68-4.07,2.15-8.56,4.61-12.96,7.02Z"/>
                <path class="cls-22" d="M1694.68,1959.95c-2.79,0-5.64-.53-8.58-1.75-5.64-2.36-9.41-6.96-10.32-12.63-1.38-8.55,4.91-11.79,7.93-13.34,.5-.26,1-.51,1.45-.78,3.26-1.94,6.58-3.69,9.8-5.38,2.27-1.2,4.55-2.39,6.81-3.66,9.09-5.11,16.25-6.37,21.89-3.85,4.68,2.09,7.8,6.55,9.28,13.26,2.9,13.14-6.67,15.8-11.26,17.08-1.22,.34-3.27,.91-3.69,1.37l-.6,.93-.92,.54c-7.16,4.37-14.25,8.21-21.78,8.21Zm22.8-33.01c-2.12,0-5.57,.81-11,3.86-2.33,1.31-4.69,2.55-7.04,3.79-3.25,1.71-6.31,3.32-9.34,5.13-.62,.37-1.3,.72-1.99,1.08-3.09,1.59-3.06,1.78-2.83,3.23,.49,3.01,2.73,4.53,4.53,5.28,5.93,2.48,11.74,.18,20.86-5.32,2.28-2.65,5.64-3.59,8.41-4.36,4.86-1.35,5.37-1.5,4.44-5.73-.79-3.56-2.07-5.77-3.8-6.55-.48-.22-1.2-.41-2.24-.41Z"/>
                <path class="cls-22" d="M2335.09,2034.21c-12.97,0-35.35-12.6-41.54-22.16-1.66-2.57-2.1-5.54-1.22-8.38,1.09-3.54,4.1-6.5,8.47-8.34l.7-.29,.75-.07c14.45-1.26,36.21,9.15,43.89,21,3.16,4.88,2.2,8.88,1.35,10.83-1.8,4.12-6.14,6.57-9.64,7.18-.86,.15-1.78,.22-2.76,.22Zm-31.23-29.7c-1.58,.79-2.22,1.62-2.33,1.99-.02,.05-.03,.1,.1,.31,5.16,7.96,26.8,19.03,34.57,17.69,.96-.17,2.2-.95,2.46-1.55,.13-.29-.11-.98-.61-1.74-5.16-7.96-22.38-17.28-34.2-16.7Z"/>
                <path class="cls-22" d="M2168.02,2233.69c-1.02,0-2-.19-2.94-.56-4.58-1.82-5.83-6.93-6.94-11.43-.48-1.94-.97-3.95-1.59-5.12l-.35-.64-.14-.72c-1.34-7-5.41-28.3,9.75-38.45,4.18-2.8,7.47-2.4,9.5-1.58,5.41,2.2,6.9,9.21,8.1,14.85,.2,.94,.39,1.85,.59,2.67,5.68,23.28-2,33.91-9.44,38.73-2.32,1.5-4.51,2.25-6.56,2.25Zm-2.61-20.92c.96,2.06,1.53,4.38,2.08,6.64,.31,1.26,.78,3.18,1.24,4.31,.17-.09,.37-.21,.61-.36,7.01-4.54,8.8-14.09,5.32-28.37-.22-.91-.43-1.91-.66-2.95-.44-2.05-1.29-6.08-2.22-7.62-.16,.08-.36,.2-.6,.36-6.54,4.38-8.43,13.54-5.77,28Z"/>
                <path class="cls-22" d="M2370.74,1848.37c-2.91,0-6.04-1.42-8.14-3.82-2.32-2.65-2.97-6.08-1.73-9.18,.6-1.7,1.25-3.62,1.9-5.56,4.08-12.09,8.7-25.79,19.88-33.66,1.75-1.23,6.27-3.92,10.53-2.38,2.28,.82,3.91,2.65,4.58,5.16l.12,.55c2.3,15.5-11.39,45.19-25.16,48.66-.64,.16-1.31,.24-1.99,.24Zm-.86-9.61s0,.01,0,.02c0,0,0,0,0-.02Zm.14-.38c.18,.14,.43,.28,.62,.34,7.08-2.21,17.83-22.08,17.91-34.92-.12,.07-.23,.15-.35,.23-8.61,6.06-12.52,17.65-16.3,28.86-.63,1.86-1.25,3.7-1.88,5.48Z"/>
                <path class="cls-22" d="M2378.13,2020.49c-1.14,0-2.32-.22-3.51-.78-4.54-2.14-5.67-7.83-6.04-9.71-1.59-7.96-1.23-21.96,19.03-26.28,.7-.15,1.98-.77,3.11-1.32,3.17-1.54,7.51-3.66,11.73-1.73,2.65,1.21,4.51,3.69,5.52,7.38,1.98,6.18,1.36,12.2-1.78,17.41-3.59,5.96-10.13,10.16-17.94,11.53l-.51,.09h-.23c-.45,.15-1.36,.64-1.98,.97-1.92,1.03-4.54,2.43-7.39,2.43Zm20.2-30.88c-.9,.23-2.42,.98-3.4,1.45-1.7,.83-3.46,1.68-5.31,2.08-12.32,2.63-12.77,9.05-11.59,14.98,.26,1.29,.53,2.09,.74,2.55,.67-.27,1.59-.76,2.21-1.1,1.77-.95,3.76-2.02,5.97-2.12,4.83-.93,8.92-3.51,10.99-6.94,1.7-2.83,1.98-6.05,.83-9.59l-.07-.24c-.13-.49-.26-.83-.36-1.06Z"/>
                <path class="cls-22" d="M2506.27,2097.18c-2.66,0-5.17-.68-7.43-2.04-6.04-3.63-8.94-11.24-10.3-16.98-.22-.91-.82-2.28-1.4-3.62-1.63-3.75-3.66-8.41-1.72-12.66,.74-1.62,2.39-3.79,5.99-4.91,14.04-4.34,18.28,7.94,20.57,14.54,.72,2.08,1.4,4.04,2.19,5.6l.71,1.38-.19,1.27c.15,.5,.72,1.52,1.11,2.21,1.38,2.45,3.26,5.81,1.71,9.48-1.58,3.73-5.62,4.79-6.94,5.14-1.46,.38-2.9,.57-4.29,.57Zm-11.97-31.01c.21,1.16,1.14,3.3,1.68,4.53,.75,1.72,1.52,3.5,1.94,5.23,1.31,5.5,3.45,9.49,5.89,10.95,.73,.44,1.92,.95,3.98,.49-.13-.24-.26-.47-.37-.67-1-1.78-2.19-3.9-2.35-6.34-.84-1.84-1.51-3.79-2.17-5.69-3.18-9.18-4.39-9.79-8.58-8.5Z"/>
                <path class="cls-22" d="M1921.79,1936.7c-1.08,0-1.98-.26-2.68-.57-4.44-2-5.52-8.28-6.38-13.32-.11-.64-.21-1.25-.32-1.81-.28-1.46-.63-3.03-1.01-4.67-2.2-9.69-5.22-22.95,4.69-30.45,2.65-2,5.13-2.58,7.38-1.73,3.77,1.44,4.64,5.86,5.47,10.13,.29,1.49,.77,3.94,1.23,4.68l.94,.65,.72,2.76c2.66,10.09,6.69,25.34-5.47,32.87-1.75,1.08-3.29,1.45-4.58,1.45Zm-.96-45.33c-.11,.08-.24,.16-.38,.27-5.73,4.34-4.37,12.66-2,23.08,.39,1.73,.77,3.39,1.06,4.93,.11,.6,.22,1.25,.34,1.94,.34,2.01,1.12,6.58,2.13,7.82,.13-.05,.32-.14,.58-.3,7.04-4.36,5.2-13.85,2.29-24.88l-.13-.51c-1.67-1.96-2.25-4.93-2.86-8.04-.25-1.27-.62-3.19-1.03-4.3Z"/>
                <path class="cls-22" d="M2342.38,1988.66c-1.61,0-3.1-.39-4.46-1.18-4.1-2.38-5.11-7.37-5.92-11.37-.3-1.49-.59-2.89-.95-3.85-4.44-11.79-1.34-23.1,7.52-27.49,3.22-1.6,6.12-1.77,8.61-.54,4.04,2,4.9,6.54,5.6,10.19,.21,1.12,.54,2.82,.82,3.32l.46,.7,.27,1.16c2.33,9.47,5.86,23.79-8.12,28.4-1.35,.44-2.63,.67-3.84,.67Zm.35-35.2c-4.16,2.18-5.26,8.49-2.65,15.41,.63,1.68,1.01,3.54,1.37,5.33,.3,1.47,.77,3.81,1.29,4.78,.12-.03,.28-.07,.47-.13,4.45-1.47,4.81-4.6,1.86-16.67-.94-1.81-1.34-3.91-1.73-5.95-.15-.79-.37-1.91-.6-2.77Z"/>
                <path class="cls-22" d="M1903.1,1944.58c-1.34,0-2.43-.33-3.23-.71-2.43-1.15-4.14-3.54-5.08-7.11-2.03-7.72-.18-14.53,5.07-18.69,3.11-2.46,5.71-2.37,7.34-1.86,3.82,1.19,5.6,5.53,6.72,9.17l.06,.24c2.09,8.93-.11,14.95-6.55,17.92-1.65,.76-3.1,1.04-4.33,1.04Zm2.02-21.35c-.16,.08-.42,.23-.77,.51-3.77,2.98-3.48,7.73-2.57,11.18,.46,1.74,1.01,2.33,1.18,2.42,.07,.04,.53,.07,1.46-.36,1.51-.69,4.31-1.99,2.56-9.59-.87-2.78-1.55-3.81-1.86-4.16Z"/>
              </g>
            </g>
            <g class="cls-21">
              <path class="cls-7" d="M1964.13,1879.09c66.8-1.68,156.94,36.54,177.2,116.16,19.22,75.52-52.67,26.75-93.31-18.41-33.51-37.24-129.76-96.6-83.89-97.75Z"/>
            </g>
            <g class="cls-12">
              <path class="cls-7" d="M1783.86,1873.15c1.36-.72,2.75-1.41,4.15-2.11,1.39-.7,2.8-1.4,4.21-2.06,113.81-54.62,245.4-31.35,333.57,49.32,26.52,24.25,49.1,53.68,66.11,87.76,1.36,2.72,2.68,5.46,3.95,8.21,25.89,55.99,33.1,116.08,24.08,173.07,15.52-63.91,10.31-133.21-19.26-197.15-1.27-2.75-2.6-5.48-3.95-8.21-17-34.08-39.59-63.51-66.11-87.76-88.17-80.67-219.76-103.94-333.57-49.32-1.41,.66-2.82,1.37-4.21,2.06-1.39,.69-2.79,1.39-4.15,2.11-88.1,45.64-144.36,129.04-158.85,220.42,19.89-81.79,73.74-154.75,154.04-196.34Z"/>
            </g>
            <circle class="cls-4" cx="1927.27" cy="2116.42" r="301.13"/>
            <g class="cls-16">
              <path class="cls-29" d="M2059.29,2364.21c-146.07,72.87-323.03,15.96-399.72-126.94-1.43-2.67-2.81-5.37-4.17-8.09-17-34.08-26.93-69.83-30.37-105.59-2.45-25.54-1.59-51.09,2.42-76.02,4.71,29.46,13.92,58.7,27.95,86.82,1.36,2.72,2.74,5.42,4.17,8.09,76.69,142.9,253.65,199.83,399.72,126.94,90.43-45.1,148.22-129.55,162.98-222.26,20.29,126.51-42.27,256.83-162.98,317.05Z"/>
            </g>
            <path class="cls-29" d="M1927.52,2426.55c-31.66,0-63.44-4.89-94.39-14.76-77.17-24.6-140.72-77.39-178.95-148.64-1.47-2.74-2.9-5.53-4.3-8.33-17.12-34.3-27.63-70.88-31.26-108.71-12.16-126.69,52.99-246.37,165.98-304.9,1.36-.72,2.81-1.45,4.27-2.17,1.45-.72,2.92-1.45,4.39-2.15,114.66-55.04,249.45-35.1,343.33,50.8,28.04,25.64,50.94,56.03,68.06,90.34,1.4,2.8,2.76,5.62,4.07,8.45,33.94,73.39,37.9,155.92,11.15,232.36-26.8,76.6-81.57,138.75-154.2,174.99-43.56,21.73-90.71,32.73-138.14,32.73Zm.19-602.67c-42.92,0-86.21,9.52-126.83,29.02-1.41,.66-2.76,1.34-4.09,2-1.34,.67-2.67,1.33-3.97,2.02-106.59,55.22-168.01,168.06-156.55,287.5,3.42,35.66,13.33,70.14,29.47,102.48,1.32,2.64,2.67,5.27,4.06,7.86,75.18,140.1,245.58,194.22,387.94,123.19,142.36-71.03,201.6-239.72,134.87-384.04-1.23-2.67-2.52-5.33-3.84-7.97h0c-16.14-32.36-37.73-61.01-64.15-85.18-55.27-50.57-125.57-76.88-196.92-76.88Z"/>
          </g>
          <g>
            <g class="cls-14">
              <path class="cls-29" d="M2605.37,2226.94c1.92,.22,3.88,.4,5.87,.56-1.98-.15-3.94-.33-5.87-.56Z"/>
            </g>
            <g class="cls-14">
              <path class="cls-29" d="M2625.75,2227.93c-4.94,.07-9.8-.07-14.51-.43,4.7,.36,9.58,.49,14.51,.43Z"/>
            </g>
            <g class="cls-14">
              <path class="cls-29" d="M2625.75,2227.93c3.1-.04,6.23-.16,9.37-.36-3.14,.2-6.26,.32-9.37,.36Z"/>
            </g>
            <path class="cls-8" d="M2616.91,2224.04c-.94,8.66-2.43,17.31-4.42,25.91-4.59,19.75-11.96,39.21-22.31,57.82-59.67,107.39-195.08,146.06-302.47,86.39-85.5-47.51-127.44-143.05-110.86-234.22,4.25-23.33,12.32-46.36,24.47-68.25,5.67-10.2,12.03-19.77,18.98-28.7,16.3-20.99,35.88-38.41,57.6-51.93,4.98-3.12,10.08-6.03,15.27-8.71,27.96-14.51,58.75-22.96,90.23-24.72,.28,0,.56-.04,.84-.04,1.93-.11,3.85-.19,5.8-.23,3.84-.11,7.68-.11,11.53-.02,26.12,.66,52.4,5.95,77.62,16.2,8.33,3.37,16.56,7.3,24.61,11.77,1.73,.98,3.45,1.95,5.15,2.96,1.03,.6,2.04,1.22,3.05,1.85,12.28,7.5,23.57,16.04,33.86,25.42,52.81,48.15,78.7,118.74,71.07,188.5Z"/>
            <path class="cls-30" d="M2616.91,2224.04c-.94,8.66-2.43,17.31-4.42,25.91-4.59,19.75-11.96,39.21-22.31,57.82-59.67,107.39-195.08,146.06-302.47,86.39-85.5-47.51-127.44-143.05-110.86-234.22,4.25-23.33,12.32-46.36,24.47-68.25,5.67-10.2,12.03-19.77,18.98-28.7,16.3-20.99,35.88-38.41,57.6-51.93,4.98-3.12,10.08-6.03,15.27-8.71,27.96-14.51,58.75-22.96,90.23-24.72,.28,0,.56-.04,.84-.04,1.93-.11,3.85-.19,5.8-.23,3.84-.11,7.68-.11,11.53-.02,26.12,.66,52.4,5.95,77.62,16.2,8.33,3.37,16.56,7.3,24.61,11.77,1.73,.98,3.45,1.95,5.15,2.96,1.03,.6,2.04,1.22,3.05,1.85,12.28,7.5,23.57,16.04,33.86,25.42,52.81,48.15,78.7,118.74,71.07,188.5Z"/>
            <g class="cls-12">
              <path class="cls-7" d="M2588.62,2124.16c-11.45-21.05-26.43-40.37-44.65-56.99-10.16-9.27-21.31-17.69-33.44-25.1-.99-.62-1.99-1.24-3.01-1.83-1.68-1-3.37-1.96-5.08-2.92-7.96-4.42-16.08-8.3-24.31-11.62-24.9-10.13-50.85-15.36-76.64-16-3.8-.09-7.6-.09-11.39,.02-1.93,.04-3.82,.12-5.72,.22-.27,.02-.55,.04-.83,.05-31.08,1.74-61.49,10.08-89.1,24.41-5.12,2.65-10.17,5.52-15.08,8.6-21.44,13.35-40.78,30.56-56.88,51.28-6.87,8.82-13.15,18.27-18.75,28.35-.34,.61-.68,1.23-1.01,1.84,3.78-10.7,8.5-21.22,14.19-31.47,5.22-9.38,11.06-18.19,17.45-26.4,15-19.3,33.01-35.32,52.98-47.76,4.58-2.87,9.27-5.55,14.04-8.01,25.72-13.35,54.04-21.12,82.99-22.74,.27,0,.51-.03,.77-.03,1.77-.1,3.54-.17,5.32-.22,3.54-.1,7.07-.1,10.61-.02,24.02,.61,48.2,5.46,71.39,14.9,7.67,3.1,15.23,6.72,22.64,10.83,1.59,.9,3.17,1.79,4.73,2.72,.95,.55,1.88,1.12,2.81,1.7,11.29,6.9,21.68,14.75,31.14,23.38,25.26,23.03,43.81,51.64,54.82,82.81Z"/>
            </g>
            <path class="cls-20" d="M2596.64,2258.27c-4.2,13.41-9.81,26.59-16.92,39.35-56.46,101.61-184.59,138.2-286.2,81.74-49.09-27.28-83.01-71.29-98.58-120.96,19.65,22.29,43.36,41.65,70.82,56.91,112.09,62.29,249.55,35.51,330.87-57.05Z"/>
            <path class="cls-20" d="M2531.06,2224.13c-6.07,27.1,2.24,49.04,18.57,49,16.33-.04,35.97-21.35,42.04-48.45,6.07-27.1-3.72-49.74-20.05-49.69-16.33,.04-34.49,22.05-40.56,49.15Z"/>
            <path class="cls-27" d="M2518.59,2205.91c-11.93,23.97-8.04,66.37,19.91,77.08,1.31,.3,1.02,2.39-.33,2.31-34.69-3.93-43.09-58.17-21.97-81.02,1.08-1.26,3.18,.17,2.39,1.63h0Z"/>
            <ellipse class="cls-20" cx="2294.77" cy="2066.79" rx="22.11" ry="18.86" transform="translate(-127.47 150.98) rotate(-3.67)"/>
            <ellipse class="cls-30" cx="2299.67" cy="2073.12" rx="16.61" ry="13.4" transform="translate(-576.66 927.25) rotate(-20.31)"/>
            <path class="cls-27" d="M2295.46,2087.94c-16.55,3.05-33.34-13.11-25.56-29.83,7.13-15.21,28.57-19.27,41.5-9.34,8.8,5.93,11.63,19.64,4.61,27.77-.84,1.06-2.56-.06-1.97-1.25,8.49-18.06-14.69-30.28-29.22-21.83-17.93,9.96-8.14,30.61,10.52,31.58,1.71,.06,1.79,2.68,.12,2.89h0Z"/>
            <path class="cls-27" d="M2323.68,2053.17c6.8,7.44,7.98,19.36,3.24,28.34-9.43,18.66-35.46,24-52.56,13.16-8.44-5.04-14.57-14.79-13.76-24.7,.05-.64,.62-1.13,1.27-1.07,.55,.05,.99,.47,1.06,1,1.32,8.73,7.28,15.54,14.62,19.18,22.04,12.11,57.27-7.59,43.76-34.24-.88-1.46,1.32-2.97,2.37-1.66h0Z"/>
            <path class="cls-27" d="M2234.99,2117.01c48.2,6.4,50.87,69.94,16.8,96.36-10.45,8.67-24.21,13.49-37.43,12.23-.82-.08-1.42-.81-1.35-1.63,.07-.73,.65-1.28,1.35-1.35,12.34-1.35,23.46-7.23,32-15.42,26.4-24.12,26.22-74.69-12.05-86.57-2.09-.55-1.45-3.86,.68-3.63h0Z"/>
            <ellipse class="cls-20" cx="2220.06" cy="2170.64" rx="36.18" ry="31.79" transform="translate(-304.75 3977.77) rotate(-79.95)"/>
            <path class="cls-30" d="M2219.43,2203.74c11.31,.13,22.81-7.56,28.71-20.5,7.86-17.22,2.82-37.22-11.25-44.68-1.99-1.05-4.05-1.8-6.15-2.25-8.3,3.38-15.74,10.49-20.25,20.35-7.98,17.5-3.9,37.59,8.93,47.07Z"/>
            <path class="cls-27" d="M2189.68,2156.96c14.64-34.82,64.42-30.02,64.61,10.34,.22,33.62-45.29,57.93-64.31,24.55-.63-1.27,1.24-2.33,2.02-1.17,7.64,11.66,23.27,14.56,35.1,8.11,17.2-8.69,25.83-33.3,13.86-49.24-13.1-16.95-38.84-8.83-48.69,8.71-.86,1.54-3.3,.29-2.58-1.31h0Z"/>
            <path class="cls-27" d="M2483.86,2160.69c4.88,26.04-9.51,54.65-33.45,66.69-32.09,17.28-74.48,4.66-94.19-25.21-4.78-7.32-8.41-15.38-10.26-23.81-.29-1.39,1.77-1.99,2.24-.63,5.59,15.72,16.32,29.15,29.91,38,36.07,24.09,88.24,9.95,100.4-33.41,.6-2.89,1.57-6.05,1.9-8.99,.53-4.06,.72-8.19,.56-12.33-.14-1.75,2.63-2.05,2.88-.31h0Z"/>
            <ellipse class="cls-20" cx="2411.98" cy="2162.47" rx="43.42" ry="44.59" transform="translate(-495.62 734.25) rotate(-15.72)"/>
            <path class="cls-30" d="M2373.7,2176.26c4.15,15.24,17.86,27.44,35.78,29.91,23.87,3.28,46.19-11.93,49.86-33.97,.52-3.11,.64-6.2,.38-9.2-7.26-9.72-18.71-16.71-32.39-18.61-24.25-3.33-47.05,10.64-53.64,31.87Z"/>
            <path class="cls-27" d="M2419.02,2117.13c25.5,2.82,46.31,28.95,41.51,54.69-3.67,27.26-34.92,43.38-59.95,34.08-30.13-8.99-46.01-49.72-23.51-73.86,.97-1.06,2.65,.34,1.8,1.48-17.59,23.26-3,57.79,23.96,65.35,26.99,8.92,55.33-12.69,50.8-41.47-2.38-17.68-16.98-33.14-35.13-37.43-1.75-.36-1.24-3.12,.52-2.85h0Z"/>
            <path class="cls-30" d="M2287.81,2288.86c-10.47,5.51-18.64,13.55-23.2,23.81-8.28,18.6-2.41,39.15,12.73,57.24,9.93,11.87,24.03,22.21,41.16,29.15,43.24,17.52,89.4,6.75,103.1-24.04,5.1-11.46,4.99-24.08,.61-36.31-7.39-20.64-27.35-39.08-54.49-50.08"/>
            <path class="cls-27" d="M2265.93,2313.25c-8.07,20.49,2.01,42.33,16.46,57.21,28.74,29.53,78.35,43.6,116.25,24.61,18.99-9.54,29.61-32.12,23.49-52.82-.48-1.37,1.72-2.11,2.2-.77,13.6,37.47-19.51,66.95-55.09,69.26-44.4,3.91-94.59-20.93-108.73-65.15-3.05-11.04-2.47-23.39,2.78-33.51,.83-1.58,3.28-.49,2.64,1.18h0Z"/>
            <ellipse class="cls-20" cx="2343.12" cy="2343.45" rx="46.63" ry="64.17" transform="translate(-521.67 4009.28) rotate(-75.18)"/>
            <ellipse class="cls-30" cx="2346.18" cy="2357.36" rx="34.3" ry="54.39" transform="translate(-387.95 4251.1) rotate(-79.84)"/>
            <path class="cls-27" d="M2384.16,2383.52c35.15-22.6,10.28-62.82-20.34-75.25-25.98-13.18-75.22-11.46-77.87,25.17-.07,22.43,19.89,41.1,39.17,50.57,2.08,.93,.71,4.22-1.4,3.45-38.36-11.26-69.56-59.7-29.51-88.95,41.96-28.21,120.85,5.54,115.65,59.7-1.15,6.65-3.99,12.96-8.2,18.01-2.08,2.99-16.09,15.27-18.4,10.2-.47-1.07-.07-2.3,.9-2.89h0Z"/>
            <path class="cls-30" d="M2480.5,2077.67c7.81-5.14,13.62-12.09,16.42-20.51,5.08-15.26-1.11-30.97-14.4-44.04-8.72-8.57-20.6-15.62-34.61-19.76-35.35-10.46-70.83,1.56-79.24,26.83-3.13,9.4-2.07,19.32,2.31,28.6,7.4,15.66,24.51,28.63,46.7,35.2"/>
            <path class="cls-27" d="M2495.55,2056.71c3.88-14.39-3.01-28.48-12.97-38.64-20.17-20.34-51.93-29.12-79.8-22.69-13.91,3.34-27.33,11.48-33.01,25.18-.25,.59-.93,.87-1.53,.63-.54-.22-.82-.81-.68-1.36,1.91-7.61,6.68-14.43,12.65-19.64,36.6-29.51,104.13-11.17,119.12,33.92,2.18,7.72,2.04,16.24-1.03,23.52-.67,1.62-3.19,.78-2.75-.91h0Z"/>
            <ellipse class="cls-20" cx="2432.81" cy="2038.98" rx="36.85" ry="50.7" transform="translate(29.67 4112.86) rotate(-80.76)"/>
            <ellipse class="cls-30" cx="2429.4" cy="2028.98" rx="27.1" ry="42.98" transform="translate(213.03 4288.72) rotate(-85.42)"/>
            <path class="cls-27" d="M2397.25,2010.31c-26.75,20.44-3.89,51.36,21.65,58.87,22.05,8.69,61.45,2.99,60.51-26.81-1.84-18.06-19.14-31-35.47-36.96-1.38-.43-.72-2.62,.66-2.24,29.88,5.86,58.34,41.36,29.52,66.66-30.56,24.73-93.43,5.07-94.22-37.3,.34-5.19,2-10.28,4.83-14.52,2.81-4.27,6.68-7.65,10.93-10.11,.69-.4,1.58-.16,1.98,.53,.37,.64,.19,1.45-.39,1.89h0Z"/>
            <ellipse class="cls-30" cx="2554.91" cy="2222.47" rx="43.17" ry="22.5" transform="translate(-370.63 3927.81) rotate(-71.26)"/>
            <path class="cls-27" d="M2589.24,2189.33c-17.28-26.26-46.12,3.27-52.48,23.64-8.05,18.11-9.38,58.84,19.31,54.92,16.05-3.96,27.18-19.83,33.67-34.57,.51-1.35,2.65-.58,2.2,.78-3.82,12.76-10.86,25.32-21.75,33.56-11.7,9.81-30.28,10.4-39.22-3.5-18.97-29.06,2.5-85.12,37.86-90.26,4.85-.35,9.93,.75,14,3.39,4.12,2.61,7.08,6.52,8.96,10.68,.33,.73,0,1.59-.72,1.92-.67,.3-1.45,.05-1.83-.56h0Z"/>
            <path class="cls-27" d="M2395.35,2433.17c-38.34,0-77.18-9.44-113-29.35-87.5-48.62-134.26-147.42-116.36-245.85,4.56-25.08,13.2-49.18,25.68-71.64,19.23-34.59,47.03-63.86,80.39-84.64,5.14-3.22,10.54-6.3,16.02-9.15,29.17-15.13,61.92-24.1,94.7-25.94l.97-.06c1.93-.1,3.96-.19,6-.23,3.91-.11,7.98-.11,12.06-.02,28.1,.71,55.52,6.44,81.53,17.02,8.75,3.54,17.45,7.69,25.82,12.35,1.86,1.04,3.66,2.06,5.45,3.13,1.03,.6,2.12,1.27,3.2,1.94,76.64,46.87,119.87,135,110.08,224.51h0c-.99,9.06-2.55,18.21-4.64,27.21-4.91,21.17-12.79,41.59-23.41,60.69-42.62,76.7-122.38,120.03-204.48,120.03Zm.63-444.85c-1.91,0-3.81,.02-5.67,.07-1.85,.05-3.68,.13-5.51,.22l-.93,.05c-29.55,1.66-59.21,9.78-85.63,23.48-4.96,2.57-9.83,5.35-14.49,8.27-30.22,18.82-55.38,45.32-72.79,76.64-11.3,20.34-19.12,42.16-23.25,64.86-16.21,89.11,26.13,178.57,105.36,222.59,101.89,56.6,230.84,19.77,287.45-82.11,9.63-17.31,16.76-35.8,21.2-54.96,1.89-8.15,3.3-16.43,4.2-24.62,8.86-81.04-30.27-160.84-99.71-203.3-.98-.61-1.92-1.19-2.87-1.74-1.69-1.01-3.32-1.93-4.96-2.85-7.54-4.19-15.41-7.95-23.35-11.16-23.55-9.58-48.36-14.76-73.76-15.41-1.77-.04-3.54-.06-5.29-.06Zm220.93,235.72h0Z"/>
          </g>
          <g>
            <path class="cls-7" d="M1009.52,1465.62s-152.74-20.25-198.39,71.02c-45.65,91.27-187.28,673.56,132.35,723.81,319.64,50.24,66.03-794.82,66.03-794.82Z"/>
            <path class="cls-27" d="M969.79,2273.64c-8.96,0-18.3-.76-28.02-2.29-75.48-11.87-131.86-53.04-167.58-122.4-98.58-191.43-7.79-547.57,27.07-617.25,48.61-97.19,203.16-77.89,209.71-77.02,4.31,.57,7.88,3.61,9.13,7.77,7.47,24.88,181.25,611.14,42.08,770.6-23.56,27-54.56,40.6-92.39,40.6Zm4.37-798.82c-45.58,0-124.21,8.89-153.15,66.75-33.83,67.64-122.22,412.72-27.18,597.27,32.31,62.74,83.24,99.99,151.38,110.7,43.35,6.81,76.17-3.33,100.33-31.01,123.41-141.39-24.96-674.76-44.53-742.65-5.96-.49-15.36-1.05-26.85-1.05Z"/>
            <path class="cls-7" d="M902.29,1793.02s-56.56-30.41-150.05-30.59c0,0-43.43,42.15-49.32,82.82-3.74,25.82-2.73,98.44-1.5,148.03,.92,37.07,24.05,70.23,58.86,83.03,37.69,13.86,92.78,21.22,161.7-5.43"/>
            <path class="cls-7" d="M1838.8,1765.45c-28.4,98.32-231.14,54.55-231.14,54.55,42.31,306.8,60.29,605.29-6.98,857.76,6.09,3.58,12.01,7.38,17.62,11.4,43.37,30.87,68.06,72.83,20.36,112.63-48.28,40.24-235.99,26.32-274.42,23.01-4.46-.4-6.89-.62-6.89-.62-36.79,54.11-142.8,59.23-272.39,24.03-129.55-35.25-129.55-98.76-129.81-181.58-.04-18.2,1.28-36.35,3.09-55.39,6.45-67.62,18.95-146.69-3.09-279.94-28.18-170.76-49.87-402.6-54.2-577.86-1.9-76.9,18.77-133.92,42.54-173.72,30.48-50.93,66.03-73.63,66.03-73.63,0,0,315.46-72.88,467.09-15.46,21.11,7.99,43.82,17.71,67.14,28.71,144.04,67.89,312.89,184.45,295.05,246.11Z"/>
            <g class="cls-23">
              <path class="cls-27" d="M1546.75,1582.05s-308.65,200.4-595.75,0c-2.56-1.77-5.08-3.53-7.51-5.3,30.48-50.93,66.03-73.63,66.03-73.63,0,0,315.46-72.88,467.09-15.46,21.11,7.99,43.82,17.71,67.14,28.71l3,65.68Z"/>
            </g>
            <path class="cls-27" d="M1231.98,2878.91c-42.74,0-93.26-7.62-149.9-23.02-137.5-37.39-137.71-108.96-137.95-191.83-.08-26.15,2.59-52.01,5.41-79.39,6.29-61.12,14.13-137.18-5.26-254.52-28.18-170.56-50.04-403.41-54.38-579.41-4.43-179.44,108.85-253.84,113.68-256.92,1.06-.68,2.23-1.17,3.46-1.45,13.01-3.01,320.46-72.97,473.48-15.03,138.33,52.38,393.92,201.58,368.89,288.21-26.38,91.25-179.04,73.51-228.75,65.15,34.1,251.34,62.36,569.47-7.22,838.94,37.9,23.89,59.84,51.56,62.05,78.47,1.75,21.36-8.25,41.27-29.73,59.18-52.43,43.7-240.95,29.34-283.23,25.49-24.35,30.58-69.51,46.13-130.54,46.13Zm-217.96-1365.48c-12.88,9.18-105.88,81.02-102.04,236.77,4.32,175.08,26.05,406.69,54.08,576.35,19.87,120.25,11.87,197.95,5.44,260.38-2.76,26.78-5.36,52.08-5.29,76.71,.25,83.23,.41,137.97,121.66,170.94,128.58,34.97,228.34,27.47,260.35-19.58,2.27-3.34,6.18-5.16,10.22-4.78,62,6.13,231.93,14.49,273.17-19.89,15.64-13.04,23-26.63,21.87-40.41-1.71-20.89-23-44.8-58.4-65.6-4.28-2.51-6.35-7.57-5.08-12.36,72.67-272.79,41.75-599.37,6.7-853.41-.49-3.57,.79-7.15,3.43-9.6,2.64-2.45,6.32-3.45,9.83-2.7,1.93,.41,192.99,40.47,218.22-46.82,16.71-57.8-189.43-198.55-355.49-261.43-140.55-53.22-431.57,9.41-458.68,15.44Z"/>
            <path class="cls-27" d="M1596.56,2685.04c-34.01-14.59-72.38-20.33-109.25-16.07-11.27,1.43-22.46,4.16-33.33,7.48-6.08,2.46-15.53,5.65-21.17,8.95,0,0-10.3,5.32-10.3,5.32,5.79-3.7,13.47-9.65,19.57-12.59,20.42-11.56,43.83-18.76,67.08-21.57,27.72-3.47,56.22-1.7,83.49,4.66,9.19,2.23,22.65,4.15,19.28,17.27-2,6.35-9.39,9.49-15.36,6.56h0Z"/>
            <path class="cls-27" d="M1517.8,2605.2c-96.32,0-176.45-27.98-181.01-29.61l7.4-20.81c1.47,.52,148.86,51.88,279.56,14.52l6.07,21.23c-37.53,10.73-75.91,14.66-112.02,14.66Z"/>
            <path class="cls-7" d="M1191.72,1973.53v113.74c0,30.49,24.72,55.21,55.21,55.21h388.69c30.49,0,55.21-24.72,55.21-55.21v-179.13c0-30.49-24.72-55.21-55.21-55.21h-236.3"/>
            <ellipse class="cls-26" cx="1571.63" cy="1999.24" rx="52.39" ry="59.23"/>
            <g class="cls-23">
              <path class="cls-27" d="M1690.83,1908.15v179.11c0,30.48-24.73,55.21-55.21,55.21h-388.69c-30.48,0-55.21-24.74-55.21-55.21v-8.44c1.81,.18,3.67,.26,5.52,.26h388.69c30.48,0,55.21-24.69,55.21-55.21v-170.67c27.87,2.78,49.69,26.28,49.69,54.95Z"/>
            </g>
            <path class="cls-27" d="M1487.65,2147.99c-6.1,0-11.04-4.94-11.04-11.04v-108.99l-44.98-46.78c-1.98-2.06-3.08-4.8-3.08-7.65v-87.19c0-6.1,4.94-11.04,11.04-11.04s11.04,4.94,11.04,11.04v82.75l44.98,46.78c1.98,2.06,3.08,4.8,3.08,7.65v113.44c0,6.1-4.94,11.04-11.04,11.04Z"/>
            <path class="cls-27" d="M1571.63,2068.54c-34.44,0-62.47-31.09-62.47-69.3s28.02-69.3,62.47-69.3,62.47,31.09,62.47,69.3-28.02,69.3-62.47,69.3Zm0-118.45c-23.33,0-42.32,22.05-42.32,49.15s18.98,49.15,42.32,49.15,42.32-22.05,42.32-49.15-18.98-49.15-42.32-49.15Z"/>
            <path class="cls-7" d="M1105.59,1933.77s-65.5,8.67-192.9-8.18c-14.78-1.95-27.94,9.52-27.94,24.43v72.68c0,11.04,7.31,20.73,17.93,23.72,41.62,11.73,151.69,36.48,287.98,17.56v-101.51"/>
            <path class="cls-27" d="M1090.3,2081.91c-90.19,0-159.68-16.14-190.62-24.85-15.3-4.31-25.98-18.44-25.98-34.36v-72.68c0-10.27,4.43-20.04,12.16-26.82,7.75-6.79,18.06-9.91,28.27-8.56,124.51,16.46,189.36,8.27,190,8.18,6.05-.8,11.59,3.45,12.4,9.5,.8,6.04-3.45,11.59-9.5,12.4-2.73,.36-68.42,8.66-195.8-8.18-3.96-.54-7.81,.63-10.82,3.27-2.99,2.62-4.63,6.24-4.63,10.2v72.68c0,6.07,4.06,11.46,9.89,13.1,39.5,11.13,143.96,34.75,273.94,18.51v-91.82c0-6.1,4.94-11.04,11.04-11.04s11.04,4.94,11.04,11.04v101.51c0,5.51-4.07,10.18-9.53,10.94-35.99,5-70.21,6.99-101.87,6.99Z"/>
            <path class="cls-27" d="M1635.62,2153.51h-388.69c-36.53,0-66.26-29.72-66.26-66.25v-113.73c0-6.1,4.94-11.04,11.04-11.04s11.04,4.94,11.04,11.04v113.73c0,24.35,19.81,44.17,44.17,44.17h388.69c24.35,0,44.17-19.82,44.17-44.17v-179.13c0-24.36-19.81-44.17-44.17-44.17h-236.31c-6.1,0-11.04-4.94-11.04-11.04s4.94-11.04,11.04-11.04h236.31c36.53,0,66.25,29.72,66.25,66.26v179.13c0,36.53-29.72,66.25-66.25,66.25Z"/>
            <path class="cls-27" d="M1302.14,2153.51c-18.87,0-34.23-15.35-34.23-34.23v-96.37c0-6.1,4.94-11.04,11.04-11.04s11.04,4.94,11.04,11.04v96.37c0,6.7,5.45,12.14,12.14,12.14,6.1,0,11.04,4.94,11.04,11.04s-4.94,11.04-11.04,11.04Z"/>
            <path class="cls-27" d="M1651.89,1696.15c-8.47-29.86-19.84-59.4-34.25-87.02,15.7,18.02,29.67,37.56,42.38,57.84,4.27,6.86,8.35,13.62,12.37,20.98l-20.5,8.2h0Z"/>
            <path class="cls-27" d="M1357.35,2832.25c-1.21,0-2.43-.2-3.64-.62-5.76-2.01-8.8-8.31-6.79-14.06,26.7-76.51-39.35-115.63-42.17-117.26-4.56-2.63-6.66-8.12-4.98-13.11,47.43-140.67,48.01-328.99,48.01-330.87,0-5.93,4.69-10.81,10.62-11.03,218.76-8.41,245.29-109.75,245.54-110.77,1.41-5.94,7.38-9.59,13.29-8.2,5.93,1.41,9.6,7.36,8.2,13.29-1.13,4.77-29.93,115.28-255.67,127.26-.73,41.48-6.19,194.35-46.42,319.4,20.12,14.86,71.26,61.72,44.45,138.57-1.59,4.55-5.86,7.41-10.42,7.41Z"/>
            <path class="cls-27" d="M1307.41,2701.39c-28.09-10.34-59.6-15.12-89.55-10.67,30.13-11.99,62.98-14.46,95.22-10.67,16.25,3.03,9.98,26.77-5.67,21.35h0Z"/>
            <path class="cls-27" d="M1205.77,2608.52c-133.55,0-240.2-62.41-246.07-65.91-5.24-3.12-6.95-9.9-3.83-15.14,3.12-5.24,9.89-6.96,15.14-3.84,1.82,1.08,184.12,107.53,364.09,39.93,5.72-2.14,12.08,.75,14.22,6.45,2.14,5.71-.75,12.08-6.45,14.22-46.85,17.6-93.42,24.28-137.1,24.28Z"/>
            <g class="cls-23">
              <path class="cls-27" d="M1615.21,2215.31l-14.53,55.26c-63.65,154.59-244.43,153.8-244.43,153.8-5.52,88.65-39.18,263.56-39.18,263.56,67.53,51.59,42.4,126.68,42.4,126.68l4.77,10.2c-4.46-.4-6.89-.62-6.89-.62-36.79,54.11-142.8,59.23-272.39,24.03-129.55-35.25-129.55-98.76-129.81-181.58-.04-18.2,1.28-36.35,3.09-55.39,2.52,6.76,4.9,13.96,7.11,21.51,90.94,310.29,274.91,53.58,274.91,53.58,0,0,37.59-178.35,23.81-281.4-13.82-103.09,46.16-99.03,46.16-99.03,153.88-8.83,177.43-112.63,177.43-112.63,0,0-145.76,3.31-208.7,0-62.94-3.31-56.09-56.32-56.09-56.32l385.46,8.48,6.89,69.88Z"/>
            </g>
            <g class="cls-23">
              <path class="cls-27" d="M1638.67,2801.78c-48.28,40.24-235.99,26.32-274.42,23.01-4.46-.4-6.89-.62-6.89-.62,0,0,31.62-75.48-41.25-129.59l17.71-100.53,17.67-108.17,27.96,208.7s-14.22,75.75,84.19,76.37c98.36,.57,148.45-32.38,104.28-96.16,0,0,23.45,.84,50.4,14.35,43.37,30.87,68.06,72.83,20.36,112.63Z"/>
            </g>
            <path class="cls-27" d="M831.38,2099.75c-30.51,0-55.83-6.06-74.91-13.08-39.1-14.37-65.04-50.92-66.09-93.11-1.34-54.03-2.16-123.89,1.61-149.89,6.35-43.89,50.68-87.33,52.56-89.16,2.07-2,4.93-3.12,7.71-3.12,95.16,.19,152.85,30.61,155.26,31.91,5.37,2.89,7.38,9.59,4.5,14.96-2.88,5.37-9.57,7.38-14.94,4.5-.74-.39-53.88-28.11-140.22-29.25-9.6,10.12-38.6,42.87-43.01,73.32-2.76,19.09-3.26,71-1.38,146.18,.81,32.57,21.56,61.88,51.63,72.94,32.75,12.03,86.03,20.88,153.9-5.36,5.69-2.22,12.08,.63,14.28,6.32,2.2,5.69-.63,12.08-6.32,14.28-35.25,13.63-67.03,18.57-94.58,18.57Z"/>
            <path class="cls-27" d="M693.23,1839.95c31.35-39.93,90.61-27.64,131.34-11.08-25.81-5.44-53.56-8.68-79.22-1.41-12.63,4.04-26.52,11.22-32.75,23.1-7.29,12.59-26.05,2.36-19.37-10.6h0Z"/>
            <path class="cls-27" d="M813.38,1521.51c31.69,5.45,60.41,20.97,87.44,37.56-14.54-4.85-29.33-9.02-44.33-11.88-12.82-2.41-25.64-4.12-38.59-3.93-1.62,.06-3.71,.11-4.69,.32-6.08,1.31-12.08-2.57-13.38-8.65-1.86-7.95,5.71-15.15,13.55-13.43h0Z"/>
            <g class="cls-23">
              <path class="cls-27" d="M879.22,1468.58s45.27,57.74,10.49,105.22c-34.78,47.48-32.65,202.7-32.65,202.7l37.51,12.88s-.55-141.6,48.92-201.23c49.47-59.63,44-87.95,44-87.95l-53.05-36.49"/>
            </g>
            <g class="cls-23">
              <path class="cls-27" d="M813.3,1762.49s72.55,73.1,11.27,100.66c0,0,36.47,194.45-110.13,175.05,0,0,61.36,75.2,129.82,88.45s78.37,6.63,78.37,6.63v-74.35l-45.98-24.29,2.94-76.56,16.93-22.82s11.03-39.05,10.05-55.89c-.98-16.84-12.01-89.98-12.01-89.98"/>
            </g>
          </g>
          <g>
            <g>
              <circle class="cls-13" cx="1998.33" cy="2789" r="98.28" transform="translate(-1386.82 2229.91) rotate(-45)"/>
              <g class="cls-6">
                <path class="cls-7" d="M1921.42,2796.75c0,38.52,22.17,71.86,54.5,87.94-43.51-10.11-75.88-49.12-75.88-95.71,0-54.24,43.99-98.23,98.28-98.23,15.72,0,30.61,3.71,43.77,10.29-7.2-1.72-14.66-2.61-22.39-2.61-54.28,0-98.28,44.04-98.28,98.32Z"/>
              </g>
              <g class="cls-14">
                <path class="cls-27" d="M2096.59,2788.97c0,54.28-43.99,98.32-98.28,98.32-37.54,0-70.14-21.07-86.66-51.99,17.67,17.36,41.87,28,68.64,28,54.28,0,98.28-43.99,98.28-98.28,0-16.7-4.15-32.46-11.57-46.24,18.29,17.8,29.59,42.67,29.59,70.18Z"/>
              </g>
              <g class="cls-14">
                <circle class="cls-27" cx="1998.33" cy="2789" r="56.24"/>
              </g>
              <path class="cls-27" d="M1998.33,2898.31c-60.28,0-109.32-49.04-109.32-109.32s49.04-109.32,109.32-109.32,109.32,49.04,109.32,109.32-49.04,109.32-109.32,109.32Zm0-196.55c-48.1,0-87.23,39.13-87.23,87.23s39.13,87.23,87.23,87.23,87.23-39.13,87.23-87.23-39.13-87.23-87.23-87.23Z"/>
              <circle class="cls-27" cx="1998.33" cy="2789" r="32.21"/>
              <path class="cls-31" d="M2078.57,2694.59c-33.13,93.86-122.69,109.44-160.48,0h160.48Z"/>
              <g class="cls-23">
                <path class="cls-27" d="M2078.57,2694.59c-3.84,10.91-8.44,20.76-13.65,29.46h-133.83c-4.81-8.57-9.14-18.37-12.99-29.46h160.47Z"/>
              </g>
              <path class="cls-27" d="M1996.51,2781.98h-.24c-37.97-.13-70.27-30.67-88.61-83.79-1.17-3.37-.63-7.1,1.44-10.01,2.07-2.91,5.42-4.63,8.99-4.63h160.48c3.58,0,6.95,1.74,9.01,4.66,2.07,2.93,2.59,6.67,1.4,10.05-18.24,51.67-53.65,83.72-92.48,83.72Zm-62.26-76.35c15.23,34.62,37.38,54.18,62.1,54.26h.16c25.23,0,49.97-20.83,65.65-54.26h-127.9Z"/>
            </g>
            <g>
              <circle class="cls-13" cx="1736.47" cy="2789" r="98.28" transform="translate(-1463.52 2044.75) rotate(-45)"/>
              <g class="cls-6">
                <path class="cls-7" d="M1659.56,2796.75c0,38.52,22.17,71.86,54.51,87.94-43.51-10.11-75.88-49.12-75.88-95.71,0-54.24,43.99-98.23,98.28-98.23,15.72,0,30.61,3.71,43.77,10.29-7.2-1.72-14.66-2.61-22.39-2.61-54.28,0-98.28,44.04-98.28,98.32Z"/>
              </g>
              <g class="cls-14">
                <path class="cls-27" d="M1834.73,2788.97c0,54.28-43.99,98.32-98.28,98.32-37.54,0-70.14-21.07-86.66-51.99,17.67,17.36,41.87,28,68.64,28,54.28,0,98.28-43.99,98.28-98.28,0-16.7-4.15-32.46-11.57-46.24,18.29,17.8,29.59,42.67,29.59,70.18Z"/>
              </g>
              <g class="cls-14">
                <circle class="cls-27" cx="1736.47" cy="2789" r="56.24"/>
              </g>
              <path class="cls-27" d="M1736.47,2898.31c-60.28,0-109.32-49.04-109.32-109.32s49.04-109.32,109.32-109.32,109.32,49.04,109.32,109.32-49.04,109.32-109.32,109.32Zm0-196.55c-48.1,0-87.23,39.13-87.23,87.23s39.13,87.23,87.23,87.23,87.23-39.13,87.23-87.23-39.13-87.23-87.23-87.23Z"/>
              <circle class="cls-27" cx="1736.47" cy="2789" r="32.21"/>
              <path class="cls-31" d="M1816.71,2694.59c-33.13,93.86-122.69,109.44-160.48,0h160.48Z"/>
              <g class="cls-23">
                <path class="cls-27" d="M1816.71,2694.59c-3.84,10.91-8.44,20.76-13.65,29.46h-133.83c-4.81-8.57-9.14-18.37-12.99-29.46h160.47Z"/>
              </g>
              <path class="cls-27" d="M1734.65,2781.98h-.24c-37.97-.13-70.27-30.67-88.61-83.79-1.17-3.37-.63-7.1,1.44-10.01,2.07-2.91,5.42-4.63,8.99-4.63h160.48c3.58,0,6.95,1.74,9.01,4.66,2.07,2.93,2.59,6.67,1.4,10.05-18.23,51.67-53.65,83.72-92.48,83.72Zm-62.26-76.35c15.23,34.62,37.38,54.18,62.1,54.26h.16c25.23,0,49.97-20.83,65.65-54.26h-127.9Z"/>
            </g>
            <g>
              <circle class="cls-13" cx="2128.81" cy="2789" r="98.28" transform="translate(-1348.6 2322.18) rotate(-45)"/>
              <g class="cls-6">
                <path class="cls-7" d="M2051.9,2796.75c0,38.52,22.17,71.86,54.51,87.94-43.51-10.11-75.88-49.12-75.88-95.71,0-54.24,43.99-98.23,98.28-98.23,15.72,0,30.61,3.71,43.77,10.29-7.2-1.72-14.66-2.61-22.39-2.61-54.28,0-98.28,44.04-98.28,98.32Z"/>
              </g>
              <g class="cls-14">
                <path class="cls-27" d="M2227.07,2788.97c0,54.28-43.99,98.32-98.28,98.32-37.54,0-70.14-21.07-86.66-51.99,17.67,17.36,41.87,28,68.64,28,54.28,0,98.28-43.99,98.28-98.28,0-16.7-4.15-32.46-11.57-46.24,18.29,17.8,29.59,42.67,29.59,70.18Z"/>
              </g>
              <g class="cls-14">
                <circle class="cls-27" cx="2128.81" cy="2789" r="56.24"/>
              </g>
              <path class="cls-27" d="M2128.81,2898.31c-60.28,0-109.32-49.04-109.32-109.32s49.04-109.32,109.32-109.32,109.32,49.04,109.32,109.32-49.04,109.32-109.32,109.32Zm0-196.55c-48.1,0-87.23,39.13-87.23,87.23s39.13,87.23,87.23,87.23,87.23-39.13,87.23-87.23-39.13-87.23-87.23-87.23Z"/>
              <circle class="cls-27" cx="2128.81" cy="2789" r="32.21"/>
              <path class="cls-31" d="M2209.05,2694.59c-33.13,93.86-122.69,109.44-160.48,0h160.48Z"/>
              <g class="cls-23">
                <path class="cls-27" d="M2209.05,2694.59c-3.84,10.91-8.44,20.76-13.65,29.46h-133.83c-4.81-8.57-9.14-18.37-12.99-29.46h160.47Z"/>
              </g>
              <path class="cls-27" d="M2126.99,2781.98h-.24c-37.97-.13-70.27-30.67-88.61-83.79-1.17-3.37-.63-7.1,1.44-10.01,2.07-2.91,5.42-4.63,8.99-4.63h160.48c3.58,0,6.95,1.74,9.01,4.66,2.07,2.93,2.59,6.67,1.4,10.05-18.24,51.67-53.65,83.72-92.48,83.72Zm-62.26-76.35c15.23,34.62,37.38,54.18,62.1,54.26h.16c25.23,0,49.97-20.83,65.65-54.26h-127.9Z"/>
            </g>
            <g>
              <circle class="cls-13" cx="2480.71" cy="2789" r="98.28" transform="translate(-1245.53 2571.01) rotate(-45)"/>
              <g class="cls-6">
                <path class="cls-7" d="M2403.8,2796.75c0,38.52,22.17,71.86,54.51,87.94-43.51-10.11-75.88-49.12-75.88-95.71,0-54.24,43.99-98.23,98.28-98.23,15.72,0,30.61,3.71,43.77,10.29-7.2-1.72-14.66-2.61-22.39-2.61-54.28,0-98.28,44.04-98.28,98.32Z"/>
              </g>
              <g class="cls-14">
                <path class="cls-27" d="M2578.98,2788.97c0,54.28-43.99,98.32-98.28,98.32-37.54,0-70.14-21.07-86.66-51.99,17.67,17.36,41.87,28,68.64,28,54.28,0,98.28-43.99,98.28-98.28,0-16.7-4.15-32.46-11.57-46.24,18.29,17.8,29.59,42.67,29.59,70.18Z"/>
              </g>
              <g class="cls-14">
                <circle class="cls-27" cx="2480.71" cy="2789" r="56.24"/>
              </g>
              <path class="cls-27" d="M2480.72,2898.31c-60.28,0-109.32-49.04-109.32-109.32s49.04-109.32,109.32-109.32,109.32,49.04,109.32,109.32-49.04,109.32-109.32,109.32Zm0-196.55c-48.1,0-87.23,39.13-87.23,87.23s39.13,87.23,87.23,87.23,87.23-39.13,87.23-87.23-39.13-87.23-87.23-87.23Z"/>
              <circle class="cls-27" cx="2480.71" cy="2789" r="32.21"/>
              <path class="cls-31" d="M2560.96,2694.59c-33.13,93.86-122.69,109.44-160.48,0h160.48Z"/>
              <g class="cls-23">
                <path class="cls-27" d="M2560.96,2694.59c-3.84,10.91-8.44,20.76-13.65,29.46h-133.83c-4.81-8.57-9.14-18.37-12.99-29.46h160.47Z"/>
              </g>
              <path class="cls-27" d="M2478.89,2781.98h-.24c-37.98-.13-70.27-30.67-88.61-83.79-1.17-3.37-.63-7.1,1.44-10.01,2.07-2.91,5.42-4.63,8.99-4.63h160.48c3.58,0,6.95,1.74,9.01,4.66,2.07,2.93,2.59,6.67,1.4,10.05-18.23,51.67-53.65,83.72-92.48,83.72Zm-62.26-76.35c15.24,34.62,37.39,54.18,62.1,54.26h.16c25.23,0,49.96-20.83,65.65-54.26h-127.9Z"/>
            </g>
            <path class="cls-27" d="M2283.72,2424.05c-.59,0-1.2-.05-1.8-.15-6.02-.99-10.1-6.66-9.11-12.68l51.46-313.79c.99-6.02,6.68-10.1,12.68-9.11,6.02,.99,10.1,6.66,9.11,12.68l-51.46,313.79c-.89,5.41-5.57,9.26-10.88,9.26Z"/>
            <path class="cls-27" d="M1812.3,2424.05c-.18,0-.35,0-.53-.01-6.09-.29-10.8-5.46-10.51-11.55l14.72-311.39c.29-6.09,5.47-10.81,11.55-10.51,6.09,.29,10.8,5.46,10.51,11.55l-14.72,311.39c-.28,5.91-5.16,10.52-11.02,10.52Z"/>
            <path class="cls-27" d="M1956.59,2424.05c-.35,0-.7-.02-1.05-.05-6.07-.57-10.53-5.96-9.95-12.03l29.45-311.39c.57-6.07,5.98-10.53,12.03-9.95,6.07,.57,10.53,5.96,9.95,12.03l-29.45,311.39c-.54,5.72-5.35,10-10.98,10Z"/>
            <path class="cls-27" d="M2114.13,2415.95c-.65,0-1.3-.06-1.96-.18-6-1.08-9.99-6.82-8.92-12.82l54.47-303.29c1.08-6,6.81-10.01,12.82-8.92,6,1.08,9.99,6.82,8.92,12.82l-54.47,303.29c-.96,5.34-5.61,9.09-10.86,9.09Z"/>
            <path class="cls-27" d="M2432.15,2424.05c-.73,0-1.47-.07-2.21-.23-5.98-1.21-9.83-7.04-8.62-13.02l63.31-311.39c1.21-5.98,7.03-9.86,13.02-8.62,5.98,1.21,9.83,7.04,8.62,13.02l-63.31,311.39c-1.06,5.23-5.67,8.85-10.81,8.85Z"/>
            <path class="cls-27" d="M2566.13,2424.05c-.76,0-1.53-.08-2.31-.25-5.97-1.27-9.77-7.13-8.5-13.1l66.25-311.39c1.27-5.96,7.12-9.78,13.1-8.5,5.97,1.27,9.77,7.13,8.5,13.1l-66.25,311.39c-1.11,5.19-5.69,8.75-10.79,8.75Z"/>
            <path class="cls-31" d="M1979.26,2632.75l-5.57,61.84c-3.49,0-6.98-.57-10.29-1.77-55.52-19.57-76.9-56.27-84.98-83.61-7.55-25.35-7.33-54.42,.09-85.03,3.89-16.12,9.72-32.68,17.49-49.34,9.05-19.39,20.67-38.96,34.67-58.08l35.47,58.08c-10.11,16.65-17.98,33.39-23.32,49.34-8.52,25.53-10.6,49.12-5.12,67.4,5.52,18.73,19.17,32.24,41.56,41.17Z"/>
            <path class="cls-27" d="M1973.7,2705.63c-4.85,0-9.57-.81-14.03-2.42-59.93-21.12-83.02-61.08-91.83-90.88-17.03-57.14,3.12-132.7,53.93-202.09,2.18-2.97,5.7-4.62,9.37-4.51,3.68,.15,7.04,2.13,8.96,5.28l35.47,58.08c2.15,3.52,2.16,7.96,.01,11.49-24.98,41.1-35.18,81.42-27.3,107.85,4.58,15.54,15.72,26.35,35.07,34.07,4.54,1.81,7.35,6.38,6.91,11.25l-5.57,61.83c-.51,5.69-5.28,10.05-11,10.05Zm-43.64-268.69c-39.74,59.81-55.06,122.11-41.05,169.11,7.2,24.35,26.03,56.87,74.81,75.17l3.74-41.57c-21.07-10.22-34.66-25.31-40.45-44.94-9.37-31.41,.16-74.8,26.15-119.78l-23.2-37.99Z"/>
            <path class="cls-31" d="M1675.11,2282.71c-1.77,44.43-4.42,89.09-8.35,130.3h910.06c17.05,0,30.92,13.82,30.92,30.92,0,8.57-3.49,16.25-9.05,21.86-5.61,5.61-13.34,9.05-21.86,9.05h-937.05c-26.28,43.24-37.32,86.97-28.44,116.74,5.52,18.73,19.17,32.24,41.56,41.17h965.49c17.09,0,30.92,13.82,30.92,30.92s-13.82,30.92-30.92,30.92h-971.06c-3.49,0-6.98-.57-10.29-1.77-55.52-19.57-76.9-56.27-84.98-83.61-16.17-54.24,3.36-125.66,52.25-192.44,15.86-156.8,11.88-378.84,10.91-422.87l-69.7-121.24c-8.52-14.84-3.4-33.74,11.4-42.23,14.8-8.52,33.7-3.4,42.23,11.4l73.59,128.09c2.56,4.42,3.98,9.41,4.11,14.53,.09,2.92,.62,23.41,1.02,55.34h963.37c17.05,0,30.92,13.82,30.92,30.92,0,8.57-3.49,16.25-9.05,21.86-5.61,5.61-13.34,9.05-21.86,9.05h-962.93c.04,39.84-.35,86.75-1.68,135.47-.4,15.06-.93,30.34-1.5,45.63Z"/>
            <g class="cls-6">
              <path class="cls-7" d="M2576.82,2435.27h-910.06c.71-7.33,1.37-14.75,1.94-22.26h908.12c17.05,0,30.92,13.82,30.92,30.92,0,3.93-.75,7.69-2.12,11.13-4.42-11.57-15.68-19.79-28.8-19.79Z"/>
            </g>
            <g class="cls-6">
              <path class="cls-7" d="M2649.3,2663.67c0,3.93-.71,7.69-2.08,11.13-4.46-11.57-15.68-19.79-28.84-19.79h-965.49c-22.39-8.92-36.04-22.44-41.56-41.17-2.96-9.94-3.71-21.42-2.39-33.92,.49,4.11,1.28,7.99,2.39,11.66,5.52,18.73,19.17,32.24,41.56,41.17h965.49c17.09,0,30.92,13.82,30.92,30.92Z"/>
            </g>
            <g class="cls-6">
              <path class="cls-7" d="M2672.13,2070.7c0,3.93-.75,7.69-2.12,11.13-4.42-11.57-15.68-19.79-28.8-19.79h-963.37c-.4-31.93-.93-52.43-1.02-55.34-.13-5.12-1.55-10.11-4.11-14.53l-43.9-76.41c3.18-1.94,6.23-4.11,9.1-6.45l34.81,60.6c2.56,4.42,3.98,9.41,4.11,14.53,.09,2.92,.62,23.41,1.02,55.34h963.37c17.05,0,30.92,13.82,30.92,30.92Z"/>
            </g>
            <path class="cls-27" d="M2618.38,2705.63h-971.06c-4.85,0-9.57-.81-14.03-2.42-59.93-21.12-83.02-61.08-91.83-90.87-16.83-56.47,2.66-130.93,52.15-199.64,15.09-152.45,11.66-366.88,10.62-415.75l-68.29-118.8c-5.6-9.74-7.06-21.07-4.13-31.91,2.93-10.81,9.89-19.84,19.61-25.4,20.02-11.53,45.73-4.6,57.29,15.47l73.59,128.1c3.46,5.97,5.4,12.81,5.57,19.75,.1,3.33,.51,19.69,.87,44.59h952.48c23.14,0,41.96,18.82,41.96,41.96,0,11.15-4.35,21.67-12.26,29.64-7.95,7.96-18.49,12.32-29.7,12.32h-951.89c-.04,43.25-.61,85.15-1.68,124.72-.4,15.09-.93,30.42-1.5,45.75,0,0,0,.02,0,.02-1.74,43.79-4.19,83.69-7.28,118.82h897.96c23.14,0,41.96,18.82,41.96,41.96,0,11.15-4.35,21.67-12.26,29.64-7.95,7.96-18.49,12.32-29.7,12.32h-930.76c-22.68,39.24-31.7,77.25-24.15,102.54,4.43,15.02,14.98,25.63,33.15,33.28h963.32c23.14,0,41.96,18.82,41.96,41.96s-18.82,41.96-41.96,41.96Zm-1046.1-868.28c-3.36,0-6.75,.85-9.86,2.64-4.61,2.64-7.91,6.91-9.29,12.03-1.39,5.13-.69,10.51,1.96,15.13l69.7,121.24c.92,1.6,1.42,3.41,1.47,5.26,.96,43.29,4.92,267.19-10.96,424.23-.2,1.96-.92,3.82-2.08,5.41-46.75,63.85-65.66,132.18-50.58,182.77,7.36,24.88,26.87,58.3,78.07,76.35,2.12,.76,4.33,1.14,6.62,1.14h971.06c10.96,0,19.88-8.92,19.88-19.88s-8.92-19.88-19.88-19.88h-965.49c-1.4,0-2.79-.27-4.09-.78-25.43-10.14-41.6-26.39-48.07-48.3-9.77-32.77,1.01-78.56,29.6-125.6,2-3.29,5.58-5.31,9.44-5.31h937.05c5.31,0,10.3-2.07,14.05-5.82,3.74-3.77,5.82-8.77,5.82-14.06,0-10.96-8.92-19.88-19.88-19.88h-910.06c-3.11,0-6.08-1.31-8.17-3.61-2.09-2.3-3.12-5.38-2.82-8.47,3.58-37.56,6.38-81.19,8.31-129.69,.57-15.23,1.1-30.46,1.5-45.48,1.16-42.73,1.73-88.21,1.67-135.16,0-2.93,1.16-5.74,3.23-7.82,2.07-2.07,4.88-3.24,7.81-3.24h962.93c5.31,0,10.3-2.07,14.06-5.82,3.74-3.77,5.82-8.77,5.82-14.06,0-10.96-8.92-19.88-19.88-19.88h-963.37c-6.04,0-10.97-4.86-11.04-10.9-.38-30.82-.9-51.34-1.01-55.15-.08-3.31-.99-6.51-2.62-9.32l-73.61-128.13c-3.68-6.39-10.39-9.97-17.28-9.97Zm102.82,445.36h0Z"/>
            <path class="cls-27" d="M2323.2,2112.66c-6.1,0-11.04-4.94-11.04-11.04s4.94-11.04,11.04-11.04c5.31,0,10.3-2.07,14.05-5.82,3.74-3.77,5.82-8.77,5.82-14.06,0-10.96-8.92-19.88-19.87-19.88-6.1,0-11.04-4.94-11.04-11.04s4.94-11.04,11.04-11.04c23.14,0,41.96,18.82,41.96,41.96,0,11.15-4.35,21.68-12.26,29.64-7.95,7.95-18.49,12.31-29.7,12.31Z"/>
            <path class="cls-27" d="M2256.93,2485.88c-6.1,0-11.04-4.94-11.04-11.04s4.94-11.04,11.04-11.04,10.86-1.62,14.06-4.82c3.74-3.77,5.82-8.77,5.82-14.06,0-11.32-9.1-20.88-19.88-20.88-6.1,0-11.04-4.94-11.04-11.04s4.94-11.04,11.04-11.04c22.75,0,41.96,19.67,41.96,42.96,0,11.15-4.35,21.67-12.26,29.64-7.41,7.42-17.67,11.32-29.7,11.32Z"/>
            <path class="cls-27" d="M2306.53,2705.63c-6.1,0-11.04-4.94-11.04-11.04s4.94-11.04,11.04-11.04,10.86-1.62,14.06-4.82c3.74-3.77,5.82-8.77,5.82-14.05,0-11.32-9.1-20.88-19.88-20.88-6.1,0-11.04-4.94-11.04-11.04s4.94-11.04,11.04-11.04c22.75,0,41.96,19.67,41.96,42.96,0,11.14-4.35,21.67-12.26,29.64-7.42,7.42-17.68,11.32-29.7,11.32Z"/>
            <path class="cls-31" d="M2619.13,2259.87c0,6.32-2.56,12.01-6.71,16.17-4.11,4.11-9.85,6.67-16.12,6.67h-921.19c.57-15.28,1.1-30.57,1.5-45.63h919.69c12.59,0,22.84,10.2,22.84,22.79Z"/>
            <path class="cls-27" d="M2596.3,2293.75h-921.19c-3,0-5.87-1.22-7.95-3.38-2.08-2.16-3.19-5.08-3.08-8.07,.57-15.24,1.1-30.48,1.5-45.5,.16-5.99,5.05-10.75,11.04-10.75h919.69c18.68,0,33.88,15.18,33.88,33.84,0,9.05-3.53,17.56-9.95,23.97-6.29,6.29-15.02,9.9-23.93,9.9Zm-909.73-22.08h909.73c3.1,0,6.13-1.25,8.32-3.44,2.24-2.24,3.48-5.21,3.48-8.36,0-6.48-5.29-11.75-11.79-11.75h-908.95c-.23,7.81-.5,15.67-.78,23.55Z"/>
            <path class="cls-27" d="M2283.71,2293.75c-6.1,0-11.04-4.94-11.04-11.04s4.94-11.04,11.04-11.04c6.49,0,11.78-5.29,11.78-11.78s-5.28-11.78-11.78-11.78c-6.1,0-11.04-4.94-11.04-11.04s4.94-11.04,11.04-11.04c18.67,0,33.86,15.19,33.86,33.86s-15.19,33.86-33.86,33.86Z"/>
            <g class="cls-23">
              <path class="cls-27" d="M1966.14,2474.84c-10.11,16.65-17.98,33.39-23.32,49.34h-64.31c3.89-16.12,9.72-32.68,17.49-49.34h70.14Z"/>
            </g>
          </g>
          <g>
            <rect class="cls-31" x="1351.83" y="1728.39" width="218.64" height="133.98"/>
            <path class="cls-7" d="M1592.25,1833.6s-24.03-18.6-44.26,4.55c0,0-61.79,10.95-53.71-60.42,0,0-22.61-45.45-75.09-28.36-26.63,8.7-36.84,27.25-37.46,46.69-.88,27.96,22.26,50.84,50.26,50.84h109.41s-7.11,12.5,12.63,40.59c0,0-195.58,177.69-351.28,126.9-155.7-50.79-193.24-169.12-193.24-169.12l114.71-186.04,24.07-39.05s30.87,14.93,70.63,50.75c20.72,18.6,43.86,42.89,66.3,73.67,0,0,164.13-117.05,301.06-67,136.92,50.04,103.89,175.09,5.96,156.01Z"/>
            <g class="cls-23">
              <path class="cls-27" d="M1218.93,1670.92c-30.65-.84-62.37-4.46-94.7-11.7l24.07-39.05s30.87,14.93,70.63,50.75Z"/>
            </g>
            <path class="cls-27" d="M1148.29,1620.17c57.03,26.9,105.56,69.79,145.84,117.9,0,0-15.33-2.48-15.33-2.48,11.34-7.84,22.46-14.56,34.04-21.15,80.5-44.64,177.75-78.2,269.47-49.87,39.11,13.27,79,34.44,98.36,73.1,14.13,27.05,8.96,63.43-13.86,84.38-21.35,21.01-51.22,26.82-79.87,26.02,0,0-38.63,1.1-38.63,1.1l1.62-.17c-5.38,.83-9.5,.88-14.65,.66-41.01-1.85-57.17-36.09-51.98-73.2,0,0,1.09,6.17,1.09,6.17-5.54-9.81-14.84-18.55-25.28-22.78-19.96-8-50.11-.73-61.6,18.68-11.47,19.71-1.35,47.19,20.35,54.73,5.36,2.13,11.24,2.76,16.97,2.6,13.85,0,91.05,0,106.56,0l9.6,16.49c.64-1.23,.35-.72,.43-.87l-.06,.28c-.79,10.72,6.2,20.94,11.96,29.75,3.04,4.57,2.15,10.61-1.87,14.14-21.17,18.63-43.02,35.1-65.87,50.82-79.74,53.19-176.22,102.17-274.94,83.97-13.96-2.76-27.52-7.44-40.77-12.54-26.07-10.08-52.08-21.77-74.63-38.9-44.05-33.43-81.25-80.03-95.73-133.76,36.32,72.04,105.31,121.61,178.29,152.05,101.03,42.32,210.99-12.71,295.32-69.05,22.04-15.13,43.75-31.57,63.49-48.94l-1.61,14.52c-9.84-14.81-21.15-34.15-13.21-52.38,0,0,9.6,16.49,9.6,16.49h-85.25c-14.12-.31-32.92,1.64-46.15-4.05-34.12-12.25-49.92-54.61-31.72-86.21,17.02-29.24,58.48-40.39,89.15-28.28,13.74,5.64,25.03,15.47,33.25,27.59,1.99,3.07,5.26,7.53,4.59,11.72-1.17,10.73-1.15,21.09,2.54,30.77,5.64,15.78,24.73,20.08,39.86,17.62,12.53-.53,45.52-1.01,57.72-1.61,40.97-2.44,75.44-37.05,55.36-78.27-16.4-32.25-51.45-50.08-85.2-61.62-47.51-15.28-99.38-10.32-147.06,3.31-48.85,14.12-95.96,37.17-138.16,65.4-4.83,2.78-10.96,1.31-14.06-3.22-8.43-12.68-17.01-25.35-26.55-37.26-28.58-36.15-62.08-69.24-101.45-93.66h0Z"/>
            <path class="cls-27" d="M1420.56,1856.29c-.57,0-1.14,0-1.71-.02-6.09-.19-10.88-5.28-10.7-11.38,.19-6.1,5.27-10.94,11.38-10.7,20.62,.75,28.73-17.35,29.36-32.95,.64-15.77-6.88-39.65-30.26-40.84-6.09-.31-10.78-5.5-10.47-11.59,.31-6.09,5.49-10.71,11.59-10.47,34.88,1.78,52.42,34.2,51.21,63.8-1.31,32.13-21.94,54.15-50.4,54.15Z"/>
            <path class="cls-27" d="M1291.69,1753.53l-55.8,26.76,42.85-44.65c12.88-11.95,28.33,9.39,12.95,17.89h0Z"/>
            <path class="cls-27" d="M1399.31,1991.19c-1.7,0-3.42-.39-5.03-1.22-134.56-69-113.25-245.05-113.02-246.82,.79-6.05,6.36-10.33,12.38-9.52,6.05,.79,10.31,6.33,9.52,12.37-.27,2.16-19.21,162.57,101.2,224.32,5.43,2.78,7.57,9.44,4.79,14.86-1.95,3.81-5.82,6.01-9.83,6.01Z"/>
            <path class="cls-31" d="M1614.12,1835.54h205.54s-47.11-32.8-30.92-85.07h-114.7c11.64,42.56-20.66,86.61-59.92,85.07Z"/>
            <g class="cls-6">
              <path class="cls-7" d="M1788.75,1750.47c-2.65,8.57-3.62,16.61-3.36,24.03h-109.23c.71-7.86,.09-15.95-2.12-24.03h114.71Z"/>
            </g>
            <g class="cls-23">
              <path class="cls-27" d="M1819.67,1835.54h-202.03c22.39-.66,42.05-15.99,51.94-37.01h121.02c9.67,23.5,29.06,37.01,29.06,37.01Z"/>
            </g>
            <path class="cls-27" d="M1616.13,1846.62c-.82,0-1.63-.02-2.45-.05-6.01-.23-10.72-5.24-10.6-11.25,.12-6.01,5.03-10.82,11.04-10.82h3.75c12.85-.57,25.27-7.35,34.49-18.95,11.78-14.82,15.91-34.32,11.03-52.16-.91-3.32-.22-6.88,1.87-9.61,2.09-2.74,5.33-4.34,8.78-4.34h114.7c3.51,0,6.81,1.67,8.89,4.49,2.08,2.82,2.7,6.47,1.66,9.82-13.54,43.7,25.06,71.59,26.71,72.76,3.93,2.78,5.62,7.79,4.17,12.37-1.46,4.59-5.7,7.71-10.51,7.71h-201.3c-.74,.03-1.48,.04-2.22,.04Zm49-22.12h127.84c-11.69-15.51-21.25-37.34-17.92-62.99h-87.87c1.77,20.43-4.4,41.25-17.53,57.77-1.45,1.82-2.95,3.56-4.52,5.21Z"/>
            <path class="cls-7" d="M1970.55,1829.22c-50.79,49.34-150.88,6.32-150.88,6.32-18.9-15.9-31.89-34.05-33.83-56.76-.79-8.75,.09-18.11,2.91-28.31h-63.34c41.96-75.84,111.17-92,184.05-78.05,20.36,3.93,38.07,14.05,51.9,27.65,35.78,35.11,45.8,93.64,9.19,129.15Z"/>
            <path class="cls-27" d="M1902.53,1864.01c-43.78,0-84.53-17.17-87.24-18.33-1-.43-1.93-1-2.75-1.7-29.07-24.5-41.37-51.59-37.32-82.47h-49.79c-3.91,0-7.53-2.07-9.51-5.43-1.99-3.37-2.04-7.54-.15-10.96,39.63-71.62,107.33-100.49,195.78-83.53,41.3,7.93,76.05,40,88.53,81.71,10.55,35.27,2.39,70.35-21.81,93.86-21.04,20.43-48.95,26.85-75.73,26.85Zm-77.06-38.03c12.08,4.81,95.64,35.9,137.4-4.66,18.46-17.92,24.31-44.06,16.04-71.69-10.14-33.91-38.22-59.95-71.53-66.34-72.03-13.82-126.47,5.06-162.11,56.14h43.47c3.45,0,6.7,1.61,8.79,4.36,2.09,2.75,2.77,6.31,1.85,9.63-7.74,27.89,.31,50.34,26.09,72.56Z"/>
            <g class="cls-23">
              <path class="cls-27" d="M1970.55,1829.22c-50.79,49.34-150.88,6.32-150.88,6.32-18.9-15.9-31.89-34.05-33.83-56.76,4.73-14.58,10.25-24.65,10.25-24.65,41.87,66.43,197.48,72.17,165.28-54.06,35.78,35.11,45.8,93.64,9.19,129.15Z"/>
            </g>
            <g class="cls-23">
              <path class="cls-27" d="M1637.09,1708.51s-17.83,117.04-148.42,60.73v23.79h-27.52s-57.99,36.81-79.42,3.02c0,0-23.64,39.82,5.81,64.85,0,0-186.98,100.85-350.41-116.31,0,0-88.06,41.9-24.23,206.24,21.73,55.96,70.22,98,129.14,109.46,51,9.92,119.49,3.31,203-50.21,0,0,123.87-59.18,128.48-62.18,4.62-3,80.52-60.4,80.52-60.4,0,0-28.3-39.84,19.19-48.12,47.48-8.28,90.72-11.06,96.95-42.05,6.23-30.99,16.97-84.93-33.09-88.8Z"/>
            </g>
            <path class="cls-7" d="M1626.79,1696.97s87.79-28.76,109.32,52.4h-60.64c-8.81-20.9-25.79-38.01-48.68-52.4Z"/>
            <path class="cls-27" d="M1736.11,1760.41h-60.64c-4.44,0-8.45-2.66-10.17-6.75-7.51-17.81-22.03-33.29-44.38-47.34-3.63-2.28-5.61-6.45-5.08-10.69,.52-4.25,3.45-7.82,7.52-9.15,1.88-.62,46.44-14.85,83.13,5.07,19.93,10.82,33.49,29.32,40.3,54.98,.88,3.31,.17,6.85-1.92,9.57-2.09,2.72-5.32,4.31-8.75,4.31Zm-53.62-22.08h38.04c-5.65-12.38-13.88-21.56-24.59-27.37-13.65-7.41-29.28-8.54-41.86-7.69,12.47,10.7,21.86,22.31,28.4,35.06Z"/>
          </g>
          <g>
            <path class="cls-7" d="M1917.73,1042.44c0,168.06-71.77,319.34-186.31,424.91-102.91,94.88-240.41,152.82-391.43,152.82-319.08,0-577.73-258.65-577.73-577.73S1020.92,464.75,1340,464.75c167,0,317.44,70.85,422.92,184.14,0,0,.04,0,.04,.04,96.02,103.13,154.77,241.47,154.77,393.5Z"/>
            <g class="cls-23">
              <path class="cls-27" d="M1804.74,1385.64c-21.82,29.5-46.38,56.89-73.32,81.71-102.91,94.88-240.41,152.82-391.43,152.82-319.08,0-577.73-258.65-577.73-577.73,0-178.09,80.61-337.36,207.33-443.32-70.98,95.98-112.94,214.66-112.94,343.15,0,319.08,258.65,577.73,577.73,577.73,140.9,0,270.14-50.48,370.36-134.36Z"/>
            </g>
            <path class="cls-27" d="M1917.73,1042.44c0,168.06-71.77,319.34-186.31,424.91h-.04c-270.23,169.83-721.85,10.82-780.38-296.15v-216.91c110.42-403.66,538.86-439,811.83-305.43,0,0,.04,0,.09,.04,0,0,.04,0,.04,.04,96.02,103.13,154.77,241.47,154.77,393.5Z"/>
            <path class="cls-15" d="M1867.82,1277.69c-32.29,72.26-78.97,136.7-136.39,189.66h-.04c-270.23,169.83-721.85,10.82-780.38-296.15v-216.91c5.83-21.29,12.54-41.56,20.05-60.82,44.26,275.13,282.77,485.24,570.35,485.24,121.11,0,233.57-37.28,326.41-101.01Z"/>
            <path class="cls-27" d="M1473.91,1547.31c-82.2,0-167.59-17.52-248.67-52.82-154.63-67.33-258.28-184.46-284.38-321.36-.12-.64-.18-1.28-.18-1.93v-216.93c0-.92,.12-1.83,.37-2.72,42.79-156.41,137.41-271.62,273.64-333.16,82.75-37.39,179.94-54.24,281.11-48.69,94.8,5.19,188.7,29.35,271.54,69.89,5.12,2.5,7.23,8.68,4.73,13.8-2.5,5.12-8.67,7.24-13.8,4.73-169.56-82.96-379.6-91.18-535.09-20.93-130.06,58.76-220.58,168.86-261.87,318.48v214.56c25.11,129.69,124.25,240.96,272.17,305.37,169.58,73.84,358.27,67.34,492.43-16.97,4.82-3.03,11.19-1.58,14.22,3.24,3.03,4.82,1.58,11.19-3.24,14.22-75.33,47.34-166.98,71.23-262.98,71.23Z"/>
            <path class="cls-27" d="M1406.23,1593.35c-98.08,0-194.31-21.81-277.7-64.88-118.36-61.12-199.21-158.76-233.8-282.37-.23-.81-.36-1.65-.4-2.49l-15.65-355.53c-.06-1.38,.14-2.76,.59-4.07,49.94-145.39,149.93-259.98,281.56-322.68,148.83-70.89,325.76-72.38,511.67-4.34,5.73,2.1,8.67,8.44,6.58,14.17-2.1,5.73-8.46,8.66-14.17,6.58-180.22-65.96-351.24-64.74-494.59,3.54-125.63,59.84-221.27,169.15-269.49,307.94l15.5,352.15c33.09,116.98,109.94,209.44,222.33,267.48,142.1,73.39,323.18,82.66,484.4,24.82,5.73-2.05,12.06,.92,14.12,6.66,2.06,5.74-.92,12.06-6.66,14.12-72.5,26.01-148.94,38.89-224.29,38.89Z"/>
            <path class="cls-27" d="M1340,1631.22c-324.65,0-588.77-264.12-588.77-588.77S1015.35,453.71,1340,453.71c162.84,0,319.89,68.36,430.92,187.57,.04,.04,.09,.09,.13,.14h0c101.71,109.24,157.73,251.66,157.73,401.02,0,163.98-69.2,321.81-189.86,433.03-108.95,100.44-250.62,155.75-398.91,155.75Zm0-1155.42c-312.47,0-566.69,254.2-566.69,566.65s254.22,566.69,566.69,566.69c142.73,0,279.09-53.24,383.94-149.9,116.14-107.05,182.75-258.96,182.75-416.79,0-143.71-53.87-280.73-151.7-385.86-.05-.05-.1-.11-.15-.16-106.87-114.79-258.07-180.62-414.84-180.62Z"/>
            <g>
              <path class="cls-7" d="M979.11,1070.77c0,110.99-67.99,200.97-151.85,200.97s-135.38-89.98-135.38-200.97,51.52-200.97,135.38-200.97,151.85,89.98,151.85,200.97Z"/>
              <g class="cls-23">
                <path class="cls-27" d="M979.09,1070.75c0,111-67.98,200.97-151.85,200.97s-135.38-89.97-135.38-200.97c0-5.17,.13-10.29,.35-15.37,21.25,60.64,63.07,101.5,119.57,101.5,77.83,0,142-77.47,150.79-177.38,10.56,27.39,16.52,58.39,16.52,91.25Z"/>
              </g>
              <path class="cls-27" d="M827.26,1282.78c-86.21,0-146.43-87.18-146.43-212.01s60.21-212.01,146.43-212.01,162.89,95.11,162.89,212.01-73.08,212.01-162.89,212.01Zm0-401.94c-73.21,0-124.34,78.1-124.34,189.93s51.13,189.93,124.34,189.93c77.64,0,140.81-85.2,140.81-189.93s-63.17-189.93-140.81-189.93Z"/>
              <path class="cls-27" d="M798.62,1246.28c-64.95,0-117.79-79.26-117.79-176.68s52.84-176.67,117.79-176.67,117.78,79.25,117.78,176.67-52.84,176.68-117.78,176.68Zm0-331.27c-52.77,0-95.7,69.35-95.7,154.59s42.93,154.59,95.7,154.59,95.7-69.35,95.7-154.59-42.93-154.59-95.7-154.59Z"/>
            </g>
            <g class="cls-11">
              <path class="cls-7" d="M1432.21,700.55c213.87,59.84,348.28,195.49,377.88,431.12,1.64,13.09,20.24,13.98,23.01,1.08,41.76-194.09,8.28-501.12-398.93-455.02-12.73,1.44-14.3,19.38-1.95,22.83Z"/>
            </g>
            <g class="cls-11">
              <circle class="cls-7" cx="1135.01" cy="1068.2" r="61.47" transform="translate(-9.35 10.02) rotate(-.5)"/>
            </g>
            <g class="cls-11">
              <path class="cls-7" d="M1302.88,1244.77c41.09,50.94,63.51,101.02,28.86,128.98-34.65,27.95-86.31,1.46-127.4-49.47-41.09-50.94-56.06-107.03-21.41-134.98,34.65-27.95,78.86,4.54,119.96,55.48Z"/>
            </g>
          </g>
        </g>
      </g>
      <rect class="cls-3" x="14" y="14" width="2786" height="2786" rx="1393" ry="1393"/>
    </g>
  </g>
</svg>