<?xml version="1.0" encoding="UTF-8"?>
<svg id="Layer_2" data-name="Layer 2" xmlns="http://www.w3.org/2000/svg" xmlns:xlink="http://www.w3.org/1999/xlink" viewBox="0 0 2357 2357">
  <defs>
    <style>
      .cls-1 {
        opacity: .35;
      }

      .cls-2 {
        fill: #fff;
      }

      .cls-3 {
        fill: #22132c;
      }

      .cls-4 {
        opacity: .5;
      }

      .cls-5 {
        opacity: .2;
      }

      .cls-6 {
        clip-path: url(#clippath-1);
      }

      .cls-7 {
        fill: #ffd666;
      }

      .cls-8 {
        fill: #f28f19;
      }

      .cls-9 {
        opacity: .41;
      }

      .cls-10 {
        fill: #52246d;
      }

      .cls-11 {
        fill: none;
        stroke: #371b45;
        stroke-miterlimit: 10;
        stroke-width: 23px;
      }

      .cls-12 {
        fill: #ffec8f;
      }

      .cls-13 {
        opacity: .7;
      }

      .cls-14 {
        clip-path: url(#clippath);
      }

      .cls-15 {
        fill: #ffd2ea;
      }

      .cls-16 {
        fill: #1d1d1d;
      }

      .cls-17 {
        fill: #371b45;
      }

      .cls-18 {
        fill: #3ba1da;
      }

      .cls-19 {
        fill: #f8af14;
      }

      .cls-20 {
        fill: #ffd243;
      }

      .cls-21 {
        fill: #f6a73d;
      }

      .cls-22 {
        fill: #d56b12;
      }

      .cls-23 {
        fill: #ff0068;
      }

      .cls-24 {
        fill: #fdce6f;
      }

      .cls-25 {
        opacity: .25;
      }

      .cls-26 {
        fill: #674493;
      }

      .cls-27 {
        fill: #ef9426;
      }
    </style>
    <clipPath id="clippath">
      <circle class="cls-11" cx="1178.5" cy="1178.5" r="1167"/>
    </clipPath>
    <clipPath id="clippath-1">
      <path class="cls-10" d="M2555.97,1398.21c-.5,1.71-1.08,3.46-1.74,5.14-29.68,75.79-157.81,64.66-157.81,64.66-22.53,486.37-431.5,692.47-504.95,725.62-7.28,3.3-11.26,4.88-11.26,4.88,46.85,22.79,52.49,79.74,24.94,117.73-16.71,23.11-45.73,39.19-85.24,36.27-104.47-7.72-125.29-88.03-125.29-88.03-704.35,80.41-1182.78-402.39-1182.78-402.39-88.14,48.07-182.7-26.43-160.76-92.2,.29-.84,.57-1.68,.89-2.52,25.27-66.36,128.89-39.57,128.89-39.57,74.12-454.69,683.97-641.22,683.97-641.22,0,0-11.09-79.29,35.7-98.57,90.87-37.37,91.95,92.25,91.95,92.25,552.42,71.05,1089.28,261.55,1089.28,261.55,86.67-99.49,193.22-10.31,174.23,56.4"/>
    </clipPath>
  </defs>
  <g id="Layer_1-2" data-name="Layer 1">
    <g>
      <g class="cls-14">
        <circle class="cls-15" cx="1178" cy="1178" r="931"/>
        <g>
          <g>
            <path class="cls-2" d="M1039.4,530.2c17.17-28.09,25.63-61.81,22.01-97.09-8.79-85.62-85.33-147.91-170.96-139.12-85.62,8.79-147.91,85.33-139.12,170.96,8.79,85.62,85.33,147.91,170.96,139.12,23.82-2.45,45.82-10.15,65-21.81l72.12,16.17-20.01-68.23Z"/>
            <g class="cls-4">
              <path class="cls-2" d="M893.52,323.81c79.99-8.21,152.02,45.61,168.34,122.53,.02-5.49-.22-11.04-.79-16.63-8.79-85.62-85.33-147.91-170.96-139.12-85.62,8.79-147.91,85.33-139.12,170.96,.58,5.61,1.46,11.12,2.6,16.52,.3-78.66,59.92-146.04,139.93-154.25Z"/>
            </g>
            <path class="cls-17" d="M906.06,617.93c-38.68,0-75.87-13.17-106.28-37.91-34.99-28.47-56.8-68.87-61.4-113.74-4.61-44.87,8.53-88.86,37.01-123.85,28.47-34.99,68.87-56.8,113.74-61.4,92.62-9.5,175.74,58.11,185.25,150.75,3.61,35.12-3.61,69.62-20.88,100.16l18.43,62.82c1.3,4.43,.16,9.21-3,12.58-3.16,3.37-7.86,4.81-12.36,3.8l-67.11-15.05c-20.29,11.49-42.41,18.53-65.83,20.93-5.88,.6-11.74,.9-17.57,.9Zm.42-311.73c-4.86,0-9.76,.25-14.69,.75-37.95,3.9-72.11,22.34-96.19,51.93-24.08,29.59-35.19,66.78-31.3,104.73,3.9,37.95,22.34,72.11,51.93,96.19,29.59,24.08,66.79,35.2,104.73,31.3,21.32-2.19,41.35-8.91,59.55-19.98,2.88-1.76,6.33-2.33,9.62-1.58l50.54,11.34-13.79-47.01c-1.03-3.53-.53-7.33,1.39-10.46,16.41-26.85,23.39-57.62,20.17-88.96-7.54-73.4-69.72-128.24-141.97-128.24Z"/>
            <g class="cls-5">
              <path class="cls-17" d="M1040.27,528.7c-42.69,36.11-101.5,51.92-159.9,37.38-64.77-16.12-112.49-65.44-129.65-125.29-.41,7.94-.23,16,.61,24.16,8.79,85.62,85.33,147.91,170.96,139.12,23.82-2.45,45.82-10.15,65-21.81l72.12,16.18-20.01-68.23c.3-.49,.58-1,.87-1.5Z"/>
            </g>
            <path class="cls-23" d="M956.21,405.27h0c-13.49-13.49-35.36-11.07-48.84,2.42l-2.1,2.1-2.1-2.1c-13.49-13.49-35.36-15.9-48.84-2.42h0c-13.49,13.49-13.49,35.36,0,48.84l2.1,2.1,42.41,42.41c3.56,3.56,9.32,3.56,12.88,0l42.41-42.41,2.1-2.1c13.49-13.49,13.49-35.36,0-48.84Z"/>
          </g>
          <g>
            <g>
              <path class="cls-10" d="M2555.97,1398.21c-.5,1.71-1.08,3.46-1.74,5.14-29.68,75.79-157.81,64.66-157.81,64.66-22.53,486.37-431.5,692.47-504.95,725.62-7.28,3.3-11.26,4.88-11.26,4.88,46.85,22.79,52.49,79.74,24.94,117.73-16.71,23.11-45.73,39.19-85.24,36.27-104.47-7.72-125.29-88.03-125.29-88.03-704.35,80.41-1182.78-402.39-1182.78-402.39-88.14,48.07-182.7-26.43-160.76-92.2,.29-.84,.57-1.68,.89-2.52,25.27-66.36,128.89-39.57,128.89-39.57,74.12-454.69,683.97-641.22,683.97-641.22,0,0-11.09-79.29,35.7-98.57,90.87-37.37,91.95,92.25,91.95,92.25,552.42,71.05,1089.28,261.55,1089.28,261.55,86.67-99.49,193.22-10.31,174.23,56.4"/>
              <g class="cls-6">
                <g>
                  <path class="cls-19" d="M2287.55,1775.21c1.82,8.96,3.06,17.92,3.74,26.82-40.78,19.98-117.68,43.42-207.29,61.62-89.61,18.19-169.57,26.58-214.91,24.08-2.84-8.46-5.19-17.18-7.02-26.15-.08-.42-.17-.83-.25-1.26-.78-3.95-1.45-7.9-2-11.85-1.31-9.23-2-18.43-2.12-27.54,0-.37-.01-.74,0-1.11-.1-13.53,1.06-26.87,3.41-39.9,4.47-24.78,13.21-48.38,25.57-69.83,30.01-52.09,81.39-91.53,144.95-104.43,63.03-12.79,125.23,3.12,173.02,38.77,19.62,14.63,36.81,32.59,50.64,53.25,7.4,11.04,13.83,22.87,19.16,35.37,.44,1,.86,2.01,1.27,3.03,3.44,8.44,6.39,17.18,8.78,26.19,.9,3.34,1.71,6.72,2.45,10.14,.21,.93,.41,1.87,.6,2.81"/>
                  <path class="cls-8" d="M2281.22,1885.71c-2.76,8.45-6.03,16.7-9.8,24.71-5.27,11.26-11.5,22.03-18.6,32.2-30.78,44.13-77.93,76.95-134.82,88.5-57.02,11.57-113.36-.35-158.97-29.11-10.01-6.32-19.51-13.45-28.38-21.32-6.96-6.17-13.52-12.79-19.66-19.83,54.89-1.21,119.68-8.56,188.18-22.47,68.49-13.9,131.04-32.39,182.05-52.68"/>
                  <path class="cls-8" d="M2291.29,1802.02c-40.77,19.98-117.67,43.43-207.29,61.62-89.61,18.19-169.58,26.58-214.92,24.09-2.83-8.46-5.18-17.19-7.01-26.16-.08-.42-.16-.83-.25-1.25-.78-3.97-1.45-7.9-1.99-11.85-1.31-9.23-2-18.43-2.13-27.55,0-.37,0-.74,0-1.1-.1-13.54,1.06-26.88,3.41-39.91,4.48-24.77,13.22-48.37,25.58-69.83,24.28-42.13,62.51-75.97,109.88-94.2-14.5,14.08-26.95,30.11-37,47.55-12.37,21.46-21.11,45.05-25.57,69.84-2.36,13.02-3.52,26.37-3.41,39.89,0,.38,0,.75,0,1.12,0,.49,.03,1.09,.08,1.81,2.32,38.84,37.89,63.15,76.42,68.51,73.45,10.23,248.81-37.69,286.47-49.4,1,6.12-2.73,.75-2.27,6.83"/>
                  <path class="cls-22" d="M2099.17,1938.39c68.49-13.9,131.04-32.39,182.05-52.68-2.76,8.45-6.03,16.7-9.8,24.71-39.55,16.9-100.7,34.95-170.33,49.09-66.7,13.54-127.63,20.73-170.44,21.19-6.96-6.17-13.52-12.79-19.67-19.83,54.89-1.21,119.69-8.56,188.19-22.47"/>
                  <path class="cls-22" d="M2286.96,1772.4c.21,.93,.41,1.86,.6,2.81,1.82,8.96,3.06,17.92,3.74,26.81-40.78,19.98-117.68,43.43-207.29,61.62-89.61,18.19-169.57,26.58-214.91,24.09-2.85-8.46-5.19-17.19-7.02-26.15-.08-.42-.17-.84-.25-1.26,42.42,4.87,123.52-2.39,214.88-20.94,94.96-19.27,174.98-45.45,210.25-66.98"/>
                  <path class="cls-22" d="M1859.12,1786.95l3.99-14.08c28.5,8.08,109.41,1.34,196.77-16.4,104.22-21.15,174.58-48.19,190.22-63.96l10.39,10.3c-20.7,20.87-100.15,48.2-197.7,68-90.83,18.43-172.67,24.92-203.67,16.13"/>
                  <path class="cls-22" d="M1886.12,1717.38l1.12-14.59c33.54,2.59,94.2-3.88,158.3-16.9,67.17-13.63,126.78-31.98,155.57-47.87l7.08,12.81c-29.99,16.56-91.2,35.49-159.73,49.4-65.34,13.26-127.55,19.83-162.34,17.15"/>
                  <path class="cls-22" d="M1856.04,1826.94l3.33-14.25c33.07,7.72,116.75,.43,208.24-18.15,95.97-19.48,179.06-47.04,202.05-67.02l9.59,11.04c-25.1,21.81-108.98,50.07-208.73,70.32-94.83,19.25-179.02,26.33-214.48,18.05"/>
                  <path class="cls-22" d="M1958.48,2005.62l.56-3.61-.94-3.54,.74-.2,.76,.11c29.09,4.47,87.7-.71,149.29-13.21,61.94-12.57,116.37-30.08,142.05-45.69l3.8,6.25c-26.36,16.02-81.68,33.88-144.39,46.6-63.33,12.86-121.52,17.94-151.86,13.28"/>
                  <path class="cls-17" d="M2075.02,2047.78c-65.65,0-129.29-28.26-173.33-78.81l-17.3-19.86,26.33-.58c56.17-1.24,120.49-8.92,186-22.23,65.54-13.3,127.77-31.3,179.94-52.06l24.48-9.74-8.19,25.04c-25.64,78.4-91.74,137.28-172.5,153.67-15.11,3.07-30.33,4.56-45.43,4.56Zm-135.47-75.69c47.71,41.88,112.91,59.76,176,46.94,63.1-12.81,116.16-54.67,143.76-111.86-47.53,17.07-101.45,31.9-157.68,43.31-56.21,11.41-111.64,18.78-162.08,21.6Z"/>
                  <path class="cls-8" d="M1858.66,1838.49l-1.28-2.66c.31-.16,.66-.31,1.01-.46l.27,3.12Z"/>
                  <g class="cls-9">
                    <path class="cls-2" d="M2291.18,1802.76c-4.75,2.33-9.97,4.7-15.66,7.1-.7-6.02-1.67-12.06-2.89-18.1-.2-.94-.4-1.87-.6-2.8-.73-3.42-1.54-6.8-2.44-10.14-2.4-9.01-5.35-17.76-8.78-26.2-.41-1.01-.85-2.02-1.27-3.02-5.32-12.5-11.76-24.33-19.17-35.38-13.83-20.65-31.01-38.62-50.64-53.24-47.79-35.65-109.99-51.57-173.02-38.78-42.08,8.54-78.83,28.72-107.57,56.52,30.42-35.91,72.67-62.24,122.39-72.34,63.02-12.79,125.23,3.13,173.01,38.77,19.62,14.63,36.82,32.59,50.65,53.26,7.39,11.04,13.83,22.86,19.16,35.36,.44,1.01,.86,2.02,1.27,3.03,3.45,8.44,6.39,17.17,8.79,26.18,.89,3.35,1.71,6.73,2.44,10.15,.21,.93,.41,1.86,.59,2.81,1.82,8.96,3.06,17.92,3.74,26.81"/>
                  </g>
                  <path class="cls-17" d="M1886.42,1900.5c-6.42,0-12.43-.15-18-.46l-8.35-.46-2.67-7.92c-3.02-8.97-5.51-18.26-7.41-27.63-.93-4.57-1.73-9.23-2.37-13.85-1.36-9.62-2.11-19.41-2.24-29.09-1.4-109.94,75.9-205.63,183.81-227.53,107.9-21.9,216.4,36.07,257.97,137.85,3.67,8.99,6.79,18.3,9.29,27.68,1.2,4.46,2.28,9.06,3.21,13.66h0c1.9,9.34,3.23,18.87,3.95,28.33l.64,8.34-7.51,3.68c-43.51,21.32-122.12,44.73-210.27,62.63-77.98,15.83-150.78,24.76-200.04,24.76Zm-8.15-24.77c46.84,1.09,123.4-7.96,203.28-24.18,79.88-16.22,153.91-37.73,196.62-56.99-.67-5.66-1.58-11.32-2.71-16.89h0c-.83-4.11-1.8-8.21-2.87-12.21-2.23-8.39-5.02-16.7-8.29-24.72-37.09-90.81-133.91-142.55-230.21-122.99-96.3,19.55-165.29,104.93-164.04,203.03,.11,8.64,.79,17.37,2,25.97,.58,4.14,1.29,8.29,2.12,12.38,1.14,5.59,2.51,11.15,4.09,16.61Z"/>
                  <path class="cls-7" d="M2414.37,1780.85c6.32,31.16-46.99,70.58-133.15,104.86-51.01,20.3-113.56,38.78-182.05,52.69-68.5,13.91-133.3,21.26-188.19,22.46-92.71,2.03-157.16-13.48-163.49-44.65-5.74-28.3,37.68-63.4,110.21-95.29,.12,9.11,.81,18.31,2.12,27.54-20.35,10.11-31.33,19.3-29.88,26.46,1.48,7.29,15.68,11.5,39.14,12.8,45.34,2.5,125.3-5.9,214.91-24.09,89.62-18.19,166.51-41.64,207.29-61.62,21.09-10.34,32.52-19.76,31.04-27.05-1.45-7.15-15.15-11.34-37.82-12.72-2.4-9.01-5.34-17.75-8.78-26.19,79.22,1.08,132.9,16.47,138.64,44.77"/>
                  <path class="cls-21" d="M1859.33,1844.73c.17,1.24,.33,2.49,.51,3.74-20.35,10.1-31.34,19.28-29.89,26.44,1.48,7.31,15.69,11.52,39.14,12.81,30.07,1.66,75.4-1.48,128.67-9.09-1.77,4.09-2.72,8.11-2.79,12-20.5,2.69-40.24,4.69-58.82,5.98-80.78,5.62-120-3.86-122.27-15.05-1.33-6.53,9.97-19.59,45.44-36.84"/>
                  <path class="cls-8" d="M1856.11,1833.16l1.27,2.68c-18.12,8.33-32.46,16.22-43.55,23.51,8.93-8.28,22.99-16.97,42.27-26.19"/>
                  <path class="cls-21" d="M1813.83,1859.35c-9.35,8.61-13.13,16.75-11.54,24.58,1.55,7.63,8.08,13.22,17.98,17.23,25.82,10.49,74.5,10.21,116.7,7.27,19.1-1.33,39.41-3.41,60.5-6.17,2.64,5.57,7.31,10.54,13.86,14.94-31.21,4.26-61.17,7.05-88.91,8.27-98.92,4.34-137.63-12.03-140.75-27.37-1.73-8.51,6.79-22.08,32.17-38.76"/>
                  <path class="cls-21" d="M2094.96,1939.24c-66.94,13.37-130.21,20.44-183.98,21.62-92.7,2.04-157.16-13.48-163.49-44.66-5.74-28.29,37.7-63.38,110.23-95.28,.03,2.71,.13,5.42,.27,8.15l-2.45-5.43c-42.23,19.09-91.36,47.91-85.47,76.81,2.27,11.19,11.95,19.19,25.9,24.86,32.83,13.32,89.18,13.65,126.96,12,33.16-1.45,69.43-5.13,107.11-10.82,16.65,6.19,38.69,10.46,64.92,12.75"/>
                  <path class="cls-24" d="M1997.47,1902.27c-21.09,2.76-41.4,4.85-60.5,6.17-42.2,2.94-90.89,3.22-116.71-7.27-9.89-4.02-16.42-9.6-17.97-17.23-1.59-7.83,2.19-15.98,11.54-24.58,11.09-7.3,25.42-15.18,43.55-23.52l1.28,2.66c.2,2.08,.43,4.16,.67,6.24-35.48,17.25-46.77,30.31-45.44,36.84,2.27,11.18,41.5,20.66,122.27,15.05,18.58-1.29,38.31-3.3,58.82-5.98-.06,1.93,.11,3.83,.49,5.7,.42,2.04,1.08,4.02,2,5.93"/>
                  <path class="cls-12" d="M1857.38,1835.83c-18.12,8.33-32.46,16.22-43.55,23.51,8.93-8.28,22.99-16.97,42.27-26.19l1.28,2.68Z"/>
                  <path class="cls-12" d="M1858.66,1838.49l2.55,5.33c-.63,.3-1.27,.6-1.88,.91-.24-2.09-.47-4.16-.67-6.24"/>
                  <path class="cls-12" d="M2236.87,1847.57c-43.3,14.87-94.52,28.5-148.14,39.38-31.17,6.33-61.97,11.49-91.26,15.31-.92-1.91-1.58-3.89-2-5.93-.38-1.87-.54-3.76-.49-5.7,29.29-3.78,60.15-8.94,91.4-15.28,53.12-10.8,103.83-24.28,146.62-39,76.57-26.33,109-50.36,106.74-61.52-1.36-6.67-17.37-14.45-58.3-16.29l.41-8.9,.13-2.95c21.45,.96,37.83,3.5,49.3,7.64,11.85,4.3,18.47,10.33,20.06,18.12,5.6,27.59-59.17,56.07-114.47,75.1"/>
                  <path class="cls-24" d="M2030.04,1926.49c-37.68,5.69-73.95,9.36-107.11,10.81-37.79,1.66-94.13,1.33-126.96-11.99-13.95-5.66-23.63-13.67-25.9-24.86-5.89-28.9,43.24-57.72,85.48-76.81l2.45,5.43c.1,2.11,.22,4.21,.4,6.3-.35,.15-.7,.3-1.01,.46l-1.28-2.68c-19.28,9.22-33.35,17.91-42.27,26.19-25.38,16.67-33.9,30.24-32.17,38.76,3.12,15.34,41.84,31.71,140.75,27.37,27.75-1.22,57.71-4.01,88.91-8.27,5.12,3.46,11.38,6.56,18.71,9.29"/>
                  <path class="cls-21" d="M1856.11,1833.16l1.27,2.68c-18.12,8.33-32.46,16.22-43.55,23.51,8.93-8.28,22.99-16.97,42.27-26.19"/>
                  <path class="cls-12" d="M1857.99,1829.07l2.43,5.37c-.69,.32-1.37,.63-2.03,.93-.17-2.1-.3-4.19-.4-6.3"/>
                  <path class="cls-12" d="M2261.04,1868.68c-48.51,18.09-106.12,34.14-166.61,46.42-21.72,4.42-43.28,8.22-64.4,11.4-7.32-2.74-13.59-5.84-18.71-9.29,26.25-3.56,53.39-8.17,80.78-13.72,59.87-12.15,116.86-28.02,164.81-45.9,92.79-34.57,122.05-64.76,118.95-80.09-1.74-8.5-14.82-17.66-44.58-23.14-13.1-2.4-29.42-4.09-49.43-4.7-1.1-.02-2.22-.05-3.34-.09l.28-11.84c46.33,1.1,102.8,8.5,108.67,37.4,7.63,37.56-75.92,74.73-126.42,93.55"/>
                  <path class="cls-17" d="M1895.45,1973.37c-61.88,0-150.61-8.26-160.04-54.7-8.85-43.6,58.93-83.36,117.34-109.04l17.07-7.5,.24,18.64c.11,8.64,.78,17.37,2,25.97l1.25,8.82-7.98,3.96c-11.21,5.57-17.14,9.7-20.23,12.34,4,1.26,11.41,2.82,24.69,3.55,45.7,2.52,126.85-6.62,211.77-23.86,84.91-17.24,163.2-40.46,204.32-60.6,11.93-5.85,18.15-10.17,21.33-12.89-3.87-1.22-10.94-2.72-23.43-3.47l-8.89-.54-2.29-8.61c-2.23-8.36-5.01-16.68-8.29-24.7l-7.03-17.25,18.63,.25c63.8,.87,141.71,11.07,150.57,54.66h0c10.26,50.57-83.73,96.12-140.68,118.77-53.49,21.28-117.17,39.72-184.16,53.32-66.96,13.59-132.79,21.45-190.37,22.71-5,.11-10.31,.17-15.81,.17Zm-49.07-133.68c-63.96,30.54-89.89,58.76-86.78,74.07,3.83,18.87,52.03,36.95,151.12,34.77,56.14-1.23,120.46-8.91,186-22.22,65.57-13.31,127.8-31.31,179.94-52.06,92.09-36.64,129.45-72.07,125.62-90.94h0c-3.11-15.31-37.99-31.18-108.8-34.37,.18,.57,.36,1.14,.53,1.71,18.59,1.86,37.34,6.7,40.42,21.89,3.61,17.82-18.25,31.04-37.7,40.58-43.52,21.32-122.13,44.73-210.27,62.63-88.14,17.89-169.65,26.96-218.04,24.31-21.64-1.2-46.93-4.86-50.56-22.66-3.08-15.19,12.3-26.96,28.69-35.93-.06-.59-.12-1.18-.17-1.78Z"/>
                </g>
                <g>
                  <path class="cls-20" d="M1019.73,1576.55c-.97,8.88-2.49,17.75-4.53,26.58-4.7,20.26-12.26,40.22-22.88,59.31-61.2,110.14-200.09,149.81-310.23,88.61-87.7-48.73-130.71-146.72-113.71-240.23,4.36-23.93,12.64-47.55,25.1-70,5.82-10.46,12.34-20.28,19.47-29.44,16.72-21.52,36.8-39.39,59.08-53.26,5.11-3.2,10.34-6.18,15.66-8.93,28.68-14.88,60.26-23.55,92.55-25.35,.29,0,.57-.04,.86-.04,1.98-.11,3.95-.19,5.94-.24,3.94-.11,7.88-.11,11.83-.02,26.79,.68,53.74,6.1,79.61,16.62,8.54,3.46,16.98,7.49,25.25,12.07,1.78,1,3.54,2,5.28,3.04,1.06,.61,2.1,1.25,3.13,1.9,12.59,7.69,24.18,16.45,34.73,26.08,54.16,49.39,80.72,121.78,72.89,193.33"/>
                  <path class="cls-27" d="M998.94,1611.66c-4.31,13.75-10.07,27.27-17.35,40.37-57.91,104.21-189.33,141.75-293.54,83.84-50.35-27.98-85.14-73.12-101.11-124.07,20.15,22.86,44.48,42.72,72.63,58.37,114.97,63.89,255.96,36.42,339.36-58.51"/>
                  <path class="cls-27" d="M931.68,1576.63c-6.23,27.8,2.3,50.3,19.05,50.26,16.75-.04,36.89-21.9,43.12-49.69,6.23-27.8-3.81-51.01-20.56-50.97-16.75,.04-35.38,22.61-41.6,50.41"/>
                  <path class="cls-17" d="M919.12,1558.11c-3.23,7.16-5.13,14.49-5.83,21.96-.7,7.45-.24,15,1.3,22.3,1.55,7.28,4.16,14.38,8.12,20.57,3.92,6.2,9.34,11.4,16.64,13.85h.04c.75,.26,1.16,1.08,.91,1.84-.2,.59-.75,.97-1.35,.98-4.32,.06-8.7-1.29-12.56-3.44-3.89-2.15-7.21-5.17-10.02-8.52-5.6-6.76-9.16-14.88-11.07-23.26-1.91-8.39-2.1-17.18-.35-25.6,1.72-8.4,5.45-16.52,11.26-22.68,.68-.72,1.81-.75,2.53-.07,.57,.54,.71,1.36,.4,2.03l-.02,.03Z"/>
                  <path class="cls-27" d="M688.7,1395.92c-12.51,.51-22.37,9.58-22.03,20.26,.34,10.68,10.77,18.92,23.28,18.4,12.51-.51,22.37-9.58,22.03-20.26s-10.77-18.92-23.28-18.4"/>
                  <path class="cls-20" d="M688.44,1409.32c-8.61,3.77-12.95,12.39-9.69,19.26,3.26,6.87,12.89,9.38,21.5,5.61,8.61-3.77,12.95-12.39,9.69-19.26-3.26-6.87-12.89-9.38-21.5-5.61"/>
                  <path class="cls-17" d="M690.03,1436.88c-4.98,.77-10.31,.02-15.12-2.23-2.38-1.17-4.63-2.7-6.59-4.62-1.93-1.95-3.59-4.25-4.68-6.88-2.27-5.24-2.03-11.51,.34-16.71,2.4-5.22,6.68-9.22,11.52-11.75,2.45-1.23,5.03-2.15,7.69-2.7,2.67-.51,5.37-.68,8.06-.54,2.69,.2,5.36,.74,7.91,1.62,2.55,.89,4.95,2.21,7.14,3.82,4.37,3.2,7.62,8.12,8.55,13.48,.44,2.67,.38,5.41-.32,7.97-.35,1.27-.8,2.51-1.39,3.66-.57,1.16-1.35,2.2-2.08,3.23-.36,.51-1.07,.64-1.59,.28-.46-.32-.61-.93-.37-1.42l.04-.07c1.96-4.09,2.42-8.61,1.08-12.56-1.23-3.94-4.01-7.24-7.53-9.37-6.97-4.42-16.5-4.46-23.65-.65-3.55,1.92-6.59,4.76-8.28,8.21-.85,1.72-1.35,3.56-1.49,5.44-.2,1.89,.09,3.81,.68,5.64,1.22,3.67,3.97,6.99,7.54,9.28,3.56,2.35,7.89,3.66,12.43,4.06h.02c.78,.07,1.36,.76,1.29,1.54-.06,.67-.57,1.18-1.2,1.28"/>
                  <path class="cls-17" d="M718.92,1401.33c3.3,3.69,5.46,8.57,6.06,13.72,.6,5.16-.47,10.54-2.82,15.23-2.31,4.74-5.93,8.7-10.12,11.74-4.2,3.04-9.01,5.17-14.01,6.32-5.01,1.15-10.19,1.35-15.25,.61-5.06-.72-9.97-2.52-14.32-5.21-4.33-2.71-8.11-6.37-10.67-10.78-2.52-4.42-3.82-9.52-3.46-14.44,.05-.63,.6-1.1,1.23-1.06,.54,.04,.96,.45,1.04,.96v.03c.74,4.44,2.52,8.5,5.14,11.86,2.61,3.39,6.09,6,9.84,7.93,7.54,3.88,16.52,4.65,24.71,2.69,4.09-.99,7.99-2.68,11.42-5.02,3.44-2.32,6.43-5.31,8.51-8.85l.77-1.33c.24-.45,.42-.93,.64-1.39,.48-.92,.74-1.9,1.07-2.88,.19-.48,.28-.99,.39-1.49l.33-1.52c.08-1.03,.23-2.06,.25-3.11,.13-4.19-1-8.44-3.07-12.39h0c-.36-.71-.09-1.57,.6-1.93,.59-.31,1.3-.16,1.72,.31"/>
                  <path class="cls-17" d="M627.99,1466.89c1.7,.13,3.4,.41,5.09,.76,1.68,.38,3.35,.86,4.99,1.43,3.25,1.2,6.41,2.76,9.36,4.7,2.92,1.97,5.63,4.29,8.05,6.89,2.4,2.62,4.48,5.53,6.25,8.61,3.56,6.17,5.67,13.11,6.51,20.13,.81,7.04,.33,14.19-1.33,21.03-3.28,13.69-11.09,26.1-21.84,34.94-5.32,4.48-11.53,7.83-18.01,10.13-.8,.31-1.64,.52-2.47,.76-.83,.23-1.65,.48-2.49,.68-1.69,.32-3.35,.77-5.06,.9-3.38,.51-6.83,.45-10.18,.2-.79-.06-1.38-.74-1.32-1.53,.05-.7,.6-1.24,1.27-1.31h.05c12.67-1.38,24.19-7.25,33.01-15.71,4.37-4.27,8.19-9.09,11.19-14.38,2.99-5.3,5.23-10.99,6.59-16.85,2.75-11.71,1.79-24.28-3.35-35.04-1.28-2.69-2.86-5.23-4.67-7.6-1.79-2.38-3.86-4.58-6.17-6.52-4.57-3.95-10.09-6.9-16.11-8.74-.94-.28-1.47-1.28-1.18-2.22,.25-.81,1.02-1.32,1.84-1.26"/>
                  <path class="cls-27" d="M580.78,1515.1c-4.05,20.09,6.95,39.36,24.58,43.05,17.63,3.69,35.2-9.61,39.26-29.7,4.05-20.09-6.95-39.36-24.58-43.05-17.63-3.69-35.2,9.61-39.26,29.7"/>
                  <path class="cls-20" d="M612.05,1555.72c11.6,.14,23.39-7.76,29.45-21.02,8.06-17.67,2.89-38.18-11.53-45.82-2.04-1.08-4.15-1.85-6.31-2.31-8.51,3.47-16.15,10.76-20.77,20.88-8.18,17.94-4,38.56,9.16,48.27"/>
                  <path class="cls-17" d="M581.28,1507.62c2.84-7.14,7.89-13.55,14.45-18.12,3.3-2.25,6.98-4.04,10.91-5.19,3.94-1.12,8.14-1.56,12.33-1.2,4.16,.31,8.4,1.52,12.11,3.61,3.76,2,7.13,4.81,9.82,8.13,5.33,6.73,7.8,15.26,7.67,23.52-.11,4.14-.79,8.24-2.01,12.15l-1.04,2.89c-.34,.96-.83,1.86-1.24,2.8l-.65,1.38-.75,1.33-.76,1.32c-.27,.43-.56,.85-.84,1.28-4.47,6.78-10.79,12.41-18.27,15.67-3.72,1.63-7.72,2.72-11.8,3-4.07,.3-8.21-.06-12.09-1.32-3.86-1.26-7.46-3.23-10.45-5.88-3.01-2.62-5.39-5.85-7.03-9.34-.34-.71-.03-1.56,.69-1.9,.63-.3,1.37-.09,1.76,.45v.02c2.08,2.84,4.55,5.29,7.38,7.13,2.82,1.83,5.95,3.15,9.18,3.76,1.61,.3,3.24,.51,4.88,.52,.82,0,1.63,0,2.44-.1l1.22-.11c.4-.05,.81-.14,1.21-.2,3.21-.58,6.35-1.59,9.24-3.13,5.77-3.1,10.68-7.78,14.03-13.4l.63-1.05,.56-1.09,.56-1.09,.48-1.12c.3-.76,.69-1.48,.94-2.25l.77-2.31c.86-3.12,1.39-6.32,1.44-9.52,.03-6.38-1.81-12.71-5.52-17.63-1.87-2.44-4.19-4.48-6.84-6.04-1.3-.83-2.71-1.48-4.16-1.99-.73-.25-1.47-.48-2.22-.67-.76-.21-1.54-.29-2.31-.45-3.1-.49-6.33-.36-9.51,.28-3.19,.61-6.33,1.78-9.26,3.4-5.93,3.17-10.96,8.14-14.8,14.06l-.02,.03c-.53,.82-1.63,1.06-2.45,.53-.72-.47-.99-1.37-.68-2.14"/>
                  <path class="cls-17" d="M883.54,1511.54c1.68,8.8,1.31,18.03-.83,26.91-1.12,4.43-2.69,8.77-4.7,12.91-2.03,4.13-4.53,8.05-7.39,11.69-5.72,7.29-13.08,13.3-21.29,17.64-8.23,4.33-17.32,6.98-26.55,7.81-18.51,1.77-37.26-3.84-52.04-14.54-7.39-5.37-13.72-12.08-18.77-19.55-4.94-7.55-8.55-15.95-10.36-24.65-.16-.77,.33-1.53,1.11-1.69,.7-.15,1.38,.24,1.62,.89v.03c3.06,7.97,7.2,15.4,12.44,21.91,5.27,6.49,11.52,12.08,18.42,16.58,6.98,4.38,14.56,7.74,22.49,9.72,7.93,1.96,16.15,2.63,24.21,1.83,8.05-.79,15.95-3.02,23.16-6.66,7.23-3.6,13.73-8.63,19.11-14.7,2.69-3.04,5.05-6.37,7.09-9.9,2.06-3.52,3.77-7.27,5.09-11.18,2.72-7.8,3.9-16.2,3.7-24.67h0c-.02-.99,.75-1.8,1.73-1.82,.88-.02,1.62,.6,1.78,1.44"/>
                  <path class="cls-27" d="M804.62,1467.96c-24.49,2.43-42.15,24.74-39.43,49.84,2.72,25.09,24.77,43.46,49.27,41.03,24.49-2.43,42.15-24.74,39.43-49.83-2.72-25.09-24.77-43.46-49.27-41.03"/>
                  <path class="cls-20" d="M770.28,1527.54c4.25,15.63,18.31,28.14,36.7,30.68,24.48,3.37,47.38-12.23,51.14-34.84,.54-3.19,.66-6.35,.39-9.44-7.45-9.97-19.19-17.14-33.22-19.08-24.87-3.42-48.26,10.91-55.02,32.69"/>
                  <path class="cls-17" d="M816.81,1466.62c10.19,1.14,20.06,5.8,27.79,12.91,3.85,3.58,7.18,7.76,9.81,12.39,2.61,4.64,4.47,9.74,5.47,15.03,1.06,5.26,1.17,10.83,.18,16.17-.87,5.36-2.65,10.66-5.46,15.38-5.55,9.48-14.62,16.85-25.01,20.28-5.19,1.72-10.63,2.57-16.06,2.54l-4.06-.17-4.01-.55c-2.67-.4-5.27-1.12-7.83-1.96-10.22-3.39-19.28-9.99-25.56-18.59-3.15-4.28-5.7-9.02-7.35-14.06-1.65-5.04-2.51-10.33-2.4-15.6,.14-5.26,1.1-10.48,3.03-15.32,1.9-4.85,4.71-9.29,8.21-13.01,.54-.57,1.44-.6,2.02-.06,.52,.49,.59,1.29,.19,1.86h0c-2.75,3.91-4.82,8.2-6.06,12.69-1.24,4.49-1.74,9.15-1.43,13.74,.29,4.58,1.31,9.09,3.04,13.31,1.76,4.2,4.08,8.15,6.97,11.65,5.77,6.97,13.51,12.29,22.1,14.82,2.14,.63,4.33,1.13,6.53,1.43l3.31,.4,3.32,.07c4.42-.08,8.81-.77,12.97-2.19,8.33-2.81,15.49-8.6,20.03-16.04,2.33-3.7,3.81-7.88,4.66-12.2,.52-2.15,.71-4.36,.78-6.57,.02-1.1,0-2.21-.05-3.32-.04-1.12-.23-2.22-.35-3.33-.6-4.42-1.96-8.76-3.95-12.83-1.96-4.08-4.57-7.89-7.71-11.25-6.21-6.8-14.54-11.72-23.74-14.15h-.02c-.95-.25-1.51-1.22-1.26-2.17,.23-.86,1.05-1.4,1.91-1.31"/>
                  <path class="cls-20" d="M682.18,1643.02c-10.73,5.65-19.12,13.89-23.8,24.42-8.49,19.07-2.47,40.15,13.05,58.71,10.19,12.17,24.65,22.78,42.22,29.9,44.35,17.97,91.69,6.93,105.75-24.66,5.23-11.75,5.12-24.7,.62-37.24-7.58-21.17-28.05-40.08-55.89-51.36"/>
                  <path class="cls-17" d="M660,1668.16c-.95,2.54-1.65,5.14-2.1,7.78-.48,2.63-.7,5.28-.68,7.93,.04,5.3,1.05,10.55,2.8,15.54,1.71,5.02,4.18,9.78,7.12,14.25,2.91,4.48,6.29,8.73,10,12.59,7.41,7.76,16.15,14.28,25.63,19.41,4.71,2.62,9.65,4.84,14.69,6.8,5.05,1.93,10.24,3.46,15.48,4.72,10.49,2.49,21.35,3.39,32.04,2.62,5.34-.4,10.64-1.24,15.78-2.65,2.56-.71,5.09-1.53,7.57-2.47,2.47-.96,4.88-2.06,7.2-3.3,4.65-2.5,8.92-5.63,12.63-9.32,3.71-3.7,6.72-8.05,8.98-12.82,2.18-4.72,3.5-10.05,4.01-15.36,.49-5.34,.06-10.78-1.41-16.03h0c-.21-.77,.23-1.56,.99-1.77,.7-.2,1.44,.18,1.71,.84,1.09,2.7,1.92,5.51,2.49,8.39,.53,2.89,.8,5.83,.79,8.77,.01,2.95-.28,5.9-.8,8.8-.53,2.92-1.27,5.77-2.33,8.63-2.12,5.58-5.34,10.8-9.31,15.3-3.97,4.53-8.74,8.29-13.85,11.36-10.27,6.17-21.96,9.37-33.64,10.57-5.85,.62-11.75,.65-17.59,.23-5.85-.42-11.65-1.29-17.36-2.56-11.42-2.57-22.38-6.9-32.59-12.58-5.08-2.9-9.96-6.15-14.54-9.82-2.31-1.81-4.5-3.75-6.66-5.74-2.12-2.03-4.18-4.13-6.1-6.35-3.88-4.43-7.35-9.15-10.33-14.26-2.93-5.11-5.35-10.57-6.93-16.31-1.53-5.74-2.24-11.76-1.75-17.71,.26-2.97,.79-5.9,1.6-8.75,.83-2.84,1.93-5.58,3.26-8.18,.45-.87,1.51-1.21,2.38-.77,.81,.41,1.16,1.36,.85,2.19h0Z"/>
                  <path class="cls-27" d="M746.55,1651.69c-35.53-7.44-67.76,7.72-71.97,33.86-4.22,26.14,21.17,53.36,56.7,60.8,35.53,7.44,67.76-7.72,71.97-33.86,4.22-26.14-21.17-53.36-56.7-60.8"/>
                  <path class="cls-20" d="M744.3,1678.04c-30.5-4.05-56.22,8.45-57.46,27.92-1.24,19.46,22.48,38.52,52.97,42.57,30.5,4.05,56.22-8.45,57.46-27.92s-22.48-38.52-52.97-42.57"/>
                  <path class="cls-17" d="M781.28,1740.64c2.53-1.54,4.94-3.27,7.07-5.25,2.17-1.94,4.07-4.12,5.69-6.47,3.23-4.7,5.17-10.16,5.63-15.7,.5-5.55-.45-11.2-2.52-16.46-2.04-5.27-5.01-10.24-8.69-14.65-3.67-4.43-7.93-8.4-12.58-11.86-4.67-3.44-9.73-6.39-15.04-8.79-10.58-4.9-22.16-7.69-33.72-7.94-2.89-.05-5.77,.05-8.63,.31-2.86,.29-5.68,.76-8.45,1.42-5.54,1.31-10.81,3.47-15.5,6.42-4.68,2.96-8.62,6.91-11.33,11.58-2.7,4.68-4.24,10.01-4.28,15.52-.09,5.51,1.25,11.09,3.5,16.35,1.13,2.63,2.5,5.19,4.05,7.65,1.56,2.46,3.35,4.78,5.24,7.04,7.64,9,17.63,16.07,28.55,21.27h0c.71,.34,1.01,1.19,.68,1.9-.32,.66-1.08,.97-1.75,.74-11.8-4.07-22.91-10.72-31.88-19.9-4.47-4.59-8.34-9.86-11.26-15.74-2.95-5.85-4.8-12.43-4.99-19.23-.21-6.78,1.36-13.76,4.7-19.79,3.3-6.06,8.19-11.16,13.8-14.91,5.6-3.79,11.86-6.37,18.25-7.94,3.2-.79,6.44-1.36,9.69-1.73,3.25-.34,6.52-.48,9.77-.46,13.04,.19,25.82,3.5,37.5,8.95,5.84,2.76,11.37,6.18,16.51,10.14,2.56,1.99,5,4.14,7.33,6.42,2.33,2.28,4.45,4.77,6.44,7.36,3.97,5.18,7.22,11.02,9.32,17.32,2.08,6.3,2.86,13.14,1.89,19.81-.5,3.32-1.46,6.57-2.81,9.62-1.33,3.06-3.09,5.92-5.17,8.47-2.1,2.55-4.48,4.82-7.07,6.77-2.6,1.95-5.4,3.54-8.28,4.9-.88,.42-1.94,.04-2.35-.85-.39-.82-.08-1.8,.67-2.26l.03-.02Z"/>
                  <path class="cls-27" d="M869.1,1419.82c8.01-4.74,24.69-13.64,27.56-21.41,5.21-14.08-1.14-28.57-14.78-40.62-8.95-7.91-21.13-14.41-35.5-18.23-36.26-9.64-72.64,1.43-81.27,24.75-3.21,8.67-2.13,17.82,2.37,26.38,7.59,14.45,25.14,26.41,47.9,32.46"/>
                  <path class="cls-17" d="M894.99,1404.83c.84-3.6,1.15-7.25,.87-10.83-.29-3.58-1.09-7.08-2.41-10.41-2.56-6.69-6.91-12.63-11.97-17.86-10.24-10.41-23.56-17.53-37.68-21.57-14.12-3.99-29.26-4.9-43.52-1.55-7.09,1.71-13.96,4.47-19.9,8.66-5.97,4.13-10.89,9.8-13.9,16.64h0c-.32,.73-1.16,1.06-1.88,.74-.64-.28-.97-.98-.81-1.64,.94-3.93,2.6-7.72,4.81-11.17,2.21-3.46,4.99-6.56,8.07-9.28,6.24-5.39,13.71-9.21,21.53-11.59,7.81-2.45,16-3.43,24.12-3.41,8.14,.04,16.25,1.25,24.07,3.41,7.81,2.19,15.39,5.33,22.39,9.53,6.98,4.19,13.45,9.42,18.79,15.63,2.67,3.1,5.16,6.39,7.21,9.99,2.04,3.59,3.75,7.41,4.87,11.44,1.09,4.02,1.66,8.22,1.44,12.39-.2,4.16-1.14,8.25-2.74,11.99-.39,.9-1.43,1.32-2.33,.93-.8-.34-1.22-1.21-1.03-2.03v-.02Z"/>
                  <path class="cls-27" d="M828.54,1424.55c28.52,3.12,52.69-11.28,54-32.16,1.31-20.88-20.75-40.34-49.26-43.46-28.52-3.12-52.69,11.28-54,32.16-1.31,20.88,20.75,40.34,49.26,43.46"/>
                  <path class="cls-20" d="M828.35,1404.37c24.29,.84,43.57-10.97,43.05-26.37-.52-15.4-20.64-28.57-44.93-29.41-24.29-.84-43.57,10.97-43.05,26.37,.52,15.4,20.64,28.57,44.93,29.41"/>
                  <path class="cls-17" d="M794.59,1357.57c-3.67,2.85-6.79,6.28-8.86,10.18-2.09,3.89-3.11,8.23-2.99,12.51,.07,4.28,1.26,8.53,3.28,12.4,1.99,3.88,4.67,7.47,7.87,10.58,6.38,6.25,14.42,10.89,23,13.8,8.59,2.94,17.76,4.26,26.72,3.58,8.92-.67,17.74-3.43,24.48-8.64,3.36-2.59,6.07-5.87,7.8-9.6,1.71-3.74,2.52-7.88,2.18-12.08-.31-4.21-1.73-8.4-3.82-12.31-1.05-1.96-2.29-3.84-3.66-5.64-1.38-1.8-2.94-3.47-4.56-5.11-6.56-6.49-14.84-11.34-23.75-14.71h0c-.74-.28-1.11-1.11-.83-1.84,.26-.67,.96-1.04,1.65-.89,9.67,2.17,19.04,6.49,26.93,13.02,3.94,3.27,7.46,7.15,10.28,11.6,2.85,4.43,4.87,9.56,5.59,15.02,.73,5.45,.04,11.23-2.18,16.37-2.18,5.17-5.72,9.68-9.93,13.16-4.2,3.5-9.02,6.08-14.01,7.86-2.5,.89-5.05,1.61-7.62,2.15-2.58,.52-5.17,.89-7.77,1.12-10.42,.86-20.87-.74-30.59-4.23-9.69-3.53-18.83-9.04-25.95-16.8-3.56-3.85-6.6-8.27-8.76-13.17-2.13-4.9-3.27-10.35-2.97-15.79,.34-5.43,2.12-10.73,5.11-15.12,1.5-2.19,3.25-4.18,5.18-5.91,1.94-1.73,4.05-3.21,6.27-4.46,.85-.48,1.93-.18,2.41,.67,.44,.78,.23,1.74-.45,2.27h-.02Z"/>
                  <path class="cls-20" d="M932,1575.53c-5.45,23.51,.94,42.31,14.28,41.98,13.33-.33,28.56-19.66,34.01-43.17,5.45-23.51-.95-42.31-14.28-41.98-13.33,.33-28.56,19.66-34,43.17"/>
                  <path class="cls-17" d="M991.11,1541.07c-2.3-3.56-5.27-6.56-8.78-8.3-3.5-1.76-7.43-2.26-11.23-1.61-3.82,.6-7.53,2.28-10.89,4.53-3.38,2.25-6.48,5.03-9.22,8.17-5.48,6.29-9.77,13.7-12.79,21.59-3.04,7.88-4.89,16.24-5.11,24.54-.13,4.15,.23,8.27,1.05,12.22,.86,3.93,2.25,7.67,4.29,10.84,2.04,3.16,4.77,5.64,8.03,6.98,3.26,1.35,6.97,1.66,10.73,.86,3.76-.78,7.47-2.52,10.92-4.79,1.72-1.14,3.39-2.41,4.98-3.79,1.59-1.39,3.08-2.9,4.56-4.45,5.83-6.28,10.41-13.83,14.02-21.88h0c.32-.73,1.17-1.05,1.89-.73,.65,.29,.98,1.01,.79,1.68-2.42,8.81-6.45,17.29-12.15,24.76-2.87,3.71-6.18,7.15-10,10.12-3.79,2.99-8.22,5.39-13.18,6.74-4.92,1.34-10.58,1.41-15.68-.56-2.55-.95-4.93-2.34-7.01-4.04-2.09-1.7-3.87-3.69-5.36-5.82-3-4.27-4.81-9.06-5.96-13.84-1.12-4.81-1.52-9.68-1.43-14.48,.18-9.63,2.37-19.02,5.92-27.79,3.6-8.75,8.62-17,15.34-23.87,3.35-3.43,7.12-6.52,11.37-8.98,4.27-2.4,9.05-4.19,14.16-4.59,5.09-.38,10.41,.83,14.65,3.64,2.12,1.4,3.96,3.12,5.5,5.03,1.52,1.93,2.76,4.01,3.71,6.18,.39,.89-.01,1.94-.91,2.34-.81,.36-1.74,.06-2.2-.66h0Z"/>
                  <path class="cls-17" d="M792.49,1787.91c-38.81,0-78.12-9.56-114.38-29.71-88.57-49.22-135.91-149.23-117.78-248.86,4.62-25.38,13.36-49.77,25.99-72.51,19.47-35.02,47.61-64.64,81.38-85.68,5.23-3.27,10.69-6.39,16.22-9.26,29.53-15.32,62.68-24.4,95.86-26.26l1-.05c1.93-.11,3.99-.19,6.06-.24,3.96-.11,8.08-.11,12.22-.01,28.42,.72,56.18,6.51,82.5,17.21,8.91,3.61,17.71,7.82,26.14,12.5,1.87,1.05,3.7,2.08,5.51,3.16,1.05,.62,2.15,1.29,3.24,1.96,77.59,47.45,121.35,136.67,111.44,227.26h0c-1,9.17-2.58,18.43-4.7,27.53-4.96,21.41-12.94,42.08-23.7,61.44-43.15,77.64-123.88,121.49-206.98,121.49Zm.61-456.26c-1.98,0-3.94,.03-5.86,.08-1.93,.05-3.83,.13-5.72,.23l-.97,.05c-30.74,1.73-61.6,10.18-89.09,24.44-5.14,2.66-10.21,5.56-15.08,8.61-31.44,19.58-57.62,47.15-75.74,79.74-11.75,21.17-19.89,43.87-24.19,67.49-16.87,92.72,27.19,185.8,109.62,231.61,106.01,58.9,240.19,20.58,299.1-85.43,10.02-18.02,17.44-37.26,22.06-57.18,1.97-8.48,3.44-17.1,4.37-25.61h0c9.22-84.32-31.5-167.35-103.75-211.54-1.02-.63-2-1.23-2.99-1.82-1.74-1.04-3.43-2-5.14-2.95-7.83-4.35-16.02-8.27-24.32-11.63-24.5-9.96-50.32-15.35-76.74-16.02-1.85-.04-3.7-.07-5.54-.07Zm226.63,244.91h0Z"/>
                </g>
                <path class="cls-2" d="M633.69,1667.03s-16.54,5.25-38.05,6.14c-.73,28.19-6.21,50.11-6.21,50.11,0,0-5.48-21.92-6.21-50.11-21.5-.89-38.05-6.14-38.05-6.14,0,0,16.54-5.25,38.05-6.14,.73-28.17,6.21-50.09,6.21-50.09,0,0,5.48,21.92,6.21,50.09,21.5,.89,38.05,6.14,38.05,6.14Z"/>
                <path class="cls-20" d="M1398.7,2180.68s-16.54,5.25-38.05,6.14c-.73,28.19-6.21,50.11-6.21,50.11,0,0-5.48-21.92-6.21-50.11-21.5-.89-38.05-6.14-38.05-6.14,0,0,16.54-5.25,38.05-6.14,.73-28.17,6.21-50.09,6.21-50.09,0,0,5.48,21.92,6.21,50.09,21.5,.89,38.05,6.14,38.05,6.14Z"/>
                <path class="cls-20" d="M1634.16,1904.34s-12.3,3.9-28.29,4.57c-.54,20.96-4.61,37.26-4.61,37.26,0,0-4.07-16.3-4.61-37.26-15.99-.66-28.29-4.57-28.29-4.57,0,0,12.3-3.9,28.29-4.57,.54-20.94,4.61-37.24,4.61-37.24,0,0,4.07,16.3,4.61,37.24,15.99,.66,28.29,4.57,28.29,4.57Z"/>
                <path class="cls-2" d="M1709.14,2112.71s-12.3,3.9-28.29,4.57c-.54,20.96-4.61,37.26-4.61,37.26,0,0-4.07-16.3-4.61-37.26-15.99-.66-28.29-4.57-28.29-4.57,0,0,12.3-3.9,28.29-4.57,.54-20.94,4.61-37.24,4.61-37.24,0,0,4.07,16.3,4.61,37.24,15.99,.66,28.29,4.57,28.29,4.57Z"/>
                <path class="cls-2" d="M2332.26,1417.57s-12.3,3.9-28.29,4.57c-.54,20.96-4.61,37.26-4.61,37.26,0,0-4.07-16.3-4.61-37.26-15.99-.66-28.29-4.57-28.29-4.57,0,0,12.3-3.9,28.29-4.57,.54-20.94,4.61-37.24,4.61-37.24,0,0,4.07,16.3,4.61,37.24,15.99,.66,28.29,4.57,28.29,4.57Z"/>
                <path class="cls-20" d="M2019.13,1288.08s-12.3,3.9-28.29,4.57c-.54,20.96-4.61,37.26-4.61,37.26,0,0-4.07-16.3-4.61-37.26-15.99-.66-28.29-4.57-28.29-4.57,0,0,12.3-3.9,28.29-4.57,.54-20.94,4.61-37.24,4.61-37.24,0,0,4.07,16.3,4.61,37.24,15.99,.66,28.29,4.57,28.29,4.57Z"/>
                <path class="cls-2" d="M1183.65,1147.63s-12.3,3.9-28.29,4.57c-.54,20.96-4.61,37.26-4.61,37.26,0,0-4.07-16.3-4.61-37.26-15.99-.66-28.29-4.57-28.29-4.57,0,0,12.3-3.9,28.29-4.57,.54-20.94,4.61-37.24,4.61-37.24,0,0,4.07,16.3,4.61,37.24,15.99,.66,28.29,4.57,28.29,4.57Z"/>
                <path class="cls-20" d="M1310.61,2010.2s-12.3,3.9-28.29,4.57c-.54,20.96-4.61,37.26-4.61,37.26,0,0-4.07-16.3-4.61-37.26-15.99-.66-28.29-4.57-28.29-4.57,0,0,12.3-3.9,28.29-4.57,.54-20.94,4.61-37.24,4.61-37.24,0,0,4.07,16.3,4.61,37.24,15.99,.66,28.29,4.57,28.29,4.57Z"/>
                <path class="cls-2" d="M1949.12,2070.89s-12.3,3.9-28.29,4.57c-.54,20.96-4.61,37.26-4.61,37.26,0,0-4.07-16.3-4.61-37.26-15.99-.66-28.29-4.57-28.29-4.57,0,0,12.3-3.9,28.29-4.57,.54-20.94,4.61-37.24,4.61-37.24,0,0,4.07,16.3,4.61,37.24,15.99,.66,28.29,4.57,28.29,4.57Z"/>
              </g>
            </g>
            <g class="cls-4">
              <path class="cls-17" d="M2555.96,1398.19c-.51,1.72-1.07,3.47-1.72,5.17-29.68,75.77-157.84,64.64-157.84,64.64-22.53,486.36-431.48,692.46-504.94,725.61-18.52-7.3-75.69-9.47-114.39-19.95,0,0,193.61-84.05,363.95-254.61,31.75-31.79,34.98-82.26,7.91-118.11-46.95-62.18-91.15-154.89-91.15-154.89l188.05-97.29,87.92,94.94c6.2-14.19,12.02-28.67,17.39-43.45,21.34-58.68,28.37-105.21,29.32-139.5,.33-12.32,8.52-31.28,7.66-40.45-2.4-25.76-16.62-30.84-16.98-31.64,2.41,1.43,109.88,65.09,184.82,9.53"/>
            </g>
            <g class="cls-4">
              <path class="cls-17" d="M1905.14,2316.22c-16.71,23.12-45.74,39.2-85.24,36.27-104.47-7.72-125.31-88.03-125.31-88.03-704.33,80.41-1182.77-402.37-1182.77-402.37-88.15,48.05-182.71-26.45-160.75-92.21,1.49,17.93,11.78,44.13,57.67,50.48,71.44,9.88,87.79-54.05,87.79-54.05,0,0,126.26,139.49,421.04,272.79,21.07,9.53,43.27,18.49,66.33,26.92l120.83-176.74,149.58,15.85c-1.5,1.44-2.98,2.91-4.44,4.4-80.96,82.97-32.64,223.08,81.74,241.93,208.84,34.42,390.63,42.36,390.63,42.36,0,0,11.19,179.03,182.89,122.4"/>
            </g>
            <g class="cls-13">
              <path class="cls-2" d="M675.04,1515c21.46-79.17,77.74-182.94,227.33-252.45,149.59-69.5,196.02-60.56,165.44-42.62-41.54,24.37-111.56,44.66-258.54,213.26-88.65,101.7-155.7,160.98-134.23,81.81"/>
            </g>
            <path class="cls-17" d="M1829,2365.86c-3.29,0-6.65-.12-10.08-.38-89.94-6.64-122.98-62.8-133.1-86.92-158.79,16.95-318.95,6.74-476.17-30.36-128.41-30.3-255.15-78.51-376.7-143.28-179.38-95.59-295.06-200.07-323.52-227.04-56.92,26.5-110.46,7.19-139.95-18.55-30.78-26.87-42.16-63.89-29.69-96.62,23.33-61.26,99.04-55.62,130.54-50.34,18.98-101.12,65.58-196.91,138.63-284.91,60.66-73.08,139.61-140.97,234.64-201.77,137.71-88.11,270.41-135.89,307.32-148.3-1.38-24.64,.28-83.17,44.65-101.43,26.81-11.04,49.88-10.35,68.56,2.05,31.15,20.67,38.85,68.63,40.75,90.71,506.87,66.64,1003.63,234.02,1073.02,257.96,50.54-52.9,106.53-49.07,142.95-26.99,40.54,24.58,60.11,71.19,45.52,108.42-27.11,69.16-122,74.09-157.64,73.49-7.25,118.99-38.15,230.67-91.91,332.14-44.54,84.07-104.75,161.3-178.98,229.54-96.26,88.51-189.7,138.12-230.95,157.61,24.1,21.82,33.85,55.5,24.5,90.15-10.29,38.17-45.71,74.82-102.4,74.82Zm-134.38-114.41c5.87,0,11.1,3.96,12.61,9.77,.77,2.85,20.3,71.39,113.61,78.28,51,3.71,77.89-27.4,85.4-55.24,6.95-25.78-.16-58.68-31.73-74.04-4.64-2.26-7.5-7.04-7.32-12.19,.19-5.15,3.4-9.71,8.19-11.63,1.21-.49,122.75-49.82,245.53-162.94,112.8-103.94,249.91-284.78,262.48-556.05,.16-3.54,1.77-6.87,4.43-9.2,2.67-2.33,6.16-3.47,9.71-3.18,1.17,.12,118.8,9.34,144.57-56.42,9.86-25.16-5.41-58.82-34.76-76.62-37.3-22.62-80.59-12.01-115.78,28.39-3.52,4.03-9.14,5.51-14.18,3.72-5.36-1.9-541.95-190.87-1086.57-260.92-6.46-.83-11.31-6.3-11.37-12.81-.18-17.06-5.88-64.85-29.75-80.65-11.18-7.4-25.64-7.29-44.2,.35-36.44,14.99-27.86,84-27.77,84.69,.89,6.34-2.97,12.39-9.09,14.27-1.51,.46-153.1,47.5-311.51,148.97-145.1,92.94-325.92,251.98-363.4,481.92-.59,3.62-2.68,6.82-5.74,8.82-3.07,2-6.84,2.62-10.39,1.7-.91-.23-92.63-23.06-113.44,31.57-8.48,22.26,.13,48.2,22.48,67.7,24.67,21.53,70.63,37.32,118.97,10.94,5.09-2.78,11.41-1.85,15.5,2.26,1.19,1.2,121.15,121.01,324.93,229.46,187.66,99.86,486.96,210.29,847.11,169.18,.5-.06,1-.08,1.49-.08Z"/>
            <path class="cls-17" d="M502.96,1767.3c-.44,7.5-.26,15.67,.37,23.45,.65,7.86,1.81,15.63,3.45,23.22,1.57,7.6,3.86,14.96,6.56,22.02,2.62,7.12,6.23,13.64,9.95,19.9l.28,.48c3.69,6.2,1.66,14.22-4.54,17.92-6.21,3.69-14.23,1.66-17.92-4.54-.27-.46-.54-1-.76-1.48-3.64-8.38-6.83-16.86-8.79-25.53-2.06-8.63-3.5-17.3-4.13-25.96-.69-8.65-.82-17.26-.39-25.81,.47-8.62,1.33-16.88,3.03-25.65,.68-3.53,4.1-5.84,7.64-5.16,3.24,.63,5.45,3.56,5.26,6.77l-.02,.37Z"/>
            <path class="cls-17" d="M1682.49,2269.27c-.29-.85-.37-1.25-.51-1.76-.14-.51-.23-.96-.32-1.41-.2-.91-.36-1.8-.49-2.65-.31-1.74-.43-3.43-.61-5.12-.21-3.37-.26-6.7-.01-9.99,.47-6.57,1.72-13.01,3.88-19.05,.46-1.53,1.17-2.98,1.75-4.46,.59-1.48,1.22-2.93,1.99-4.31l2.19-4.17,2.52-3.93c1.59-2.67,3.67-4.95,5.5-7.37,1.95-2.32,4.11-4.44,6.15-6.62,2.44-2.63,6.55-2.78,9.18-.33,2.29,2.13,2.69,5.54,1.13,8.11l-.44,.72c-1.34,2.21-2.79,4.31-4.01,6.52-1.08,2.29-2.42,4.41-3.21,6.76l-1.36,3.42-1.01,3.5c-.38,1.14-.62,2.32-.83,3.5-.2,1.18-.53,2.31-.63,3.5-.69,4.67-.59,9.35-.02,13.84,.28,2.25,.79,4.44,1.35,6.56,.35,1.02,.63,2.08,1.02,3.02,.18,.5,.37,.95,.57,1.37,.09,.22,.19,.44,.28,.58,.08,.15,.21,.41,.16,.21,2.65,6.69-.64,14.26-7.33,16.91-6.69,2.65-14.26-.64-16.91-7.33"/>
            <path class="cls-17" d="M1771.11,2168.09c5.4-1.37,10.06-2.02,15.09-2.58,4.94-.47,9.91-.78,14.86-.73,9.91,.02,19.84,.9,29.64,2.67,2.46,.41,4.87,1.01,7.31,1.52,2.45,.49,4.87,1.08,7.26,1.79l7.21,2.02,7.07,2.45c4.79,1.52,9.29,3.68,13.94,5.56,4.57,2.03,8.99,4.38,13.5,6.59,6.49,3.17,9.18,10.99,6.01,17.48-3.17,6.49-10.99,9.18-17.48,6.01-.43-.21-.85-.44-1.25-.69l-.85-.54c-3.69-2.34-7.3-4.87-11.09-7.1-3.85-2.08-7.59-4.48-11.6-6.26l-5.95-2.88-6.11-2.5c-2.03-.88-4.1-1.64-6.2-2.32-2.09-.69-4.17-1.49-6.29-2.09-8.46-2.57-17.18-4.37-26-5.42-4.41-.57-8.85-.79-13.27-.9-4.33-.05-9.05,.14-12.85,.63l-.53,.07c-3.56,.46-6.83-2.06-7.28-5.62-.42-3.3,1.7-6.34,4.85-7.14"/>
            <path class="cls-2" d="M1454.6,1566.89c-92.9,127.68-310.33,109.79-413.53,168.7-65.56,37.46-103.13,187.37-142.11,242.72-27.01,38.38-126.23,109.37-189.59,112.34-106.43,4.98-162.91-72.33-160.27-125.19,.09-2.35,.33-4.66,.68-6.88,11.16-71.03,116.26-106.23,114.98-131.24,0,0,1.84-73.22,11.19-120.32,30.39-152.94,117.56-207.94,195.44-234.09,41.62-13.98,95.42-20.6,141.96-20.15,32.88,.29,62.15,4.15,80.91,11.46l360.34,102.66Z"/>
            <g class="cls-25">
              <path class="cls-17" d="M1454.6,1566.89c-92.9,127.68-310.33,109.79-413.53,168.7-65.56,37.46-103.13,187.37-142.11,242.72-27.01,38.38-126.23,109.37-189.59,112.34-106.43,4.98-162.91-72.33-160.27-125.19,19.35,17.27,58.14,39.35,127.53,34.9,145.25-9.32,140.27-122.01,152.02-186.18,14.45-78.74,28.85-154.87,97.29-209.33,51.11-40.66,77.08-114.89,87.41-152.08,32.88,.29,62.15,4.15,80.91,11.46l360.34,102.66Z"/>
            </g>
            <path class="cls-17" d="M1091.9,1470.31c-12.67-3.05-26.1-4.36-39.54-4.99-13.46-.68-27.03-.62-40.58-.16-27.12,1.01-54.22,3.5-81,7.34-13.38,1.99-26.64,4.62-39.56,8.09-6.5,1.71-12.78,3.64-19.14,5.88-6.38,2.18-12.65,4.59-18.86,7.11-24.8,10.16-48.07,23.42-68.56,40.14-20.44,16.75-37.97,36.91-52.03,59.43-14.06,22.53-24.95,47.19-32.86,72.94-3.96,12.87-7.44,25.94-10.11,39.23-2.81,13.12-4.67,26.47-6.23,40.08-3.03,27.14-4.74,54.89-5.63,82.24v-.99c.2,4.49-.98,8.37-2.32,11.28-1.36,2.95-2.92,5.22-4.45,7.17-3.08,3.87-6.15,6.76-9.18,9.44-6.07,5.3-12.04,9.65-17.94,13.96-11.79,8.53-23.27,16.61-34,25.3-10.7,8.67-20.65,17.89-28.8,28.05-8.16,10.12-14.33,21.23-17.25,32.91-1.48,5.95-2.01,11.48-1.71,17.53,.31,5.98,1.45,12.1,3.24,18.1,3.57,12.04,9.7,23.61,17.53,33.92,15.69,20.68,38.01,36.39,62.96,44.84,12.44,4.39,25.56,6.93,38.87,8.02l4.99,.4,5.02,.14c3.35,.16,6.71,.09,10.07,0,3.47,0,6.51-.27,9.62-.56l4.73-.65,4.77-.89c12.77-2.62,25.64-7.18,38.2-12.65,12.56-5.49,24.87-11.94,36.85-19,23.91-14.16,46.84-30.66,67.16-49.17,5.04-4.64,9.9-9.43,14.32-14.35,4.51-5.01,8.07-9.68,11.63-15.4,7.06-11.28,13.24-23.9,19.18-36.66,11.84-25.65,22.72-52.3,34.69-78.71,12.03-26.39,24.73-52.85,41.54-77.86,8.46-12.45,18.02-24.58,30.02-35.21,3.04-2.62,6.19-5.17,9.56-7.53,3.31-2.31,7.13-4.66,10.4-6.38,6.75-3.7,13.63-6.96,20.58-9.9,27.85-11.67,56.36-18.83,84.61-25.34,56.49-12.77,112.89-22.24,166.19-39.92,26.56-8.83,52.28-19.7,75.55-34.11,23.25-14.35,43.85-32.44,59.63-54.2,4.23-5.83,12.38-7.12,18.2-2.9,5.83,4.23,7.12,12.37,2.89,18.2l-.02,.03c-17.98,24.8-41.41,45.25-66.98,61.02-25.61,15.85-53.19,27.42-81.06,36.69-55.88,18.51-113.18,28.03-168.62,40.61-27.65,6.35-55.06,13.35-80.23,23.93-6.27,2.66-12.37,5.55-18.21,8.75-3.08,1.64-5.37,3.08-7.96,4.86-2.52,1.76-4.95,3.73-7.35,5.79-9.53,8.42-17.99,18.95-25.62,30.23-15.28,22.69-27.63,48.18-39.37,73.99-11.74,25.9-22.57,52.44-34.79,78.93-6.18,13.24-12.61,26.5-20.77,39.58-3.99,6.49-9.16,13.29-14.29,18.92-5.18,5.75-10.57,11.04-16.08,16.13-22.14,20.15-46.11,37.33-71.58,52.45-12.75,7.51-25.92,14.42-39.66,20.43-13.76,5.98-28.07,11.14-43.45,14.3l-5.81,1.08-5.94,.81c-4.03,.4-8.15,.7-11.86,.72-3.81,.11-7.63,.18-11.45,0l-5.74-.17-5.74-.45c-15.29-1.25-30.58-4.21-45.24-9.36-29.39-9.98-56.19-28.63-75.23-53.75-9.51-12.55-17.11-26.72-21.72-42.22-2.31-7.74-3.85-15.83-4.28-24.19-.47-8.29,.42-17.2,2.45-25.17,4.06-16.25,12.38-30.72,22.2-42.9,9.85-12.25,21.15-22.6,32.73-31.99,11.59-9.39,23.61-17.83,35.08-26.13,5.69-4.15,11.31-8.3,16.06-12.46,2.36-2.06,4.48-4.17,5.86-5.93,.69-.86,1.12-1.61,1.26-1.93,.16-.34-.07-.03-.02,.87v-.99c.92-28.35,2.64-56.26,5.78-84.51,1.6-14.06,3.59-28.35,6.61-42.48,2.82-14.03,6.51-27.92,10.74-41.68,8.45-27.5,20.21-54.27,35.66-79.02,15.45-24.74,34.94-47.2,57.63-65.76,22.72-18.55,48.4-33.12,75.15-44.07,6.7-2.72,13.44-5.3,20.24-7.63,6.78-2.38,13.83-4.54,20.78-6.49,13.95-3.9,28.02-6.89,42.13-9.42,28.24-4.99,56.88-6.89,85.49-5.56,14.3,.63,28.61,2.09,42.82,4.69,14.17,2.71,28.41,6.28,41.85,13.09,3.23,1.63,4.52,5.57,2.88,8.8-1.4,2.76-4.49,4.1-7.37,3.41l-.23-.06Z"/>
            <path class="cls-17" d="M677.53,1824.67c.79,5.24,2.16,10.16,4.18,14.79,.87,2.4,2.25,4.5,3.42,6.75,1.49,2.03,2.71,4.3,4.49,6.15,6.54,7.88,15.64,14.13,26.02,18.53,2.5,1.28,5.27,2.08,7.97,3.03l4.08,1.41c1.37,.45,2.81,.72,4.22,1.09,2.84,.68,5.66,1.46,8.54,2.07l8.76,1.44c1.47,.22,2.93,.52,4.41,.69l4.47,.41,8.97,.83c6.02,.32,12.08,.39,18.14,.6l.46,.02c3.59,.12,6.4,3.14,6.28,6.73-.12,3.39-2.83,6.08-6.15,6.27-6.32,.34-12.65,.82-19.02,1.04l-9.6-.04-4.81-.03c-1.6-.04-3.22-.22-4.83-.32l-9.69-.74c-3.23-.39-6.47-.97-9.72-1.46-1.62-.28-3.25-.46-4.86-.82l-4.85-1.19c-3.23-.83-6.5-1.49-9.68-2.74-12.8-4.16-25.54-10.99-35.86-21.34-10.47-10.16-17.48-24.07-20.85-37.87l-.06-.25c-1.71-7,2.58-14.07,9.58-15.78,7-1.71,14.07,2.58,15.78,9.58,.09,.38,.16,.78,.22,1.15"/>
            <path class="cls-17" d="M996.6,1794.71c-5.93,0-11.29-4.08-12.69-10.1-22.46-97.18-68.39-164.23-136.5-199.28-50.87-26.18-96-23.88-96.46-23.85-7.19,.49-13.35-5.05-13.79-12.22-.44-7.17,5-13.34,12.17-13.8,2.09-.12,51.65-2.9,108.69,26.02,52.23,26.48,120.87,85.67,151.28,217.26,1.62,7.01-2.75,14.01-9.76,15.63-.99,.23-1.97,.34-2.95,.34Z"/>
            <g class="cls-1">
              <path class="cls-17" d="M1275.9,585.63c-.24,.17-.35,.24-.35,.24,.11-.07,.24-.17,.35-.24"/>
            </g>
            <path class="cls-26" d="M1258.89,622.33c.11-.07,.24-.17,.35-.24-.24,.17-.35,.24-.35,.24"/>
            <path class="cls-2" d="M1381.23,1362.7s-50.52,63.84-226.4,69.96c-40.01,1.39-76.46-.63-109.64-5.38-98.03-13.95-167.57-51.44-216.54-94.02-89.16-77.55-110.02-172.03-110.02-172.03l158.52-127.77c85.04,139.35,242.28,158.02,356.6,149.97,79.04-5.55,137.57-23.84,137.57-23.84l3.98,81.59,1.25,25.44,3.26,67.14,1.42,28.94Z"/>
            <g class="cls-25">
              <path class="cls-17" d="M1381.25,1362.71s-50.52,63.84-226.4,69.96c-158.19,5.49-260.65-42.38-326.18-99.4,35.14,9.5,77.91,16.92,119.31,13.45,137.39-11.55,322.74-105.85,322.74-105.85l105.83,25.78,4.69,96.07Z"/>
            </g>
            <path class="cls-17" d="M1130.7,1446.12c-182.64,0-287.39-72.9-343.68-135.59-63.93-71.21-80.44-143.42-81.11-146.46-1.07-4.83,.7-9.85,4.55-12.96l158.53-127.77c2.92-2.35,6.71-3.34,10.41-2.69,3.7,.64,6.94,2.85,8.89,6.05,57.06,93.51,154.45,142.35,289.46,145.17,102.32,2.15,188.83-24.43,189.69-24.7,3.85-1.2,8.04-.55,11.34,1.76,3.31,2.31,5.36,6.02,5.55,10.04l9.93,203.12c.15,3.15-.84,6.25-2.8,8.72-2.22,2.8-56.33,68.63-236.18,74.88-8.35,.29-16.55,.43-24.59,.43Zm-397.25-280.07c5.93,19.76,25.65,74.75,73.83,128.02,80.08,88.54,196.89,130.78,347.11,125.57,144.93-5.03,200.72-49.35,213.58-61.78l-8.87-181.32c-30.4,7.85-100.24,22.98-181.19,21.4-136.77-2.69-241.47-52.82-303.86-145.2l-140.6,113.31Zm-14.81-4.8h0Z"/>
            <path class="cls-17" d="M960.71,1420.68c-4.64,0-9.12-2.48-11.48-6.85-3.41-6.33-1.06-14.23,5.27-17.65h0c1.33-.72,132.43-73.58,132.43-218.68,0-7.2,5.84-13.03,13.03-13.03s13.03,5.84,13.03,13.03c0,160.92-140.14,238.39-146.11,241.6-1.97,1.06-4.09,1.57-6.18,1.57Z"/>
            <path class="cls-2" d="M1898.7,1242.88c-2.58,10.9-5.23,21.58-7.93,32.09-8.7,33.89-18.05,65.86-27.96,96.01-14.84,45.11-30.93,86.19-48.05,123.53-31.28,68.32-65.89,124.21-102.25,169.8-27.1,34.01-55.17,62.3-83.55,85.71-135.93,112.34-278.22,113.08-352.12,100.29-120.09-20.83-287.18-144.89-260.68-344.94,3.74-28.28,13.95-54.11,29.03-78.09,1.48-2.35,3-4.66,4.57-6.98,8.4-12.43,18.13-24.4,28.91-35.94,49.39-52.95,121.03-97.7,192.06-143.5l4.87,.03,99.69,.29,523.4,1.69Z"/>
            <g class="cls-25">
              <path class="cls-17" d="M1653.22,1728.74c-142.97,133.5-298.07,135.13-376.37,121.57-120.08-20.84-287.18-144.9-260.67-344.94,3.2-24.22,11.13-46.63,22.82-67.61-.63,3.36-1.19,6.74-1.63,10.18-26.5,200.04,140.59,324.11,260.68,344.94,67.85,11.75,193.33,12.08,318.61-74.88l36.57,10.75Z"/>
            </g>
            <path class="cls-17" d="M1274.25,1246.34c-7.61,5.67-15.3,11.21-23.01,16.71l-23.06,16.53c-15.45,10.86-30.76,21.84-45.77,33.11-15.12,11.1-30.06,22.35-44.33,34.26-14.27,11.89-27.97,24.31-40.93,37.25-12.82,13.06-24.65,26.91-34.81,41.69-9.97,14.87-18.52,30.56-24.12,47.19-3.01,8.25-5,16.78-6.7,25.33-1.43,8.46-2.51,17.64-3.21,26.63-1.27,18.04-1.07,36.15,1.04,54.03,4.05,35.77,15.42,70.56,33.18,101.91,17.68,31.41,41.43,59.47,69.09,82.98,27.66,23.51,59.16,42.76,92.75,56.33,16.8,6.73,34.12,12.11,51.66,15.39,17.71,3.28,36.02,5.1,54.26,5.7,36.55,1.2,73.31-2.56,108.95-10.96,35.66-8.37,70.14-21.58,102.54-38.75,32.39-17.25,62.61-38.58,90.28-62.92,27.74-24.29,52.71-51.76,75.51-80.97,45.42-58.68,81.19-124.85,109.95-193.83,28.75-69.08,50.93-141.01,68.49-214.07,1.68-7,8.72-11.31,15.72-9.63,6.97,1.67,11.27,8.66,9.65,15.63-17.3,74.27-39.4,147.68-68.67,218.53-29.21,70.77-65.76,139.19-112.89,200.56-23.62,30.58-49.82,59.39-79.06,85.02-29.16,25.67-61.2,48.32-95.65,66.7-34.47,18.29-71.27,32.42-109.34,41.37-38.05,8.99-77.27,13.03-116.4,11.76-19.59-.66-39.07-2.56-58.59-6.15-19.7-3.69-38.7-9.62-57.03-16.95-36.62-14.79-70.56-35.55-100.6-61.04-30-25.5-56-56.09-75.47-90.7-19.52-34.55-32.1-73.2-36.5-112.69-2.29-19.73-2.48-39.64-1.06-59.35,.81-9.88,1.86-19.53,3.76-29.71,2.08-9.98,4.58-19.9,8.16-29.41,6.77-19.2,16.73-36.93,28.04-53.31,11.49-16.29,24.56-31.15,38.43-44.92,13.88-13.78,28.77-26.26,44.03-38.04,15.27-11.79,30.92-22.88,46.82-33.49,16.03-10.42,32.23-20.43,48.48-30.27,8.13-4.92,16.4-9.59,24.6-14.35,8.2-4.76,16.43-9.46,24.73-14.04,3.16-1.75,7.13-.6,8.88,2.55,1.6,2.89,.77,6.48-1.82,8.4"/>
            <path class="cls-2" d="M1663.19,1719.15c-35.05,34.87-74.41,61.11-115.58,82.03-108.62,55.2-229.81,73.28-317.66,114.5-88.33,41.46-128.63,170.66-172.97,221.77-30.78,35.47-136.65,96.07-199.98,92.63-111.09-6.05-158.96-95.89-145.43-147.51,1.57-6.06,3.86-11.76,6.65-17.12,29.59-56.66,119.85-78.98,121.01-101.86,0,0-.83-72.92,7.36-120.23,27.87-160.57,135.9-214.43,234-211.47,85.24,2.58,158.07,46.87,176.65,80.82l405.96,6.44Z"/>
            <g class="cls-25">
              <path class="cls-17" d="M1547.62,1801.19c-108.63,55.2-229.81,73.28-317.66,114.51-88.33,41.46-128.63,170.65-172.98,221.76-30.78,35.47-136.64,96.07-199.98,92.63-111.09-6.06-158.96-95.9-145.43-147.51,1.57-6.05,3.85-11.75,6.65-17.12,5.49,35.5,28.02,82.24,106.13,95.99,130.95,23.06,241.39-61.76,261.54-155.64,22.35-104.15,72.63-169.8,160.54-187.25,61.17-12.14,194.16,2.64,301.19-17.36"/>
            </g>
            <path class="cls-17" d="M1251.5,1715.84c-5.86-7.62-13.57-14.23-21.71-20.19-8.16-5.97-16.96-11.24-25.98-16.06-18.11-9.59-37.36-17.06-56.98-23.07-9.82-3.01-19.78-5.59-29.87-7.54-10.1-1.9-20.31-3.16-30.55-3.79-20.48-1.19-41.04,.37-60.96,4.59-19.94,4.18-39.09,11.46-56.78,21.26-17.57,10.01-33.64,22.62-47.3,37.61-13.79,14.87-25.12,32.04-34.43,50.3-9.12,18.4-16.17,37.94-21.38,58.07-1.22,5.06-2.41,10.13-3.54,15.22-.95,5.12-2.05,10.26-2.89,15.36-1.7,10.15-2.84,20.63-3.76,31.15-1.83,21.06-2.66,42.42-3.01,63.76l-.12,15.99v3.97s.02,1.36,.02,1.36c-.05,.89-.14,1.86-.27,2.77-.29,1.67-.67,3.14-1.19,4.46-2.09,5.41-4.95,8.51-7.48,11.21-5.18,5.15-10.13,8.45-15,11.68-4.86,3.15-9.65,5.98-14.39,8.74-18.88,10.9-37.17,21.15-53.08,33.72-15.84,12.43-29.18,27.27-35.1,44.43-6.05,16.46-3.36,36.21,3.84,54.03,3.68,8.92,8.48,17.48,14.26,25.36,5.82,7.86,12.55,15.08,20.02,21.48,14.93,12.84,32.76,22.27,51.85,28.08,9.54,2.95,19.4,4.98,29.43,6.13,2.49,.38,5.02,.56,7.54,.75,2.51,.18,5.12,.47,7.39,.45,4.65,.21,9.52-.2,14.38-.64,19.61-2.32,39.59-8.51,58.89-16.21,19.33-7.77,38.18-17.21,56.25-27.83,9.03-5.32,17.85-10.97,26.33-16.96,8.44-5.99,16.69-12.31,23.9-19.07,13.8-12.8,24.71-31.13,35.46-49.35,10.68-18.4,20.97-37.49,31.97-56.36,10.97-18.89,22.71-37.64,36.03-55.59,13.45-17.83,28.5-34.99,46.58-49.44,9.04-7.19,18.8-13.68,29.24-19.08,5.32-2.82,10.3-4.92,15.39-7.24,5.08-2.23,10.2-4.34,15.32-6.44,20.52-8.19,41.28-15.21,62.03-21.8,41.51-13.1,83.02-24.65,123.57-38.26,40.53-13.56,80.2-29.09,117.36-49.06,37.13-19.91,71.63-44.39,101.27-73.89,5.1-5.08,13.35-5.06,18.43,.04,5.08,5.11,5.05,13.36-.05,18.44-31.64,31.49-68.36,57.49-107.31,78.37-38.99,20.95-80.08,36.99-121.42,50.82-41.36,13.87-83.12,25.49-123.98,38.39-20.42,6.48-40.59,13.32-60.19,21.14-4.87,2-9.74,4-14.54,6.11-4.73,2.16-9.71,4.28-13.92,6.54-8.74,4.52-17.06,10.03-24.91,16.27-15.72,12.55-29.45,28.07-41.97,44.68-12.44,16.75-23.68,34.65-34.39,53.1-10.76,18.44-20.97,37.38-31.96,56.34-5.52,9.47-11.24,18.96-17.62,28.31-3.25,4.67-6.58,9.32-10.32,13.86l-2.82,3.4-3.08,3.4c-2.09,2.18-4.19,4.33-6.35,6.29-8.56,8-17.52,14.83-26.67,21.34-9.16,6.47-18.54,12.47-28.12,18.11-19.17,11.27-39.04,21.23-59.79,29.57-20.77,8.24-42.37,15.14-65.72,17.93-5.89,.55-11.81,1.03-17.95,.79-3.14,0-5.9-.31-8.78-.52-2.86-.22-5.72-.43-8.57-.85-11.43-1.32-22.8-3.65-33.91-7.07-22.2-6.75-43.38-17.89-61.23-33.24-17.87-15.28-32.4-34.66-41.44-56.79-4.55-11.04-7.57-22.85-8.72-35.1-.53-6.14-.49-12.41,.14-18.72,.71-6.32,2.23-12.78,4.26-18.62,4.14-11.87,10.64-22.62,18.26-31.9,7.62-9.31,16.29-17.3,25.31-24.41,18.05-14.22,37.66-25.09,56.12-35.78,4.59-2.67,9.1-5.35,13.3-8.07,4.14-2.68,8.13-5.58,10.6-8.07,1.18-1.16,1.85-2.34,1.65-2.02,0,.07-.09,.21-.12,.56-.06,.25-.07,.54-.04,.76v-.67s-.02-4.13-.02-4.13l.12-16.4c.36-21.84,1.19-43.66,3.1-65.64,.96-10.99,2.15-22,4.02-33.15,.91-5.55,2.07-10.97,3.1-16.46,1.21-5.46,2.49-10.9,3.8-16.34,5.61-21.67,13.26-42.98,23.33-63.28,10.28-20.19,22.95-39.42,38.54-56.25,15.45-16.94,33.74-31.34,53.71-42.68,20.07-11.15,41.76-19.33,64.1-24.03,22.32-4.73,45.22-6.43,67.86-5.12,22.63,1.2,45.12,4.84,66.86,11.22,21.71,6.47,42.47,16.14,61.42,28.75,9.43,6.38,18.45,13.46,26.56,21.7,8.06,8.21,15.55,17.45,20.26,28.74,1.39,3.34-.19,7.17-3.53,8.57-2.8,1.16-5.95,.24-7.71-2.05l-.2-.26Z"/>
            <path class="cls-17" d="M852.18,1962.26c.26,5.29,1.13,10.32,2.66,15.14,.63,2.48,1.78,4.71,2.72,7.07,1.27,2.17,2.26,4.55,3.85,6.57,5.71,8.5,14.13,15.64,24.01,21.06,2.35,1.53,5.04,2.6,7.62,3.82l3.91,1.81c1.32,.58,2.73,1,4.09,1.52,2.76,.96,5.48,2.02,8.28,2.92l8.58,2.32c1.44,.37,2.86,.82,4.31,1.13l4.41,.86,8.84,1.73c5.96,.92,11.98,1.6,17.99,2.43l.45,.07c3.56,.49,6.05,3.77,5.56,7.33-.46,3.36-3.43,5.76-6.76,5.62-6.32-.3-12.67-.46-19.02-.89l-9.54-1.01-4.78-.51c-1.59-.2-3.18-.54-4.77-.81l-9.56-1.71c-3.18-.71-6.34-1.62-9.52-2.43-1.59-.44-3.19-.79-4.76-1.31l-4.7-1.67c-3.13-1.15-6.32-2.14-9.35-3.7-12.32-5.43-24.3-13.51-33.52-24.86-9.39-11.17-14.95-25.71-16.92-39.78l-.04-.25c-.99-7.14,3.98-13.73,11.12-14.73,7.14-1,13.73,3.98,14.73,11.12,.05,.38,.09,.79,.11,1.16"/>
            <path class="cls-16" d="M1367.76,1357.3l-.69,1.25,.87-1.26c-.06,0-.13,0-.17,.01"/>
            <g class="cls-25">
              <path class="cls-17" d="M1712.52,1664.3c-27.1,34.01-55.18,62.3-83.55,85.72-46.54-7.18-123.5-28.79-222.03-91.74l-27.04,42.62c-16.95,26.68-52.62,34.64-79.28,17.72l-225.24-142.97c-26.65-16.92-34.67-52.59-17.72-79.28l14.69-23.15c-18.02-11.25-26.83-32.56-22.58-52.92,8.4-12.43,18.13-24.4,28.91-35.94,12.94-5.73,28.17-6.02,41.97,.45,2.05,.95,3.98,2.05,5.82,3.24l7.3-11.51c16.92-26.71,52.59-34.67,79.3-17.72l225.18,142.94c3.33,2.11,6.36,4.48,9.08,7.15,18.49,17.83,23.15,46.54,10.18,69.51,19.83,15.13,143.06,105.15,255.01,85.89"/>
            </g>
            <path class="cls-2" d="M1047.57,1358.29c-11.86,25.22-1.03,55.28,24.19,67.14,25.22,11.86,55.28,1.03,67.14-24.19,11.86-25.22,1.03-55.28-24.2-67.14-25.22-11.86-55.28-1.03-67.14,24.19"/>
            <g class="cls-1">
              <path class="cls-17" d="M1047.58,1358.29c-11.86,25.22-1.05,55.3,24.17,67.15,25.22,11.86,55.31,1.02,67.17-24.2,3.28-6.97,4.84-14.35,4.79-21.59-14.58,11.97-35.37,15.27-53.58,6.71-18.22-8.57-28.93-26.67-28.98-45.52-5.61,4.58-10.3,10.49-13.57,17.46"/>
            </g>
            <path class="cls-17" d="M1093.19,1443.3c-9.22,0-18.39-2.03-26.98-6.07-15.35-7.22-26.97-19.98-32.72-35.93-5.75-15.95-4.94-33.19,2.27-48.54h0c7.22-15.35,19.98-26.97,35.93-32.72,15.96-5.74,33.2-4.94,48.54,2.28,15.35,7.22,26.97,19.98,32.72,35.93,5.75,15.95,4.94,33.19-2.27,48.55-7.22,15.34-19.98,26.96-35.93,32.71-7.03,2.53-14.31,3.79-21.56,3.79Zm.06-100.98c-4.28,0-8.57,.74-12.71,2.24-9.41,3.39-16.93,10.24-21.18,19.29h0c-4.25,9.05-4.73,19.21-1.34,28.61,3.39,9.41,10.24,16.93,19.29,21.18,9.05,4.26,19.21,4.73,28.62,1.34,9.41-3.39,16.93-10.24,21.18-19.29,4.25-9.05,4.73-19.21,1.34-28.62-3.39-9.41-10.24-16.93-19.29-21.18-5.06-2.38-10.47-3.58-15.9-3.58Zm-45.69,15.98h0Z"/>
            <path class="cls-2" d="M1069.45,1524.93l225.24,142.96c26.65,16.93,62.33,8.97,79.28-17.72l76.07-119.86c14.83-23.37,10.56-53.61-8.65-72.15-2.7-2.65-5.74-5.02-9.07-7.14l-225.2-142.94c-26.69-16.95-62.37-8.99-79.28,17.72l-60.27,94.92-15.83,24.92c-16.95,26.69-8.94,62.36,17.72,79.28"/>
            <g class="cls-25">
              <path class="cls-17" d="M1069.45,1524.93l225.24,142.96c26.65,16.93,62.33,8.97,79.28-17.72l76.07-119.86c14.83-23.37,10.56-53.61-8.65-72.15-18.18,.37-29.75,.65-29.75,.65-72.03,89.25-113.08,163.25-256.07,58.61-49.3-36.08-74.18-73.08-88-96.7l-15.83,24.92c-16.95,26.69-8.94,62.36,17.72,79.28"/>
            </g>
            <path class="cls-17" d="M1327.56,1692.6c-11.59,0-23.31-3.18-33.81-9.83l-237.38-150.68c-14.22-9.03-24.09-23.1-27.78-39.63-3.69-16.53-.76-33.47,8.27-47.69l83.81-132.04c18.7-29.45,57.87-38.21,87.33-19.51l237.38,150.68c14.22,9.02,24.09,23.1,27.78,39.63,3.69,16.53,.76,33.47-8.27,47.69l-83.81,132.04c-12.04,18.96-32.57,29.35-53.52,29.35Zm-19.84-31.84c17.32,10.99,40.36,5.84,51.35-11.47l83.81-132.04c5.3-8.35,7.02-18.3,4.84-28.04-2.17-9.74-7.97-18.01-16.31-23.31l-237.38-150.68c-17.32-11-40.36-5.85-51.35,11.47l-83.81,132.04c-5.3,8.34-7.02,18.3-4.84,28.04,2.17,9.74,7.97,18.02,16.31,23.31l237.38,150.68Z"/>
            <path class="cls-2" d="M1060.97,1518.31c2.53,2.46,5.35,4.66,8.48,6.62l225.23,142.96c19.54,12.39,43.9,11.46,62.22-.49,6.67-4.33,12.53-10.11,17.03-17.24l33.82-53.24,11.16-17.56,31.13-49.04c16.95-26.69,8.93-62.36-17.72-79.28l-48.68-30.88c19.75,18.47,24.28,49.08,9.31,72.7l-41.07,64.75-35.01,55.14c-16.93,26.65-52.63,34.65-79.28,17.72l-176.61-112.16Z"/>
            <g class="cls-25">
              <path class="cls-17" d="M1060.97,1518.31c2.53,2.46,5.35,4.66,8.48,6.62l225.23,142.96c26.65,16.93,62.33,8.97,79.25-17.74l44.98-70.8c-13.61,8.92-33.54,17.82-50.84,9.09-9.51-4.77-14.22-16.78-16.19-30.84l-35.01,55.14c-16.93,26.65-52.63,34.65-79.28,17.72l-176.61-112.16Z"/>
            </g>
            <path class="cls-17" d="M1325.2,1689.85c-13.21,0-26.14-3.72-37.51-10.95l-225.22-142.97c-3.73-2.33-7.29-5.11-10.53-8.21l16-20.41,176.64,112.15c9.95,6.32,21.83,8.37,33.44,5.78,11.63-2.6,21.51-9.51,27.83-19.48l76.09-119.88c11.42-17.99,8.4-41.63-7.18-56.21l15.89-20.52,48.65,30.87c15.84,10.07,26.83,25.75,30.95,44.16,4.12,18.42,.84,37.29-9.22,53.12l-76.08,119.86c-10.05,15.85-25.73,26.84-44.16,30.96-5.19,1.16-10.41,1.73-15.59,1.73Zm-35.75-40.71l12.22,7.76c9.95,6.33,21.82,8.38,33.44,5.78,11.63-2.6,21.51-9.51,27.83-19.48h0s76.09-119.88,76.09-119.88c6.33-9.96,8.38-21.84,5.79-33.46-2.6-11.62-9.52-21.51-19.48-27.84l-10.78-6.84c1.51,15.24-1.91,30.98-10.6,44.67l-76.09,119.87c-8.98,14.17-22.48,24.46-38.41,29.42Z"/>
            <path class="cls-18" d="M1265.48,1497.4c-2.79,4.45-19.04,44.28-19.04,44.28,0,0,11.38,7.13,25.35,15.88,17.45,10.94,42.92,1.73,56.89-20.56,13.97-22.29,11.15-49.23-6.3-60.17-11.78-7.38-25.34-15.88-25.34-15.88,0,0-27.01,29.19-31.55,36.44"/>
            <g class="cls-1">
              <path class="cls-17" d="M1265.48,1497.4c-2.79,4.45-19.04,44.28-19.04,44.28,0,0,11.38,7.13,25.35,15.88,17.45,10.94,42.92,1.73,56.89-20.56,13.97-22.29,11.15-49.23-6.3-60.17-11.78-7.38-25.34-15.88-25.34-15.88,0,0-27.01,29.19-31.55,36.44"/>
            </g>
            <path class="cls-17" d="M1288.22,1571.97c-7.75,0-15.13-2.06-21.62-6.13l-32.31-20.24,3.11-7.61c4.98-12.21,16.89-41.12,19.81-45.78,4.79-7.64,28.04-32.9,32.65-37.89l5.5-5.95,32.21,20.18c21.99,13.79,26.21,46.83,9.4,73.64-7.91,12.62-19.31,22.12-32.1,26.74-5.61,2.03-11.22,3.03-16.64,3.03Zm-29.61-34.2l18.37,11.51c5.84,3.66,13.38,4.11,21.24,1.27,8.7-3.14,16.58-9.8,22.18-18.74,11.08-17.69,9.64-38.64-3.21-46.7l-18.45-11.56c-10.32,11.33-22.53,25.17-24.94,28.99-1.53,2.65-8.41,18.81-15.18,35.22Zm6.87-40.37h0Z"/>
            <path class="cls-18" d="M1240.14,1481.51c-13.97,22.29-11.15,49.23,6.3,60.17,17.45,10.93,42.92,1.73,56.89-20.56,13.97-22.29,11.15-49.22-6.3-60.16-17.45-10.94-42.92-1.73-56.89,20.56"/>
            <g class="cls-1">
              <path class="cls-17" d="M1303.33,1521.13c-13.95,22.29-39.44,31.5-56.89,20.56-17.47-10.95-20.29-37.89-6.3-60.19,1.88-3.01,4-5.79,6.28-8.31-5.11,18.12-.38,36.28,13.18,44.75,15.07,9.45,36.14,3.89,50.59-12.23-1.46,5.22-3.76,10.42-6.87,15.41"/>
            </g>
            <path class="cls-2" d="M1303.33,1521.13c-.94,1.52-1.95,2.97-3.03,4.35,7.48-19.63,3.17-40.32-11.58-49.55-16.27-10.17-39.52-2.9-53.88,16.23,1.37-3.64,3.13-7.19,5.29-10.66,13.96-22.28,39.44-31.5,56.89-20.56,17.43,10.96,20.27,37.88,6.3,60.19"/>
            <path class="cls-17" d="M1262.76,1556c-7.59,0-14.97-1.94-21.51-6.04-21.99-13.79-26.21-46.82-9.4-73.64h0c16.81-26.82,48.37-37.42,70.36-23.65,21.99,13.79,26.2,46.82,9.39,73.64-11.81,18.85-30.91,29.69-48.85,29.69Zm-14.34-69.3c-11.09,17.69-9.64,38.64,3.21,46.7,12.85,8.05,32.33,.22,43.42-17.47,11.09-17.68,9.64-38.63-3.21-46.69-12.85-8.04-32.33-.22-43.42,17.46h0Z"/>
            <path class="cls-17" d="M1140,1578.28c-1.72,0-3.45-.45-5.03-1.4-4.62-2.78-6.11-8.79-3.33-13.42l37.05-61.54c6.91-11.49,7.61-25.57,1.85-37.67-8.79-18.49-7.53-39.86,3.39-57.17l53.97-85.67c2.88-4.57,8.91-5.94,13.48-3.06,4.57,2.88,5.94,8.91,3.06,13.48l-53.97,85.67c-7.32,11.62-8.17,25.96-2.27,38.36,8.58,18.04,7.55,39.03-2.75,56.15l-37.05,61.54c-1.83,3.05-5.07,4.73-8.38,4.73Z"/>
            <path class="cls-2" d="M1717.63,1620.38s16.06,28.88,1,56.67c-17.41,32.13-48.61,34.99-48.61,34.99,0,0-107.41,12.34-277.76-98.34,0,0-18.11-72.1,53.5-78.34,0,0,146.34,117.67,271.87,85.02"/>
            <g class="cls-25">
              <path class="cls-17" d="M1718.96,1676.42h0c-17.34,32.71-48.96,35.63-48.96,35.63,0,0-107.39,12.33-277.75-98.33,0,0-13.83-55.11,30.51-73.15-.08,.21-.16,.42-.23,.64-7.9,21.73,1.13,46.1,20.89,58.09,157.08,95.24,254.95,84.01,254.95,84.01,0,0,9.32-.85,20.59-6.88"/>
            </g>
            <path class="cls-17" d="M1659.04,1725.54c-33.31,0-132.42-8.99-273.89-100.9l-4.29-2.79-1.25-4.96c-.4-1.58-9.47-38.92,10.36-66.77,11.57-16.25,29.96-25.59,54.64-27.74l5.21-.46,4.08,3.28c1.41,1.13,142.79,113.14,260.43,82.57l9.77-2.54,4.9,8.82c.8,1.43,19.32,35.51,1.07,69.21-20.5,37.82-57.32,41.62-58.88,41.76-.77,.09-4.9,.52-12.16,.52Zm-255-119.73c161.81,103.67,263.46,93.41,264.48,93.29,1.19-.13,24.97-3.02,38.64-28.25,7-12.92,5.04-26.63,2.48-35.3-116.52,22.65-242.41-67.36-267.7-86.63-14.12,2.07-24.43,7.52-30.67,16.22-9.63,13.42-8.46,32.03-7.23,40.67Z"/>
            <path class="cls-19" d="M1017.17,933.33c.84,7.55,1.21,15.05,1.11,22.46-35.22,13.51-100.58,27.22-176.08,35.65-75.49,8.42-142.27,9.45-179.6,4.03-1.73-7.21-3.03-14.6-3.87-22.16-.04-.36-.08-.7-.11-1.06-.36-3.33-.61-6.65-.78-9.95-.4-7.73-.29-15.4,.28-22.94,.02-.31,.04-.61,.07-.92,.92-11.2,2.87-22.16,5.78-32.76,5.53-20.17,14.51-39.05,26.32-55.89,28.69-40.88,74.12-69.71,127.66-75.68,53.1-5.92,103.38,11.85,140.29,44.88,15.15,13.55,28.05,29.69,37.96,47.81,5.31,9.69,9.75,19.95,13.24,30.68,.29,.86,.56,1.73,.83,2.6,2.22,7.24,4.01,14.68,5.33,22.32,.5,2.83,.92,5.69,1.27,8.57,.1,.79,.2,1.57,.29,2.37"/>
            <path class="cls-8" d="M1003.75,1024.29c-2.91,6.79-6.23,13.37-9.94,19.72-5.19,8.92-11.15,17.38-17.77,25.27-28.74,34.24-70.17,57.91-118.1,63.26-48.03,5.36-93.77-8.67-129.38-35.85-7.82-5.97-15.15-12.58-21.9-19.74-5.3-5.62-10.24-11.59-14.8-17.86,45.5,3.06,99.66,1.77,157.37-4.67,57.7-6.43,110.82-17.11,154.53-30.12"/>
            <path class="cls-8" d="M1018.27,955.79c-35.21,13.51-100.58,27.23-176.07,35.65-75.49,8.42-142.28,9.45-179.61,4.03-1.72-7.21-3.02-14.61-3.87-22.16-.04-.36-.07-.7-.11-1.06-.35-3.34-.61-6.65-.77-9.95-.4-7.73-.29-15.39,.28-22.95,.03-.31,.05-.61,.08-.91,.92-11.21,2.87-22.16,5.77-32.77,5.54-20.16,14.51-39.04,26.33-55.89,23.2-33.06,57.34-58.23,97.89-69.81-13.04,10.58-24.53,22.92-34.13,36.6-11.82,16.84-20.8,35.71-26.33,55.89-2.91,10.6-4.86,21.56-5.78,32.75-.03,.32-.05,.62-.08,.93-.03,.4-.05,.91-.07,1.5-.95,32.31,26.68,55.05,58.17,62.34,60.02,13.9,208.66-12.78,240.68-19.69,.37,5.14-2.32,.42-2.38,5.48"/>
            <path class="cls-22" d="M849.23,1054.42c57.7-6.44,110.82-17.11,154.53-30.12-2.91,6.79-6.23,13.37-9.94,19.72-33.98,11.05-85.9,21.47-144.56,28.01-56.19,6.27-107.14,7.71-142.59,4.92-5.3-5.62-10.24-11.59-14.8-17.86,45.51,3.06,99.66,1.77,157.37-4.67"/>
            <path class="cls-22" d="M1016.88,930.97c.1,.79,.2,1.57,.29,2.37,.84,7.55,1.21,15.05,1.11,22.46-35.22,13.52-100.58,27.23-176.08,35.65-75.49,8.42-142.27,9.45-179.6,4.03-1.73-7.21-3.03-14.61-3.87-22.16-.04-.36-.08-.7-.11-1.06,34.74,7.17,102.38,7.16,179.34-1.43,80-8.92,148.14-24.66,178.92-39.86"/>
            <path class="cls-22" d="M661.81,911.35l4.34-11.35c22.98,8.79,90.43,9.2,164.02,.99,87.79-9.79,148.01-26.96,162.12-38.85l7.84,9.3c-18.68,15.74-86.43,32.47-168.61,41.63-76.52,8.53-144.72,7.85-169.71-1.72"/>
            <path class="cls-22" d="M689.29,855.79l2.01-11.99c27.56,4.62,78.23,3.76,132.23-2.27,56.59-6.31,107.27-17.08,132.26-28.1l4.91,11.12c-26.04,11.48-78.08,22.62-135.82,29.06-55.04,6.14-107,6.98-135.59,2.18"/>
            <path class="cls-22" d="M656.3,944.21l3.81-11.54c26.79,8.83,96.57,8.99,173.64,.39,80.85-9.02,151.63-25.68,172.14-40.51l7.12,9.85c-22.38,16.19-93.88,33.37-177.91,42.74-79.88,8.91-150.07,8.55-178.8-.93"/>
            <path class="cls-22" d="M727.84,1099.64l.73-2.94-.52-3,.63-.11,.62,.15c23.74,5.85,72.61,5.9,124.5,.11,52.18-5.82,98.51-16.28,120.91-27.3l2.68,5.45c-22.99,11.3-70.09,21.99-122.92,27.88-53.35,5.95-101.87,5.86-126.63-.25"/>
            <path class="cls-17" d="M838.05,1143.89c-60.61,0-118.42-29.05-154.49-78.78l-12.85-17.72,21.83,1.47c46.56,3.13,100.34,1.53,155.54-4.63,55.22-6.16,108.03-16.45,152.74-29.76l20.97-6.25-8.63,20.11c-27.01,62.97-86.06,106.8-154.1,114.39-7.03,.78-14.05,1.17-21.03,1.17Zm-123.39-73.41c36.38,38.18,88.98,57.78,142.15,51.86,53.15-5.93,100.16-36.65,127.22-81.91-40.59,10.6-86.29,18.88-133.67,24.17-47.36,5.29-93.77,7.28-135.71,5.88Z"/>
            <path class="cls-8" d="M657.61,953.97l-.86-2.29c.27-.11,.57-.21,.87-.31v2.6Z"/>
            <g class="cls-9">
              <path class="cls-2" d="M1018.13,956.4c-4.1,1.57-8.6,3.15-13.49,4.72-.14-5.03-.49-10.1-1.05-15.19-.09-.8-.19-1.58-.29-2.36-.35-2.89-.77-5.74-1.27-8.57-1.32-7.63-3.11-15.09-5.33-22.32-.27-.87-.55-1.73-.83-2.6-3.48-10.74-7.93-21-13.24-30.69-9.91-18.11-22.8-34.25-37.96-47.8-36.91-33.03-87.19-50.81-140.29-44.88-35.45,3.96-67.35,17.94-93.18,38.8,27.82-27.47,64.73-46.12,106.62-50.8,53.09-5.92,103.38,11.85,140.28,44.88,15.15,13.56,28.06,29.69,37.97,47.81,5.3,9.68,9.75,19.94,13.23,30.68,.29,.87,.56,1.74,.83,2.6,2.23,7.24,4.01,14.68,5.33,22.31,.49,2.84,.92,5.7,1.27,8.58,.1,.79,.21,1.57,.28,2.37,.84,7.55,1.21,15.05,1.11,22.46"/>
            </g>
            <path class="cls-17" d="M721.64,1009.1c-23.8,0-44.45-1.15-60.51-3.48l-6.88-1-1.62-6.76c-1.83-7.65-3.21-15.53-4.09-23.41-.43-3.86-.75-7.78-.94-11.64-.41-8.05-.31-16.21,.3-24.23,6.97-91.06,78.01-164.52,168.91-174.65,90.93-10.13,176.38,45.85,203.25,133.14,2.37,7.73,4.27,15.67,5.64,23.59,.66,3.78,1.21,7.67,1.65,11.54h0c.88,7.88,1.27,15.86,1.17,23.73l-.09,6.95-6.49,2.49c-37.59,14.42-104.36,27.98-178.61,36.26-44.32,4.94-86.46,7.47-121.7,7.47Zm-50.56-22.87c38.69,4.36,102.7,2.54,169.98-4.97,67.29-7.51,130.13-19.83,166.91-32.61-.13-4.73-.47-9.47-.99-14.18h0c-.39-3.46-.88-6.93-1.47-10.32-1.22-7.09-2.91-14.17-5.03-21.07-23.97-77.88-100.26-127.82-181.38-118.79-81.13,9.05-144.52,74.59-150.75,155.85-.55,7.15-.64,14.43-.27,21.64,.17,3.46,.45,6.95,.84,10.39,.53,4.71,1.25,9.41,2.16,14.05Z"/>
            <path class="cls-2" d="M838.05,1341.15s-75.22-41.73-123.09-177.46c-33.23-94.22-12.32-173.28,14.34-202.76,39.55-43.73,120.84-32.81,150.41,1.54,28.18,32.74,35.07,77.76,38.06,100.85,3.95,30.55-12.49,80.89-35.3,119.1"/>
            <path class="cls-17" d="M831.73,1352.55c-1.52-.86-2.36-1.44-3.49-2.13-1.08-.68-2.01-1.35-3.02-2.03-2.02-1.34-3.85-2.75-5.74-4.15-1.92-1.37-3.67-2.85-5.48-4.3-1.8-1.45-3.61-2.9-5.3-4.43-3.47-3.01-6.89-6.06-10.11-9.27-1.63-1.59-3.31-3.14-4.9-4.77l-4.68-4.94c-12.39-13.24-23.62-27.4-33.7-42.26-20.12-29.77-35.91-62.03-48.47-95.27-12.98-33.23-21.2-69.31-21.85-105.7-.37-18.21,1.03-36.55,4.77-54.63,.99-4.52,1.88-9.04,3.27-13.5l1.92-6.71c.73-2.22,1.56-4.42,2.34-6.63,3.09-8.85,7.21-17.49,12.24-25.87l4.06-6.2c1.51-2.02,3.17-4,4.77-5.99,3.25-3.94,6.97-7.38,10.81-10.66,7.82-6.41,16.58-11.47,25.72-15.21,18.36-7.35,37.92-9.69,56.92-8.27,9.52,.71,18.96,2.32,28.19,4.98,9.22,2.65,18.27,6.21,26.87,11.14,8.54,4.82,16.89,11.25,23.57,19.26,6.31,7.31,11.57,15.34,16.18,23.59,9.17,16.58,15.24,34.29,19.45,52.08,2.06,8.9,3.58,17.89,4.82,26.74,.3,2.21,.62,4.29,.82,7.03l.33,3.87c.07,1.27,.05,2.51,.07,3.76,.05,2.52-.03,4.99-.24,7.4-.14,2.44-.33,4.86-.67,7.2-2.33,18.95-7.85,36.42-14.94,53.09-7.3,16.55-16.45,32.25-28.17,46-2.37,2.78-6.54,3.11-9.31,.74-2.16-1.84-2.84-4.76-1.93-7.28l.05-.14,8.73-23.95c2.79-7.96,5.41-15.91,7.9-23.85,4.82-15.86,9.08-31.97,10.54-47.54,.25-1.95,.34-3.86,.4-5.75l.12-2.85-.05-2.75c-.02-.92,.02-1.85-.03-2.74l-.22-2.61c-.08-1.59-.39-3.8-.66-5.89-1.11-8.34-2.51-16.47-4.25-24.49-3.42-16-8.34-31.58-15.9-45.43-3.76-6.91-7.97-13.53-12.95-19.41-4.42-5.35-10.02-9.73-16.55-13.43-12.98-7.39-28.55-11.62-44.06-12.76-15.54-1.2-31.31,.85-45.19,6.42-6.91,2.84-13.31,6.57-18.92,11.16-2.73,2.36-5.43,4.82-7.67,7.58-1.1,1.41-2.25,2.74-3.34,4.18l-3.05,4.69c-7.91,12.93-13.1,28.52-16.43,44.31-3.29,15.89-4.57,32.35-4.23,48.81,.41,16.45,2.13,32.98,5.75,49.17,3.57,16.25,8.08,32.07,14.42,47.85,11.94,31.62,26.9,62.09,45.65,89.83,9.39,13.85,19.79,26.93,31.1,39.02l4.27,4.51c1.44,1.48,2.95,2.87,4.42,4.31,2.92,2.92,5.98,5.63,9.06,8.31,1.52,1.38,3.1,2.64,4.68,3.91,1.58,1.26,3.13,2.58,4.75,3.73,1.6,1.18,3.2,2.42,4.8,3.47,.79,.53,1.62,1.14,2.38,1.6l2.05,1.28,.66,.42c6.1,3.8,7.97,11.83,4.16,17.94-3.7,5.94-11.44,7.85-17.47,4.44"/>
            <path class="cls-7" d="M1121.68,947.38c2.93,26.25-44.1,54.92-117.93,76.91-43.71,13.02-96.83,23.69-154.53,30.13-57.71,6.44-111.87,7.73-157.37,4.67-76.86-5.18-129.04-22.78-131.97-49.04-2.66-23.84,35.87-49.67,98.24-70.69-.58,7.55-.68,15.21-.28,22.94-17.58,6.86-27.35,13.65-26.68,19.68,.69,6.14,12.12,10.67,31.44,13.49,37.33,5.42,104.11,4.39,179.6-4.03,75.5-8.42,140.86-22.13,176.08-35.65,18.22-6.99,28.37-13.94,27.68-20.08-.67-6.02-11.7-10.5-30.36-13.32-1.32-7.63-3.11-15.08-5.33-22.32,65.47,6.76,108.74,23.46,111.4,47.3"/>
            <path class="cls-21" d="M657.7,959.18c.05,1.04,.08,2.09,.14,3.13-17.59,6.85-27.36,13.63-26.68,19.67,.69,6.15,12.13,10.69,31.44,13.49,24.76,3.6,62.5,4.36,107.13,2-1.77,3.25-2.85,6.51-3.19,9.73-17.16,.71-33.64,.91-49.11,.6-67.25-1.33-99.01-12.07-100.06-21.5-.62-5.5,9.7-15.48,40.32-27.12"/>
            <path class="cls-8" d="M655.89,949.36l.86,2.31c-15.61,5.55-28.06,11.02-37.77,16.23,8-6.19,20.28-12.34,36.91-18.54"/>
            <path class="cls-21" d="M618.98,967.91c-8.37,6.43-12.1,12.89-11.37,19.49,.72,6.42,5.71,11.53,13.6,15.59,20.58,10.59,60.89,13.96,96.02,14.65,15.9,.32,32.86,.09,50.51-.63,1.77,4.8,5.27,9.26,10.36,13.38-26.14,1.22-51.14,1.31-74.18,.27-82.17-3.72-112.99-20.13-114.44-33.06-.8-7.17,7.25-17.77,29.49-29.69"/>
            <path class="cls-21" d="M845.67,1054.81c-56.38,6.11-109.25,7.28-153.83,4.27-76.85-5.17-129.04-22.78-131.97-49.05-2.66-23.83,35.88-49.65,98.25-70.68-.17,2.24-.29,4.5-.38,6.76l-1.63-4.67c-36.36,12.67-79.14,32.88-76.4,57.23,1.05,9.42,8.47,16.77,19.59,22.48,26.18,13.45,72.78,17.89,104.16,19.32,27.54,1.25,57.82,.89,89.42-1.03,13.32,6.35,31.24,11.52,52.77,15.35"/>
            <path class="cls-24" d="M767.75,1017c-17.66,.73-34.61,.95-50.51,.63-35.13-.69-75.44-4.06-96.03-14.65-7.89-4.06-12.88-9.16-13.6-15.59-.73-6.6,3-13.06,11.37-19.49,9.71-5.22,22.16-10.68,37.77-16.24l.86,2.29c0,1.74,.05,3.47,.09,5.21-30.63,11.64-40.94,21.62-40.32,27.12,1.05,9.42,32.81,20.17,100.05,21.5,15.47,.31,31.94,.11,49.11-.6-.19,1.6-.19,3.18-.02,4.75,.2,1.72,.6,3.41,1.22,5.06"/>
            <path class="cls-12" d="M656.75,951.67c-15.61,5.55-28.06,11.02-37.77,16.23,8-6.19,20.28-12.34,36.91-18.54l.86,2.31Z"/>
            <path class="cls-12" d="M657.61,953.97l1.72,4.6c-.55,.2-1.09,.4-1.63,.61-.05-1.74-.08-3.48-.09-5.21"/>
            <path class="cls-12" d="M969.87,989.46c-36.93,9.1-80.32,16.59-125.49,21.62-26.26,2.93-52.13,4.92-76.64,5.92-.62-1.65-1.02-3.34-1.22-5.06-.18-1.57-.17-3.15,.02-4.75,24.51-.96,50.43-2.95,76.75-5.88,44.75-5,87.7-12.41,124.2-21.42,65.3-16.12,93.91-33.6,92.86-43-.63-5.62-13.31-13.24-47.03-17.79l.99-7.33,.33-2.43c17.68,2.38,31.04,5.69,40.23,9.97,9.49,4.44,14.51,9.91,15.26,16.48,2.59,23.24-53.1,42.01-100.27,53.67"/>
            <path class="cls-24" d="M792.9,1039.46c-31.6,1.92-61.88,2.28-89.42,1.02-31.39-1.42-77.98-5.86-104.16-19.31-11.12-5.72-18.54-13.06-19.59-22.48-2.73-24.35,40.05-44.56,76.41-57.23l1.63,4.67c-.07,1.75-.13,3.5-.14,5.25-.3,.1-.6,.19-.87,.31l-.86-2.31c-16.64,6.2-28.92,12.35-36.91,18.54-22.24,11.92-30.29,22.52-29.49,29.69,1.45,12.92,32.27,29.33,114.44,33.06,23.05,1.04,48.04,.95,74.18-.27,3.98,3.24,8.93,6.27,14.79,9.07"/>
            <path class="cls-21" d="M655.89,949.36l.86,2.31c-15.61,5.55-28.06,11.02-37.77,16.23,8-6.19,20.28-12.34,36.91-18.54"/>
            <path class="cls-12" d="M657.75,946.12l1.61,4.62c-.59,.22-1.18,.42-1.75,.62,.01-1.75,.07-3.49,.14-5.25"/>
            <path class="cls-12" d="M988.31,1008.71c-41.48,11.38-90.33,20.4-141.29,26.08-18.3,2.05-36.42,3.6-54.13,4.67-5.86-2.81-10.81-5.84-14.79-9.07,21.99-1.01,44.78-2.81,67.85-5.38,50.44-5.62,98.76-14.54,139.76-25.78,79.33-21.74,105.78-44.55,104.35-57.47-.81-7.16-10.95-15.71-35.17-22.44-10.66-2.96-24.04-5.56-40.55-7.54-.91-.1-1.83-.21-2.76-.32l1.11-9.77c38.25,4.34,84.43,14.64,87.15,38.98,3.54,31.64-68.34,56.21-111.52,68.05"/>
            <path class="cls-17" d="M741.22,1070.92c-17.36,0-34.11-.53-50.05-1.61-50.79-3.42-136.71-15.52-141.46-58.13-4.1-36.73,54.92-64.61,105.15-81.54l14.67-4.94-1.18,15.44c-.55,7.15-.64,14.43-.27,21.63l.38,7.39-6.89,2.69c-9.69,3.78-14.9,6.76-17.65,8.71,3.22,1.34,9.23,3.18,20.16,4.77,37.63,5.47,105.45,3.9,176.98-4.07,71.53-7.98,138.02-21.4,173.54-35.03,10.31-3.96,15.77-7.07,18.6-9.09-3.11-1.3-8.85-3.06-19.13-4.61l-7.31-1.1-1.26-7.29c-1.22-7.07-2.91-14.15-5.03-21.05l-4.54-14.79,15.39,1.59c52.73,5.44,116.44,19.64,120.54,56.36h0c4.75,42.6-76.39,73.34-125.19,87.87-45.83,13.65-99.88,24.19-156.32,30.49-37.57,4.19-74.54,6.31-109.14,6.31Zm-93.86-116.87c-55.19,20.54-78.72,41.97-77.29,54.87,1.77,15.9,40.33,34.42,122.47,39.95,46.53,3.13,100.32,1.53,155.55-4.63,55.25-6.16,108.06-16.46,152.74-29.76,78.9-23.5,112.44-50.06,110.66-65.95-1.44-12.9-29.12-28.61-87.48-36.49,.11,.48,.21,.97,.31,1.45,15.24,2.92,30.4,8.31,31.82,21.1,1.67,15.01-17.4,24.34-34.2,30.79-37.6,14.42-104.37,27.98-178.61,36.26-74.26,8.28-142.37,9.77-182.21,3.99-17.81-2.6-38.47-7.5-40.15-22.49-1.42-12.8,12.17-21.4,26.4-27.6,0-.49-.01-.99-.01-1.48Z"/>
            <path class="cls-10" d="M1741.63,1757.29c-35.21-64.39-30.28-284.49,134.35-311.45l40.24,200.92-174.59,110.53Z"/>
            <g class="cls-13">
              <path class="cls-2" d="M1741.64,1757.29c-35.2-64.38-30.3-284.48,134.33-311.46l6.06,30.25c-140.39,38.27-140.39,281.21-140.39,281.21"/>
            </g>
            <path class="cls-17" d="M1735.91,1760.42c-9.09-14.98-13.83-31.32-17.39-47.63-3.4-16.39-5.11-33.02-5.53-49.68-.68-33.3,3.65-66.91,14.23-99.11,5.32-16.07,12.15-31.82,21.03-46.57,8.81-14.78,19.6-28.62,32.39-40.59,12.69-12.05,27.58-21.9,43.45-29.23,15.93-7.24,32.77-12.14,49.79-14.64,7.12-1.05,13.74,3.88,14.79,11,1.01,6.9-3.58,13.34-10.35,14.68l-.23,.05c-29.42,5.78-56.86,18.39-78.31,38.64-21.49,20.15-37.14,46.63-47.5,75.3-10.32,28.73-15.89,59.6-17.2,90.65-.66,15.53-.22,31.15,1.54,46.54,.77,7.73,2.13,15.32,3.74,22.83,1.85,7.4,4,14.73,6.98,21.5l.11,.24c1.45,3.3-.05,7.15-3.34,8.59-3.03,1.33-6.53,.17-8.2-2.59"/>
            <path class="cls-10" d="M1229.28,1939.66c3.7-3.13,127.34-224.98,363.24-108.35l-363.24,108.35Z"/>
            <g class="cls-13">
              <path class="cls-2" d="M1592.5,1831.32l-8.5,2.53c-169.48-41.3-260.36,36.07-348.5,107.85l-6.22-2.02c3.68-3.13,127.35-225.01,363.22-108.35"/>
            </g>
            <path class="cls-17" d="M1225.07,1934.68c-.16,.03-.3,.1-.41,.2-.03,0-.17,.2-.08,.06l.19-.34,.77-1.36,1.63-2.87,3.35-5.8c2.3-3.85,4.72-7.62,7.16-11.39,4.89-7.54,10.3-14.72,15.77-21.88,11.22-14.08,23.49-27.47,37.07-39.56,26.94-24.34,59-43.9,94.22-55.45,17.6-5.77,35.96-9.03,54.36-10.64,4.62-.29,9.23-.5,13.85-.69,4.61,.04,9.22,.23,13.83,.35,4.61,0,9.19,.52,13.76,1.01,4.56,.53,9.16,.79,13.66,1.69,36.19,5.96,70.55,19.16,101.21,37.47,3.1,1.85,4.11,5.86,2.26,8.96-1.66,2.79-5.08,3.89-8.01,2.73h-.03c-32.21-12.69-65.18-22.09-98.51-25.77-16.67-1.4-33.37-2.13-49.86-.27-16.51,1.54-32.73,5.03-48.59,9.84-31.6,10.11-60.97,27.04-87.35,48.14-13.14,10.63-25.66,22.19-37.38,34.63-5.85,6.23-11.51,12.66-17.04,19.22-2.75,3.3-5.44,6.65-8.11,10.03l-4,5.1-2.01,2.61-1.06,1.37-.83,1.06c-.44,.53-.92,1.04-1.41,1.5-2.75,2.32-6.86,1.97-9.18-.77-2.33-2.75-1.98-6.86,.77-9.18"/>
            <path class="cls-2" d="M2372.42,1642.49c-3.8,39.47-19.89,68.23-33.12,83.58-20.54,23.87-59.8,42.12-112.46,23.69-26.12-9.17-56.66-38.88-93.04-74.97-76.49-75.89-178.67-179.98-319.03-180.27-17.9-.06-36.39,1.6-55.53,5.19l33.78-102.66,41.34-125.63s21.81,.27,56.42,3.56c25.97,2.47,59.15,6.65,95.75,13.65,97.23,18.64,218.53,57.37,292.61,137.89,80.49,87.47,98.51,161.81,93.28,215.98"/>
            <g class="cls-25">
              <path class="cls-17" d="M2372.42,1642.49c-3.8,39.47-19.89,68.23-33.12,83.58-20.54,23.87-59.8,42.12-112.46,23.69-26.12-9.17-56.66-38.88-93.04-74.97,15.61-24.43,31.13-48.62,31.13-48.62,0,0,12.64,41.08,87.2,76.46,50.6,24.01,97.71-11.16,120.29-60.13"/>
            </g>
            <path class="cls-17" d="M1834.53,1258.38c16.21,.28,31.7,1.23,47.46,2.45,15.69,1.24,31.34,2.85,46.95,4.8,31.21,3.96,62.26,9.35,93.04,16.24,30.78,6.88,61.25,15.54,91.15,26.13,29.89,10.6,59.23,23.34,87.08,39.23l10.43,5.99,10.18,6.46c6.86,4.18,13.37,8.97,19.95,13.63,3.34,2.27,6.49,4.81,9.65,7.33l9.5,7.56c3.09,2.63,6.07,5.39,9.11,8.08,2.98,2.76,6.15,5.29,8.94,8.29,5.65,5.83,11.65,11.54,16.76,17.56l7.95,8.93,7.66,9.23c5.2,6.06,9.88,12.6,14.82,18.9,4.61,6.59,9.45,12.99,13.73,19.84,4.51,6.67,8.56,13.68,12.68,20.64,3.87,7.13,7.77,14.24,11.18,21.65,6.95,14.73,12.82,30.09,17.14,46.02,4.31,15.92,7.04,32.4,7.79,49.11,.84,16.69-.72,33.59-4.23,50.08-3.73,16.46-9.52,32.55-18.02,47.45-4.25,7.45-9.1,14.62-14.89,21.42-5.95,6.9-12.82,12.91-20.31,17.94-7.49,5.03-15.61,9.07-24.06,12.09-8.47,3.01-17.3,4.74-26.12,5.67-8.85,.91-17.67,.51-26.34-.37-8.59-1.21-17.1-2.89-25.21-5.51l-6.09-1.93c-2.1-.82-4.25-1.76-6.36-2.66-4.41-1.69-7.98-4.03-11.88-6.13-3.82-2.16-7.14-4.64-10.72-6.96-3.42-2.42-6.61-4.97-9.93-7.46-12.79-10.2-24.37-21.06-35.73-31.96-22.6-21.89-44.09-44.08-66.34-65.35-22.24-21.19-45.07-41.55-69.24-59.9-24.22-18.22-49.79-34.44-76.85-47.22-27.06-12.77-55.78-21.37-85.1-25.72-29.32-4.72-59.15-5.23-89.81-3.83h-.03c-3.63,.17-6.71-2.64-6.86-6.27-.14-3,1.77-5.63,4.49-6.54,30.38-10.15,63.44-12.58,95.66-8.85,32.23,4.05,63.6,13.71,92.82,27.18,29.21,13.59,56.44,30.71,81.94,49.67,25.43,19.08,49.14,40.02,71.98,61.53,22.78,21.54,44.64,43.85,66.78,65.05,11.1,10.54,22.28,20.87,33.83,29.97,2.92,2.15,5.8,4.44,8.73,6.49,2.96,1.86,5.88,4.05,8.84,5.67,2.95,1.53,5.92,3.5,8.82,4.49l4.38,1.84,5.02,1.55c6.69,2.14,13.49,3.39,20.26,4.34,6.77,.61,13.54,.92,20.16,.17,6.59-.75,13.1-2.04,19.27-4.28,6.15-2.25,12.01-5.21,17.39-8.87,5.38-3.65,10.28-7.99,14.45-12.88,4.25-5.05,8.13-10.8,11.53-16.86,6.88-12.11,11.79-25.53,14.93-39.34,6.14-27.75,4.46-57.16-3.17-85.21-3.79-14.06-9.03-27.82-15.31-41.18-3.07-6.71-6.65-13.21-10.17-19.75-3.8-6.4-7.5-12.85-11.69-19.05-3.95-6.33-8.49-12.33-12.76-18.48-4.65-5.91-8.99-12.03-13.92-17.76l-7.21-8.71-7.53-8.47c-4.95-5.83-10.25-10.8-15.38-16.15-2.5-2.72-5.43-5.03-8.14-7.55-2.77-2.46-5.48-4.98-8.3-7.39l-8.73-6.95c-2.9-2.33-5.78-4.67-8.88-6.77-6.09-4.31-12.08-8.76-18.5-12.65l-9.47-6.03-9.77-5.61c-13.01-7.52-26.58-14.16-40.26-20.57-6.94-3-13.85-6.1-20.88-8.94-7.09-2.71-14.06-5.7-21.26-8.15-28.58-10.34-57.91-18.93-87.7-25.8-29.79-6.89-59.97-12.35-90.36-16.42-15.19-2.05-30.42-3.83-45.68-5.23-15.18-1.37-30.7-2.48-45.54-2.93h-.28c-7.19-.22-12.85-6.23-12.64-13.42,.21-7.14,6.13-12.76,13.25-12.64"/>
            <g class="cls-25">
              <path class="cls-17" d="M1986.52,1288.62c-37.6,34.4-79.42,61.85-123.71,82.36-22.71,10.51-46.04,19.21-69.81,26.06-89.1,25.79-184.28,26.03-273.77,.83-9.02-2.58-18.01-5.37-26.95-8.43-24.45-8.43-48.38-18.82-71.53-31.19-13.95-7.45-27.63-15.61-40.96-24.49-5.01-3.32-9.94-6.74-14.84-10.27-20.87-14.96-40.81-31.73-59.6-50.3-6.17-6.21-12.23-12.5-18.02-18.88-4.01-4.42-7.92-8.87-11.75-13.41-7.51-8.88-14.66-17.96-21.46-27.25-7.21-9.88-14.01-19.94-20.39-30.21,79.04-5.55,137.57-23.84,137.57-23.84l3.98,81.59,523.4,1.69c-2.58,10.89-5.23,21.58-7.93,32.09,25.97,2.46,59.15,6.65,95.75,13.65"/>
            </g>
            <path class="cls-2" d="M1154.06,905.93c9.48,80.47,39.37,159.05,89.62,227.74,10.26,14,21.3,27.58,33.21,40.66,5.78,6.38,11.82,12.65,18.02,18.85,18.79,18.6,38.71,35.37,59.57,50.33,17.95,12.94,36.63,24.51,55.8,34.74,23.14,12.37,47.09,22.75,71.55,31.19,8.93,3.05,17.92,5.85,26.95,8.42,165.48,46.6,350.43,6.19,480.41-121.66,191.52-188.3,191.15-494.96-.75-684.93-36.99-36.57-78.38-66.23-122.5-88.76-5.13-2.68-10.36-5.23-15.64-7.66-14.07-6.6-28.36-12.51-42.86-17.71-33.53-12.02-68.11-20.31-103.02-24.9-34.9-4.62-70.23-5.53-105.23-2.72-11.13,.89-22.22,2.13-33.31,3.78-16.6,2.47-33.07,5.74-49.43,9.93-81.47,20.62-158.52,62.29-222.31,125.03-110.17,108.32-156.83,255.77-140.11,397.68"/>
            <path class="cls-17" d="M1643.91,1337.85c-45.2,0-90.78-6.13-135.48-18.72-9.1-2.6-18.19-5.43-27.02-8.45-24.8-8.56-48.93-19.08-71.74-31.28-19.5-10.41-38.33-22.13-55.95-34.84-21.06-15.1-41.16-32.08-59.73-50.46-6.77-6.77-12.67-12.95-18.07-18.91-11.7-12.85-22.9-26.57-33.3-40.77-49.09-67.1-80.17-146.06-89.87-228.36-17.49-148.45,33.71-293.79,140.49-398.77,61.75-60.73,138.83-104.08,222.91-125.36,15.93-4.08,32.6-7.43,49.56-9.96,10.87-1.62,22.11-2.89,33.4-3.79,35.09-2.81,70.58-1.89,105.5,2.73,35.26,4.63,70.01,13.03,103.29,24.97,14.51,5.21,28.97,11.19,42.98,17.76,5.65,2.61,10.78,5.12,15.69,7.69,45.02,23,86.34,52.94,122.81,88.99,93.43,92.5,144.77,215.16,144.54,345.4-.22,129.2-51.29,250.45-143.8,341.4-92.87,91.35-217.98,140.71-346.21,140.71Zm-488.55-432.08c9.65,81.85,40.55,160.39,89.38,227.12,10.34,14.12,21.49,27.77,33.12,40.56,5.37,5.93,11.24,12.08,17.97,18.81,18.47,18.28,38.46,35.17,59.41,50.19,17.53,12.64,36.26,24.3,55.66,34.65,22.69,12.13,46.69,22.6,71.36,31.11,8.78,2.99,17.82,5.82,26.88,8.4,170.61,48.04,354.2,1.55,479.13-121.34,92-90.46,142.79-211.04,143.01-339.54,.22-129.53-50.83-251.53-143.76-343.53-36.27-35.86-77.38-65.65-122.17-88.53-4.88-2.55-9.97-5.05-15.59-7.64-13.94-6.54-28.32-12.49-42.75-17.67-33.11-11.87-67.68-20.23-102.75-24.84-34.74-4.6-70.05-5.51-104.95-2.72-11.23,.89-22.4,2.16-33.22,3.77-16.87,2.51-33.45,5.84-49.3,9.9-83.64,21.17-160.31,64.29-221.72,124.69-106.19,104.4-157.12,248.95-139.72,396.59Z"/>
            <g class="cls-25">
              <path class="cls-17" d="M1989.2,1196.19c-129.98,127.88-314.95,168.29-480.42,121.66-9.04-2.55-18.02-5.36-26.93-8.41-24.46-8.43-48.4-18.83-71.55-31.18-19.16-10.25-37.86-21.81-55.8-34.74-20.88-14.96-40.79-31.73-59.59-50.33-6.17-6.22-12.22-12.48-18.02-18.85-11.91-13.1-22.93-26.69-33.19-40.68-50.26-68.69-80.16-147.26-89.63-227.75-5.22-44.2-4.28-88.98,2.82-132.93,10.82,76.6,40.24,151.11,88.18,216.65,10.23,14.02,21.29,27.58,33.2,40.68,5.76,6.38,11.81,12.63,18.02,18.85,18.81,18.6,38.71,35.37,59.56,50.33,17.97,12.93,36.63,24.49,55.8,34.74,23.15,12.35,47.11,22.75,71.55,31.18,8.95,3.05,17.92,5.85,26.96,8.41,165.47,46.62,350.42,6.21,480.42-121.66,75.86-74.58,121.57-167.73,137.24-264.81,20.61,145.32-25.57,297.71-138.62,408.84"/>
            </g>
            <path class="cls-17" d="M1643.9,1346.64c-46,0-92.36-6.24-137.85-19.04-9.27-2.64-18.5-5.53-27.47-8.59-25.27-8.72-49.83-19.43-73.05-31.84-19.84-10.59-39.01-22.52-56.95-35.46-21.42-15.36-41.87-32.64-60.77-51.34-6.9-6.9-12.91-13.19-18.4-19.26-11.89-13.07-23.29-27.03-33.87-41.47-49.99-68.32-81.63-148.72-91.5-232.52h0c-17.81-151.16,34.33-299.17,143.05-406.06,62.85-61.82,141.32-105.95,226.91-127.62,16.19-4.15,33.17-7.56,50.42-10.13,11.07-1.65,22.51-2.95,33.99-3.86,35.7-2.86,71.82-1.93,107.35,2.78,35.87,4.71,71.23,13.26,105.11,25.41,14.77,5.31,29.49,11.39,43.74,18.08,5.73,2.65,10.99,5.22,16.02,7.86,45.75,23.37,87.81,53.84,124.92,90.53,95.12,94.17,147.38,219.06,147.15,351.66-.23,131.57-52.23,255.04-146.43,347.66-94.53,92.98-221.88,143.23-352.38,143.23Zm-479.81-441.89c9.47,80.35,39.81,157.44,87.74,222.96,10.16,13.87,21.1,27.27,32.53,39.83,5.28,5.84,11.06,11.89,17.69,18.51,18.11,17.92,37.74,34.51,58.32,49.26,17.23,12.42,35.62,23.87,54.67,34.04,22.28,11.92,45.86,22.19,70.09,30.55,8.61,2.94,17.51,5.72,26.42,8.26,167.55,47.17,347.87,1.53,470.56-119.15,90.31-88.8,140.17-207.16,140.39-333.28,.22-127.16-49.91-246.93-141.16-337.27-35.63-35.22-76-64.48-119.99-86.95-4.82-2.52-9.79-4.96-15.27-7.49-13.74-6.45-27.87-12.29-42.04-17.38-32.51-11.66-66.47-19.87-100.92-24.39-34.13-4.52-68.81-5.41-103.1-2.67-11.03,.88-22.01,2.12-32.63,3.7-16.57,2.47-32.85,5.74-48.41,9.72-82.15,20.8-157.43,63.13-217.73,122.44-104.24,102.48-154.22,244.38-137.16,389.29h0Z"/>
            <path class="cls-17" d="M1643.89,1349.57c-46.26,0-92.9-6.28-138.64-19.16-9.33-2.66-18.61-5.56-27.62-8.64-25.42-8.77-50.13-19.54-73.48-32.03-19.96-10.65-39.23-22.65-57.28-35.67-21.54-15.44-42.11-32.82-61.12-51.64-6.95-6.95-12.99-13.27-18.51-19.37-11.95-13.14-23.42-27.18-34.06-41.71-50.29-68.73-82.12-149.61-92.05-233.91h0c-17.92-152.07,34.54-300.96,143.91-408.49,63.22-62.19,142.15-106.58,228.25-128.37,16.28-4.17,33.35-7.6,50.71-10.19,11.14-1.66,22.64-2.96,34.19-3.88,35.91-2.88,72.23-1.94,107.97,2.79,36.07,4.74,71.64,13.34,105.71,25.55,14.86,5.34,29.66,11.45,44,18.19,5.76,2.66,11.06,5.26,16.14,7.91,46,23.49,88.3,54.14,125.62,91.04,95.68,94.73,148.25,220.36,148.02,353.75-.23,132.36-52.54,256.57-147.3,349.74-95.09,93.53-223.17,144.07-354.44,144.07Zm-476.89-445.17c9.41,79.85,39.56,156.46,87.2,221.57,10.09,13.78,20.97,27.1,32.33,39.59,5.25,5.8,11,11.82,17.59,18.41,17.99,17.8,37.5,34.29,57.95,48.95,17.13,12.35,35.41,23.73,54.35,33.84,22.15,11.84,45.58,22.06,69.66,30.37,8.55,2.92,17.4,5.68,26.27,8.21,166.54,46.89,345.76,1.52,467.7-118.42,89.75-88.24,139.3-205.87,139.51-331.2,.22-126.37-49.61-245.4-140.29-335.18-35.41-35.01-75.54-64.09-119.26-86.42-4.8-2.51-9.73-4.92-15.17-7.44-13.68-6.42-27.72-12.22-41.8-17.28-32.32-11.59-66.07-19.74-100.31-24.24-33.93-4.49-68.41-5.39-102.49-2.65-10.97,.87-21.88,2.11-32.43,3.68-16.47,2.45-32.66,5.7-48.11,9.66-81.66,20.67-156.48,62.75-216.41,121.69-103.58,101.84-153.26,242.86-136.3,386.86h0Z"/>
            <path class="cls-17" d="M1184.5,1026.51c192.38,290.54,608.85,304.95,756.88-4.42,100.71-210.48-30.97-471.41-242.61-555.01-154.04-60.85-331.03-53.92-490.78,155.59,0,0-56.14,103.6-55.62,187.75,.51,84.14,15.41,165.96,15.41,165.96l16.73,50.14Z"/>
            <path class="cls-3" d="M1941.36,1022.08c-148.02,309.37-564.5,294.95-756.88,4.44l-3.38-10.17c272.84,169.2,636.01,113.2,791.59-196.81,8.71,67.84-.26,137.58-31.33,202.54"/>
            <path class="cls-17" d="M1585.8,1312.34c-80.07,0-161.81-19.28-237.17-57.19l-1.74-1.05c-21.57-15.46-42.14-32.84-61.15-51.66-6.95-6.95-12.99-13.27-18.51-19.37-11.95-13.14-23.42-27.18-34.06-41.71-50.29-68.73-82.12-149.61-92.05-233.91h0c-17.92-152.07,34.54-300.96,143.91-408.49,63.22-62.19,142.15-106.58,228.25-128.37l1.3-.33,1.34-.06c64.81-2.81,133.55,9.94,204.3,37.9,127.35,50.3,234.37,159.29,286.29,291.53,46.76,119.1,44.4,243.42-6.63,350.06-55.55,116.08-146.09,198.33-261.82,237.86-48.54,16.58-100.05,24.78-152.25,24.78Zm-224.55-80.01c118.05,59.08,252.25,70.23,368.37,30.56,108.95-37.22,194.27-114.83,246.73-224.45,47.88-100.05,49.97-217,5.88-329.29-49.33-125.63-150.86-229.11-271.6-276.81-66.84-26.41-131.49-38.56-192.26-36.15-81.11,20.78-155.46,62.72-215.07,121.35-103.59,101.85-153.27,242.85-136.3,386.86,9.41,79.85,39.56,156.46,87.2,221.57,10.09,13.78,20.97,27.1,32.33,39.59,5.25,5.8,11,11.82,17.59,18.41,17.74,17.56,36.98,33.84,57.13,48.36Z"/>
            <path class="cls-17" d="M1582.67,1255.22c-157.44,0-309.72-84.42-403.09-225.44l-.43-.65-17.18-51.69c-.15-.82-14.99-83.3-15.5-166.98-.52-84.69,54.02-186.31,56.34-190.6l.5-.77c137.69-180.57,305.13-233.56,497.66-157.51,111.85,44.18,205.87,139.94,251.5,256.14,41.02,104.47,38.99,213.47-5.73,306.92-64.91,135.65-186.53,219.31-333.67,229.52-10.13,.7-20.27,1.05-30.37,1.05Zm-392.81-231.32c97.07,146.13,258.81,229.8,422.36,218.47,142.78-9.91,260.81-91.13,323.83-222.83,43.28-90.46,45.2-196.12,5.39-297.5-44.45-113.21-135.98-206.47-244.84-249.47-186.88-73.83-349.59-22.24-483.63,153.3-3.73,7.03-55.19,105.44-54.7,184.5,.49,79.66,14.12,158.2,15.24,164.54l16.34,48.99Z"/>
            <path class="cls-2" d="M2151.52,1083.23c-30.41,90.54-110.18,148.44-178.19,129.3-68.01-19.14-98.49-108.06-68.08-198.6,.18-.57,.4-1.17,.61-1.73,30.82-89.54,110.05-146.57,177.58-127.56,52.54,14.78,82.67,71.21,79.66,137.85-.9,19.62-4.67,40.16-11.59,60.74"/>
            <g class="cls-25">
              <path class="cls-17" d="M2151.52,1083.23c-30.41,90.54-110.18,148.44-178.19,129.3-68.01-19.14-98.49-108.06-68.08-198.6,.18-.57,.4-1.17,.61-1.73,4.35,11.4,12.92,23.82,29.72,25.17,29.43,2.36,98.54-41.91,98.54-41.91,0,0,56.01,11.36,128.98,27.03-.9,19.62-4.67,40.16-11.59,60.74"/>
            </g>
            <path class="cls-17" d="M1999.74,1229.15c-10.09,0-20.12-1.32-29.93-4.09-30.08-8.47-54.42-28.9-70.38-59.1-22.92-43.36-25.29-100.29-6.52-156.19,32.54-96.88,119.59-158.66,194.08-137.67,30.08,8.47,54.42,28.9,70.38,59.1,22.92,43.36,25.29,100.29,6.52,156.19h0c-28.25,84.12-97.61,141.76-164.15,141.76Zm56.71-335.17c-55.38,0-114.18,50.69-138.83,124.09-16.27,48.44-14.45,99.18,4.86,135.71,12.54,23.73,31.35,39.7,54.4,46.19,7.68,2.16,15.55,3.2,23.48,3.2,55.39,0,114.18-50.68,138.83-124.09h0c16.27-48.44,14.46-99.18-4.85-135.71-12.54-23.73-31.36-39.7-54.4-46.19-7.68-2.16-15.55-3.2-23.48-3.2Z"/>
            <path class="cls-2" d="M2137.57,1151.96c-44.75,59.65-114.48,73.65-155.75,31.26-41.27-42.39-38.45-125.1,6.3-184.75,44.75-59.65,114.48-73.65,155.75-31.26,41.27,42.38,38.45,125.1-6.3,184.75"/>
            <path class="cls-17" d="M2039.84,1209.08c-22.76,0-43.05-8.54-59-24.92-41.65-42.78-38.88-126.45,6.19-186.52,25.12-33.48,58.95-53.94,92.83-56.12,25.17-1.61,47.66,6.93,64.98,24.73,41.65,42.77,38.87,126.44-6.19,186.51h0c-25.12,33.48-58.95,53.94-92.83,56.12-2.01,.13-4.01,.19-5.99,.19Zm45.99-265.02c-1.91,0-3.84,.06-5.79,.19-33.08,2.13-66.19,22.19-90.83,55.03-44.29,59.04-47.17,141.13-6.41,182.99,16.75,17.21,38.5,25.49,62.85,23.9,33.08-2.13,66.19-22.19,90.83-55.03l1.09,.82-1.09-.82c44.29-59.04,47.16-141.13,6.41-182.98-15.41-15.83-35.05-24.09-57.06-24.09Z"/>
            <g class="cls-25">
              <path class="cls-17" d="M1951.09,1099.46c1.93-25.97,11.08-51.46,25.07-73.62,.66,59.6,42.68,97.76,98.11,86.56,35.82-7.23,68.99-33.44,90.61-67.73,.07,3.76-.08,7.64-.36,11.57-4.95,66.11-56.73,129.38-115.67,141.31-58.94,11.93-102.69-32.02-97.75-98.1"/>
            </g>
            <path class="cls-17" d="M2036.98,1220.86c-7.22,0-14.36-.92-21.34-2.82-22.45-6.13-40.7-21.38-52.77-44.12-18.58-34.99-20.04-84.18-3.91-131.59,27.22-80,96.47-132.22,154.39-116.4,22.45,6.13,40.69,21.38,52.76,44.11,18.58,34.99,20.05,84.18,3.92,131.59h0c-23.94,70.36-80.4,119.23-133.05,119.23Zm54.19-271.81c-41.44,0-87.22,41.95-107.54,101.68-13.86,40.72-13.01,82.2,2.26,110.96,8.61,16.22,21.27,27.01,36.61,31.2,44.88,12.26,99.98-32.45,122.85-99.66,13.85-40.72,13.01-82.21-2.27-110.97-8.61-16.22-21.27-27-36.61-31.19-5-1.36-10.12-2.02-15.31-2.02Zm66.52,148.38h0Z"/>
            <g class="cls-4">
              <path class="cls-2" d="M1768.7,596.65s-206.99-67.08-363.93,3.47c-.17,.07-.33,.15-.5,.22-33.02,14.88-61.31,38.33-82.09,67.67-27.48,38.81-40.63,69.55-51.14,97.06-31.94,83.69-31.01,128.88-31.01,128.88-31.47-62.4-39.56-122.85-13.66-192.82,2.57-6.89,5.48-13.9,8.7-21.01,.73-1.64,1.5-3.24,2.3-4.85-.03-.03,0-.06,.06-.09,7.55-13.92,18.16-31.85,31.86-51.07,41.27-58.01,110.36-127.93,207.13-136.03,180.95-15.16,302.6,102.46,292.26,108.57"/>
            </g>
            <g class="cls-4">
              <path class="cls-2" d="M1761.23,855.95c-4.13,41.44,21.76,78.03,57.82,81.73,36.07,3.7,68.65-26.9,72.79-68.34,4.13-41.44-21.75-78.03-57.82-81.73-36.07-3.69-68.66,26.9-72.79,68.34"/>
            </g>
            <g class="cls-4">
              <path class="cls-2" d="M1785.85,998.46c-.24,17.2,11.7,31.38,26.67,31.66,14.96,.28,27.29-13.43,27.52-30.64,.23-17.2-11.7-31.37-26.67-31.65-14.96-.28-27.28,13.44-27.52,30.64"/>
            </g>
            <path class="cls-2" d="M1986.23,1548.47c100.39,75.6,98.29,182.79,149.34,169.68,33.15-8.51,30.95-62.85,27.54-104.07l-114.21-128.28-62.68,62.68Z"/>
            <path class="cls-17" d="M1994.06,1538.06c24.49,18.38,45.84,40.98,63.25,65.88,8.76,12.41,16.53,25.39,23.83,38.38,7.29,12.97,14.02,26.13,21.08,38.18,3.5,5.99,7.09,11.74,10.89,16.32,3.81,4.65,7.56,7.68,10.73,8.66,1.63,.56,3.39,.74,5.55,.59,1.06-.11,2.33-.28,3.41-.56,1.09-.21,2.08-.57,3.07-.92,3.81-1.53,7.12-4.7,9.97-9.51,2.86-4.75,4.84-10.88,6.33-17.28,1.53-6.43,2.48-13.29,3.1-20.25,1.18-13.96,1.32-28.39,1.34-42.95v-.02c0-3.61,2.94-6.53,6.55-6.53,3.24,0,5.93,2.38,6.44,5.48,2.39,14.54,4.44,29.32,4.79,44.58,.19,15.22-.1,31.14-7.5,47.76-1.92,4.11-4.44,8.22-7.77,11.98-3.3,3.75-7.46,7.11-12.11,9.52-2.34,1.16-4.73,2.19-7.17,2.93-2.42,.79-4.75,1.25-7.3,1.66-5.08,.67-10.77,.49-16.15-1.06-5.4-1.49-10.22-4.2-14.12-7.23-3.96-3.03-7.15-6.36-9.88-9.72-5.47-6.72-9.56-13.46-13.37-20.1-7.41-13.33-13.76-26.31-20.71-38.85-6.87-12.55-14.23-24.6-22.3-36.08-16.07-22.97-35.36-43.34-57.61-60.05-5.76-4.32-6.92-12.49-2.59-18.25,4.32-5.75,12.49-6.91,18.25-2.59l.03,.02Z"/>
            <path class="cls-17" d="M1959.28,1545.79c-.23,0-.46,0-.69-.02-7.18-.37-12.7-6.49-12.33-13.67,.1-1.94,2.69-48.06,24.1-98.27,28.93-67.85,78.43-110.2,143.15-122.48,7.07-1.34,13.89,3.3,15.23,10.37,1.34,7.07-3.3,13.89-10.37,15.23-56.36,10.69-97.99,46.49-123.74,106.42-19.78,46.02-22.31,89.64-22.33,90.07-.37,6.95-6.12,12.34-13,12.34Z"/>
            <path class="cls-17" d="M1150.74,2000.01c-6.18,0-11.67-4.41-12.81-10.71-20.4-112.53-65.03-197.2-129.07-244.87-48.04-35.76-90.74-38.49-91.16-38.51-7.17-.39-12.69-6.51-12.32-13.68,.37-7.17,6.39-12.75,13.61-12.35,2,.09,49.7,2.78,103.87,42.48,49.02,35.92,113.22,110.57,140.72,262.29,1.28,7.08-3.42,13.86-10.5,15.14-.79,.15-1.57,.21-2.34,.21Z"/>
          </g>
        </g>
      </g>
      <circle class="cls-11" cx="1178.5" cy="1178.5" r="1167"/>
    </g>
  </g>
</svg>