<?xml version="1.0" encoding="UTF-8"?>
<svg id="Layer_2" data-name="Layer 2" xmlns="http://www.w3.org/2000/svg" xmlns:xlink="http://www.w3.org/1999/xlink" viewBox="0 0 677.51 677.51">
  <defs>
    <style>
      .cls-1 {
        fill: #fff;
      }

      .cls-2 {
        fill: #4d56e8;
      }

      .cls-3 {
        fill: #303b89;
        filter: url(#outer-glow-1);
      }

      .cls-4 {
        fill: #6270ef;
      }

      .cls-5 {
        fill: #8d98ff;
      }

      .cls-6 {
        clip-path: url(#clippath);
      }

      .cls-7 {
        fill: none;
      }
    </style>
    <clipPath id="clippath">
      <path class="cls-7" d="M524.11,195.69v251.85c0,10.22-2,20.18-5.75,29.4-2.14,5.28-4.86,10.32-8.11,15.01-1.05,1.52-2.16,3.01-3.32,4.45-4.57,5.73-9.99,10.84-16.15,15.15l-22.84,15.99-4.91,3.43-6.53,4.57-10.43,7.29-33.07,23.15-7.97,5.58-3.88,2.71-16.56,11.59c-5.13,3.59-10.59,6.5-16.25,8.72-9.65,3.79-19.89,5.58-30.1,5.37-2.5-.05-5-.22-7.49-.52-1.51-.17-3.01-.39-4.51-.65-10.83-1.89-21.34-6.1-30.79-12.61l-24.06-16.59-10.7-7.38-3.36-2.31-.88-.6-11.48-7.92-3.8-2.62-3.5-2.41-15.14-10.45-7.36-5.08-.63-.44-4.22-2.91-12.85-8.85-10.3-7.1c-8.59-5.92-15.77-13.4-21.27-21.91-1.23-1.91-2.38-3.88-3.44-5.89-5.87-11.1-9.07-23.6-9.07-36.52V195.69c0-43.14,34.98-78.12,78.12-78.12h214.48c24.67,0,46.68,11.44,60.99,29.31,2.36,2.94,4.51,6.06,6.43,9.34,6.8,11.58,10.7,25.07,10.7,39.47Z"/>
    </clipPath>
    <filter id="outer-glow-1" filterUnits="userSpaceOnUse">
      <feOffset dx="0" dy="0"/>
      <feGaussianBlur result="blur" stdDeviation="9"/>
      <feFlood flood-color="#1a61ff" flood-opacity=".78"/>
      <feComposite in2="blur" operator="in"/>
      <feComposite in="SourceGraphic"/>
    </filter>
  </defs>
  <g id="Layer_1-2" data-name="Layer 1">
    <g>
      <circle class="cls-2" cx="338.75" cy="338.75" r="338.75"/>
      <path d="M446.12,97.25H231.38c-54.17,0-98.24,44.07-98.24,98.24v251.81c0,32.31,15.88,62.54,42.48,80.88l108.41,74.75c16.47,11.36,35.76,17.36,55.77,17.36s39.73-6.14,56.33-17.75l106.32-74.4c26.24-18.37,41.91-48.46,41.91-80.49V195.49c0-54.17-44.07-98.24-98.24-98.24Zm88.23,350.4c0,28.76-14.07,55.79-37.65,72.29l-106.32,74.4c-14.9,10.43-32.39,15.94-50.58,15.94s-35.29-5.39-50.08-15.59l-108.42-74.75c-23.89-16.47-38.15-43.63-38.15-72.64V195.49c0-48.65,39.58-88.23,88.23-88.23h214.74c48.65,0,88.23,39.58,88.23,88.23v252.16Z"/>
      <g class="cls-6">
        <path d="M524.11,195.69v251.85c0,10.22-2,20.18-5.75,29.4-2.14,5.28-4.86,10.32-8.11,15.01-1.05,1.52-2.16,3.01-3.32,4.45-4.57,5.73-9.99,10.84-16.15,15.15l-22.84,15.99-4.91,3.43-6.53,4.57-10.43,7.29-33.07,23.15-7.97,5.58-3.88,2.71-16.56,11.59c-5.13,3.59-10.59,6.5-16.25,8.72-9.65,3.79-19.89,5.58-30.1,5.37-2.5-.05-5-.22-7.49-.52-1.51-.17-3.01-.39-4.51-.65-10.83-1.89-21.34-6.1-30.79-12.61l-24.06-16.59-10.7-7.38-3.36-2.31-.88-.6-11.48-7.92-3.8-2.62-3.5-2.41-15.14-10.45-7.36-5.08-.63-.44-4.22-2.91-12.85-8.85-10.3-7.1c-8.59-5.92-15.77-13.4-21.27-21.91-1.23-1.91-2.38-3.88-3.44-5.89-5.87-11.1-9.07-23.6-9.07-36.52V195.69c0-43.14,34.98-78.12,78.12-78.12h214.48c24.67,0,46.68,11.44,60.99,29.31,2.36,2.94,4.51,6.06,6.43,9.34,6.8,11.58,10.7,25.07,10.7,39.47Z"/>
        <path class="cls-3" d="M513.41,156.22c-12.18,6.4-24.26,15.29-34.28,27.71-47.69,59.17-6.79,146.85-48.25,170.05-22.35,12.5-42.73-8.22-60.51,6.89-26.46,22.48,9.49,76.12-16.85,107.23-23.8,28.11-67.06,.8-94.98,28.34-14.75,14.56-15.36,34.69-13.57,54.93l-3.8-2.62-3.5-2.41-15.14-10.45-7.36-5.08-.63-.44-4.22-2.91-12.85-8.85-10.3-7.1c-8.59-5.92-15.77-13.4-21.27-21.91-1.23-1.91-2.38-3.88-3.44-5.89,9.98,.04,19.32-2.23,27.14-8.71,11.5-9.52,5.05-15.97,17.62-35.24,28.32-43.42,73.02-29.02,102.64-70.47,15.04-21.04,8.65-31.95,25.27-44.42,22.77-17.08,42.45-2.41,62.81-14.55,31.35-18.71,9.35-68.22,35.24-111.83,16.26-27.41,45.81-43,73.8-51.61,2.36,2.94,4.51,6.06,6.43,9.34Z"/>
        <g>
          <path class="cls-1" d="M219.27,231.3c3.14,1.81,4.71,4.54,4.71,8.19,0,3.04-1.08,5.53-3.23,7.48s-4.8,2.92-7.94,2.92h-15.21v-35.85h14.13c3.07,0,5.66,.95,7.76,2.84,2.1,1.89,3.15,4.31,3.15,7.25s-1.13,5.36-3.38,7.17Zm-7.53-10.65h-7.07v7.89h7.07c1.09,0,2.01-.38,2.74-1.13,.73-.75,1.1-1.69,1.1-2.82s-.36-2.07-1.08-2.82-1.64-1.13-2.77-1.13Zm1.08,22.64c1.2,0,2.18-.4,2.97-1.2,.79-.8,1.18-1.82,1.18-3.05s-.39-2.19-1.18-3c-.79-.8-1.78-1.2-2.97-1.2h-8.14v8.45h8.14Z"/>
          <path class="cls-1" d="M248.26,249.89l-7.25-12.44h-5.35v12.44h-7.07v-35.85h14.34c3.31,0,6.13,1.16,8.45,3.48,2.32,2.32,3.48,5.12,3.48,8.4,0,2.22-.63,4.28-1.89,6.17-1.26,1.9-2.94,3.32-5.02,4.28l7.94,13.52h-7.63Zm-12.6-29.24v10.6h7.27c1.33,0,2.47-.52,3.43-1.56,.96-1.04,1.43-2.29,1.43-3.76s-.48-2.71-1.43-3.74c-.96-1.02-2.1-1.54-3.43-1.54h-7.27Z"/>
          <path class="cls-1" d="M260.04,214.04h7.07v35.85h-7.07v-35.85Z"/>
          <path class="cls-1" d="M308.95,230.63v2.77c0,5.12-1.64,9.27-4.92,12.44-3.28,3.18-7.51,4.76-12.7,4.76-5.53,0-10.12-1.8-13.75-5.4-3.64-3.6-5.45-8-5.45-13.19s1.8-9.65,5.4-13.26,8.07-5.43,13.39-5.43c3.35,0,6.4,.76,9.17,2.28,2.76,1.52,4.92,3.54,6.45,6.07l-6.04,3.48c-.85-1.47-2.14-2.66-3.87-3.58-1.72-.92-3.65-1.38-5.76-1.38-3.42,0-6.22,1.12-8.42,3.35-2.2,2.24-3.3,5.06-3.3,8.48s1.12,6.17,3.35,8.37,5.2,3.3,8.89,3.3c2.73,0,4.99-.61,6.79-1.82,1.79-1.21,3.01-2.88,3.66-4.99h-10.86v-6.25h17.98Z"/>
          <path class="cls-1" d="M334.35,214.04h7.02v35.85h-7.02v-14.85h-13.32v14.85h-7.07v-35.85h7.07v14.24h13.32v-14.24Z"/>
          <path class="cls-1" d="M371.73,214.04v6.76h-9.68v29.09h-7.07v-29.09h-9.63v-6.76h26.38Z"/>
          <path class="cls-1" d="M382.61,249.89l-9.49-35.85h7.39l6.9,26.58,7.48-26.58h6.12l7.51,26.51,6.8-26.51h6.81l-9.42,35.85h-8.04l-6.79-23.79-6.74,23.79h-8.52Z"/>
          <path class="cls-1" d="M448.36,249.89l-2.28-6.45h-14.73l-2.15,6.45h-7.63l12.55-35.85h8.76l12.65,35.85h-7.17Zm-14.7-13.06h10.09l-5.17-14.65-4.92,14.65Z"/>
          <path class="cls-1" d="M482.71,214.04l-12.29,21.87v13.98h-7.02v-13.98l-12.24-21.87h7.99l7.77,14.93,7.8-14.93h7.99Z"/>
        </g>
        <g>
          <path class="cls-2" d="M524.11,409.63v37.91c0,17.98-6.19,35.16-17.18,48.86-4.57,5.73-9.99,10.84-16.15,15.15l-34.28,23.99-10.43,7.29-33.07,23.15-7.97,5.58-3.88,2.71-16.56,11.59c-5.13,3.59-10.59,6.5-16.25,8.72-13.45,5.28-28.04,6.68-42.1,4.2-10.83-1.89-21.34-6.1-30.79-12.61l-38.12-26.28-16.16-11.14-26-17.94-28-19.3c-21.15-14.58-33.78-38.63-33.78-64.32v-53.63c10.85,18.5,33.89,4.99,21.34-26.03,.53,.66,22.23,27.44,38.23,60.82,17.46-30.88,25.76-83.19,7.54-110.2,0,0,9.71,1.43,19.43,11.35,10.99,11.21,21.98,33.3,18.91,76.47-5.1,71.52,39.05,41.03,17.67-6.77,.54,.49,21.9,20.2,38.3,45.42-1.4-38.4,8.95-58.61,19.3-69.17,9.72-9.91,19.44-11.34,19.44-11.34-14.81,21.94-12.1,60.61-1.2,90.9,6.51-8.47,15.16-16.73,26.27-24.51,0,0,1.31,21.93,22.07,20.38,10.07-27.17,10.64-62.82-5.52-86.77,0,0,36.24,15.24,40.72,61.45,15.93-27.65,20.38-72.7,1.15-101.19,0,0,37.81,15.91,40.97,64.48,2.8,42.98,41.94,31.43,26.39-7.02,.34,.42,9.19,11.35,19.71,27.8Z"/>
          <polygon class="cls-2" points="524.11 488.29 524.11 488.22 524.04 488.29 524.11 488.29"/>
          <path class="cls-2" d="M362.14,615.34c.06-.23,.11-.46,.17-.7-.18,.17-.35,.35-.52,.53,.12,.06,.23,.11,.35,.17Z"/>
          <polygon class="cls-2" points="153.39 488.29 153.46 488.29 153.39 488.22 153.39 488.29"/>
        </g>
        <path class="cls-4" d="M493.13,426.49c8.26,24.95-16.15,31.02-16.43,3.6-.33-31-23.01-42.34-23.01-42.34,15.12,26.1,.96,71.17-19.18,77.88-20.13,6.7-20.24-12.25-20.24-12.25-17.37,11.26-25.76,24.86-27.87,38.1-2.48-2.23-5.23-4.41-8.27-6.54,0,0,3.75,31.26-16.88,23.44-20.63-7.81-37.82-66.11-20.63-91.58,0,0-26.68,3.91-26.68,50.54,0,3.06,.11,6.31,.36,9.75,3.5,49.11-26.81,28.17-12.12-4.65,0,0-10.06,9.22-19.98,22.25-4.84-18.03-11.2-31.81-11.2-31.81,3.63,26.06-21.49,27.63-16.81,.6,5.22-30.13-14.42-45.38-14.97-45.79,9.94,27.85-11.07,68.53-31.7,72.9-8.07-26.65-25.11-51.05-25.64-51.8,8.26,24.95-16.15,31.02-16.44,3.6-.16-15.88-6.2-26.6-12.05-33.28v38.08c0,15.26,4.46,29.94,12.51,42.41,5.5,8.51,12.68,15.99,21.27,21.91l10.3,7.1,12.85,8.85,4.22,2.91,.63,.44,7.36,5.08,18.64,12.86,16.16,11.14,14.06,9.69,24.06,16.59c9.45,6.51,19.96,10.72,30.79,12.61,1.5,.26,3,.48,4.51,.65,2.49,.3,4.99,.47,7.49,.52,10.21,.21,20.45-1.58,30.1-5.37,5.66-2.22,11.12-5.13,16.25-8.72l16.56-11.59,3.88-2.71,7.97-5.58,33.07-23.15,10.43-7.29,6.53-4.57,27.75-19.42c6.16-4.31,11.58-9.42,16.15-15.15,1.16-1.44,2.27-2.93,3.32-4.45,3.25-4.69,5.97-9.73,8.11-15.01-8.23-26.13-24.71-49.72-25.23-50.45Z"/>
        <g>
          <path class="cls-5" d="M256.45,559.29l-15.28-10.54-3.5-2.41c6.09-12.4,8.8-27.72,4.39-40.08,.47,.35,17.28,13.41,12.82,39.21-1.13,6.53-.23,11.11,1.57,13.82Z"/>
          <path class="cls-5" d="M467.94,527.54l-4.91,3.43-6.53,4.57-10.43,7.29-33.07,23.15-7.97,5.58-3.88,2.71-16.56,11.59c-5.13,3.59-10.59,6.5-16.25,8.72-9.65,3.79-19.89,5.58-30.1,5.37-2.5-.05-5-.22-7.49-.52-1.51-.17-3.01-.39-4.51-.65-10.83-1.89-21.34-6.1-30.79-12.61l-24.06-16.59-10.7-7.38c4.78,.71,10.26-5.23,8.58-17.25,0,0,5.44,11.8,9.59,27.24,8.49-11.16,17.1-19.05,17.1-19.05-12.57,28.1,13.38,46.02,10.38,3.98-.21-2.95-.31-5.73-.31-8.35,0-39.92,22.84-43.27,22.84-43.27-14.71,21.81,0,71.72,17.67,78.41,17.66,6.69,14.45-20.07,14.45-20.07,2.6,1.82,4.95,3.69,7.08,5.6,1.8-11.34,8.99-22.98,23.86-32.62,0,0,.09,16.22,17.33,10.49,17.24-5.75,29.36-44.32,16.43-66.67,.59,.3,19.41,10.11,19.69,36.24,.24,23.48,21.14,18.28,14.07-3.08,.22,.31,3.95,5.65,8.49,13.74Z"/>
        </g>
      </g>
    </g>
  </g>
</svg>