<?xml version="1.0" encoding="UTF-8"?>
<svg id="Layer_2" data-name="Layer 2" xmlns="http://www.w3.org/2000/svg" viewBox="0 0 677.51 677.51">
  <defs>
    <style>
      .cls-1 {
        fill: #fff;
      }

      .cls-2 {
        fill: #b671ff;
      }

      .cls-3 {
        fill: #a04bea;
      }

      .cls-4 {
        fill: #c99fff;
      }
    </style>
  </defs>
  <g id="Layer_1-2" data-name="Layer 1">
    <g>
      <circle class="cls-3" cx="338.75" cy="338.75" r="338.75"/>
      <path d="M524.11,195.69v251.85c0,10.22-2,20.18-5.75,29.4-2.14,5.28-4.86,10.32-8.11,15.01-1.05,1.52-2.16,3.01-3.32,4.45-4.57,5.73-9.99,10.84-16.15,15.15l-22.84,15.99-4.91,3.43-6.53,4.57-10.43,7.29-33.07,23.15-7.97,5.58-3.88,2.71-16.56,11.59c-5.13,3.59-10.59,6.5-16.25,8.72-9.65,3.79-19.89,5.58-30.1,5.37-2.5-.05-5-.22-7.49-.52-1.51-.17-3.01-.39-4.51-.65-10.83-1.89-21.34-6.1-30.79-12.61l-24.06-16.59-10.7-7.38-3.36-2.31-.88-.6-15.28-10.54-3.5-2.41-15.14-10.45-7.36-5.08-.63-.44-4.22-2.91-12.85-8.85-10.3-7.1c-8.59-5.92-15.77-13.4-21.27-21.91-8.05-12.47-12.51-27.15-12.51-42.41V195.69c0-43.14,34.98-78.12,78.12-78.12h214.48c43.14,0,78.12,34.98,78.12,78.12Z"/>
      <path d="M446.12,97.25H231.38c-54.17,0-98.24,44.07-98.24,98.24v251.81c0,32.31,15.88,62.54,42.48,80.88l108.41,74.75c16.47,11.36,35.76,17.36,55.77,17.36s39.73-6.14,56.33-17.75l106.32-74.4c26.24-18.37,41.91-48.46,41.91-80.49V195.49c0-54.17-44.07-98.24-98.24-98.24Zm88.23,350.4c0,28.76-14.07,55.79-37.65,72.29l-106.32,74.4c-14.9,10.43-32.39,15.94-50.58,15.94s-35.29-5.39-50.08-15.59l-108.42-74.75c-23.89-16.47-38.15-43.63-38.15-72.64V195.49c0-48.65,39.58-88.23,88.23-88.23h214.74c48.65,0,88.23,39.58,88.23,88.23v252.16Z"/>
      <g>
        <path class="cls-1" d="M215.3,211.4h-14.42v8.55h14.01v6.8h-14.01v13.91h-7.11v-36.05h21.53v6.8Z"/>
        <path class="cls-1" d="M221.06,204.6h7.11v36.05h-7.11v-36.05Z"/>
        <path class="cls-1" d="M255.21,240.66l-7.29-12.52h-5.38v12.52h-7.11v-36.05h14.42c3.33,0,6.16,1.17,8.5,3.5,2.33,2.33,3.5,5.15,3.5,8.45,0,2.23-.64,4.3-1.91,6.21-1.27,1.91-2.95,3.34-5.05,4.3l7.98,13.6h-7.67Zm-12.67-29.41v10.66h7.31c1.34,0,2.49-.52,3.45-1.57,.96-1.05,1.44-2.31,1.44-3.79s-.48-2.73-1.44-3.76c-.96-1.03-2.11-1.54-3.45-1.54h-7.31Z"/>
        <path class="cls-1" d="M279.37,241.38c-3.57,0-6.58-.8-9.01-2.39-2.44-1.6-4.15-3.77-5.15-6.52l6.08-3.55c1.41,3.67,4.17,5.51,8.29,5.51,1.99,0,3.45-.36,4.38-1.08,.93-.72,1.39-1.63,1.39-2.73,0-1.27-.57-2.26-1.7-2.96-1.13-.7-3.16-1.47-6.08-2.29-1.61-.48-2.98-.96-4.09-1.44-1.12-.48-2.23-1.12-3.35-1.93-1.12-.81-1.97-1.83-2.55-3.06-.58-1.24-.88-2.68-.88-4.33,0-3.26,1.16-5.86,3.48-7.8,2.32-1.94,5.11-2.91,8.37-2.91,2.92,0,5.49,.71,7.7,2.14s3.94,3.41,5.18,5.95l-5.97,3.45c-1.44-3.09-3.74-4.63-6.9-4.63-1.48,0-2.64,.33-3.48,1-.84,.67-1.26,1.54-1.26,2.6,0,1.13,.47,2.05,1.42,2.76,.94,.7,2.76,1.47,5.43,2.29,1.1,.34,1.93,.61,2.5,.8,.57,.19,1.34,.48,2.32,.88,.98,.4,1.73,.77,2.27,1.11,.53,.34,1.14,.81,1.83,1.39,.69,.58,1.21,1.19,1.57,1.8,.36,.62,.67,1.37,.93,2.24,.26,.88,.39,1.83,.39,2.86,0,3.33-1.21,5.97-3.63,7.93-2.42,1.96-5.57,2.94-9.45,2.94Z"/>
        <path class="cls-1" d="M320.21,204.6v6.8h-9.73v29.26h-7.11v-29.26h-9.68v-6.8h26.53Z"/>
        <path class="cls-1" d="M353.28,204.6l-12.36,21.99v14.06h-7.06v-14.06l-12.31-22h8.04l7.81,15.01,7.85-15.01h8.04Z"/>
        <path class="cls-1" d="M378.83,211.4h-14.42v8.55h14.01v6.8h-14.01v13.91h-7.11v-36.05h21.53v6.8Z"/>
        <path class="cls-1" d="M384.59,204.6h7.11v36.05h-7.11v-36.05Z"/>
        <path class="cls-1" d="M418.74,240.66l-7.29-12.52h-5.38v12.52h-7.11v-36.05h14.42c3.33,0,6.16,1.17,8.5,3.5s3.5,5.15,3.5,8.45c0,2.23-.64,4.3-1.91,6.21-1.27,1.91-2.95,3.34-5.05,4.3l7.98,13.6h-7.67Zm-12.67-29.41v10.66h7.31c1.34,0,2.49-.52,3.45-1.57,.96-1.05,1.44-2.31,1.44-3.79s-.48-2.73-1.44-3.76c-.96-1.03-2.11-1.54-3.45-1.54h-7.31Z"/>
        <path class="cls-1" d="M442.9,241.38c-3.57,0-6.58-.8-9.01-2.39-2.44-1.6-4.16-3.77-5.15-6.52l6.08-3.55c1.41,3.67,4.17,5.51,8.29,5.51,1.99,0,3.45-.36,4.38-1.08,.93-.72,1.39-1.63,1.39-2.73,0-1.27-.57-2.26-1.7-2.96-1.13-.7-3.16-1.47-6.08-2.29-1.62-.48-2.98-.96-4.09-1.44-1.12-.48-2.23-1.12-3.35-1.93-1.12-.81-1.97-1.83-2.55-3.06-.58-1.24-.88-2.68-.88-4.33,0-3.26,1.16-5.86,3.48-7.8,2.32-1.94,5.11-2.91,8.37-2.91,2.92,0,5.49,.71,7.7,2.14,2.21,1.42,3.94,3.41,5.18,5.95l-5.97,3.45c-1.44-3.09-3.74-4.63-6.9-4.63-1.48,0-2.64,.33-3.48,1-.84,.67-1.26,1.54-1.26,2.6,0,1.13,.47,2.05,1.42,2.76,.94,.7,2.75,1.47,5.43,2.29,1.1,.34,1.93,.61,2.5,.8,.57,.19,1.34,.48,2.32,.88,.98,.4,1.73,.77,2.27,1.11,.53,.34,1.14,.81,1.83,1.39,.69,.58,1.21,1.19,1.57,1.8,.36,.62,.67,1.37,.93,2.24,.26,.88,.39,1.83,.39,2.86,0,3.33-1.21,5.97-3.63,7.93s-5.57,2.94-9.45,2.94Z"/>
        <path class="cls-1" d="M483.74,204.6v6.8h-9.74v29.26h-7.11v-29.26h-9.68v-6.8h26.53Z"/>
      </g>
      <g>
        <path class="cls-3" d="M524.11,409.63v37.91c0,17.98-6.19,35.16-17.18,48.86-4.57,5.73-9.99,10.84-16.15,15.15l-34.28,23.99-10.43,7.29-33.07,23.15-7.97,5.58-3.88,2.71-16.56,11.59c-5.13,3.59-10.59,6.5-16.25,8.72-13.45,5.28-28.04,6.68-42.1,4.2-10.83-1.89-21.34-6.1-30.79-12.61l-38.12-26.28-16.16-11.14-26-17.94-28-19.3c-21.15-14.58-33.78-38.63-33.78-64.32v-53.63c10.85,18.5,33.89,4.99,21.34-26.03,.53,.66,22.23,27.44,38.23,60.82,17.46-30.88,25.76-83.19,7.54-110.2,0,0,9.71,1.43,19.43,11.35,10.99,11.21,21.98,33.3,18.91,76.47-5.1,71.52,39.05,41.03,17.67-6.77,.54,.49,21.9,20.2,38.3,45.42-1.4-38.4,8.95-58.61,19.3-69.17,9.72-9.91,19.44-11.34,19.44-11.34-14.81,21.94-12.1,60.61-1.2,90.9,6.51-8.47,15.16-16.73,26.27-24.51,0,0,1.31,21.93,22.07,20.38,10.07-27.17,10.64-62.82-5.52-86.77,0,0,36.24,15.24,40.72,61.45,15.93-27.65,20.38-72.7,1.15-101.19,0,0,37.81,15.91,40.97,64.48,2.8,42.98,41.94,31.43,26.39-7.02,.34,.42,9.19,11.35,19.71,27.8Z"/>
        <polygon class="cls-3" points="524.11 488.29 524.11 488.22 524.04 488.29 524.11 488.29"/>
        <path class="cls-3" d="M362.14,615.34c.06-.23,.11-.46,.17-.7-.18,.17-.35,.35-.52,.53,.12,.06,.23,.11,.35,.17Z"/>
        <polygon class="cls-3" points="153.39 488.29 153.46 488.29 153.39 488.22 153.39 488.29"/>
      </g>
      <path class="cls-2" d="M493.13,426.49c8.26,24.95-16.15,31.02-16.43,3.6-.33-31-23.01-42.34-23.01-42.34,15.12,26.1,.96,71.17-19.18,77.88-20.13,6.7-20.24-12.25-20.24-12.25-17.37,11.26-25.76,24.86-27.87,38.1-2.48-2.23-5.23-4.41-8.27-6.54,0,0,3.75,31.26-16.88,23.44-20.63-7.81-37.82-66.11-20.63-91.58,0,0-26.68,3.91-26.68,50.54,0,3.06,.11,6.31,.36,9.75,3.5,49.11-26.81,28.17-12.12-4.65,0,0-10.06,9.22-19.98,22.25-4.84-18.03-11.2-31.81-11.2-31.81,3.63,26.06-21.49,27.63-16.81,.6,5.22-30.13-14.42-45.38-14.97-45.79,9.94,27.85-11.07,68.53-31.7,72.9-8.07-26.65-25.11-51.05-25.64-51.8,8.26,24.95-16.15,31.02-16.44,3.6-.16-15.88-6.2-26.6-12.05-33.28v38.08c0,15.26,4.46,29.94,12.51,42.41,5.5,8.51,12.68,15.99,21.27,21.91l10.3,7.1,12.85,8.85,4.22,2.91,.63,.44,7.36,5.08,18.64,12.86,16.16,11.14,14.06,9.69,24.06,16.59c9.45,6.51,19.96,10.72,30.79,12.61,1.5,.26,3,.48,4.51,.65,2.49,.3,4.99,.47,7.49,.52,10.21,.21,20.45-1.58,30.1-5.37,5.66-2.22,11.12-5.13,16.25-8.72l16.56-11.59,3.88-2.71,7.97-5.58,33.07-23.15,10.43-7.29,6.53-4.57,27.75-19.42c6.16-4.31,11.58-9.42,16.15-15.15,1.16-1.44,2.27-2.93,3.32-4.45,3.25-4.69,5.97-9.73,8.11-15.01-8.23-26.13-24.71-49.72-25.23-50.45Z"/>
      <path class="cls-4" d="M256.45,559.29l-15.28-10.54-3.5-2.41c6.09-12.4,8.8-27.72,4.39-40.08,.47,.35,17.28,13.41,12.82,39.21-1.13,6.53-.23,11.11,1.57,13.82Z"/>
      <path class="cls-4" d="M467.94,527.54l-4.91,3.43-6.53,4.57-10.43,7.29-33.07,23.15-7.97,5.58-3.88,2.71-16.56,11.59c-5.13,3.59-10.59,6.5-16.25,8.72-9.65,3.79-19.89,5.58-30.1,5.37-2.5-.05-5-.22-7.49-.52-1.51-.17-3.01-.39-4.51-.65-10.83-1.89-21.34-6.1-30.79-12.61l-24.06-16.59-10.7-7.38c4.78,.71,10.26-5.23,8.58-17.25,0,0,5.44,11.8,9.59,27.24,8.49-11.16,17.1-19.05,17.1-19.05-12.57,28.1,13.38,46.02,10.38,3.98-.21-2.95-.31-5.73-.31-8.35,0-39.92,22.84-43.27,22.84-43.27-14.71,21.81,0,71.72,17.67,78.41,17.66,6.69,14.45-20.07,14.45-20.07,2.6,1.82,4.95,3.69,7.08,5.6,1.8-11.34,8.99-22.98,23.86-32.62,0,0,.09,16.22,17.33,10.49,17.24-5.75,29.36-44.32,16.43-66.67,.59,.3,19.41,10.11,19.69,36.24,.24,23.48,21.14,18.28,14.07-3.08,.22,.31,3.95,5.65,8.49,13.74Z"/>
    </g>
  </g>
</svg>